;TYPE=PLATED
;Layer: PTH_Through_Via
;EasyEDA Pro v2.1.42.467b0aa0, 2024-01-01 20:36:05
;Gerber Generator version 0.3
M48
METRIC,LZ,000.00000
;Hole size 1 = 0.30000 METRIC
T01C0.30000
%
G05
G90
T01
X02750000Y01375000
X02300000Y-00075000
X01575000Y00200000
X02075000Y00200000
X01850000Y-00375000
X00550000Y-00350000
X01254509Y00350000
X01100000Y-02800000
X01100000Y-02750000
X01100000Y-02700000
X01100000Y-02650000
X01100000Y-02600000
X01100000Y-02550000
X01100000Y-02500000
X01100000Y-02450000
X00950000Y-02800000
X00950000Y-02750000
X00950000Y-02700000
X00950000Y-02650000
X00950000Y-02600000
X00950000Y-02550000
X00950000Y-02500000
X00950000Y-02450000
X02250000Y-02450000
X02250000Y-02500000
X02250000Y-02550000
X02250000Y-02600000
X02250000Y-02700000
X02250000Y-02650000
X02250000Y-02750000
X02250000Y-02800000
X02400000Y-02800000
X02400000Y-02750000
X02400000Y-02700000
X02400000Y-02650000
X02400000Y-02600000
X02400000Y-02550000
X02400000Y-02500000
X02400000Y-02450000
X02450000Y-02400000
X02500000Y-02400000
X02550000Y-02400000
X02600000Y-02400000
X02700000Y-02400000
X02650000Y-02400000
X02750000Y-02400000
X02800000Y-02400000
X02800000Y-02250000
X02750000Y-02250000
X02700000Y-02250000
X02650000Y-02250000
X02600000Y-02250000
X02550000Y-02250000
X02500000Y-02250000
X02450000Y-02250000
X02500000Y01500000
X02550000Y01500000
X02600000Y01500000
X02700000Y01500000
X02650000Y01500000
X02750000Y01500000
X02800000Y01500000
X02800000Y01650000
X02750000Y01650000
X02700000Y01650000
X02650000Y01650000
X02600000Y01650000
X02550000Y01650000
X02500000Y01650000
X02450000Y01650000
X01650000Y02450000
X01650000Y02500000
X01650000Y02550000
X01650000Y02600000
X01650000Y02700000
X01650000Y02650000
X01650000Y02750000
X01650000Y02800000
X01500000Y02800000
X01500000Y02750000
X01500000Y02700000
X01500000Y02650000
X01500000Y02600000
X01500000Y02550000
X01500000Y02500000
X01500000Y02450000
X00350000Y02450000
X00350000Y02500000
X00350000Y02550000
X00350000Y02600000
X00350000Y02700000
X00350000Y02650000
X00350000Y02750000
X00350000Y02800000
X00200000Y02800000
X00200000Y02750000
X00200000Y02700000
X00200000Y02650000
X00200000Y02600000
X00200000Y02550000
X00200000Y02500000
X00200000Y02450000
X-00950000Y02450000
X-00950000Y02500000
X-00950000Y02550000
X-00950000Y02600000
X-00950000Y02700000
X-00950000Y02650000
X-00950000Y02750000
X-00950000Y02800000
X-01100000Y02800000
X-01100000Y02750000
X-01100000Y02700000
X-01100000Y02650000
X-01100000Y02600000
X-01100000Y02550000
X-01100000Y02500000
X-01100000Y02450000
X-02250000Y02450000
X-02250000Y02500000
X-02250000Y02550000
X-02250000Y02600000
X-02250000Y02700000
X-02250000Y02650000
X-02250000Y02750000
X-02250000Y02800000
X-02400000Y02800000
X-02400000Y02750000
X-02400000Y02700000
X-02400000Y02650000
X-02400000Y02600000
X-02400000Y02550000
X-02400000Y02500000
X-02400000Y02450000
X-02450000Y02400000
X-02500000Y02400000
X-02550000Y02400000
X-02600000Y02400000
X-02700000Y02400000
X-02650000Y02400000
X-02750000Y02400000
X-02800000Y02400000
X-02800000Y02250000
X-02750000Y02250000
X-02700000Y02250000
X-02650000Y02250000
X-02600000Y02250000
X-02550000Y02250000
X-02500000Y02250000
X-02450000Y02250000
X-02450000Y-01500000
X-02500000Y-01500000
X-02550000Y-01500000
X-02600000Y-01500000
X-02700000Y-01500000
X-02650000Y-01500000
X-02750000Y-01500000
X-02800000Y-01500000
X-02800000Y-01650000
X-02750000Y-01650000
X-02700000Y-01650000
X-02650000Y-01650000
X-02600000Y-01650000
X-02550000Y-01650000
X-02500000Y-01650000
X-02450000Y-01650000
X-01650000Y-02450000
X-01650000Y-02500000
X-01650000Y-02550000
X-01650000Y-02600000
X-01650000Y-02700000
X-01650000Y-02650000
X-01650000Y-02750000
X-01650000Y-02800000
X-01500000Y-02800000
X-01500000Y-02750000
X-01500000Y-02700000
X-01500000Y-02650000
X-01500000Y-02600000
X-01500000Y-02550000
X-01500000Y-02500000
X-01500000Y-02450000
X-00350000Y-02450000
X-00350000Y-02500000
X-00350000Y-02550000
X-00350000Y-02600000
X-00350000Y-02700000
X-00350000Y-02650000
X-00350000Y-02750000
X-00350000Y-02800000
X-00200000Y-02800000
X-00200000Y-02750000
X-00200000Y-02700000
X-00200000Y-02650000
X-00200000Y-02600000
X-00200000Y-02550000
X-00200000Y-02500000
X-00200000Y-02450000
X02900000Y-01725000
X02850000Y-01575000
X01725000Y-02900000
X01575000Y-02850000
X00425000Y-02900000
X00275000Y-02850000
X-02900000Y-02175000
X-02850000Y-02325000
X-02175000Y-02900000
X-02325000Y-02850000
X-00875000Y-02900000
X-01025000Y-02850000
X-02900000Y01725000
X-02850000Y01575000
X-01725000Y02900000
X-01575000Y02850000
X-00425000Y02900000
X-00275000Y02850000
X00875000Y02900000
X01025000Y02850000
X02175000Y02900000
X02325000Y02850000
X02900000Y02175000
X02850000Y02325000
X02725000Y-01275000
X02825000Y-01250000
X02875000Y-01200000
X02800000Y-00075006
X02850000Y00075000
X02950000Y00674980
X02900000Y00524993
X00500000Y00000000
X02325000Y01900000
X02450000Y-00525000
X02775000Y-01200000
M30