G04 Layer: BottomLayer*
G04 EasyEDA Pro v2.1.42.467b0aa0, 2024-01-01 20:36:04*
G04 Gerber Generator version 0.3*
G04 Scale: 100 percent, Rotated: No, Reflected: No*
G04 Dimensions in millimeters*
G04 Leading zeros omitted, absolute positions, 3 integers and 5 decimals*
%FSLAX35Y35*%
%MOMM*%
%ADD8191C,0.2032*%
%ADD10C,2.8*%
%ADD11C,2.49999*%
%ADD12C,0.4*%
%ADD13C,0.127*%
G75*


G04 Copper Start*
G36*
G01X-2900000Y-3214186D02*
G02X-3214186Y-2900000I0J314186D01*
G01Y2900000D01*
G02X-2900000Y3214186I314186J0D01*
G01X2900000D01*
G02X3214186Y2900000I0J-314186D01*
G01Y1237097D01*
G03X3079000Y1310814I-135186J-87097D01*
G03X2967164Y1265558I0J-160814D01*
G01Y1307535D01*
G01X3029814Y1370185D01*
G03X3042164Y1400000I-29814J29815D01*
G01Y2425000D01*
G03X3029815Y2454814I-42164J0D01*
G01X2454814Y3029815D01*
G03X2425000Y3042164I-29814J-29814D01*
G01X850000D01*
G03X820186Y3029815I0J-42164D01*
G01X732535Y2942164D01*
G01X-388430D01*
G03X-425000Y2955814I-36570J-42164D01*
G03X-461571Y2942164I0J-55814D01*
G01X-1688430D01*
G03X-1725000Y2955814I-36570J-42164D01*
G03X-1761571Y2942164I0J-55814D01*
G01X-2425000D01*
G03X-2454814Y2929814I0J-42164D01*
G01X-2929815Y2454814D01*
G03X-2942164Y2425000I29814J-29814D01*
G01Y1761570D01*
G03X-2955814Y1725000I42164J-36570D01*
G03X-2900000Y1669186I55814J0D01*
G03X-2892164Y1669739I0J55814D01*
G01Y1611570D01*
G03X-2905814Y1575000I42164J-36570D01*
G03X-2850000Y1519186I55814J0D01*
G03X-2794186Y1575000I0J55814D01*
G03X-2807836Y1611570I-55814J0D01*
G01Y2407535D01*
G01X-2407535Y2807836D01*
G01X-1611571D01*
G03X-1575000Y2794186I36570J42164D01*
G03X-1538430Y2807836I0J55814D01*
G01X-311570D01*
G03X-275000Y2794186I36570J42164D01*
G03X-238430Y2807836I0J55814D01*
G01X750000D01*
G03X779814Y2820186I0J42164D01*
G01X828603Y2868975D01*
G03X875000Y2844186I46396J31025D01*
G03X911570Y2857836I0J55814D01*
G01X969739D01*
G03X969186Y2850000I55261J-7836D01*
G03X1025000Y2794186I55814J0D01*
G03X1061570Y2807836I0J55814D01*
G01X2288430D01*
G03X2325000Y2794186I36570J42164D01*
G03X2361571Y2807836I0J55814D01*
G01X2407535D01*
G01X2807836Y2407535D01*
G01Y2361570D01*
G03X2794186Y2325000I42164J-36570D01*
G03X2807836Y2288430I55814J0D01*
G01Y1364452D01*
G01X2803903Y1360518D01*
G03X2805814Y1375000I-53902J14482D01*
G03X2750000Y1430814I-55814J0D01*
G03X2713430Y1417164I0J-55814D01*
G01X2517465D01*
G01X2367164Y1567465D01*
G01Y1863430D01*
G03X2380814Y1900000I-42164J36570D01*
G03X2325000Y1955814I-55814J0D01*
G03X2269186Y1900000I0J-55814D01*
G03X2282836Y1863430I55814J0D01*
G01Y1550000D01*
G03X2295186Y1520185I42164J0D01*
G01X2470186Y1345186D01*
G03X2500000Y1332836I29814J29814D01*
G01X2707836D01*
G01Y1234481D01*
G03X2571000Y1310814I-136836J-84481D01*
G03X2410186Y1150000I0J-160814D01*
G03X2571000Y989186I160814J0D01*
G03X2707836Y1065519I0J160814D01*
G01Y392465D01*
G01X2296045Y-19326D01*
G03X2244186Y-75000I3955J-55674D01*
G03X2300000Y-130814I55814J0D01*
G03X2355674Y-78955I0J55814D01*
G01X2757836Y323207D01*
G01Y-38436D01*
G03X2744186Y-75006I42164J-36570D01*
G03X2800000Y-130820I55814J0D01*
G03X2855814Y-75006I0J55814D01*
G03X2842164Y-38436I-55814J0D01*
G01Y19739D01*
G03X2850000Y19186I7836J55261D01*
G03X2905814Y75000I0J55814D01*
G03X2892164Y111571I-55814J0D01*
G01Y469731D01*
G03X2900000Y469179I7836J55261D01*
G03X2955814Y524993I0J55814D01*
G03X2942164Y561563I-55814J0D01*
G01Y619718D01*
G03X2950000Y619166I7836J55261D01*
G03X3005814Y674980I0J55814D01*
G03X2967164Y728089I-55814J0D01*
G01Y1034442D01*
G03X3079000Y989186I111836J115558D01*
G03X3214186Y1062903I0J160814D01*
G01Y-2900000D01*
G02X2900000Y-3214186I-314186J0D01*
G01X-2900000D01*
G37*
%LPC*%
G36*
G01X245186Y-3029815D02*
G03X275000Y-3042164I29814J29814D01*
G01X2425000D01*
G03X2454814Y-3029815I0J42164D01*
G01X3029815Y-2454814D01*
G03X3042164Y-2425000I-29814J29814D01*
G01Y-1325000D01*
G03X3029815Y-1295186I-42164J0D01*
G01X2930674Y-1196045D01*
G03X2875000Y-1144186I-55674J-3955D01*
G03X2825000Y-1175197I0J-55814D01*
G03X2775000Y-1144186I-50000J-24803D01*
G03X2719186Y-1200000I0J-55814D01*
G03X2722606Y-1219237I55814J0D01*
G03X2669186Y-1275000I2394J-55763D01*
G03X2721045Y-1330674I55814J0D01*
G01X2807836Y-1417465D01*
G01Y-1538430D01*
G03X2794186Y-1575000I42164J-36570D01*
G03X2807836Y-1611570I55814J0D01*
G01Y-2407535D01*
G01X2407535Y-2807836D01*
G01X1611571D01*
G03X1575000Y-2794186I-36570J-42164D01*
G03X1538430Y-2807836I0J-55814D01*
G01X311570D01*
G03X275000Y-2794186I-36570J-42164D01*
G03X228584Y-2819004I0J-55814D01*
G03X200000Y-2807836I-28584J-30996D01*
G01X-988430D01*
G03X-1025000Y-2794186I-36570J-42164D01*
G03X-1061570Y-2807836I0J-55814D01*
G01X-2288430D01*
G03X-2325000Y-2794186I-36570J-42164D01*
G03X-2361571Y-2807836I0J-55814D01*
G01X-2407535D01*
G01X-2807836Y-2407535D01*
G01Y-2361570D01*
G03X-2794186Y-2325000I-42164J36570D01*
G03X-2850000Y-2269186I-55814J0D01*
G03X-2857836Y-2269739I0J-55814D01*
G01Y-2211570D01*
G03X-2844186Y-2175000I-42164J36570D01*
G03X-2900000Y-2119186I-55814J0D01*
G03X-2955814Y-2175000I0J-55814D01*
G03X-2942164Y-2211570I55814J0D01*
G01Y-2425000D01*
G03X-2929815Y-2454814I42164J0D01*
G01X-2454814Y-2929814D01*
G03X-2425000Y-2942164I29814J29814D01*
G01X-2211570D01*
G03X-2175000Y-2955814I36570J42164D01*
G03X-2138430Y-2942164I0J55814D01*
G01X-911570D01*
G03X-875000Y-2955814I36570J42164D01*
G03X-838429Y-2942164I0J55814D01*
G01X157535D01*
G01X245186Y-3029815D01*
G37*
G36*
G01X-2485814Y-1200000D02*
G03X-2400000Y-1285814I85814J0D01*
G01X-2000000D01*
G03X-1914186Y-1200000I0J85814D01*
G01Y1200000D01*
G03X-2000000Y1285814I-85814J0D01*
G01X-2400000D01*
G03X-2485814Y1200000I0J-85814D01*
G01Y-1200000D01*
G37*
G36*
G01X1794186Y-375000D02*
G03X1850000Y-430814I55814J0D01*
G03X1905814Y-375000I0J55814D01*
G03X1892164Y-338430I-55814J0D01*
G01Y-42465D01*
G01X2078955Y144326D01*
G03X2130814Y200000I-3955J55674D01*
G03X2075000Y255814I-55814J0D01*
G03X2038430Y242164I0J-55814D01*
G01X1611571D01*
G03X1575000Y255814I-36570J-42164D01*
G03X1519186Y200000I0J-55814D01*
G03X1575000Y144186I55814J0D01*
G03X1611571Y157836I0J55814D01*
G01X1973207D01*
G01X1820186Y4815D01*
G03X1807836Y-25000I29814J-29814D01*
G01Y-338430D01*
G03X1794186Y-375000I42164J-36570D01*
G37*
G36*
G01X500000Y-55814D02*
G03X536570Y-42164I0J55814D01*
G01X904508D01*
G03X934323Y-29814I0J42164D01*
G01X1258464Y294326D01*
G03X1310323Y350000I-3955J55674D01*
G03X1254509Y405814I-55814J0D01*
G03X1198835Y353955I0J-55814D01*
G01X887044Y42164D01*
G01X536570D01*
G03X500000Y55814I-36570J-42164D01*
G03X444186Y0I0J-55814D01*
G03X500000Y-55814I55814J0D01*
G37*
G36*
G01X-3075814Y-2900000D02*
G03X-2900000Y-3075814I175814J0D01*
G03X-2724186Y-2900000I0J175814D01*
G03X-2900000Y-2724186I-175814J0D01*
G03X-3075814Y-2900000I0J-175814D01*
G37*
G36*
G01X2900000Y-3075814D02*
G03X3075814Y-2900000I0J175814D01*
G03X2900000Y-2724186I-175814J0D01*
G03X2724186Y-2900000I0J-175814D01*
G03X2900000Y-3075814I175814J0D01*
G37*
G36*
G01X2900000Y2724186D02*
G03X3075814Y2900000I0J175814D01*
G03X2900000Y3075814I-175814J0D01*
G03X2724186Y2900000I0J-175814D01*
G03X2900000Y2724186I175814J0D01*
G37*
G36*
G01X-3075814Y2900000D02*
G03X-2900000Y2724186I175814J0D01*
G03X-2724186Y2900000I0J175814D01*
G03X-2900000Y3075814I-175814J0D01*
G03X-3075814Y2900000I0J-175814D01*
G37*
%LPD*%
G54D8191*
G01X-2900000Y-3214186D02*
G02X-3214186Y-2900000I0J314186D01*
G01Y2900000D01*
G02X-2900000Y3214186I314186J0D01*
G01X2900000D01*
G02X3214186Y2900000I0J-314186D01*
G01Y1237097D01*
G03X3079000Y1310814I-135186J-87097D01*
G03X2967164Y1265558I0J-160814D01*
G01Y1307535D01*
G01X3029814Y1370185D01*
G03X3042164Y1400000I-29814J29815D01*
G01Y2425000D01*
G03X3029815Y2454814I-42164J0D01*
G01X2454814Y3029815D01*
G03X2425000Y3042164I-29814J-29814D01*
G01X850000D01*
G03X820186Y3029815I0J-42164D01*
G01X732535Y2942164D01*
G01X-388430D01*
G03X-425000Y2955814I-36570J-42164D01*
G03X-461571Y2942164I0J-55814D01*
G01X-1688430D01*
G03X-1725000Y2955814I-36570J-42164D01*
G03X-1761571Y2942164I0J-55814D01*
G01X-2425000D01*
G03X-2454814Y2929814I0J-42164D01*
G01X-2929815Y2454814D01*
G03X-2942164Y2425000I29814J-29814D01*
G01Y1761570D01*
G03X-2955814Y1725000I42164J-36570D01*
G03X-2900000Y1669186I55814J0D01*
G03X-2892164Y1669739I0J55814D01*
G01Y1611570D01*
G03X-2905814Y1575000I42164J-36570D01*
G03X-2850000Y1519186I55814J0D01*
G03X-2794186Y1575000I0J55814D01*
G03X-2807836Y1611570I-55814J0D01*
G01Y2407535D01*
G01X-2407535Y2807836D01*
G01X-1611571D01*
G03X-1575000Y2794186I36570J42164D01*
G03X-1538430Y2807836I0J55814D01*
G01X-311570D01*
G03X-275000Y2794186I36570J42164D01*
G03X-238430Y2807836I0J55814D01*
G01X750000D01*
G03X779814Y2820186I0J42164D01*
G01X828603Y2868975D01*
G03X875000Y2844186I46396J31025D01*
G03X911570Y2857836I0J55814D01*
G01X969739D01*
G03X969186Y2850000I55261J-7836D01*
G03X1025000Y2794186I55814J0D01*
G03X1061570Y2807836I0J55814D01*
G01X2288430D01*
G03X2325000Y2794186I36570J42164D01*
G03X2361571Y2807836I0J55814D01*
G01X2407535D01*
G01X2807836Y2407535D01*
G01Y2361570D01*
G03X2794186Y2325000I42164J-36570D01*
G03X2807836Y2288430I55814J0D01*
G01Y1364452D01*
G01X2803903Y1360518D01*
G03X2805814Y1375000I-53902J14482D01*
G03X2750000Y1430814I-55814J0D01*
G03X2713430Y1417164I0J-55814D01*
G01X2517465D01*
G01X2367164Y1567465D01*
G01Y1863430D01*
G03X2380814Y1900000I-42164J36570D01*
G03X2325000Y1955814I-55814J0D01*
G03X2269186Y1900000I0J-55814D01*
G03X2282836Y1863430I55814J0D01*
G01Y1550000D01*
G03X2295186Y1520185I42164J0D01*
G01X2470186Y1345186D01*
G03X2500000Y1332836I29814J29814D01*
G01X2707836D01*
G01Y1234481D01*
G03X2571000Y1310814I-136836J-84481D01*
G03X2410186Y1150000I0J-160814D01*
G03X2571000Y989186I160814J0D01*
G03X2707836Y1065519I0J160814D01*
G01Y392465D01*
G01X2296045Y-19326D01*
G03X2244186Y-75000I3955J-55674D01*
G03X2300000Y-130814I55814J0D01*
G03X2355674Y-78955I0J55814D01*
G01X2757836Y323207D01*
G01Y-38436D01*
G03X2744186Y-75006I42164J-36570D01*
G03X2800000Y-130820I55814J0D01*
G03X2855814Y-75006I0J55814D01*
G03X2842164Y-38436I-55814J0D01*
G01Y19739D01*
G03X2850000Y19186I7836J55261D01*
G03X2905814Y75000I0J55814D01*
G03X2892164Y111571I-55814J0D01*
G01Y469731D01*
G03X2900000Y469179I7836J55261D01*
G03X2955814Y524993I0J55814D01*
G03X2942164Y561563I-55814J0D01*
G01Y619718D01*
G03X2950000Y619166I7836J55261D01*
G03X3005814Y674980I0J55814D01*
G03X2967164Y728089I-55814J0D01*
G01Y1034442D01*
G03X3079000Y989186I111836J115558D01*
G03X3214186Y1062903I0J160814D01*
G01Y-2900000D01*
G02X2900000Y-3214186I-314186J0D01*
G01X-2900000D01*
G01X245186Y-3029815D02*
G03X275000Y-3042164I29814J29814D01*
G01X2425000D01*
G03X2454814Y-3029815I0J42164D01*
G01X3029815Y-2454814D01*
G03X3042164Y-2425000I-29814J29814D01*
G01Y-1325000D01*
G03X3029815Y-1295186I-42164J0D01*
G01X2930674Y-1196045D01*
G03X2875000Y-1144186I-55674J-3955D01*
G03X2825000Y-1175197I0J-55814D01*
G03X2775000Y-1144186I-50000J-24803D01*
G03X2719186Y-1200000I0J-55814D01*
G03X2722606Y-1219237I55814J0D01*
G03X2669186Y-1275000I2394J-55763D01*
G03X2721045Y-1330674I55814J0D01*
G01X2807836Y-1417465D01*
G01Y-1538430D01*
G03X2794186Y-1575000I42164J-36570D01*
G03X2807836Y-1611570I55814J0D01*
G01Y-2407535D01*
G01X2407535Y-2807836D01*
G01X1611571D01*
G03X1575000Y-2794186I-36570J-42164D01*
G03X1538430Y-2807836I0J-55814D01*
G01X311570D01*
G03X275000Y-2794186I-36570J-42164D01*
G03X228584Y-2819004I0J-55814D01*
G03X200000Y-2807836I-28584J-30996D01*
G01X-988430D01*
G03X-1025000Y-2794186I-36570J-42164D01*
G03X-1061570Y-2807836I0J-55814D01*
G01X-2288430D01*
G03X-2325000Y-2794186I-36570J-42164D01*
G03X-2361571Y-2807836I0J-55814D01*
G01X-2407535D01*
G01X-2807836Y-2407535D01*
G01Y-2361570D01*
G03X-2794186Y-2325000I-42164J36570D01*
G03X-2850000Y-2269186I-55814J0D01*
G03X-2857836Y-2269739I0J-55814D01*
G01Y-2211570D01*
G03X-2844186Y-2175000I-42164J36570D01*
G03X-2900000Y-2119186I-55814J0D01*
G03X-2955814Y-2175000I0J-55814D01*
G03X-2942164Y-2211570I55814J0D01*
G01Y-2425000D01*
G03X-2929815Y-2454814I42164J0D01*
G01X-2454814Y-2929814D01*
G03X-2425000Y-2942164I29814J29814D01*
G01X-2211570D01*
G03X-2175000Y-2955814I36570J42164D01*
G03X-2138430Y-2942164I0J55814D01*
G01X-911570D01*
G03X-875000Y-2955814I36570J42164D01*
G03X-838429Y-2942164I0J55814D01*
G01X157535D01*
G01X245186Y-3029815D01*
G01X-2485814Y-1200000D02*
G03X-2400000Y-1285814I85814J0D01*
G01X-2000000D01*
G03X-1914186Y-1200000I0J85814D01*
G01Y1200000D01*
G03X-2000000Y1285814I-85814J0D01*
G01X-2400000D01*
G03X-2485814Y1200000I0J-85814D01*
G01Y-1200000D01*
G01X1794186Y-375000D02*
G03X1850000Y-430814I55814J0D01*
G03X1905814Y-375000I0J55814D01*
G03X1892164Y-338430I-55814J0D01*
G01Y-42465D01*
G01X2078955Y144326D01*
G03X2130814Y200000I-3955J55674D01*
G03X2075000Y255814I-55814J0D01*
G03X2038430Y242164I0J-55814D01*
G01X1611571D01*
G03X1575000Y255814I-36570J-42164D01*
G03X1519186Y200000I0J-55814D01*
G03X1575000Y144186I55814J0D01*
G03X1611571Y157836I0J55814D01*
G01X1973207D01*
G01X1820186Y4815D01*
G03X1807836Y-25000I29814J-29814D01*
G01Y-338430D01*
G03X1794186Y-375000I42164J-36570D01*
G01X500000Y-55814D02*
G03X536570Y-42164I0J55814D01*
G01X904508D01*
G03X934323Y-29814I0J42164D01*
G01X1258464Y294326D01*
G03X1310323Y350000I-3955J55674D01*
G03X1254509Y405814I-55814J0D01*
G03X1198835Y353955I0J-55814D01*
G01X887044Y42164D01*
G01X536570D01*
G03X500000Y55814I-36570J-42164D01*
G03X444186Y0I0J-55814D01*
G03X500000Y-55814I55814J0D01*
G01X-3075814Y-2900000D02*
G03X-2900000Y-3075814I175814J0D01*
G03X-2724186Y-2900000I0J175814D01*
G03X-2900000Y-2724186I-175814J0D01*
G03X-3075814Y-2900000I0J-175814D01*
G01X2900000Y-3075814D02*
G03X3075814Y-2900000I0J175814D01*
G03X2900000Y-2724186I-175814J0D01*
G03X2724186Y-2900000I0J-175814D01*
G03X2900000Y-3075814I175814J0D01*
G01X2900000Y2724186D02*
G03X3075814Y2900000I0J175814D01*
G03X2900000Y3075814I-175814J0D01*
G03X2724186Y2900000I0J-175814D01*
G03X2900000Y2724186I175814J0D01*
G01X-3075814Y2900000D02*
G03X-2900000Y2724186I175814J0D01*
G03X-2724186Y2900000I0J175814D01*
G03X-2900000Y3075814I-175814J0D01*
G03X-3075814Y2900000I0J-175814D01*
G04 Copper End*

G04 Pad Start*
G54D10*
G01X-2900000Y-2900000D03*
G01X2900000Y2900000D03*
G01X-2900000Y2900000D03*
G01X2900000Y-2900000D03*
G54D11*
G01X3079000Y1150000D03*
G01X2571000Y1150000D03*
G01X3079000Y-1150000D03*
G01X2571000Y-1150000D03*
G04 Pad End*

G04 Via Start*
G54D12*
G01X2750000Y1375000D03*
G01X2300000Y-75000D03*
G01X1575000Y200000D03*
G01X2075000Y200000D03*
G01X1850000Y-375000D03*
G01X550000Y-350000D03*
G01X1254509Y350000D03*
G01X1100000Y-2800000D03*
G01X1100000Y-2750000D03*
G01X1100000Y-2700000D03*
G01X1100000Y-2650000D03*
G01X1100000Y-2600000D03*
G01X1100000Y-2550000D03*
G01X1100000Y-2500000D03*
G01X1100000Y-2450000D03*
G01X950000Y-2800000D03*
G01X950000Y-2750000D03*
G01X950000Y-2700000D03*
G01X950000Y-2650000D03*
G01X950000Y-2600000D03*
G01X950000Y-2550000D03*
G01X950000Y-2500000D03*
G01X950000Y-2450000D03*
G01X2250000Y-2450000D03*
G01X2250000Y-2500000D03*
G01X2250000Y-2550000D03*
G01X2250000Y-2600000D03*
G01X2250000Y-2700000D03*
G01X2250000Y-2650000D03*
G01X2250000Y-2750000D03*
G01X2250000Y-2800000D03*
G01X2400000Y-2800000D03*
G01X2400000Y-2750000D03*
G01X2400000Y-2700000D03*
G01X2400000Y-2650000D03*
G01X2400000Y-2600000D03*
G01X2400000Y-2550000D03*
G01X2400000Y-2500000D03*
G01X2400000Y-2450000D03*
G01X2450000Y-2400000D03*
G01X2500000Y-2400000D03*
G01X2550000Y-2400000D03*
G01X2600000Y-2400000D03*
G01X2700000Y-2400000D03*
G01X2650000Y-2400000D03*
G01X2750000Y-2400000D03*
G01X2800000Y-2400000D03*
G01X2800000Y-2250000D03*
G01X2750000Y-2250000D03*
G01X2700000Y-2250000D03*
G01X2650000Y-2250000D03*
G01X2600000Y-2250000D03*
G01X2550000Y-2250000D03*
G01X2500000Y-2250000D03*
G01X2450000Y-2250000D03*
G01X2500000Y1500000D03*
G01X2550000Y1500000D03*
G01X2600000Y1500000D03*
G01X2700000Y1500000D03*
G01X2650000Y1500000D03*
G01X2750000Y1500000D03*
G01X2800000Y1500000D03*
G01X2800000Y1650000D03*
G01X2750000Y1650000D03*
G01X2700000Y1650000D03*
G01X2650000Y1650000D03*
G01X2600000Y1650000D03*
G01X2550000Y1650000D03*
G01X2500000Y1650000D03*
G01X2450000Y1650000D03*
G01X1650000Y2450000D03*
G01X1650000Y2500000D03*
G01X1650000Y2550000D03*
G01X1650000Y2600000D03*
G01X1650000Y2700000D03*
G01X1650000Y2650000D03*
G01X1650000Y2750000D03*
G01X1650000Y2800000D03*
G01X1500000Y2800000D03*
G01X1500000Y2750000D03*
G01X1500000Y2700000D03*
G01X1500000Y2650000D03*
G01X1500000Y2600000D03*
G01X1500000Y2550000D03*
G01X1500000Y2500000D03*
G01X1500000Y2450000D03*
G01X350000Y2450000D03*
G01X350000Y2500000D03*
G01X350000Y2550000D03*
G01X350000Y2600000D03*
G01X350000Y2700000D03*
G01X350000Y2650000D03*
G01X350000Y2750000D03*
G01X350000Y2800000D03*
G01X200000Y2800000D03*
G01X200000Y2750000D03*
G01X200000Y2700000D03*
G01X200000Y2650000D03*
G01X200000Y2600000D03*
G01X200000Y2550000D03*
G01X200000Y2500000D03*
G01X200000Y2450000D03*
G01X-950000Y2450000D03*
G01X-950000Y2500000D03*
G01X-950000Y2550000D03*
G01X-950000Y2600000D03*
G01X-950000Y2700000D03*
G01X-950000Y2650000D03*
G01X-950000Y2750000D03*
G01X-950000Y2800000D03*
G01X-1100000Y2800000D03*
G01X-1100000Y2750000D03*
G01X-1100000Y2700000D03*
G01X-1100000Y2650000D03*
G01X-1100000Y2600000D03*
G01X-1100000Y2550000D03*
G01X-1100000Y2500000D03*
G01X-1100000Y2450000D03*
G01X-2250000Y2450000D03*
G01X-2250000Y2500000D03*
G01X-2250000Y2550000D03*
G01X-2250000Y2600000D03*
G01X-2250000Y2700000D03*
G01X-2250000Y2650000D03*
G01X-2250000Y2750000D03*
G01X-2250000Y2800000D03*
G01X-2400000Y2800000D03*
G01X-2400000Y2750000D03*
G01X-2400000Y2700000D03*
G01X-2400000Y2650000D03*
G01X-2400000Y2600000D03*
G01X-2400000Y2550000D03*
G01X-2400000Y2500000D03*
G01X-2400000Y2450000D03*
G01X-2450000Y2400000D03*
G01X-2500000Y2400000D03*
G01X-2550000Y2400000D03*
G01X-2600000Y2400000D03*
G01X-2700000Y2400000D03*
G01X-2650000Y2400000D03*
G01X-2750000Y2400000D03*
G01X-2800000Y2400000D03*
G01X-2800000Y2250000D03*
G01X-2750000Y2250000D03*
G01X-2700000Y2250000D03*
G01X-2650000Y2250000D03*
G01X-2600000Y2250000D03*
G01X-2550000Y2250000D03*
G01X-2500000Y2250000D03*
G01X-2450000Y2250000D03*
G01X-2450000Y-1500000D03*
G01X-2500000Y-1500000D03*
G01X-2550000Y-1500000D03*
G01X-2600000Y-1500000D03*
G01X-2700000Y-1500000D03*
G01X-2650000Y-1500000D03*
G01X-2750000Y-1500000D03*
G01X-2800000Y-1500000D03*
G01X-2800000Y-1650000D03*
G01X-2750000Y-1650000D03*
G01X-2700000Y-1650000D03*
G01X-2650000Y-1650000D03*
G01X-2600000Y-1650000D03*
G01X-2550000Y-1650000D03*
G01X-2500000Y-1650000D03*
G01X-2450000Y-1650000D03*
G01X-1650000Y-2450000D03*
G01X-1650000Y-2500000D03*
G01X-1650000Y-2550000D03*
G01X-1650000Y-2600000D03*
G01X-1650000Y-2700000D03*
G01X-1650000Y-2650000D03*
G01X-1650000Y-2750000D03*
G01X-1650000Y-2800000D03*
G01X-1500000Y-2800000D03*
G01X-1500000Y-2750000D03*
G01X-1500000Y-2700000D03*
G01X-1500000Y-2650000D03*
G01X-1500000Y-2600000D03*
G01X-1500000Y-2550000D03*
G01X-1500000Y-2500000D03*
G01X-1500000Y-2450000D03*
G01X-350000Y-2450000D03*
G01X-350000Y-2500000D03*
G01X-350000Y-2550000D03*
G01X-350000Y-2600000D03*
G01X-350000Y-2700000D03*
G01X-350000Y-2650000D03*
G01X-350000Y-2750000D03*
G01X-350000Y-2800000D03*
G01X-200000Y-2800000D03*
G01X-200000Y-2750000D03*
G01X-200000Y-2700000D03*
G01X-200000Y-2650000D03*
G01X-200000Y-2600000D03*
G01X-200000Y-2550000D03*
G01X-200000Y-2500000D03*
G01X-200000Y-2450000D03*
G01X2900000Y-1725000D03*
G01X2850000Y-1575000D03*
G01X1725000Y-2900000D03*
G01X1575000Y-2850000D03*
G01X425000Y-2900000D03*
G01X275000Y-2850000D03*
G01X-2900000Y-2175000D03*
G01X-2850000Y-2325000D03*
G01X-2175000Y-2900000D03*
G01X-2325000Y-2850000D03*
G01X-875000Y-2900000D03*
G01X-1025000Y-2850000D03*
G01X-2900000Y1725000D03*
G01X-2850000Y1575000D03*
G01X-1725000Y2900000D03*
G01X-1575000Y2850000D03*
G01X-425000Y2900000D03*
G01X-275000Y2850000D03*
G01X875000Y2900000D03*
G01X1025000Y2850000D03*
G01X2175000Y2900000D03*
G01X2325000Y2850000D03*
G01X2900000Y2175000D03*
G01X2850000Y2325000D03*
G01X2725000Y-1275000D03*
G01X2825000Y-1250000D03*
G01X2875000Y-1200000D03*
G01X2800000Y-75006D03*
G01X2850000Y75000D03*
G01X2950000Y674980D03*
G01X2900000Y524993D03*
G01X500000Y0D03*
G01X2325000Y1900000D03*
G01X2450000Y-525000D03*
G01X2775000Y-1200000D03*
G04 Via End*

G04 Track Start*
G54D13*
G01X2300000Y-75000D02*
G01X2750000Y375000D01*
G01Y1375000D01*
G01X1575000Y200000D02*
G01X2075000Y200000D01*
G01X1850000Y-25000D02*
G01X2075000Y200000D01*
G01X1850000Y-375000D02*
G01X1850000Y-25000D01*
G01X275000Y-2850000D02*
G01X1575000Y-2850000D01*
G01X425000Y-2900000D02*
G01X1725000Y-2900000D01*
G01X1575000Y-2850000D02*
G01X2425000Y-2850000D01*
G01X2850000Y-2425000D02*
G01X2425000Y-2850000D01*
G01X2850000Y-1575000D02*
G01X2850000Y-2425000D01*
G01X2900000Y-1725000D02*
G01X2900000Y-2425000D01*
G01X2425000Y-2900000D01*
G01X1725000D01*
G01X-2175000Y-2900000D02*
G01X-875000Y-2900000D01*
G01X-1025000Y-2850000D02*
G01X-2325000Y-2850000D01*
G01X-2850000Y-2325000D02*
G01X-2850000Y-2425000D01*
G01X-2425000Y-2850000D01*
G01X-2325000D01*
G01X-2175000Y-2900000D02*
G01X-2425000Y-2900000D01*
G01X-2900000Y-2425000D02*
G01X-2425000Y-2900000D01*
G01X-2900000Y-2175000D02*
G01X-2900000Y-2425000D01*
G01X-1025000Y-2850000D02*
G01X200000Y-2850000D01*
G01X300000Y-2950000D01*
G01X2425000D01*
G01X2425000Y-3000000D02*
G01X275000Y-3000000D01*
G01X175000Y-2900000D01*
G01X-875000D01*
G01X-1575000Y2850000D02*
G01X-275000Y2850000D01*
G01X-425000Y2900000D02*
G01X-1725000Y2900000D01*
G01X875000Y2900000D02*
G01X2175000Y2900000D01*
G01X2325000Y2850000D02*
G01X1025000Y2850000D01*
G01X2325000Y2850000D02*
G01X2425000Y2850000D01*
G01X2850000Y2425000D02*
G01X2425000Y2850000D01*
G01X2850000Y2325000D02*
G01X2850000Y2425000D01*
G01X2900000Y2175000D02*
G01X2900000Y2425000D01*
G01X2425000Y2900000D01*
G01X2175000D01*
G01X-2850000Y1575000D02*
G01X-2850000Y2425000D01*
G01X-2425000Y2850000D01*
G01X-1575000D01*
G01X-1725000Y2900000D02*
G01X-2425000Y2900000D01*
G01X-2900000Y2425000D02*
G01X-2425000Y2900000D01*
G01X-2900000Y1725000D02*
G01X-2900000Y2425000D01*
G01X-275000Y2850000D02*
G01X750000Y2850000D01*
G01X850000Y2950000D01*
G01X2425000D01*
G01X750000Y2900000D02*
G01X-425000Y2900000D01*
G01X850000Y3000000D02*
G01X750000Y2900000D01*
G01X2425000Y3000000D02*
G01X850000Y3000000D01*
G01X3000000Y2425000D02*
G01X2425000Y3000000D01*
G01X2950000Y675000D02*
G01X2925000Y700000D01*
G01X500000Y0D02*
G01X904508Y0D01*
G01X1254509Y350000D01*
G01X2850000Y-1400000D02*
G01X2725000Y-1275000D01*
G01X2850000Y-1575000D02*
G01X2850000Y-1400000D01*
G01X2825000Y-1250000D02*
G01X2950000Y-1375000D01*
G01Y-2425000D01*
G01X2425000Y-2950000D01*
G01X2875000Y-1200000D02*
G01X3000000Y-1325000D01*
G01Y-2425000D01*
G01X2425000Y-3000000D01*
G01X2900000Y-1725000D02*
G01X2900000Y-1400000D01*
G01X2775000Y-1275000D01*
G01Y-1200000D01*
G01X2325000Y1900000D02*
G01X2325000Y1550000D01*
G01X2500000Y1375000D01*
G01X2750000D01*
G01X2925000Y700000D02*
G01X2925000Y1325000D01*
G01X3000000Y1400000D01*
G01Y2425000D01*
G01X2900000Y1332329D02*
G01X2900000Y524993D01*
G01X2850000Y1314658D02*
G01X2850000Y75000D01*
G01X2800000Y1296987D02*
G01X2800000Y-75006D01*
G01X2850000Y1346987D02*
G01X2800000Y1296987D01*
G01X2850000Y2325000D02*
G01X2850000Y1346987D01*
G01X2900000Y1364658D02*
G01X2850000Y1314658D01*
G01X2900000Y2175000D02*
G01X2900000Y1364658D01*
G01X2950000Y1382329D02*
G01X2900000Y1332329D01*
G01X2950000Y2425000D02*
G01X2950000Y1382329D01*
G01X2425000Y2950000D02*
G01X2950000Y2425000D01*
G04 Track End*

M02*
