G04 Layer: TopPasteMaskLayer*
G04 EasyEDA Pro v2.1.42.467b0aa0, 2024-01-01 20:36:04*
G04 Gerber Generator version 0.3*
G04 Scale: 100 percent, Rotated: No, Reflected: No*
G04 Dimensions in millimeters*
G04 Leading zeros omitted, absolute positions, 3 integers and 5 decimals*
%FSLAX35Y35*%
%MOMM*%
%ADD10R,2.35001X1.0*%
%ADD11R,0.48999X1.157*%
%ADD12R,0.48999X1.175*%
%ADD13R,1.95999X2.1*%
%ADD14R,1.95999X2.1*%
%ADD15R,1.575X0.67201*%
%ADD16R,2.59999X0.7*%
%ADD17R,1.9023X1.1*%
%ADD18R,1.9X1.1*%
%ADD19R,2.04638X1.62001*%
%ADD20R,1.5X2.3*%
%ADD21R,0.7X3.99999*%
%ADD22R,1.5X2.3*%
%ADD23R,0.7X3.99999*%
%ADD24R,3.49999X0.8*%
%ADD25R,1.9X1.1*%
%ADD26R,3.49999X0.8*%
G75*


G04 PolygonModel Start*
G36*
G01X2340335Y499313D02*
G01X2340335Y569417D01*
G01X2432537D01*
G01Y499821D01*
G01X2432283D01*
G01X2340335Y499313D01*
G37*
G36*
G01X2340335Y626313D02*
G01X2340335Y696417D01*
G01X2432537D01*
G01Y626821D01*
G01X2432283D01*
G01X2340335Y626313D01*
G37*
G36*
G01X2340335Y753313D02*
G01X2340335Y823417D01*
G01X2432537D01*
G01Y753821D01*
G01X2432283D01*
G01X2340335Y753313D01*
G37*
G36*
G01X2340335Y880313D02*
G01X2340335Y950417D01*
G01X2432537D01*
G01Y880821D01*
G01X2432283D01*
G01X2340335Y880313D01*
G37*
G36*
G01X1767273Y499611D02*
G01X1767273Y569824D01*
G01X1829322D01*
G01Y626794D01*
G01X1767453D01*
G01Y696824D01*
G01X1829322D01*
G01Y753067D01*
G01X1767092D01*
G01Y823824D01*
G01X1829503D01*
G01Y880247D01*
G01X1767092D01*
G01Y950644D01*
G01X1829322D01*
G01Y950047D01*
G01X2229517D01*
G01Y499672D01*
G01X1827235D01*
G01X1767273Y499611D01*
G37*
G36*
G01X2340335Y1049313D02*
G01X2340335Y1119417D01*
G01X2432537D01*
G01Y1049821D01*
G01X2432283D01*
G01X2340335Y1049313D01*
G37*
G36*
G01X2340335Y1176313D02*
G01X2340335Y1246417D01*
G01X2432537D01*
G01Y1176821D01*
G01X2432283D01*
G01X2340335Y1176313D01*
G37*
G36*
G01X2340335Y1303313D02*
G01X2340335Y1373417D01*
G01X2432537D01*
G01Y1303821D01*
G01X2432283D01*
G01X2340335Y1303313D01*
G37*
G36*
G01X2340335Y1430313D02*
G01X2340335Y1500417D01*
G01X2432537D01*
G01Y1430821D01*
G01X2432283D01*
G01X2340335Y1430313D01*
G37*
G36*
G01X1767273Y1049611D02*
G01X1767273Y1119824D01*
G01X1829322D01*
G01Y1176793D01*
G01X1767453D01*
G01Y1246824D01*
G01X1829322D01*
G01Y1303067D01*
G01X1767092D01*
G01Y1373824D01*
G01X1829503D01*
G01Y1430247D01*
G01X1767092D01*
G01Y1500643D01*
G01X1829322D01*
G01Y1500047D01*
G01X2229517D01*
G01Y1049672D01*
G01X1827235D01*
G01X1767273Y1049611D01*
G37*
G36*
G01X2242603Y-556694D02*
G01X2242603Y-510695D01*
G01X2246603Y-506694D01*
G01X2296667D01*
G01X2300667Y-510695D01*
G01Y-556694D01*
G01X2296667Y-560695D01*
G01X2246603D01*
G01X2242603Y-556694D01*
G37*
G36*
G01X2215603Y-556694D02*
G01X2215603Y-510695D01*
G01X2211602Y-506694D01*
G01X2161539D01*
G01X2157538Y-510695D01*
G01Y-556694D01*
G01X2161539Y-560695D01*
G01X2211602D01*
G01X2215603Y-556694D01*
G37*
G36*
G01X2042603Y-556694D02*
G01X2042603Y-510695D01*
G01X2046603Y-506694D01*
G01X2096667D01*
G01X2100667Y-510695D01*
G01Y-556694D01*
G01X2096667Y-560695D01*
G01X2046603D01*
G01X2042603Y-556694D01*
G37*
G36*
G01X2015603Y-556694D02*
G01X2015603Y-510695D01*
G01X2011602Y-506694D01*
G01X1961539D01*
G01X1957538Y-510695D01*
G01Y-556694D01*
G01X1961539Y-560695D01*
G01X2011602D01*
G01X2015603Y-556694D01*
G37*
G36*
G01X2159992Y-68897D02*
G01X2159992Y-22898D01*
G01X2163992Y-18897D01*
G01X2214056D01*
G01X2218056Y-22898D01*
G01Y-68897D01*
G01X2214056Y-72897D01*
G01X2163992D01*
G01X2159992Y-68897D01*
G37*
G36*
G01X2132991Y-68897D02*
G01X2132991Y-22898D01*
G01X2128991Y-18897D01*
G01X2078928D01*
G01X2074927Y-22898D01*
G01Y-68897D01*
G01X2078928Y-72897D01*
G01X2128991D01*
G01X2132991Y-68897D01*
G37*
G36*
G01X1994491Y-207397D02*
G01X1948492Y-207397D01*
G01X1944491Y-203397D01*
G01Y-153333D01*
G01X1948492Y-149333D01*
G01X1994491D01*
G01X1998492Y-153333D01*
G01Y-203397D01*
G01X1994491Y-207397D01*
G37*
G36*
G01X1994491Y-234398D02*
G01X1948492Y-234398D01*
G01X1944491Y-238398D01*
G01Y-288461D01*
G01X1948492Y-292462D01*
G01X1994491D01*
G01X1998492Y-288461D01*
G01Y-238398D01*
G01X1994491Y-234398D01*
G37*
G36*
G01X1878010Y-218877D02*
G01X1833009Y-218877D01*
G01X1828010Y-211879D01*
G01Y-163879D01*
G01X1833009Y-158877D01*
G01X1878010D01*
G01X1883009Y-163879D01*
G01Y-211879D01*
G01X1878010Y-218877D01*
G37*
G36*
G01X1878010Y-314879D02*
G01X1833009Y-314879D01*
G01X1828010Y-309878D01*
G01Y-261879D01*
G01X1833009Y-254879D01*
G01X1878010D01*
G01X1883009Y-261879D01*
G01Y-309878D01*
G01X1878010Y-314879D01*
G37*
G36*
G01X2038500Y1877000D02*
G01X2038500Y1923000D01*
G01X2042501Y1927000D01*
G01X2092564D01*
G01X2096565Y1923000D01*
G01Y1877000D01*
G01X2092564Y1873000D01*
G01X2042501D01*
G01X2038500Y1877000D01*
G37*
G36*
G01X2011500Y1877000D02*
G01X2011500Y1923000D01*
G01X2007499Y1927000D01*
G01X1957436D01*
G01X1953436Y1923000D01*
G01Y1877000D01*
G01X1957436Y1873000D01*
G01X2007499D01*
G01X2011500Y1877000D01*
G37*
G36*
G01X1712799Y1092499D02*
G01X1618753Y1092499D01*
G01X1608753Y1102499D01*
G01Y1126106D01*
G01X1598753Y1136106D01*
G01X1501247D01*
G01X1491247Y1126106D01*
G01Y1102499D01*
G01X1481247Y1092499D01*
G01X1387201D01*
G01X1377201Y1102499D01*
G01Y1210754D01*
G01X1387201Y1220754D01*
G01X1712799D01*
G01X1722799Y1210754D01*
G01Y1102499D01*
G01X1712799Y1092499D01*
G37*
G36*
G01X1712799Y607501D02*
G01X1618753Y607501D01*
G01X1608753Y597501D01*
G01Y573894D01*
G01X1598753Y563894D01*
G01X1501247D01*
G01X1491247Y573894D01*
G01Y597501D01*
G01X1481247Y607501D01*
G01X1387201D01*
G01X1377201Y597501D01*
G01Y489246D01*
G01X1387201Y479246D01*
G01X1712799D01*
G01X1722799Y489246D01*
G01Y597501D01*
G01X1712799Y607501D01*
G37*
G36*
G01X1218004Y402498D02*
G01X1218004Y447499D01*
G01X1225001Y452498D01*
G01X1273002D01*
G01X1278004Y447499D01*
G01Y402498D01*
G01X1273002Y397499D01*
G01X1225001D01*
G01X1218004Y402498D01*
G37*
G36*
G01X1122002Y402498D02*
G01X1122002Y447499D01*
G01X1127003Y452498D01*
G01X1175001D01*
G01X1182002Y447499D01*
G01Y402498D01*
G01X1175001Y397499D01*
G01X1127003D01*
G01X1122002Y402498D01*
G37*
G36*
G01X1552498Y31996D02*
G01X1597499Y31996D01*
G01X1602498Y24999D01*
G01Y-23002D01*
G01X1597499Y-28003D01*
G01X1552498D01*
G01X1547500Y-23002D01*
G01Y24999D01*
G01X1552498Y31996D01*
G37*
G36*
G01X1552498Y127998D02*
G01X1597499Y127998D01*
G01X1602498Y122997D01*
G01Y74999D01*
G01X1597499Y67998D01*
G01X1552498D01*
G01X1547500Y74999D01*
G01Y122997D01*
G01X1552498Y127998D01*
G37*
G36*
G01X1811500Y123000D02*
G01X1811500Y77000D01*
G01X1807500Y73000D01*
G01X1757436D01*
G01X1753436Y77000D01*
G01Y123000D01*
G01X1757436Y127000D01*
G01X1807500D01*
G01X1811500Y123000D01*
G37*
G36*
G01X1838500Y123000D02*
G01X1838500Y77000D01*
G01X1842501Y73000D01*
G01X1892564D01*
G01X1896565Y77000D01*
G01Y123000D01*
G01X1892564Y127000D01*
G01X1842501D01*
G01X1838500Y123000D01*
G37*
G36*
G01X2011500Y123000D02*
G01X2011500Y77000D01*
G01X2007499Y73000D01*
G01X1957436D01*
G01X1953436Y77000D01*
G01Y123000D01*
G01X1957436Y127000D01*
G01X2007499D01*
G01X2011500Y123000D01*
G37*
G36*
G01X2038500Y123000D02*
G01X2038500Y77000D01*
G01X2042501Y73000D01*
G01X2092564D01*
G01X2096565Y77000D01*
G01Y123000D01*
G01X2092564Y127000D01*
G01X2042501D01*
G01X2038500Y123000D01*
G37*
G36*
G01X2213500Y1877000D02*
G01X2213500Y1923000D01*
G01X2217501Y1927000D01*
G01X2267564D01*
G01X2271565Y1923000D01*
G01Y1877000D01*
G01X2267564Y1873000D01*
G01X2217501D01*
G01X2213500Y1877000D01*
G37*
G36*
G01X2186500Y1877000D02*
G01X2186500Y1923000D01*
G01X2182500Y1927000D01*
G01X2132436D01*
G01X2128436Y1923000D01*
G01Y1877000D01*
G01X2132436Y1873000D01*
G01X2182500D01*
G01X2186500Y1877000D01*
G37*
G36*
G01X411500Y-327000D02*
G01X411500Y-373000D01*
G01X407499Y-377000D01*
G01X357436D01*
G01X353435Y-373000D01*
G01Y-327000D01*
G01X357436Y-323000D01*
G01X407499D01*
G01X411500Y-327000D01*
G37*
G36*
G01X438500Y-327000D02*
G01X438500Y-373000D01*
G01X442501Y-377000D01*
G01X492564D01*
G01X496564Y-373000D01*
G01Y-327000D01*
G01X492564Y-323000D01*
G01X442501D01*
G01X438500Y-327000D01*
G37*
G04 PolygonModel End*

G04 Pad Start*
G54D10*
G01X332511Y200000D03*
G01X332511Y0D03*
G01X332511Y-200000D03*
G01X-332511Y-200000D03*
G01X-332511Y0D03*
G01X-332511Y200000D03*
G54D11*
G01X2289654Y-173786D03*
G01X2194658Y-173786D03*
G01X2099662Y-173786D03*
G54D12*
G01X2099662Y-404520D03*
G01X2289654Y-404520D03*
G54D13*
G01X2248012Y300000D03*
G01X1801988Y300000D03*
G54D14*
G01X1801988Y1700000D03*
G01X2248012Y1700000D03*
G54D15*
G01X1410623Y-25000D03*
G01X1410623Y275000D03*
G36*
G01X1046679Y219983D02*
G01X1232099Y219983D01*
G01X1236552Y219877D01*
G01X1240994Y219564D01*
G01X1245419Y219044D01*
G01X1249813Y218317D01*
G01X1254169Y217382D01*
G01X1258475Y216247D01*
G01X1262724Y214911D01*
G01X1266905Y213377D01*
G01X1271010Y211647D01*
G01X1275030Y209729D01*
G01X1278955Y207624D01*
G01X1282777Y205335D01*
G01X1286488Y202871D01*
G01X1290080Y200237D01*
G01X1293542Y197438D01*
G01X1296872Y194477D01*
G01X1300057Y191365D01*
G01X1303095Y188106D01*
G01X1305975Y184710D01*
G01X1308693Y181182D01*
G01X1311243Y177530D01*
G01X1313618Y173763D01*
G01X1315815Y169887D01*
G01X1317829Y165914D01*
G01X1319653Y157984D01*
G01X1489386D01*
G01Y91985D01*
G01X1319653D01*
G01X1317829Y84050D01*
G01X1315815Y80078D01*
G01X1313618Y76202D01*
G01X1311243Y72435D01*
G01X1308693Y68782D01*
G01X1305975Y65254D01*
G01X1303095Y61858D01*
G01X1300057Y58599D01*
G01X1296872Y55488D01*
G01X1293542Y52526D01*
G01X1290080Y49727D01*
G01X1286488Y47093D01*
G01X1282777Y44629D01*
G01X1278955Y42341D01*
G01X1275030Y40235D01*
G01X1271010Y38317D01*
G01X1266905Y36588D01*
G01X1262724Y35054D01*
G01X1258475Y33717D01*
G01X1254169Y32582D01*
G01X1249813Y31647D01*
G01X1245419Y30921D01*
G01X1240994Y30400D01*
G01X1236552Y30088D01*
G01X1232099Y29981D01*
G01X1046679D01*
G01X1042227Y30088D01*
G01X1037784Y30400D01*
G01X1033360Y30921D01*
G01X1028965Y31647D01*
G01X1024609Y32582D01*
G01X1020304Y33717D01*
G01X1016055Y35054D01*
G01X1011874Y36588D01*
G01X1007769Y38317D01*
G01X1003748Y40235D01*
G01X999824Y42341D01*
G01X996001Y44629D01*
G01X992290Y47093D01*
G01X988699Y49727D01*
G01X985237Y52526D01*
G01X981907Y55488D01*
G01X978722Y58599D01*
G01X975684Y61858D01*
G01X972803Y65254D01*
G01X970086Y68782D01*
G01X967536Y72435D01*
G01X965161Y76202D01*
G01X962964Y80078D01*
G01X960949Y84050D01*
G01X959126Y88114D01*
G01X957492Y92257D01*
G01X956057Y96473D01*
G01X954820Y100753D01*
G01X953787Y105086D01*
G01X952956Y109460D01*
G01X952331Y113872D01*
G01X951915Y118307D01*
G01X951706Y122755D01*
G01Y127210D01*
G01X951915Y131657D01*
G01X952331Y136092D01*
G01X952956Y140504D01*
G01X953787Y144878D01*
G01X954820Y149211D01*
G01X956057Y153491D01*
G01X957492Y157708D01*
G01X959126Y161850D01*
G01X960949Y165914D01*
G01X962964Y169887D01*
G01X965161Y173763D01*
G01X967536Y177530D01*
G01X970086Y181182D01*
G01X972803Y184710D01*
G01X975684Y188106D01*
G01X978722Y191365D01*
G01X981907Y194477D01*
G01X985237Y197438D01*
G01X988699Y200237D01*
G01X992290Y202871D01*
G01X996001Y205335D01*
G01X999824Y207624D01*
G01X1003748Y209729D01*
G01X1007769Y211647D01*
G01X1011874Y213377D01*
G01X1016055Y214911D01*
G01X1020304Y216247D01*
G01X1024609Y217382D01*
G01X1028965Y218317D01*
G01X1033360Y219044D01*
G01X1037784Y219564D01*
G01X1042227Y219877D01*
G01X1046679Y219983D01*
G37*
G54D16*
G01X2617501Y524993D03*
G54D18*
G01X2982499Y870001D03*
G01X2982499Y-870001D03*
G54D16*
G01X2617501Y-375006D03*
G01X2617501Y-524993D03*
G01X2617501Y-675005D03*
G01X2617501Y-224993D03*
G01X2617501Y-75006D03*
G01X2617501Y75006D03*
G01X2617501Y224993D03*
G01X2617501Y375006D03*
G01X2617501Y674980D03*
G54D19*
G01X1768460Y-1125000D03*
G01X2281540Y-1125000D03*
G54D20*
G01X2530009Y-3002495D03*
G01X1369991Y-3002495D03*
G54D21*
G01X1574995Y-2747505D03*
G01X1725007Y-2747505D03*
G01X1874994Y-2747505D03*
G01X2025006Y-2747505D03*
G01X2174993Y-2747505D03*
G01X2325006Y-2747505D03*
G54D20*
G01X1230009Y-3002495D03*
G01X69991Y-3002495D03*
G54D21*
G01X274994Y-2747505D03*
G01X425007Y-2747505D03*
G01X574994Y-2747505D03*
G01X725006Y-2747505D03*
G01X874993Y-2747505D03*
G01X1025006Y-2747505D03*
G54D22*
G01X1369991Y3002495D03*
G01X2530009Y3002495D03*
G54D23*
G01X2325006Y2747505D03*
G01X2174993Y2747505D03*
G01X2025006Y2747505D03*
G01X1874994Y2747505D03*
G01X1725007Y2747505D03*
G01X1574995Y2747505D03*
G54D22*
G01X69991Y3002495D03*
G01X1230009Y3002495D03*
G54D23*
G01X1025006Y2747505D03*
G01X874993Y2747505D03*
G01X725006Y2747505D03*
G01X574994Y2747505D03*
G01X425007Y2747505D03*
G01X274994Y2747505D03*
G54D20*
G01X-1369991Y-3002495D03*
G01X-2530009Y-3002495D03*
G54D21*
G01X-2325006Y-2747505D03*
G01X-2174993Y-2747505D03*
G01X-2025006Y-2747505D03*
G01X-1874994Y-2747505D03*
G01X-1725007Y-2747505D03*
G01X-1574995Y-2747505D03*
G54D20*
G01X-69991Y-3002495D03*
G01X-1230009Y-3002495D03*
G54D21*
G01X-1025006Y-2747505D03*
G01X-874993Y-2747505D03*
G01X-725006Y-2747505D03*
G01X-574994Y-2747505D03*
G01X-425007Y-2747505D03*
G01X-274994Y-2747505D03*
G54D22*
G01X-2530009Y3002495D03*
G01X-1369991Y3002495D03*
G54D23*
G01X-1574995Y2747505D03*
G01X-1725007Y2747505D03*
G01X-1874994Y2747505D03*
G01X-2025006Y2747505D03*
G01X-2174993Y2747505D03*
G01X-2325006Y2747505D03*
G54D22*
G01X-1230009Y3002495D03*
G01X-69991Y3002495D03*
G54D23*
G01X-274994Y2747505D03*
G01X-425007Y2747505D03*
G01X-574994Y2747505D03*
G01X-725006Y2747505D03*
G01X-874993Y2747505D03*
G01X-1025006Y2747505D03*
G54D24*
G01X2627497Y-1574995D03*
G01X2627500Y-1725007D03*
G01X2627500Y-1874994D03*
G01X2627500Y-2025006D03*
G01X2627500Y-2174993D03*
G01X2627500Y-2325006D03*
G54D25*
G01X3122500Y-1379999D03*
G01X3122500Y-2520002D03*
G54D24*
G01X2627497Y2325006D03*
G01X2627500Y2174993D03*
G01X2627500Y2025006D03*
G01X2627500Y1874994D03*
G01X2627500Y1725007D03*
G01X2627500Y1574995D03*
G54D25*
G01X3122500Y2520002D03*
G01X3122500Y1379999D03*
G54D26*
G01X-2627497Y-2325006D03*
G01X-2627500Y-2174993D03*
G01X-2627500Y-2025006D03*
G01X-2627500Y-1874994D03*
G01X-2627500Y-1725007D03*
G01X-2627500Y-1574995D03*
G54D18*
G01X-3122500Y-2520002D03*
G01X-3122500Y-1379999D03*
G54D26*
G01X-2627497Y1574995D03*
G01X-2627500Y1725007D03*
G01X-2627500Y1874994D03*
G01X-2627500Y2025006D03*
G01X-2627500Y2174993D03*
G01X-2627500Y2325006D03*
G54D18*
G01X-3122500Y1379999D03*
G01X-3122500Y2520002D03*
G04 Pad End*

M02*
