G04 Layer: DrillDrawingLayer*
G04 EasyEDA Pro v2.1.42.467b0aa0, 2024-01-01 20:36:04*
G04 Gerber Generator version 0.3*
G04 Scale: 100 percent, Rotated: No, Reflected: No*
G04 Dimensions in millimeters*
G04 Leading zeros omitted, absolute positions, 3 integers and 5 decimals*
%FSLAX35Y35*%
%MOMM*%
%ADD10C,0.254*%
G75*


G04 Image Start*
G36*
G01X-2919933Y-2880055D02*
G01X-2919933Y-2883662D01*
G01X-2916326D01*
G01X-2883662D01*
G01Y-2916326D01*
G01X-2916326D01*
G01Y-2883662D01*
G01X-2919933D01*
G01Y-2919933D01*
G01X-2880055D01*
G01Y-2880055D01*
G37*
G36*
G01X2880055Y2919933D02*
G01X2880055Y2916326D01*
G01X2883662D01*
G01X2916326D01*
G01Y2883662D01*
G01X2883662D01*
G01Y2916326D01*
G01X2880055D01*
G01Y2880055D01*
G01X2919933D01*
G01Y2919933D01*
G37*
G36*
G01X-2919933Y2919933D02*
G01X-2919933Y2916326D01*
G01X-2916326D01*
G01X-2883662D01*
G01Y2883662D01*
G01X-2916326D01*
G01Y2916326D01*
G01X-2919933D01*
G01Y2880055D01*
G01X-2880055D01*
G01Y2919933D01*
G37*
G36*
G01X2880055Y-2880055D02*
G01X2880055Y-2883662D01*
G01X2883662D01*
G01X2916326D01*
G01Y-2916326D01*
G01X2883662D01*
G01Y-2883662D01*
G01X2880055D01*
G01Y-2919933D01*
G01X2919933D01*
G01Y-2880055D01*
G37*
G36*
G01X3078988Y1169924D02*
G01X3076956Y1169822D01*
G01X3074975Y1169518D01*
G01X3073095Y1169060D01*
G01X3071216Y1168349D01*
G01X3069488Y1167536D01*
G01X3067863Y1166520D01*
G01X3066339Y1165403D01*
G01X3064916Y1164082D01*
G01X3063596Y1162660D01*
G01X3062478Y1161136D01*
G01X3061462Y1159510D01*
G01X3060649Y1157783D01*
G01X3059938Y1155954D01*
G01X3059481Y1154024D01*
G01X3059176Y1152042D01*
G01X3059074Y1150010D01*
G01X3062376D01*
G01X3062478Y1151687D01*
G01X3062732Y1153363D01*
G01X3063138Y1154938D01*
G01X3063697Y1156462D01*
G01X3064408Y1157935D01*
G01X3065221Y1159307D01*
G01X3066186Y1160577D01*
G01X3067253Y1161745D01*
G01X3068422Y1162812D01*
G01X3069692Y1163777D01*
G01X3071063Y1164590D01*
G01X3072536Y1165301D01*
G01X3074060Y1165860D01*
G01X3075635Y1166266D01*
G01X3077312Y1166520D01*
G01X3078988Y1166622D01*
G01X3080715Y1166520D01*
G01X3082341Y1166266D01*
G01X3083916Y1165860D01*
G01X3085440Y1165301D01*
G01X3086913Y1164590D01*
G01X3088284Y1163777D01*
G01X3089554Y1162812D01*
G01X3090723Y1161745D01*
G01X3091840Y1160577D01*
G01X3092755Y1159307D01*
G01X3093618Y1157935D01*
G01X3094330Y1156462D01*
G01X3094888Y1154938D01*
G01X3095295Y1153363D01*
G01X3095549Y1151687D01*
G01X3095600Y1150010D01*
G01X3095549Y1148283D01*
G01X3095295Y1146658D01*
G01X3094888Y1145083D01*
G01X3094330Y1143559D01*
G01X3093618Y1142086D01*
G01X3092755Y1140714D01*
G01X3091840Y1139444D01*
G01X3090723Y1138276D01*
G01X3089554Y1137158D01*
G01X3088284Y1136244D01*
G01X3086913Y1135380D01*
G01X3085440Y1134669D01*
G01X3083916Y1134110D01*
G01X3082341Y1133704D01*
G01X3080715Y1133450D01*
G01X3078988Y1133399D01*
G01X3077312Y1133450D01*
G01X3075635Y1133704D01*
G01X3074060Y1134110D01*
G01X3072536Y1134669D01*
G01X3071063Y1135380D01*
G01X3069692Y1136244D01*
G01X3068422Y1137158D01*
G01X3067253Y1138276D01*
G01X3066186Y1139444D01*
G01X3065221Y1140714D01*
G01X3064408Y1142086D01*
G01X3063697Y1143559D01*
G01X3063138Y1145083D01*
G01X3062732Y1146658D01*
G01X3062478Y1148283D01*
G01X3062376Y1150010D01*
G01X3059074D01*
G01X3059176Y1147978D01*
G01X3059481Y1145997D01*
G01X3059938Y1144067D01*
G01X3060649Y1142238D01*
G01X3061462Y1140511D01*
G01X3062478Y1138834D01*
G01X3063596Y1137310D01*
G01X3064916Y1135888D01*
G01X3066339Y1134618D01*
G01X3067863Y1133450D01*
G01X3069488Y1132484D01*
G01X3071216Y1131621D01*
G01X3073095Y1130960D01*
G01X3074975Y1130452D01*
G01X3076956Y1130148D01*
G01X3078988Y1130046D01*
G01X3081020Y1130148D01*
G01X3083001Y1130452D01*
G01X3084932Y1130960D01*
G01X3086760Y1131621D01*
G01X3088488Y1132484D01*
G01X3090164Y1133450D01*
G01X3091688Y1134618D01*
G01X3093110Y1135888D01*
G01X3094380Y1137310D01*
G01X3095549Y1138834D01*
G01X3096514Y1140511D01*
G01X3097378Y1142238D01*
G01X3098038Y1144067D01*
G01X3098546Y1145997D01*
G01X3098851Y1147978D01*
G01X3098952Y1150010D01*
G01X3098851Y1152042D01*
G01X3098546Y1154024D01*
G01X3098038Y1155954D01*
G01X3097378Y1157783D01*
G01X3096514Y1159510D01*
G01X3095549Y1161136D01*
G01X3094380Y1162660D01*
G01X3093110Y1164082D01*
G01X3091688Y1165403D01*
G01X3090164Y1166520D01*
G01X3088488Y1167536D01*
G01X3086760Y1168349D01*
G01X3084932Y1169060D01*
G01X3083001Y1169518D01*
G01X3081020Y1169822D01*
G37*
G36*
G01X2570988Y1169924D02*
G01X2568956Y1169822D01*
G01X2566975Y1169518D01*
G01X2565095Y1169060D01*
G01X2563216Y1168349D01*
G01X2561488Y1167536D01*
G01X2559863Y1166520D01*
G01X2558339Y1165403D01*
G01X2556916Y1164082D01*
G01X2555596Y1162660D01*
G01X2554478Y1161136D01*
G01X2553462Y1159510D01*
G01X2552649Y1157783D01*
G01X2551938Y1155954D01*
G01X2551481Y1154024D01*
G01X2551176Y1152042D01*
G01X2551074Y1150010D01*
G01X2554376D01*
G01X2554478Y1151687D01*
G01X2554732Y1153363D01*
G01X2555138Y1154938D01*
G01X2555697Y1156462D01*
G01X2556408Y1157935D01*
G01X2557221Y1159307D01*
G01X2558186Y1160577D01*
G01X2559253Y1161745D01*
G01X2560422Y1162812D01*
G01X2561692Y1163777D01*
G01X2563063Y1164590D01*
G01X2564536Y1165301D01*
G01X2566060Y1165860D01*
G01X2567635Y1166266D01*
G01X2569312Y1166520D01*
G01X2570988Y1166622D01*
G01X2572715Y1166520D01*
G01X2574341Y1166266D01*
G01X2575916Y1165860D01*
G01X2577440Y1165301D01*
G01X2578913Y1164590D01*
G01X2580284Y1163777D01*
G01X2581554Y1162812D01*
G01X2582723Y1161745D01*
G01X2583840Y1160577D01*
G01X2584755Y1159307D01*
G01X2585618Y1157935D01*
G01X2586330Y1156462D01*
G01X2586888Y1154938D01*
G01X2587295Y1153363D01*
G01X2587549Y1151687D01*
G01X2587600Y1150010D01*
G01X2587549Y1148283D01*
G01X2587295Y1146658D01*
G01X2586888Y1145083D01*
G01X2586330Y1143559D01*
G01X2585618Y1142086D01*
G01X2584755Y1140714D01*
G01X2583840Y1139444D01*
G01X2582723Y1138276D01*
G01X2581554Y1137158D01*
G01X2580284Y1136244D01*
G01X2578913Y1135380D01*
G01X2577440Y1134669D01*
G01X2575916Y1134110D01*
G01X2574341Y1133704D01*
G01X2572715Y1133450D01*
G01X2570988Y1133399D01*
G01X2569312Y1133450D01*
G01X2567635Y1133704D01*
G01X2566060Y1134110D01*
G01X2564536Y1134669D01*
G01X2563063Y1135380D01*
G01X2561692Y1136244D01*
G01X2560422Y1137158D01*
G01X2559253Y1138276D01*
G01X2558186Y1139444D01*
G01X2557221Y1140714D01*
G01X2556408Y1142086D01*
G01X2555697Y1143559D01*
G01X2555138Y1145083D01*
G01X2554732Y1146658D01*
G01X2554478Y1148283D01*
G01X2554376Y1150010D01*
G01X2551074D01*
G01X2551176Y1147978D01*
G01X2551481Y1145997D01*
G01X2551938Y1144067D01*
G01X2552649Y1142238D01*
G01X2553462Y1140511D01*
G01X2554478Y1138834D01*
G01X2555596Y1137310D01*
G01X2556916Y1135888D01*
G01X2558339Y1134618D01*
G01X2559863Y1133450D01*
G01X2561488Y1132484D01*
G01X2563216Y1131621D01*
G01X2565095Y1130960D01*
G01X2566975Y1130452D01*
G01X2568956Y1130148D01*
G01X2570988Y1130046D01*
G01X2573020Y1130148D01*
G01X2575001Y1130452D01*
G01X2576932Y1130960D01*
G01X2578760Y1131621D01*
G01X2580488Y1132484D01*
G01X2582164Y1133450D01*
G01X2583688Y1134618D01*
G01X2585110Y1135888D01*
G01X2586380Y1137310D01*
G01X2587549Y1138834D01*
G01X2588514Y1140511D01*
G01X2589378Y1142238D01*
G01X2590038Y1144067D01*
G01X2590546Y1145997D01*
G01X2590851Y1147978D01*
G01X2590952Y1150010D01*
G01X2590851Y1152042D01*
G01X2590546Y1154024D01*
G01X2590038Y1155954D01*
G01X2589378Y1157783D01*
G01X2588514Y1159510D01*
G01X2587549Y1161136D01*
G01X2586380Y1162660D01*
G01X2585110Y1164082D01*
G01X2583688Y1165403D01*
G01X2582164Y1166520D01*
G01X2580488Y1167536D01*
G01X2578760Y1168349D01*
G01X2576932Y1169060D01*
G01X2575001Y1169518D01*
G01X2573020Y1169822D01*
G37*
G36*
G01X3078988Y-1130046D02*
G01X3076956Y-1130148D01*
G01X3074975Y-1130452D01*
G01X3073095Y-1130960D01*
G01X3071216Y-1131621D01*
G01X3069488Y-1132484D01*
G01X3067863Y-1133450D01*
G01X3066339Y-1134618D01*
G01X3064916Y-1135888D01*
G01X3063596Y-1137310D01*
G01X3062478Y-1138834D01*
G01X3061462Y-1140511D01*
G01X3060649Y-1142238D01*
G01X3059938Y-1144067D01*
G01X3059481Y-1145997D01*
G01X3059176Y-1147978D01*
G01X3059074Y-1150010D01*
G01X3062376D01*
G01X3062478Y-1148283D01*
G01X3062732Y-1146658D01*
G01X3063138Y-1145083D01*
G01X3063697Y-1143559D01*
G01X3064408Y-1142086D01*
G01X3065221Y-1140714D01*
G01X3066186Y-1139444D01*
G01X3067253Y-1138276D01*
G01X3068422Y-1137158D01*
G01X3069692Y-1136244D01*
G01X3071063Y-1135380D01*
G01X3072536Y-1134669D01*
G01X3074060Y-1134110D01*
G01X3075635Y-1133704D01*
G01X3077312Y-1133450D01*
G01X3078988Y-1133399D01*
G01X3080715Y-1133450D01*
G01X3082341Y-1133704D01*
G01X3083916Y-1134110D01*
G01X3085440Y-1134669D01*
G01X3086913Y-1135380D01*
G01X3088284Y-1136244D01*
G01X3089554Y-1137158D01*
G01X3090723Y-1138276D01*
G01X3091840Y-1139444D01*
G01X3092755Y-1140714D01*
G01X3093618Y-1142086D01*
G01X3094330Y-1143559D01*
G01X3094888Y-1145083D01*
G01X3095295Y-1146658D01*
G01X3095549Y-1148283D01*
G01X3095600Y-1150010D01*
G01X3095549Y-1151687D01*
G01X3095295Y-1153363D01*
G01X3094888Y-1154938D01*
G01X3094330Y-1156462D01*
G01X3093618Y-1157935D01*
G01X3092755Y-1159307D01*
G01X3091840Y-1160577D01*
G01X3090723Y-1161745D01*
G01X3089554Y-1162812D01*
G01X3088284Y-1163777D01*
G01X3086913Y-1164590D01*
G01X3085440Y-1165301D01*
G01X3083916Y-1165860D01*
G01X3082341Y-1166266D01*
G01X3080715Y-1166520D01*
G01X3078988Y-1166622D01*
G01X3077312Y-1166520D01*
G01X3075635Y-1166266D01*
G01X3074060Y-1165860D01*
G01X3072536Y-1165301D01*
G01X3071063Y-1164590D01*
G01X3069692Y-1163777D01*
G01X3068422Y-1162812D01*
G01X3067253Y-1161745D01*
G01X3066186Y-1160577D01*
G01X3065221Y-1159307D01*
G01X3064408Y-1157935D01*
G01X3063697Y-1156462D01*
G01X3063138Y-1154938D01*
G01X3062732Y-1153363D01*
G01X3062478Y-1151687D01*
G01X3062376Y-1150010D01*
G01X3059074D01*
G01X3059176Y-1152042D01*
G01X3059481Y-1154024D01*
G01X3059938Y-1155954D01*
G01X3060649Y-1157783D01*
G01X3061462Y-1159510D01*
G01X3062478Y-1161136D01*
G01X3063596Y-1162660D01*
G01X3064916Y-1164082D01*
G01X3066339Y-1165403D01*
G01X3067863Y-1166520D01*
G01X3069488Y-1167536D01*
G01X3071216Y-1168349D01*
G01X3073095Y-1169060D01*
G01X3074975Y-1169518D01*
G01X3076956Y-1169822D01*
G01X3078988Y-1169924D01*
G01X3081020Y-1169822D01*
G01X3083001Y-1169518D01*
G01X3084932Y-1169060D01*
G01X3086760Y-1168349D01*
G01X3088488Y-1167536D01*
G01X3090164Y-1166520D01*
G01X3091688Y-1165403D01*
G01X3093110Y-1164082D01*
G01X3094380Y-1162660D01*
G01X3095549Y-1161136D01*
G01X3096514Y-1159510D01*
G01X3097378Y-1157783D01*
G01X3098038Y-1155954D01*
G01X3098546Y-1154024D01*
G01X3098851Y-1152042D01*
G01X3098952Y-1150010D01*
G01X3098851Y-1147978D01*
G01X3098546Y-1145997D01*
G01X3098038Y-1144067D01*
G01X3097378Y-1142238D01*
G01X3096514Y-1140511D01*
G01X3095549Y-1138834D01*
G01X3094380Y-1137310D01*
G01X3093110Y-1135888D01*
G01X3091688Y-1134618D01*
G01X3090164Y-1133450D01*
G01X3088488Y-1132484D01*
G01X3086760Y-1131621D01*
G01X3084932Y-1130960D01*
G01X3083001Y-1130452D01*
G01X3081020Y-1130148D01*
G37*
G36*
G01X2570988Y-1130046D02*
G01X2568956Y-1130148D01*
G01X2566975Y-1130452D01*
G01X2565095Y-1130960D01*
G01X2563216Y-1131621D01*
G01X2561488Y-1132484D01*
G01X2559863Y-1133450D01*
G01X2558339Y-1134618D01*
G01X2556916Y-1135888D01*
G01X2555596Y-1137310D01*
G01X2554478Y-1138834D01*
G01X2553462Y-1140511D01*
G01X2552649Y-1142238D01*
G01X2551938Y-1144067D01*
G01X2551481Y-1145997D01*
G01X2551176Y-1147978D01*
G01X2551074Y-1150010D01*
G01X2554376D01*
G01X2554478Y-1148283D01*
G01X2554732Y-1146658D01*
G01X2555138Y-1145083D01*
G01X2555697Y-1143559D01*
G01X2556408Y-1142086D01*
G01X2557221Y-1140714D01*
G01X2558186Y-1139444D01*
G01X2559253Y-1138276D01*
G01X2560422Y-1137158D01*
G01X2561692Y-1136244D01*
G01X2563063Y-1135380D01*
G01X2564536Y-1134669D01*
G01X2566060Y-1134110D01*
G01X2567635Y-1133704D01*
G01X2569312Y-1133450D01*
G01X2570988Y-1133399D01*
G01X2572715Y-1133450D01*
G01X2574341Y-1133704D01*
G01X2575916Y-1134110D01*
G01X2577440Y-1134669D01*
G01X2578913Y-1135380D01*
G01X2580284Y-1136244D01*
G01X2581554Y-1137158D01*
G01X2582723Y-1138276D01*
G01X2583840Y-1139444D01*
G01X2584755Y-1140714D01*
G01X2585618Y-1142086D01*
G01X2586330Y-1143559D01*
G01X2586888Y-1145083D01*
G01X2587295Y-1146658D01*
G01X2587549Y-1148283D01*
G01X2587600Y-1150010D01*
G01X2587549Y-1151687D01*
G01X2587295Y-1153363D01*
G01X2586888Y-1154938D01*
G01X2586330Y-1156462D01*
G01X2585618Y-1157935D01*
G01X2584755Y-1159307D01*
G01X2583840Y-1160577D01*
G01X2582723Y-1161745D01*
G01X2581554Y-1162812D01*
G01X2580284Y-1163777D01*
G01X2578913Y-1164590D01*
G01X2577440Y-1165301D01*
G01X2575916Y-1165860D01*
G01X2574341Y-1166266D01*
G01X2572715Y-1166520D01*
G01X2570988Y-1166622D01*
G01X2569312Y-1166520D01*
G01X2567635Y-1166266D01*
G01X2566060Y-1165860D01*
G01X2564536Y-1165301D01*
G01X2563063Y-1164590D01*
G01X2561692Y-1163777D01*
G01X2560422Y-1162812D01*
G01X2559253Y-1161745D01*
G01X2558186Y-1160577D01*
G01X2557221Y-1159307D01*
G01X2556408Y-1157935D01*
G01X2555697Y-1156462D01*
G01X2555138Y-1154938D01*
G01X2554732Y-1153363D01*
G01X2554478Y-1151687D01*
G01X2554376Y-1150010D01*
G01X2551074D01*
G01X2551176Y-1152042D01*
G01X2551481Y-1154024D01*
G01X2551938Y-1155954D01*
G01X2552649Y-1157783D01*
G01X2553462Y-1159510D01*
G01X2554478Y-1161136D01*
G01X2555596Y-1162660D01*
G01X2556916Y-1164082D01*
G01X2558339Y-1165403D01*
G01X2559863Y-1166520D01*
G01X2561488Y-1167536D01*
G01X2563216Y-1168349D01*
G01X2565095Y-1169060D01*
G01X2566975Y-1169518D01*
G01X2568956Y-1169822D01*
G01X2570988Y-1169924D01*
G01X2573020Y-1169822D01*
G01X2575001Y-1169518D01*
G01X2576932Y-1169060D01*
G01X2578760Y-1168349D01*
G01X2580488Y-1167536D01*
G01X2582164Y-1166520D01*
G01X2583688Y-1165403D01*
G01X2585110Y-1164082D01*
G01X2586380Y-1162660D01*
G01X2587549Y-1161136D01*
G01X2588514Y-1159510D01*
G01X2589378Y-1157783D01*
G01X2590038Y-1155954D01*
G01X2590546Y-1154024D01*
G01X2590851Y-1152042D01*
G01X2590952Y-1150010D01*
G01X2590851Y-1147978D01*
G01X2590546Y-1145997D01*
G01X2590038Y-1144067D01*
G01X2589378Y-1142238D01*
G01X2588514Y-1140511D01*
G01X2587549Y-1138834D01*
G01X2586380Y-1137310D01*
G01X2585110Y-1135888D01*
G01X2583688Y-1134618D01*
G01X2582164Y-1133450D01*
G01X2580488Y-1132484D01*
G01X2578760Y-1131621D01*
G01X2576932Y-1130960D01*
G01X2575001Y-1130452D01*
G01X2573020Y-1130148D01*
G37*
G36*
G01X2730043Y1392276D02*
G01X2731973Y1388923D01*
G01X2735834D01*
G01X2764180D01*
G01X2757068Y1376680D01*
G01X2750007Y1364386D01*
G01X2742895Y1376680D01*
G01X2735834Y1388923D01*
G01X2731973D01*
G01X2740050Y1375004D01*
G01X2750007Y1357732D01*
G01X2769921Y1392276D01*
G37*
G36*
G01X2280056Y-57709D02*
G01X2281987Y-61062D01*
G01X2285797D01*
G01X2314194D01*
G01X2307082Y-73355D01*
G01X2300021Y-85598D01*
G01X2292909Y-73355D01*
G01X2285797Y-61062D01*
G01X2281987D01*
G01X2290013Y-74981D01*
G01X2300021Y-92253D01*
G01X2319934Y-57709D01*
G37*
G36*
G01X1555039Y217272D02*
G01X1556969Y213919D01*
G01X1560830D01*
G01X1589176D01*
G01X1582115Y201676D01*
G01X1575003Y189382D01*
G01X1567891Y201676D01*
G01X1560830Y213919D01*
G01X1556969D01*
G01X1565046Y200000D01*
G01X1575003Y182728D01*
G01X1594917Y217272D01*
G37*
G36*
G01X2055063Y217272D02*
G01X2056994Y213919D01*
G01X2060804D01*
G01X2089201D01*
G01X2082089Y201676D01*
G01X2074977Y189382D01*
G01X2067916Y201676D01*
G01X2060804Y213919D01*
G01X2056994D01*
G01X2074977Y182728D01*
G01X2084984Y200000D01*
G01X2094941Y217272D01*
G37*
G36*
G01X1830070Y-357734D02*
G01X1831950Y-361036D01*
G01X1835810D01*
G01X1864208D01*
G01X1849984Y-385623D01*
G01X1842922Y-373329D01*
G01X1835810Y-361036D01*
G01X1831950D01*
G01X1849984Y-392278D01*
G01X1859991Y-375006D01*
G01X1869948Y-357734D01*
G37*
G36*
G01X530047Y-332740D02*
G01X531978Y-336042D01*
G01X535838D01*
G01X564185D01*
G01X557073Y-348336D01*
G01X550012Y-360629D01*
G01X542900Y-348336D01*
G01X535838Y-336042D01*
G01X531978D01*
G01X540055Y-350012D01*
G01X550012Y-367284D01*
G01X569925Y-332740D01*
G37*
G36*
G01X1234592Y367284D02*
G01X1236523Y363931D01*
G01X1240333D01*
G01X1268679D01*
G01X1261618Y351638D01*
G01X1254506Y339395D01*
G01X1247394Y351638D01*
G01X1240333Y363931D01*
G01X1236523D01*
G01X1254506Y332740D01*
G01X1264463Y350012D01*
G01X1274470Y367284D01*
G37*
G36*
G01X1080059Y-2782722D02*
G01X1081989Y-2786075D01*
G01X1085799D01*
G01X1114196D01*
G01X1107084Y-2798318D01*
G01X1100023Y-2810612D01*
G01X1092911Y-2798318D01*
G01X1085799Y-2786075D01*
G01X1081989D01*
G01X1090016Y-2799994D01*
G01X1100023Y-2817266D01*
G01X1119937Y-2782722D01*
G37*
G36*
G01X1080059Y-2732735D02*
G01X1081938Y-2736037D01*
G01X1085799D01*
G01X1114196D01*
G01X1107084Y-2748331D01*
G01X1100023Y-2760624D01*
G01X1085799Y-2736037D01*
G01X1081938D01*
G01X1090016Y-2750007D01*
G01X1100023Y-2767279D01*
G01X1119937Y-2732735D01*
G37*
G36*
G01X1080059Y-2682748D02*
G01X1081938Y-2686050D01*
G01X1085799D01*
G01X1114196D01*
G01X1107084Y-2698344D01*
G01X1100023Y-2710637D01*
G01X1085799Y-2686050D01*
G01X1081938D01*
G01X1090016Y-2700020D01*
G01X1100023Y-2717292D01*
G01X1119937Y-2682748D01*
G37*
G36*
G01X1080059Y-2632710D02*
G01X1081989Y-2636063D01*
G01X1085799D01*
G01X1114196D01*
G01X1107084Y-2648356D01*
G01X1100023Y-2660599D01*
G01X1092911Y-2648356D01*
G01X1085799Y-2636063D01*
G01X1081989D01*
G01X1090016Y-2649982D01*
G01X1100023Y-2667254D01*
G01X1119937Y-2632710D01*
G37*
G36*
G01X1080059Y-2582723D02*
G01X1081989Y-2586076D01*
G01X1085799D01*
G01X1114196D01*
G01X1107084Y-2598318D01*
G01X1100023Y-2610612D01*
G01X1092911Y-2598318D01*
G01X1085799Y-2586076D01*
G01X1081989D01*
G01X1090016Y-2599995D01*
G01X1100023Y-2617267D01*
G01X1119937Y-2582723D01*
G37*
G36*
G01X1080059Y-2532736D02*
G01X1081938Y-2536038D01*
G01X1085799D01*
G01X1114196D01*
G01X1107084Y-2548331D01*
G01X1100023Y-2560625D01*
G01X1085799Y-2536038D01*
G01X1081938D01*
G01X1090016Y-2550008D01*
G01X1100023Y-2567280D01*
G01X1119937Y-2532736D01*
G37*
G36*
G01X1080059Y-2482748D02*
G01X1081938Y-2486050D01*
G01X1085799D01*
G01X1114196D01*
G01X1107084Y-2498344D01*
G01X1100023Y-2510638D01*
G01X1085799Y-2486050D01*
G01X1081938D01*
G01X1090016Y-2500020D01*
G01X1100023Y-2517292D01*
G01X1119937Y-2482748D01*
G37*
G36*
G01X1080059Y-2432710D02*
G01X1081989Y-2436063D01*
G01X1085799D01*
G01X1114196D01*
G01X1107084Y-2448357D01*
G01X1100023Y-2460600D01*
G01X1092911Y-2448357D01*
G01X1085799Y-2436063D01*
G01X1081989D01*
G01X1090016Y-2449982D01*
G01X1100023Y-2467254D01*
G01X1119937Y-2432710D01*
G37*
G36*
G01X930046Y-2782722D02*
G01X931977Y-2786075D01*
G01X935838D01*
G01X964184D01*
G01X957072Y-2798318D01*
G01X950011Y-2810612D01*
G01X942899Y-2798318D01*
G01X935838Y-2786075D01*
G01X931977D01*
G01X940054Y-2799994D01*
G01X950011Y-2817266D01*
G01X969924Y-2782722D01*
G37*
G36*
G01X930046Y-2732735D02*
G01X931977Y-2736037D01*
G01X935838D01*
G01X964184D01*
G01X957072Y-2748331D01*
G01X950011Y-2760624D01*
G01X942899Y-2748331D01*
G01X935838Y-2736037D01*
G01X931977D01*
G01X940054Y-2750007D01*
G01X950011Y-2767279D01*
G01X969924Y-2732735D01*
G37*
G36*
G01X930046Y-2682748D02*
G01X931977Y-2686050D01*
G01X935838D01*
G01X964184D01*
G01X957072Y-2698344D01*
G01X950011Y-2710637D01*
G01X942899Y-2698344D01*
G01X935838Y-2686050D01*
G01X931977D01*
G01X940054Y-2700020D01*
G01X950011Y-2717292D01*
G01X969924Y-2682748D01*
G37*
G36*
G01X930046Y-2632710D02*
G01X931977Y-2636063D01*
G01X935838D01*
G01X964184D01*
G01X957072Y-2648356D01*
G01X950011Y-2660599D01*
G01X942899Y-2648356D01*
G01X935838Y-2636063D01*
G01X931977D01*
G01X940054Y-2649982D01*
G01X950011Y-2667254D01*
G01X969924Y-2632710D01*
G37*
G36*
G01X930046Y-2582723D02*
G01X931977Y-2586076D01*
G01X935838D01*
G01X964184D01*
G01X957072Y-2598318D01*
G01X950011Y-2610612D01*
G01X942899Y-2598318D01*
G01X935838Y-2586076D01*
G01X931977D01*
G01X940054Y-2599995D01*
G01X950011Y-2617267D01*
G01X969924Y-2582723D01*
G37*
G36*
G01X930046Y-2532736D02*
G01X931977Y-2536038D01*
G01X935838D01*
G01X964184D01*
G01X957072Y-2548331D01*
G01X950011Y-2560625D01*
G01X942899Y-2548331D01*
G01X935838Y-2536038D01*
G01X931977D01*
G01X940054Y-2550008D01*
G01X950011Y-2567280D01*
G01X969924Y-2532736D01*
G37*
G36*
G01X930046Y-2482748D02*
G01X931977Y-2486050D01*
G01X935838D01*
G01X964184D01*
G01X957072Y-2498344D01*
G01X950011Y-2510638D01*
G01X942899Y-2498344D01*
G01X935838Y-2486050D01*
G01X931977D01*
G01X940054Y-2500020D01*
G01X950011Y-2517292D01*
G01X969924Y-2482748D01*
G37*
G36*
G01X930046Y-2432710D02*
G01X931977Y-2436063D01*
G01X935838D01*
G01X964184D01*
G01X957072Y-2448357D01*
G01X950011Y-2460600D01*
G01X942899Y-2448357D01*
G01X935838Y-2436063D01*
G01X931977D01*
G01X940054Y-2449982D01*
G01X950011Y-2467254D01*
G01X969924Y-2432710D01*
G37*
G36*
G01X2230069Y-2432710D02*
G01X2232000Y-2436063D01*
G01X2235810D01*
G01X2264207D01*
G01X2257095Y-2448357D01*
G01X2249983Y-2460600D01*
G01X2242922Y-2448357D01*
G01X2235810Y-2436063D01*
G01X2232000D01*
G01X2249983Y-2467254D01*
G01X2259990Y-2449982D01*
G01X2269947Y-2432710D01*
G37*
G36*
G01X2230069Y-2482748D02*
G01X2231949Y-2486050D01*
G01X2235810D01*
G01X2264207D01*
G01X2249983Y-2510638D01*
G01X2242922Y-2498344D01*
G01X2235810Y-2486050D01*
G01X2231949D01*
G01X2249983Y-2517292D01*
G01X2259990Y-2500020D01*
G01X2269947Y-2482748D01*
G37*
G36*
G01X2230069Y-2532736D02*
G01X2231949Y-2536038D01*
G01X2235810D01*
G01X2264207D01*
G01X2249983Y-2560625D01*
G01X2242922Y-2548331D01*
G01X2235810Y-2536038D01*
G01X2231949D01*
G01X2249983Y-2567280D01*
G01X2259990Y-2550008D01*
G01X2269947Y-2532736D01*
G37*
G36*
G01X2230069Y-2582723D02*
G01X2232000Y-2586076D01*
G01X2235810D01*
G01X2264207D01*
G01X2257095Y-2598318D01*
G01X2249983Y-2610612D01*
G01X2242922Y-2598318D01*
G01X2235810Y-2586076D01*
G01X2232000D01*
G01X2249983Y-2617267D01*
G01X2259990Y-2599995D01*
G01X2269947Y-2582723D01*
G37*
G36*
G01X2230069Y-2682748D02*
G01X2231949Y-2686050D01*
G01X2235810D01*
G01X2264207D01*
G01X2249983Y-2710637D01*
G01X2242922Y-2698344D01*
G01X2235810Y-2686050D01*
G01X2231949D01*
G01X2249983Y-2717292D01*
G01X2259990Y-2700020D01*
G01X2269947Y-2682748D01*
G37*
G36*
G01X2230069Y-2632710D02*
G01X2232000Y-2636063D01*
G01X2235810D01*
G01X2264207D01*
G01X2257095Y-2648356D01*
G01X2249983Y-2660599D01*
G01X2242922Y-2648356D01*
G01X2235810Y-2636063D01*
G01X2232000D01*
G01X2249983Y-2667254D01*
G01X2259990Y-2649982D01*
G01X2269947Y-2632710D01*
G37*
G36*
G01X2230069Y-2732735D02*
G01X2231949Y-2736037D01*
G01X2235810D01*
G01X2264207D01*
G01X2249983Y-2760624D01*
G01X2242922Y-2748331D01*
G01X2235810Y-2736037D01*
G01X2231949D01*
G01X2249983Y-2767279D01*
G01X2259990Y-2750007D01*
G01X2269947Y-2732735D01*
G37*
G36*
G01X2230069Y-2782722D02*
G01X2232000Y-2786075D01*
G01X2235810D01*
G01X2264207D01*
G01X2257095Y-2798318D01*
G01X2249983Y-2810612D01*
G01X2242922Y-2798318D01*
G01X2235810Y-2786075D01*
G01X2232000D01*
G01X2249983Y-2817266D01*
G01X2259990Y-2799994D01*
G01X2269947Y-2782722D01*
G37*
G36*
G01X2380082Y-2782722D02*
G01X2382012Y-2786075D01*
G01X2385822D01*
G01X2414168D01*
G01X2407107Y-2798318D01*
G01X2399995Y-2810612D01*
G01X2392934Y-2798318D01*
G01X2385822Y-2786075D01*
G01X2382012D01*
G01X2399995Y-2817266D01*
G01X2409952Y-2799994D01*
G01X2419960Y-2782722D01*
G37*
G36*
G01X2380082Y-2732735D02*
G01X2381961Y-2736037D01*
G01X2385822D01*
G01X2414168D01*
G01X2407107Y-2748331D01*
G01X2399995Y-2760624D01*
G01X2392934Y-2748331D01*
G01X2385822Y-2736037D01*
G01X2381961D01*
G01X2399995Y-2767279D01*
G01X2409952Y-2750007D01*
G01X2419960Y-2732735D01*
G37*
G36*
G01X2380082Y-2682748D02*
G01X2381961Y-2686050D01*
G01X2385822D01*
G01X2414168D01*
G01X2407107Y-2698344D01*
G01X2399995Y-2710637D01*
G01X2392934Y-2698344D01*
G01X2385822Y-2686050D01*
G01X2381961D01*
G01X2399995Y-2717292D01*
G01X2409952Y-2700020D01*
G01X2419960Y-2682748D01*
G37*
G36*
G01X2380082Y-2632710D02*
G01X2382012Y-2636063D01*
G01X2385822D01*
G01X2414168D01*
G01X2407107Y-2648356D01*
G01X2399995Y-2660599D01*
G01X2392934Y-2648356D01*
G01X2385822Y-2636063D01*
G01X2382012D01*
G01X2399995Y-2667254D01*
G01X2409952Y-2649982D01*
G01X2419960Y-2632710D01*
G37*
G36*
G01X2380082Y-2582723D02*
G01X2382012Y-2586076D01*
G01X2385822D01*
G01X2414168D01*
G01X2407107Y-2598318D01*
G01X2399995Y-2610612D01*
G01X2392934Y-2598318D01*
G01X2385822Y-2586076D01*
G01X2382012D01*
G01X2399995Y-2617267D01*
G01X2409952Y-2599995D01*
G01X2419960Y-2582723D01*
G37*
G36*
G01X2380082Y-2532736D02*
G01X2381961Y-2536038D01*
G01X2385822D01*
G01X2414168D01*
G01X2407107Y-2548331D01*
G01X2399995Y-2560625D01*
G01X2392934Y-2548331D01*
G01X2385822Y-2536038D01*
G01X2381961D01*
G01X2399995Y-2567280D01*
G01X2409952Y-2550008D01*
G01X2419960Y-2532736D01*
G37*
G36*
G01X2380082Y-2482748D02*
G01X2381961Y-2486050D01*
G01X2385822D01*
G01X2414168D01*
G01X2407107Y-2498344D01*
G01X2399995Y-2510638D01*
G01X2392934Y-2498344D01*
G01X2385822Y-2486050D01*
G01X2381961D01*
G01X2399995Y-2517292D01*
G01X2409952Y-2500020D01*
G01X2419960Y-2482748D01*
G37*
G36*
G01X2380082Y-2432710D02*
G01X2382012Y-2436063D01*
G01X2385822D01*
G01X2414168D01*
G01X2407107Y-2448357D01*
G01X2399995Y-2460600D01*
G01X2392934Y-2448357D01*
G01X2385822Y-2436063D01*
G01X2382012D01*
G01X2399995Y-2467254D01*
G01X2409952Y-2449982D01*
G01X2419960Y-2432710D01*
G37*
G36*
G01X2430069Y-2382723D02*
G01X2431999Y-2386076D01*
G01X2435809D01*
G01X2464206D01*
G01X2457094Y-2398319D01*
G01X2449982Y-2410612D01*
G01X2442921Y-2398319D01*
G01X2435809Y-2386076D01*
G01X2431999D01*
G01X2449982Y-2417267D01*
G01X2459990Y-2399995D01*
G01X2469947Y-2382723D01*
G37*
G36*
G01X2480056Y-2382723D02*
G01X2481986Y-2386076D01*
G01X2485796D01*
G01X2514194D01*
G01X2507082Y-2398319D01*
G01X2500020Y-2410612D01*
G01X2492908Y-2398319D01*
G01X2485796Y-2386076D01*
G01X2481986D01*
G01X2490013Y-2399995D01*
G01X2500020Y-2417267D01*
G01X2519934Y-2382723D01*
G37*
G36*
G01X2530043Y-2382723D02*
G01X2531974Y-2386076D01*
G01X2535834D01*
G01X2564181D01*
G01X2557069Y-2398319D01*
G01X2550008Y-2410612D01*
G01X2542896Y-2398319D01*
G01X2535834Y-2386076D01*
G01X2531974D01*
G01X2540051Y-2399995D01*
G01X2550008Y-2417267D01*
G01X2569921Y-2382723D01*
G37*
G36*
G01X2580081Y-2382723D02*
G01X2582012Y-2386076D01*
G01X2585822D01*
G01X2614168D01*
G01X2607107Y-2398319D01*
G01X2599995Y-2410612D01*
G01X2592934Y-2398319D01*
G01X2585822Y-2386076D01*
G01X2582012D01*
G01X2599995Y-2417267D01*
G01X2609952Y-2399995D01*
G01X2619959Y-2382723D01*
G37*
G36*
G01X2680056Y-2382723D02*
G01X2681986Y-2386076D01*
G01X2685796D01*
G01X2714193D01*
G01X2707081Y-2398319D01*
G01X2700020Y-2410612D01*
G01X2692908Y-2398319D01*
G01X2685796Y-2386076D01*
G01X2681986D01*
G01X2690012Y-2399995D01*
G01X2700020Y-2417267D01*
G01X2719934Y-2382723D01*
G37*
G36*
G01X2630068Y-2382723D02*
G01X2631999Y-2386076D01*
G01X2635809D01*
G01X2664206D01*
G01X2657094Y-2398319D01*
G01X2649982Y-2410612D01*
G01X2642921Y-2398319D01*
G01X2635809Y-2386076D01*
G01X2631999D01*
G01X2649982Y-2417267D01*
G01X2659990Y-2399995D01*
G01X2669946Y-2382723D01*
G37*
G36*
G01X2730043Y-2382723D02*
G01X2731973Y-2386076D01*
G01X2735834D01*
G01X2764180D01*
G01X2757068Y-2398319D01*
G01X2750007Y-2410612D01*
G01X2742895Y-2398319D01*
G01X2735834Y-2386076D01*
G01X2731973D01*
G01X2740050Y-2399995D01*
G01X2750007Y-2417267D01*
G01X2769921Y-2382723D01*
G37*
G36*
G01X2780081Y-2382723D02*
G01X2782011Y-2386076D01*
G01X2785821D01*
G01X2814168D01*
G01X2807106Y-2398319D01*
G01X2799994Y-2410612D01*
G01X2792933Y-2398319D01*
G01X2785821Y-2386076D01*
G01X2782011D01*
G01X2799994Y-2417267D01*
G01X2809951Y-2399995D01*
G01X2819959Y-2382723D01*
G37*
G36*
G01X2780081Y-2232711D02*
G01X2782011Y-2236064D01*
G01X2785821D01*
G01X2814168D01*
G01X2807106Y-2248357D01*
G01X2799994Y-2260600D01*
G01X2792933Y-2248357D01*
G01X2785821Y-2236064D01*
G01X2782011D01*
G01X2799994Y-2267255D01*
G01X2809951Y-2249983D01*
G01X2819959Y-2232711D01*
G37*
G36*
G01X2730043Y-2232711D02*
G01X2731973Y-2236064D01*
G01X2735834D01*
G01X2764180D01*
G01X2757068Y-2248357D01*
G01X2750007Y-2260600D01*
G01X2742895Y-2248357D01*
G01X2735834Y-2236064D01*
G01X2731973D01*
G01X2740050Y-2249983D01*
G01X2750007Y-2267255D01*
G01X2769921Y-2232711D01*
G37*
G36*
G01X2680056Y-2232711D02*
G01X2681986Y-2236064D01*
G01X2685796D01*
G01X2714193D01*
G01X2707081Y-2248357D01*
G01X2700020Y-2260600D01*
G01X2692908Y-2248357D01*
G01X2685796Y-2236064D01*
G01X2681986D01*
G01X2690012Y-2249983D01*
G01X2700020Y-2267255D01*
G01X2719934Y-2232711D01*
G37*
G36*
G01X2630068Y-2232711D02*
G01X2631999Y-2236064D01*
G01X2635809D01*
G01X2664206D01*
G01X2657094Y-2248357D01*
G01X2649982Y-2260600D01*
G01X2642921Y-2248357D01*
G01X2635809Y-2236064D01*
G01X2631999D01*
G01X2649982Y-2267255D01*
G01X2659990Y-2249983D01*
G01X2669946Y-2232711D01*
G37*
G36*
G01X2580081Y-2232711D02*
G01X2582012Y-2236064D01*
G01X2585822D01*
G01X2614168D01*
G01X2607107Y-2248357D01*
G01X2599995Y-2260600D01*
G01X2592934Y-2248357D01*
G01X2585822Y-2236064D01*
G01X2582012D01*
G01X2599995Y-2267255D01*
G01X2609952Y-2249983D01*
G01X2619959Y-2232711D01*
G37*
G36*
G01X2530043Y-2232711D02*
G01X2531974Y-2236064D01*
G01X2535834D01*
G01X2564181D01*
G01X2557069Y-2248357D01*
G01X2550008Y-2260600D01*
G01X2542896Y-2248357D01*
G01X2535834Y-2236064D01*
G01X2531974D01*
G01X2540051Y-2249983D01*
G01X2550008Y-2267255D01*
G01X2569921Y-2232711D01*
G37*
G36*
G01X2480056Y-2232711D02*
G01X2481986Y-2236064D01*
G01X2485796D01*
G01X2514194D01*
G01X2507082Y-2248357D01*
G01X2500020Y-2260600D01*
G01X2492908Y-2248357D01*
G01X2485796Y-2236064D01*
G01X2481986D01*
G01X2490013Y-2249983D01*
G01X2500020Y-2267255D01*
G01X2519934Y-2232711D01*
G37*
G36*
G01X2430069Y-2232711D02*
G01X2431999Y-2236064D01*
G01X2435809D01*
G01X2464206D01*
G01X2457094Y-2248357D01*
G01X2449982Y-2260600D01*
G01X2442921Y-2248357D01*
G01X2435809Y-2236064D01*
G01X2431999D01*
G01X2449982Y-2267255D01*
G01X2459990Y-2249983D01*
G01X2469947Y-2232711D01*
G37*
G36*
G01X2480056Y1517244D02*
G01X2481986Y1513942D01*
G01X2485796D01*
G01X2514194D01*
G01X2507082Y1501648D01*
G01X2500020Y1489354D01*
G01X2485796Y1513942D01*
G01X2481986D01*
G01X2490013Y1500022D01*
G01X2500020Y1482750D01*
G01X2509977Y1500022D01*
G01X2519934Y1517244D01*
G37*
G36*
G01X2530043Y1517244D02*
G01X2531974Y1513942D01*
G01X2535834D01*
G01X2564181D01*
G01X2557069Y1501648D01*
G01X2550008Y1489354D01*
G01X2542896Y1501648D01*
G01X2535834Y1513942D01*
G01X2531974D01*
G01X2540051Y1500022D01*
G01X2550008Y1482750D01*
G01X2559964Y1500022D01*
G01X2569921Y1517244D01*
G37*
G36*
G01X2580081Y1517244D02*
G01X2582012Y1513942D01*
G01X2585822D01*
G01X2614168D01*
G01X2607107Y1501648D01*
G01X2599995Y1489354D01*
G01X2592934Y1501648D01*
G01X2585822Y1513942D01*
G01X2582012D01*
G01X2590038Y1500022D01*
G01X2599995Y1482750D01*
G01X2609952Y1500022D01*
G01X2619959Y1517244D01*
G37*
G36*
G01X2680056Y1517244D02*
G01X2681986Y1513942D01*
G01X2685796D01*
G01X2714193D01*
G01X2707081Y1501648D01*
G01X2700020Y1489354D01*
G01X2685796Y1513942D01*
G01X2681986D01*
G01X2690012Y1500022D01*
G01X2700020Y1482750D01*
G01X2709977Y1500022D01*
G01X2719934Y1517244D01*
G37*
G36*
G01X2630068Y1517244D02*
G01X2631999Y1513942D01*
G01X2635809D01*
G01X2664206D01*
G01X2649982Y1489354D01*
G01X2642921Y1501648D01*
G01X2635809Y1513942D01*
G01X2631999D01*
G01X2640025Y1500022D01*
G01X2649982Y1482750D01*
G01X2659990Y1500022D01*
G01X2669946Y1517244D01*
G37*
G36*
G01X2730043Y1517244D02*
G01X2731973Y1513942D01*
G01X2735834D01*
G01X2764180D01*
G01X2757068Y1501648D01*
G01X2750007Y1489354D01*
G01X2742895Y1501648D01*
G01X2735834Y1513942D01*
G01X2731973D01*
G01X2740050Y1500022D01*
G01X2750007Y1482750D01*
G01X2759964Y1500022D01*
G01X2769921Y1517244D01*
G37*
G36*
G01X2780081Y1517244D02*
G01X2782011Y1513942D01*
G01X2785821D01*
G01X2814168D01*
G01X2807106Y1501648D01*
G01X2799994Y1489354D01*
G01X2792933Y1501648D01*
G01X2785821Y1513942D01*
G01X2782011D01*
G01X2790038Y1500022D01*
G01X2799994Y1482750D01*
G01X2809951Y1500022D01*
G01X2819959Y1517244D01*
G37*
G36*
G01X2780081Y1667256D02*
G01X2781960Y1663954D01*
G01X2785821D01*
G01X2814168D01*
G01X2807106Y1651660D01*
G01X2799994Y1639367D01*
G01X2792933Y1651660D01*
G01X2785821Y1663954D01*
G01X2781960D01*
G01X2799994Y1632712D01*
G01X2809951Y1649984D01*
G01X2819959Y1667256D01*
G37*
G36*
G01X2730043Y1667256D02*
G01X2731973Y1663954D01*
G01X2735834D01*
G01X2764180D01*
G01X2757068Y1651660D01*
G01X2750007Y1639367D01*
G01X2742895Y1651660D01*
G01X2735834Y1663954D01*
G01X2731973D01*
G01X2740050Y1649984D01*
G01X2750007Y1632712D01*
G01X2769921Y1667256D01*
G37*
G36*
G01X2680056Y1667256D02*
G01X2681935Y1663954D01*
G01X2685796D01*
G01X2714193D01*
G01X2707081Y1651660D01*
G01X2700020Y1639367D01*
G01X2685796Y1663954D01*
G01X2681935D01*
G01X2690012Y1649984D01*
G01X2700020Y1632712D01*
G01X2719934Y1667256D01*
G37*
G36*
G01X2630068Y1667256D02*
G01X2631948Y1663954D01*
G01X2635809D01*
G01X2664206D01*
G01X2649982Y1639367D01*
G01X2642921Y1651660D01*
G01X2635809Y1663954D01*
G01X2631948D01*
G01X2649982Y1632712D01*
G01X2659990Y1649984D01*
G01X2669946Y1667256D01*
G37*
G36*
G01X2580081Y1667256D02*
G01X2581961Y1663954D01*
G01X2585822D01*
G01X2614168D01*
G01X2607107Y1651660D01*
G01X2599995Y1639367D01*
G01X2592934Y1651660D01*
G01X2585822Y1663954D01*
G01X2581961D01*
G01X2599995Y1632712D01*
G01X2609952Y1649984D01*
G01X2619959Y1667256D01*
G37*
G36*
G01X2530043Y1667256D02*
G01X2531974Y1663954D01*
G01X2535834D01*
G01X2564181D01*
G01X2557069Y1651660D01*
G01X2550008Y1639367D01*
G01X2542896Y1651660D01*
G01X2535834Y1663954D01*
G01X2531974D01*
G01X2540051Y1649984D01*
G01X2550008Y1632712D01*
G01X2569921Y1667256D01*
G37*
G36*
G01X2480056Y1667256D02*
G01X2481936Y1663954D01*
G01X2485796D01*
G01X2514194D01*
G01X2507082Y1651660D01*
G01X2500020Y1639367D01*
G01X2485796Y1663954D01*
G01X2481936D01*
G01X2490013Y1649984D01*
G01X2500020Y1632712D01*
G01X2519934Y1667256D01*
G37*
G36*
G01X2430069Y1667256D02*
G01X2431948Y1663954D01*
G01X2435809D01*
G01X2464206D01*
G01X2449982Y1639367D01*
G01X2442921Y1651660D01*
G01X2435809Y1663954D01*
G01X2431948D01*
G01X2449982Y1632712D01*
G01X2459990Y1649984D01*
G01X2469947Y1667256D01*
G37*
G36*
G01X1630070Y2467254D02*
G01X1631950Y2463952D01*
G01X1635811D01*
G01X1664208D01*
G01X1649984Y2439365D01*
G01X1642923Y2451659D01*
G01X1635811Y2463952D01*
G01X1631950D01*
G01X1649984Y2432710D01*
G01X1659992Y2449982D01*
G01X1669948Y2467254D01*
G37*
G36*
G01X1630070Y2517292D02*
G01X1632001Y2513940D01*
G01X1635811D01*
G01X1664208D01*
G01X1657096Y2501646D01*
G01X1649984Y2489403D01*
G01X1642923Y2501646D01*
G01X1635811Y2513940D01*
G01X1632001D01*
G01X1649984Y2482748D01*
G01X1659992Y2500020D01*
G01X1669948Y2517292D01*
G37*
G36*
G01X1630070Y2567280D02*
G01X1632001Y2563927D01*
G01X1635811D01*
G01X1664208D01*
G01X1657096Y2551684D01*
G01X1649984Y2539390D01*
G01X1642923Y2551684D01*
G01X1635811Y2563927D01*
G01X1632001D01*
G01X1649984Y2532736D01*
G01X1659992Y2550008D01*
G01X1669948Y2567280D01*
G37*
G36*
G01X1630070Y2617267D02*
G01X1631950Y2613965D01*
G01X1635811D01*
G01X1664208D01*
G01X1649984Y2589378D01*
G01X1642923Y2601671D01*
G01X1635811Y2613965D01*
G01X1631950D01*
G01X1649984Y2582723D01*
G01X1659992Y2599995D01*
G01X1669948Y2617267D01*
G37*
G36*
G01X1630070Y2717292D02*
G01X1632001Y2713939D01*
G01X1635811D01*
G01X1664208D01*
G01X1657096Y2701646D01*
G01X1649984Y2689403D01*
G01X1642923Y2701646D01*
G01X1635811Y2713939D01*
G01X1632001D01*
G01X1649984Y2682748D01*
G01X1659992Y2700020D01*
G01X1669948Y2717292D01*
G37*
G36*
G01X1630070Y2667254D02*
G01X1631950Y2663952D01*
G01X1635811D01*
G01X1664208D01*
G01X1649984Y2639365D01*
G01X1642923Y2651658D01*
G01X1635811Y2663952D01*
G01X1631950D01*
G01X1649984Y2632710D01*
G01X1659992Y2649982D01*
G01X1669948Y2667254D01*
G37*
G36*
G01X1630070Y2767279D02*
G01X1632001Y2763926D01*
G01X1635811D01*
G01X1664208D01*
G01X1657096Y2751684D01*
G01X1649984Y2739390D01*
G01X1642923Y2751684D01*
G01X1635811Y2763926D01*
G01X1632001D01*
G01X1649984Y2732735D01*
G01X1659992Y2750007D01*
G01X1669948Y2767279D01*
G37*
G36*
G01X1630070Y2817266D02*
G01X1631950Y2813964D01*
G01X1635811D01*
G01X1664208D01*
G01X1649984Y2789377D01*
G01X1642923Y2801671D01*
G01X1635811Y2813964D01*
G01X1631950D01*
G01X1649984Y2782722D01*
G01X1659992Y2799994D01*
G01X1669948Y2817266D01*
G37*
G36*
G01X1480058Y2817266D02*
G01X1481938Y2813964D01*
G01X1485798D01*
G01X1514196D01*
G01X1507084Y2801671D01*
G01X1500022Y2789377D01*
G01X1485798Y2813964D01*
G01X1481938D01*
G01X1490015Y2799994D01*
G01X1500022Y2782722D01*
G01X1519936Y2817266D01*
G37*
G36*
G01X1480058Y2767279D02*
G01X1481988Y2763926D01*
G01X1485798D01*
G01X1514196D01*
G01X1507084Y2751684D01*
G01X1500022Y2739390D01*
G01X1492910Y2751684D01*
G01X1485798Y2763926D01*
G01X1481988D01*
G01X1490015Y2750007D01*
G01X1500022Y2732735D01*
G01X1519936Y2767279D01*
G37*
G36*
G01X1480058Y2717292D02*
G01X1481988Y2713939D01*
G01X1485798D01*
G01X1514196D01*
G01X1507084Y2701646D01*
G01X1500022Y2689403D01*
G01X1492910Y2701646D01*
G01X1485798Y2713939D01*
G01X1481988D01*
G01X1490015Y2700020D01*
G01X1500022Y2682748D01*
G01X1519936Y2717292D01*
G37*
G36*
G01X1480058Y2667254D02*
G01X1481938Y2663952D01*
G01X1485798D01*
G01X1514196D01*
G01X1507084Y2651658D01*
G01X1500022Y2639365D01*
G01X1485798Y2663952D01*
G01X1481938D01*
G01X1490015Y2649982D01*
G01X1500022Y2632710D01*
G01X1519936Y2667254D01*
G37*
G36*
G01X1480058Y2617267D02*
G01X1481938Y2613965D01*
G01X1485798D01*
G01X1514196D01*
G01X1507084Y2601671D01*
G01X1500022Y2589378D01*
G01X1485798Y2613965D01*
G01X1481938D01*
G01X1490015Y2599995D01*
G01X1500022Y2582723D01*
G01X1519936Y2617267D01*
G37*
G36*
G01X1480058Y2567280D02*
G01X1481988Y2563927D01*
G01X1485798D01*
G01X1514196D01*
G01X1507084Y2551684D01*
G01X1500022Y2539390D01*
G01X1492910Y2551684D01*
G01X1485798Y2563927D01*
G01X1481988D01*
G01X1490015Y2550008D01*
G01X1500022Y2532736D01*
G01X1519936Y2567280D01*
G37*
G36*
G01X1480058Y2517292D02*
G01X1481988Y2513940D01*
G01X1485798D01*
G01X1514196D01*
G01X1507084Y2501646D01*
G01X1500022Y2489403D01*
G01X1492910Y2501646D01*
G01X1485798Y2513940D01*
G01X1481988D01*
G01X1490015Y2500020D01*
G01X1500022Y2482748D01*
G01X1519936Y2517292D01*
G37*
G36*
G01X1480058Y2467254D02*
G01X1481938Y2463952D01*
G01X1485798D01*
G01X1514196D01*
G01X1507084Y2451659D01*
G01X1500022Y2439365D01*
G01X1485798Y2463952D01*
G01X1481938D01*
G01X1490015Y2449982D01*
G01X1500022Y2432710D01*
G01X1519936Y2467254D01*
G37*
G36*
G01X330048Y2467254D02*
G01X331978Y2463952D01*
G01X335839D01*
G01X364185D01*
G01X357073Y2451659D01*
G01X350012Y2439365D01*
G01X342900Y2451659D01*
G01X335839Y2463952D01*
G01X331978D01*
G01X340055Y2449982D01*
G01X350012Y2432710D01*
G01X369926Y2467254D01*
G37*
G36*
G01X330048Y2517292D02*
G01X331978Y2513940D01*
G01X335839D01*
G01X364185D01*
G01X357073Y2501646D01*
G01X350012Y2489403D01*
G01X342900Y2501646D01*
G01X335839Y2513940D01*
G01X331978D01*
G01X340055Y2500020D01*
G01X350012Y2482748D01*
G01X369926Y2517292D01*
G37*
G36*
G01X330048Y2567280D02*
G01X331978Y2563927D01*
G01X335839D01*
G01X364185D01*
G01X357073Y2551684D01*
G01X350012Y2539390D01*
G01X342900Y2551684D01*
G01X335839Y2563927D01*
G01X331978D01*
G01X340055Y2550008D01*
G01X350012Y2532736D01*
G01X369926Y2567280D01*
G37*
G36*
G01X330048Y2617267D02*
G01X331978Y2613965D01*
G01X335839D01*
G01X364185D01*
G01X357073Y2601671D01*
G01X350012Y2589378D01*
G01X342900Y2601671D01*
G01X335839Y2613965D01*
G01X331978D01*
G01X340055Y2599995D01*
G01X350012Y2582723D01*
G01X369926Y2617267D01*
G37*
G36*
G01X330048Y2717292D02*
G01X331978Y2713939D01*
G01X335839D01*
G01X364185D01*
G01X357073Y2701646D01*
G01X350012Y2689403D01*
G01X342900Y2701646D01*
G01X335839Y2713939D01*
G01X331978D01*
G01X340055Y2700020D01*
G01X350012Y2682748D01*
G01X369926Y2717292D01*
G37*
G36*
G01X330048Y2667254D02*
G01X331978Y2663952D01*
G01X335839D01*
G01X364185D01*
G01X357073Y2651658D01*
G01X350012Y2639365D01*
G01X342900Y2651658D01*
G01X335839Y2663952D01*
G01X331978D01*
G01X340055Y2649982D01*
G01X350012Y2632710D01*
G01X369926Y2667254D01*
G37*
G36*
G01X330048Y2767279D02*
G01X331978Y2763926D01*
G01X335839D01*
G01X364185D01*
G01X357073Y2751684D01*
G01X350012Y2739390D01*
G01X342900Y2751684D01*
G01X335839Y2763926D01*
G01X331978D01*
G01X340055Y2750007D01*
G01X350012Y2732735D01*
G01X369926Y2767279D01*
G37*
G36*
G01X330048Y2817266D02*
G01X331978Y2813964D01*
G01X335839D01*
G01X364185D01*
G01X357073Y2801671D01*
G01X350012Y2789377D01*
G01X342900Y2801671D01*
G01X335839Y2813964D01*
G01X331978D01*
G01X340055Y2799994D01*
G01X350012Y2782722D01*
G01X369926Y2817266D01*
G37*
G36*
G01X180086Y2817266D02*
G01X181966Y2813964D01*
G01X185826D01*
G01X214173D01*
G01X207112Y2801671D01*
G01X200000Y2789377D01*
G01X192888Y2801671D01*
G01X185826Y2813964D01*
G01X181966D01*
G01X200000Y2782722D01*
G01X209956Y2799994D01*
G01X219964Y2817266D01*
G37*
G36*
G01X180086Y2767279D02*
G01X182016Y2763926D01*
G01X185826D01*
G01X214173D01*
G01X207112Y2751684D01*
G01X200000Y2739390D01*
G01X192888Y2751684D01*
G01X185826Y2763926D01*
G01X182016D01*
G01X200000Y2732735D01*
G01X209956Y2750007D01*
G01X219964Y2767279D01*
G37*
G36*
G01X180086Y2717292D02*
G01X182016Y2713939D01*
G01X185826D01*
G01X214173D01*
G01X207112Y2701646D01*
G01X200000Y2689403D01*
G01X192888Y2701646D01*
G01X185826Y2713939D01*
G01X182016D01*
G01X200000Y2682748D01*
G01X209956Y2700020D01*
G01X219964Y2717292D01*
G37*
G36*
G01X180086Y2667254D02*
G01X181966Y2663952D01*
G01X185826D01*
G01X214173D01*
G01X207112Y2651658D01*
G01X200000Y2639365D01*
G01X192888Y2651658D01*
G01X185826Y2663952D01*
G01X181966D01*
G01X200000Y2632710D01*
G01X209956Y2649982D01*
G01X219964Y2667254D01*
G37*
G36*
G01X180086Y2617267D02*
G01X181966Y2613965D01*
G01X185826D01*
G01X214173D01*
G01X207112Y2601671D01*
G01X200000Y2589378D01*
G01X192888Y2601671D01*
G01X185826Y2613965D01*
G01X181966D01*
G01X200000Y2582723D01*
G01X209956Y2599995D01*
G01X219964Y2617267D01*
G37*
G36*
G01X180086Y2567280D02*
G01X182016Y2563927D01*
G01X185826D01*
G01X214173D01*
G01X207112Y2551684D01*
G01X200000Y2539390D01*
G01X192888Y2551684D01*
G01X185826Y2563927D01*
G01X182016D01*
G01X200000Y2532736D01*
G01X209956Y2550008D01*
G01X219964Y2567280D01*
G37*
G36*
G01X180086Y2517292D02*
G01X182016Y2513940D01*
G01X185826D01*
G01X214173D01*
G01X207112Y2501646D01*
G01X200000Y2489403D01*
G01X192888Y2501646D01*
G01X185826Y2513940D01*
G01X182016D01*
G01X200000Y2482748D01*
G01X209956Y2500020D01*
G01X219964Y2517292D01*
G37*
G36*
G01X180086Y2467254D02*
G01X181966Y2463952D01*
G01X185826D01*
G01X214173D01*
G01X207112Y2451659D01*
G01X200000Y2439365D01*
G01X192888Y2451659D01*
G01X185826Y2463952D01*
G01X181966D01*
G01X200000Y2432710D01*
G01X209956Y2449982D01*
G01X219964Y2467254D01*
G37*
G36*
G01X-969924Y2467254D02*
G01X-968045Y2463952D01*
G01X-964184D01*
G01X-935838D01*
G01X-942899Y2451659D01*
G01X-950011Y2439365D01*
G01X-957072Y2451659D01*
G01X-964184Y2463952D01*
G01X-968045D01*
G01X-950011Y2432710D01*
G01X-940054Y2449982D01*
G01X-930046Y2467254D01*
G37*
G36*
G01X-969924Y2517292D02*
G01X-967994Y2513940D01*
G01X-964184D01*
G01X-935838D01*
G01X-942899Y2501646D01*
G01X-950011Y2489403D01*
G01X-957072Y2501646D01*
G01X-964184Y2513940D01*
G01X-967994D01*
G01X-950011Y2482748D01*
G01X-940054Y2500020D01*
G01X-930046Y2517292D01*
G37*
G36*
G01X-969924Y2567280D02*
G01X-967994Y2563927D01*
G01X-964184D01*
G01X-935838D01*
G01X-942899Y2551684D01*
G01X-950011Y2539390D01*
G01X-957072Y2551684D01*
G01X-964184Y2563927D01*
G01X-967994D01*
G01X-950011Y2532736D01*
G01X-940054Y2550008D01*
G01X-930046Y2567280D01*
G37*
G36*
G01X-969924Y2617267D02*
G01X-968045Y2613965D01*
G01X-964184D01*
G01X-935838D01*
G01X-942899Y2601671D01*
G01X-950011Y2589378D01*
G01X-957072Y2601671D01*
G01X-964184Y2613965D01*
G01X-968045D01*
G01X-950011Y2582723D01*
G01X-940054Y2599995D01*
G01X-930046Y2617267D01*
G37*
G36*
G01X-969924Y2717292D02*
G01X-967994Y2713939D01*
G01X-964184D01*
G01X-935838D01*
G01X-942899Y2701646D01*
G01X-950011Y2689403D01*
G01X-957072Y2701646D01*
G01X-964184Y2713939D01*
G01X-967994D01*
G01X-950011Y2682748D01*
G01X-940054Y2700020D01*
G01X-930046Y2717292D01*
G37*
G36*
G01X-969924Y2667254D02*
G01X-968045Y2663952D01*
G01X-964184D01*
G01X-935838D01*
G01X-942899Y2651658D01*
G01X-950011Y2639365D01*
G01X-957072Y2651658D01*
G01X-964184Y2663952D01*
G01X-968045D01*
G01X-950011Y2632710D01*
G01X-940054Y2649982D01*
G01X-930046Y2667254D01*
G37*
G36*
G01X-969924Y2767279D02*
G01X-967994Y2763926D01*
G01X-964184D01*
G01X-935838D01*
G01X-942899Y2751684D01*
G01X-950011Y2739390D01*
G01X-957072Y2751684D01*
G01X-964184Y2763926D01*
G01X-967994D01*
G01X-950011Y2732735D01*
G01X-940054Y2750007D01*
G01X-930046Y2767279D01*
G37*
G36*
G01X-969924Y2817266D02*
G01X-968045Y2813964D01*
G01X-964184D01*
G01X-935838D01*
G01X-942899Y2801671D01*
G01X-950011Y2789377D01*
G01X-957072Y2801671D01*
G01X-964184Y2813964D01*
G01X-968045D01*
G01X-950011Y2782722D01*
G01X-940054Y2799994D01*
G01X-930046Y2817266D01*
G37*
G36*
G01X-1119937Y2817266D02*
G01X-1118057Y2813964D01*
G01X-1114196D01*
G01X-1085799D01*
G01X-1100023Y2789377D01*
G01X-1107084Y2801671D01*
G01X-1114196Y2813964D01*
G01X-1118057D01*
G01X-1100023Y2782722D01*
G01X-1090016Y2799994D01*
G01X-1080059Y2817266D01*
G37*
G36*
G01X-1119937Y2767279D02*
G01X-1118006Y2763926D01*
G01X-1114196D01*
G01X-1085799D01*
G01X-1092911Y2751684D01*
G01X-1100023Y2739390D01*
G01X-1107084Y2751684D01*
G01X-1114196Y2763926D01*
G01X-1118006D01*
G01X-1100023Y2732735D01*
G01X-1090016Y2750007D01*
G01X-1080059Y2767279D01*
G37*
G36*
G01X-1119937Y2717292D02*
G01X-1118006Y2713939D01*
G01X-1114196D01*
G01X-1085799D01*
G01X-1092911Y2701646D01*
G01X-1100023Y2689403D01*
G01X-1107084Y2701646D01*
G01X-1114196Y2713939D01*
G01X-1118006D01*
G01X-1100023Y2682748D01*
G01X-1090016Y2700020D01*
G01X-1080059Y2717292D01*
G37*
G36*
G01X-1119937Y2667254D02*
G01X-1118057Y2663952D01*
G01X-1114196D01*
G01X-1085799D01*
G01X-1100023Y2639365D01*
G01X-1107084Y2651658D01*
G01X-1114196Y2663952D01*
G01X-1118057D01*
G01X-1100023Y2632710D01*
G01X-1090016Y2649982D01*
G01X-1080059Y2667254D01*
G37*
G36*
G01X-1119937Y2617267D02*
G01X-1118057Y2613965D01*
G01X-1114196D01*
G01X-1085799D01*
G01X-1100023Y2589378D01*
G01X-1107084Y2601671D01*
G01X-1114196Y2613965D01*
G01X-1118057D01*
G01X-1100023Y2582723D01*
G01X-1090016Y2599995D01*
G01X-1080059Y2617267D01*
G37*
G36*
G01X-1119937Y2567280D02*
G01X-1118006Y2563927D01*
G01X-1114196D01*
G01X-1085799D01*
G01X-1092911Y2551684D01*
G01X-1100023Y2539390D01*
G01X-1107084Y2551684D01*
G01X-1114196Y2563927D01*
G01X-1118006D01*
G01X-1100023Y2532736D01*
G01X-1090016Y2550008D01*
G01X-1080059Y2567280D01*
G37*
G36*
G01X-1119937Y2517292D02*
G01X-1118006Y2513940D01*
G01X-1114196D01*
G01X-1085799D01*
G01X-1092911Y2501646D01*
G01X-1100023Y2489403D01*
G01X-1107084Y2501646D01*
G01X-1114196Y2513940D01*
G01X-1118006D01*
G01X-1100023Y2482748D01*
G01X-1090016Y2500020D01*
G01X-1080059Y2517292D01*
G37*
G36*
G01X-1119937Y2467254D02*
G01X-1118057Y2463952D01*
G01X-1114196D01*
G01X-1085799D01*
G01X-1100023Y2439365D01*
G01X-1107084Y2451659D01*
G01X-1114196Y2463952D01*
G01X-1118057D01*
G01X-1100023Y2432710D01*
G01X-1090016Y2449982D01*
G01X-1080059Y2467254D01*
G37*
G36*
G01X-2269947Y2467254D02*
G01X-2268068Y2463952D01*
G01X-2264207D01*
G01X-2235810D01*
G01X-2242922Y2451659D01*
G01X-2249983Y2439365D01*
G01X-2264207Y2463952D01*
G01X-2268068D01*
G01X-2259990Y2449982D01*
G01X-2249983Y2432710D01*
G01X-2230069Y2467254D01*
G37*
G36*
G01X-2269947Y2517292D02*
G01X-2268017Y2513940D01*
G01X-2264207D01*
G01X-2235810D01*
G01X-2242922Y2501646D01*
G01X-2249983Y2489403D01*
G01X-2257095Y2501646D01*
G01X-2264207Y2513940D01*
G01X-2268017D01*
G01X-2259990Y2500020D01*
G01X-2249983Y2482748D01*
G01X-2230069Y2517292D01*
G37*
G36*
G01X-2269947Y2567280D02*
G01X-2268017Y2563927D01*
G01X-2264207D01*
G01X-2235810D01*
G01X-2242922Y2551684D01*
G01X-2249983Y2539390D01*
G01X-2257095Y2551684D01*
G01X-2264207Y2563927D01*
G01X-2268017D01*
G01X-2259990Y2550008D01*
G01X-2249983Y2532736D01*
G01X-2230069Y2567280D01*
G37*
G36*
G01X-2269947Y2617267D02*
G01X-2268068Y2613965D01*
G01X-2264207D01*
G01X-2235810D01*
G01X-2242922Y2601671D01*
G01X-2249983Y2589378D01*
G01X-2264207Y2613965D01*
G01X-2268068D01*
G01X-2259990Y2599995D01*
G01X-2249983Y2582723D01*
G01X-2230069Y2617267D01*
G37*
G36*
G01X-2269947Y2717292D02*
G01X-2268017Y2713939D01*
G01X-2264207D01*
G01X-2235810D01*
G01X-2242922Y2701646D01*
G01X-2249983Y2689403D01*
G01X-2257095Y2701646D01*
G01X-2264207Y2713939D01*
G01X-2268017D01*
G01X-2259990Y2700020D01*
G01X-2249983Y2682748D01*
G01X-2230069Y2717292D01*
G37*
G36*
G01X-2269947Y2667254D02*
G01X-2268068Y2663952D01*
G01X-2264207D01*
G01X-2235810D01*
G01X-2242922Y2651658D01*
G01X-2249983Y2639365D01*
G01X-2264207Y2663952D01*
G01X-2268068D01*
G01X-2259990Y2649982D01*
G01X-2249983Y2632710D01*
G01X-2230069Y2667254D01*
G37*
G36*
G01X-2269947Y2767279D02*
G01X-2268017Y2763926D01*
G01X-2264207D01*
G01X-2235810D01*
G01X-2242922Y2751684D01*
G01X-2249983Y2739390D01*
G01X-2257095Y2751684D01*
G01X-2264207Y2763926D01*
G01X-2268017D01*
G01X-2259990Y2750007D01*
G01X-2249983Y2732735D01*
G01X-2230069Y2767279D01*
G37*
G36*
G01X-2269947Y2817266D02*
G01X-2268068Y2813964D01*
G01X-2264207D01*
G01X-2235810D01*
G01X-2242922Y2801671D01*
G01X-2249983Y2789377D01*
G01X-2264207Y2813964D01*
G01X-2268068D01*
G01X-2259990Y2799994D01*
G01X-2249983Y2782722D01*
G01X-2230069Y2817266D01*
G37*
G36*
G01X-2419960Y2817266D02*
G01X-2418029Y2813964D01*
G01X-2414168D01*
G01X-2385822D01*
G01X-2392934Y2801671D01*
G01X-2399995Y2789377D01*
G01X-2407107Y2801671D01*
G01X-2414168Y2813964D01*
G01X-2418029D01*
G01X-2409952Y2799994D01*
G01X-2399995Y2782722D01*
G01X-2380082Y2817266D01*
G37*
G36*
G01X-2419960Y2767279D02*
G01X-2418029Y2763926D01*
G01X-2414168D01*
G01X-2385822D01*
G01X-2392934Y2751684D01*
G01X-2399995Y2739390D01*
G01X-2407107Y2751684D01*
G01X-2414168Y2763926D01*
G01X-2418029D01*
G01X-2409952Y2750007D01*
G01X-2399995Y2732735D01*
G01X-2380082Y2767279D01*
G37*
G36*
G01X-2419960Y2717292D02*
G01X-2418029Y2713939D01*
G01X-2414168D01*
G01X-2385822D01*
G01X-2392934Y2701646D01*
G01X-2399995Y2689403D01*
G01X-2407107Y2701646D01*
G01X-2414168Y2713939D01*
G01X-2418029D01*
G01X-2409952Y2700020D01*
G01X-2399995Y2682748D01*
G01X-2380082Y2717292D01*
G37*
G36*
G01X-2419960Y2667254D02*
G01X-2418029Y2663952D01*
G01X-2414168D01*
G01X-2385822D01*
G01X-2392934Y2651658D01*
G01X-2399995Y2639365D01*
G01X-2407107Y2651658D01*
G01X-2414168Y2663952D01*
G01X-2418029D01*
G01X-2409952Y2649982D01*
G01X-2399995Y2632710D01*
G01X-2380082Y2667254D01*
G37*
G36*
G01X-2419960Y2617267D02*
G01X-2418029Y2613965D01*
G01X-2414168D01*
G01X-2385822D01*
G01X-2392934Y2601671D01*
G01X-2399995Y2589378D01*
G01X-2407107Y2601671D01*
G01X-2414168Y2613965D01*
G01X-2418029D01*
G01X-2409952Y2599995D01*
G01X-2399995Y2582723D01*
G01X-2380082Y2617267D01*
G37*
G36*
G01X-2419960Y2567280D02*
G01X-2418029Y2563927D01*
G01X-2414168D01*
G01X-2385822D01*
G01X-2392934Y2551684D01*
G01X-2399995Y2539390D01*
G01X-2407107Y2551684D01*
G01X-2414168Y2563927D01*
G01X-2418029D01*
G01X-2409952Y2550008D01*
G01X-2399995Y2532736D01*
G01X-2380082Y2567280D01*
G37*
G36*
G01X-2419960Y2517292D02*
G01X-2418029Y2513940D01*
G01X-2414168D01*
G01X-2385822D01*
G01X-2392934Y2501646D01*
G01X-2399995Y2489403D01*
G01X-2407107Y2501646D01*
G01X-2414168Y2513940D01*
G01X-2418029D01*
G01X-2409952Y2500020D01*
G01X-2399995Y2482748D01*
G01X-2380082Y2517292D01*
G37*
G36*
G01X-2419960Y2467254D02*
G01X-2418029Y2463952D01*
G01X-2414168D01*
G01X-2385822D01*
G01X-2392934Y2451659D01*
G01X-2399995Y2439365D01*
G01X-2407107Y2451659D01*
G01X-2414168Y2463952D01*
G01X-2418029D01*
G01X-2409952Y2449982D01*
G01X-2399995Y2432710D01*
G01X-2380082Y2467254D01*
G37*
G36*
G01X-2469947Y2417267D02*
G01X-2468067Y2413965D01*
G01X-2464206D01*
G01X-2435809D01*
G01X-2442921Y2401672D01*
G01X-2449982Y2389378D01*
G01X-2464206Y2413965D01*
G01X-2468067D01*
G01X-2459990Y2399995D01*
G01X-2449982Y2382723D01*
G01X-2430069Y2417267D01*
G37*
G36*
G01X-2519934Y2417267D02*
G01X-2518054Y2413965D01*
G01X-2514194D01*
G01X-2485796D01*
G01X-2500020Y2389378D01*
G01X-2507082Y2401672D01*
G01X-2514194Y2413965D01*
G01X-2518054D01*
G01X-2500020Y2382723D01*
G01X-2490013Y2399995D01*
G01X-2480056Y2417267D01*
G37*
G36*
G01X-2569921Y2417267D02*
G01X-2568042Y2413965D01*
G01X-2564181D01*
G01X-2535834D01*
G01X-2542896Y2401672D01*
G01X-2550008Y2389378D01*
G01X-2557069Y2401672D01*
G01X-2564181Y2413965D01*
G01X-2568042D01*
G01X-2550008Y2382723D01*
G01X-2540051Y2399995D01*
G01X-2530043Y2417267D01*
G37*
G36*
G01X-2619959Y2417267D02*
G01X-2618029Y2413965D01*
G01X-2614168D01*
G01X-2585822D01*
G01X-2592934Y2401672D01*
G01X-2599995Y2389378D01*
G01X-2607107Y2401672D01*
G01X-2614168Y2413965D01*
G01X-2618029D01*
G01X-2609952Y2399995D01*
G01X-2599995Y2382723D01*
G01X-2580081Y2417267D01*
G37*
G36*
G01X-2719934Y2417267D02*
G01X-2718054Y2413965D01*
G01X-2714193D01*
G01X-2685796D01*
G01X-2700020Y2389378D01*
G01X-2707081Y2401672D01*
G01X-2714193Y2413965D01*
G01X-2718054D01*
G01X-2700020Y2382723D01*
G01X-2690012Y2399995D01*
G01X-2680056Y2417267D01*
G37*
G36*
G01X-2669946Y2417267D02*
G01X-2668067Y2413965D01*
G01X-2664206D01*
G01X-2635809D01*
G01X-2642921Y2401672D01*
G01X-2649982Y2389378D01*
G01X-2664206Y2413965D01*
G01X-2668067D01*
G01X-2659990Y2399995D01*
G01X-2649982Y2382723D01*
G01X-2630068Y2417267D01*
G37*
G36*
G01X-2769921Y2417267D02*
G01X-2768041Y2413965D01*
G01X-2764180D01*
G01X-2735834D01*
G01X-2742895Y2401672D01*
G01X-2750007Y2389378D01*
G01X-2757068Y2401672D01*
G01X-2764180Y2413965D01*
G01X-2768041D01*
G01X-2750007Y2382723D01*
G01X-2740050Y2399995D01*
G01X-2730043Y2417267D01*
G37*
G36*
G01X-2819959Y2417267D02*
G01X-2818028Y2413965D01*
G01X-2814168D01*
G01X-2785821D01*
G01X-2792933Y2401672D01*
G01X-2799994Y2389378D01*
G01X-2807106Y2401672D01*
G01X-2814168Y2413965D01*
G01X-2818028D01*
G01X-2809951Y2399995D01*
G01X-2799994Y2382723D01*
G01X-2780081Y2417267D01*
G37*
G36*
G01X-2819959Y2267255D02*
G01X-2818028Y2263953D01*
G01X-2814168D01*
G01X-2785821D01*
G01X-2792933Y2251659D01*
G01X-2799994Y2239366D01*
G01X-2807106Y2251659D01*
G01X-2814168Y2263953D01*
G01X-2818028D01*
G01X-2809951Y2249983D01*
G01X-2799994Y2232711D01*
G01X-2780081Y2267255D01*
G37*
G36*
G01X-2769921Y2267255D02*
G01X-2768041Y2263953D01*
G01X-2764180D01*
G01X-2735834D01*
G01X-2742895Y2251659D01*
G01X-2750007Y2239366D01*
G01X-2757068Y2251659D01*
G01X-2764180Y2263953D01*
G01X-2768041D01*
G01X-2750007Y2232711D01*
G01X-2740050Y2249983D01*
G01X-2730043Y2267255D01*
G37*
G36*
G01X-2719934Y2267255D02*
G01X-2718054Y2263953D01*
G01X-2714193D01*
G01X-2685796D01*
G01X-2700020Y2239366D01*
G01X-2707081Y2251659D01*
G01X-2714193Y2263953D01*
G01X-2718054D01*
G01X-2700020Y2232711D01*
G01X-2690012Y2249983D01*
G01X-2680056Y2267255D01*
G37*
G36*
G01X-2669946Y2267255D02*
G01X-2668067Y2263953D01*
G01X-2664206D01*
G01X-2635809D01*
G01X-2642921Y2251659D01*
G01X-2649982Y2239366D01*
G01X-2664206Y2263953D01*
G01X-2668067D01*
G01X-2659990Y2249983D01*
G01X-2649982Y2232711D01*
G01X-2630068Y2267255D01*
G37*
G36*
G01X-2619959Y2267255D02*
G01X-2618029Y2263953D01*
G01X-2614168D01*
G01X-2585822D01*
G01X-2592934Y2251659D01*
G01X-2599995Y2239366D01*
G01X-2607107Y2251659D01*
G01X-2614168Y2263953D01*
G01X-2618029D01*
G01X-2609952Y2249983D01*
G01X-2599995Y2232711D01*
G01X-2580081Y2267255D01*
G37*
G36*
G01X-2569921Y2267255D02*
G01X-2568042Y2263953D01*
G01X-2564181D01*
G01X-2535834D01*
G01X-2542896Y2251659D01*
G01X-2550008Y2239366D01*
G01X-2557069Y2251659D01*
G01X-2564181Y2263953D01*
G01X-2568042D01*
G01X-2550008Y2232711D01*
G01X-2540051Y2249983D01*
G01X-2530043Y2267255D01*
G37*
G36*
G01X-2519934Y2267255D02*
G01X-2518054Y2263953D01*
G01X-2514194D01*
G01X-2485796D01*
G01X-2500020Y2239366D01*
G01X-2507082Y2251659D01*
G01X-2514194Y2263953D01*
G01X-2518054D01*
G01X-2500020Y2232711D01*
G01X-2490013Y2249983D01*
G01X-2480056Y2267255D01*
G37*
G36*
G01X-2469947Y2267255D02*
G01X-2468067Y2263953D01*
G01X-2464206D01*
G01X-2435809D01*
G01X-2442921Y2251659D01*
G01X-2449982Y2239366D01*
G01X-2464206Y2263953D01*
G01X-2468067D01*
G01X-2459990Y2249983D01*
G01X-2449982Y2232711D01*
G01X-2430069Y2267255D01*
G37*
G36*
G01X-2469947Y-1482750D02*
G01X-2468067Y-1486052D01*
G01X-2464206D01*
G01X-2435809D01*
G01X-2442921Y-1498346D01*
G01X-2449982Y-1510640D01*
G01X-2464206Y-1486052D01*
G01X-2468067D01*
G01X-2459990Y-1500022D01*
G01X-2449982Y-1517244D01*
G01X-2440026Y-1500022D01*
G01X-2430069Y-1482750D01*
G37*
G36*
G01X-2519934Y-1482750D02*
G01X-2518054Y-1486052D01*
G01X-2514194D01*
G01X-2485796D01*
G01X-2500020Y-1510640D01*
G01X-2507082Y-1498346D01*
G01X-2514194Y-1486052D01*
G01X-2518054D01*
G01X-2509977Y-1500022D01*
G01X-2500020Y-1517244D01*
G01X-2490013Y-1500022D01*
G01X-2480056Y-1482750D01*
G37*
G36*
G01X-2569921Y-1482750D02*
G01X-2568042Y-1486052D01*
G01X-2564181D01*
G01X-2535834D01*
G01X-2542896Y-1498346D01*
G01X-2550008Y-1510640D01*
G01X-2557069Y-1498346D01*
G01X-2564181Y-1486052D01*
G01X-2568042D01*
G01X-2559964Y-1500022D01*
G01X-2550008Y-1517244D01*
G01X-2540051Y-1500022D01*
G01X-2530043Y-1482750D01*
G37*
G36*
G01X-2619959Y-1482750D02*
G01X-2618029Y-1486052D01*
G01X-2614168D01*
G01X-2585822D01*
G01X-2592934Y-1498346D01*
G01X-2599995Y-1510640D01*
G01X-2607107Y-1498346D01*
G01X-2614168Y-1486052D01*
G01X-2618029D01*
G01X-2609952Y-1500022D01*
G01X-2599995Y-1517244D01*
G01X-2590038Y-1500022D01*
G01X-2580081Y-1482750D01*
G37*
G36*
G01X-2719934Y-1482750D02*
G01X-2718054Y-1486052D01*
G01X-2714193D01*
G01X-2685796D01*
G01X-2700020Y-1510640D01*
G01X-2707081Y-1498346D01*
G01X-2714193Y-1486052D01*
G01X-2718054D01*
G01X-2709977Y-1500022D01*
G01X-2700020Y-1517244D01*
G01X-2690012Y-1500022D01*
G01X-2680056Y-1482750D01*
G37*
G36*
G01X-2669946Y-1482750D02*
G01X-2668067Y-1486052D01*
G01X-2664206D01*
G01X-2635809D01*
G01X-2642921Y-1498346D01*
G01X-2649982Y-1510640D01*
G01X-2664206Y-1486052D01*
G01X-2668067D01*
G01X-2659990Y-1500022D01*
G01X-2649982Y-1517244D01*
G01X-2640025Y-1500022D01*
G01X-2630068Y-1482750D01*
G37*
G36*
G01X-2769921Y-1482750D02*
G01X-2768041Y-1486052D01*
G01X-2764180D01*
G01X-2735834D01*
G01X-2742895Y-1498346D01*
G01X-2750007Y-1510640D01*
G01X-2757068Y-1498346D01*
G01X-2764180Y-1486052D01*
G01X-2768041D01*
G01X-2759964Y-1500022D01*
G01X-2750007Y-1517244D01*
G01X-2740050Y-1500022D01*
G01X-2730043Y-1482750D01*
G37*
G36*
G01X-2819959Y-1482750D02*
G01X-2818028Y-1486052D01*
G01X-2814168D01*
G01X-2785821D01*
G01X-2792933Y-1498346D01*
G01X-2799994Y-1510640D01*
G01X-2807106Y-1498346D01*
G01X-2814168Y-1486052D01*
G01X-2818028D01*
G01X-2809951Y-1500022D01*
G01X-2799994Y-1517244D01*
G01X-2790038Y-1500022D01*
G01X-2780081Y-1482750D01*
G37*
G36*
G01X-2819959Y-1632712D02*
G01X-2818028Y-1636065D01*
G01X-2814168D01*
G01X-2785821D01*
G01X-2792933Y-1648358D01*
G01X-2799994Y-1660601D01*
G01X-2807106Y-1648358D01*
G01X-2814168Y-1636065D01*
G01X-2818028D01*
G01X-2809951Y-1649984D01*
G01X-2799994Y-1667256D01*
G01X-2780081Y-1632712D01*
G37*
G36*
G01X-2769921Y-1632712D02*
G01X-2767990Y-1636065D01*
G01X-2764180D01*
G01X-2735834D01*
G01X-2742895Y-1648358D01*
G01X-2750007Y-1660601D01*
G01X-2757068Y-1648358D01*
G01X-2764180Y-1636065D01*
G01X-2767990D01*
G01X-2750007Y-1667256D01*
G01X-2740050Y-1649984D01*
G01X-2730043Y-1632712D01*
G37*
G36*
G01X-2719934Y-1632712D02*
G01X-2718003Y-1636065D01*
G01X-2714193D01*
G01X-2685796D01*
G01X-2692908Y-1648358D01*
G01X-2700020Y-1660601D01*
G01X-2707081Y-1648358D01*
G01X-2714193Y-1636065D01*
G01X-2718003D01*
G01X-2700020Y-1667256D01*
G01X-2690012Y-1649984D01*
G01X-2680056Y-1632712D01*
G37*
G36*
G01X-2669946Y-1632712D02*
G01X-2668016Y-1636065D01*
G01X-2664206D01*
G01X-2635809D01*
G01X-2642921Y-1648358D01*
G01X-2649982Y-1660601D01*
G01X-2657094Y-1648358D01*
G01X-2664206Y-1636065D01*
G01X-2668016D01*
G01X-2659990Y-1649984D01*
G01X-2649982Y-1667256D01*
G01X-2630068Y-1632712D01*
G37*
G36*
G01X-2619959Y-1632712D02*
G01X-2618029Y-1636065D01*
G01X-2614168D01*
G01X-2585822D01*
G01X-2592934Y-1648358D01*
G01X-2599995Y-1660601D01*
G01X-2607107Y-1648358D01*
G01X-2614168Y-1636065D01*
G01X-2618029D01*
G01X-2609952Y-1649984D01*
G01X-2599995Y-1667256D01*
G01X-2580081Y-1632712D01*
G37*
G36*
G01X-2569921Y-1632712D02*
G01X-2567991Y-1636065D01*
G01X-2564181D01*
G01X-2535834D01*
G01X-2542896Y-1648358D01*
G01X-2550008Y-1660601D01*
G01X-2557069Y-1648358D01*
G01X-2564181Y-1636065D01*
G01X-2567991D01*
G01X-2550008Y-1667256D01*
G01X-2540051Y-1649984D01*
G01X-2530043Y-1632712D01*
G37*
G36*
G01X-2519934Y-1632712D02*
G01X-2518004Y-1636065D01*
G01X-2514194D01*
G01X-2485796D01*
G01X-2492908Y-1648358D01*
G01X-2500020Y-1660601D01*
G01X-2507082Y-1648358D01*
G01X-2514194Y-1636065D01*
G01X-2518004D01*
G01X-2500020Y-1667256D01*
G01X-2490013Y-1649984D01*
G01X-2480056Y-1632712D01*
G37*
G36*
G01X-2469947Y-1632712D02*
G01X-2468016Y-1636065D01*
G01X-2464206D01*
G01X-2435809D01*
G01X-2442921Y-1648358D01*
G01X-2449982Y-1660601D01*
G01X-2457094Y-1648358D01*
G01X-2464206Y-1636065D01*
G01X-2468016D01*
G01X-2459990Y-1649984D01*
G01X-2449982Y-1667256D01*
G01X-2430069Y-1632712D01*
G37*
G36*
G01X-1669948Y-2432710D02*
G01X-1668018Y-2436063D01*
G01X-1664208D01*
G01X-1635811D01*
G01X-1642923Y-2448357D01*
G01X-1649984Y-2460600D01*
G01X-1657096Y-2448357D01*
G01X-1664208Y-2436063D01*
G01X-1668018D01*
G01X-1659992Y-2449982D01*
G01X-1649984Y-2467254D01*
G01X-1630070Y-2432710D01*
G37*
G36*
G01X-1669948Y-2482748D02*
G01X-1668069Y-2486050D01*
G01X-1664208D01*
G01X-1635811D01*
G01X-1642923Y-2498344D01*
G01X-1649984Y-2510638D01*
G01X-1664208Y-2486050D01*
G01X-1668069D01*
G01X-1659992Y-2500020D01*
G01X-1649984Y-2517292D01*
G01X-1630070Y-2482748D01*
G37*
G36*
G01X-1669948Y-2532736D02*
G01X-1668069Y-2536038D01*
G01X-1664208D01*
G01X-1635811D01*
G01X-1642923Y-2548331D01*
G01X-1649984Y-2560625D01*
G01X-1664208Y-2536038D01*
G01X-1668069D01*
G01X-1659992Y-2550008D01*
G01X-1649984Y-2567280D01*
G01X-1630070Y-2532736D01*
G37*
G36*
G01X-1669948Y-2582723D02*
G01X-1668018Y-2586076D01*
G01X-1664208D01*
G01X-1635811D01*
G01X-1642923Y-2598318D01*
G01X-1649984Y-2610612D01*
G01X-1657096Y-2598318D01*
G01X-1664208Y-2586076D01*
G01X-1668018D01*
G01X-1659992Y-2599995D01*
G01X-1649984Y-2617267D01*
G01X-1630070Y-2582723D01*
G37*
G36*
G01X-1669948Y-2682748D02*
G01X-1668069Y-2686050D01*
G01X-1664208D01*
G01X-1635811D01*
G01X-1642923Y-2698344D01*
G01X-1649984Y-2710637D01*
G01X-1664208Y-2686050D01*
G01X-1668069D01*
G01X-1659992Y-2700020D01*
G01X-1649984Y-2717292D01*
G01X-1630070Y-2682748D01*
G37*
G36*
G01X-1669948Y-2632710D02*
G01X-1668018Y-2636063D01*
G01X-1664208D01*
G01X-1635811D01*
G01X-1642923Y-2648356D01*
G01X-1649984Y-2660599D01*
G01X-1657096Y-2648356D01*
G01X-1664208Y-2636063D01*
G01X-1668018D01*
G01X-1659992Y-2649982D01*
G01X-1649984Y-2667254D01*
G01X-1630070Y-2632710D01*
G37*
G36*
G01X-1669948Y-2732735D02*
G01X-1668069Y-2736037D01*
G01X-1664208D01*
G01X-1635811D01*
G01X-1642923Y-2748331D01*
G01X-1649984Y-2760624D01*
G01X-1664208Y-2736037D01*
G01X-1668069D01*
G01X-1659992Y-2750007D01*
G01X-1649984Y-2767279D01*
G01X-1630070Y-2732735D01*
G37*
G36*
G01X-1669948Y-2782722D02*
G01X-1668018Y-2786075D01*
G01X-1664208D01*
G01X-1635811D01*
G01X-1642923Y-2798318D01*
G01X-1649984Y-2810612D01*
G01X-1657096Y-2798318D01*
G01X-1664208Y-2786075D01*
G01X-1668018D01*
G01X-1659992Y-2799994D01*
G01X-1649984Y-2817266D01*
G01X-1630070Y-2782722D01*
G37*
G36*
G01X-1519936Y-2782722D02*
G01X-1518006Y-2786075D01*
G01X-1514196D01*
G01X-1485798D01*
G01X-1492910Y-2798318D01*
G01X-1500022Y-2810612D01*
G01X-1507084Y-2798318D01*
G01X-1514196Y-2786075D01*
G01X-1518006D01*
G01X-1500022Y-2817266D01*
G01X-1490015Y-2799994D01*
G01X-1480058Y-2782722D01*
G37*
G36*
G01X-1519936Y-2732735D02*
G01X-1518056Y-2736037D01*
G01X-1514196D01*
G01X-1485798D01*
G01X-1500022Y-2760624D01*
G01X-1507084Y-2748331D01*
G01X-1514196Y-2736037D01*
G01X-1518056D01*
G01X-1500022Y-2767279D01*
G01X-1490015Y-2750007D01*
G01X-1480058Y-2732735D01*
G37*
G36*
G01X-1519936Y-2682748D02*
G01X-1518056Y-2686050D01*
G01X-1514196D01*
G01X-1485798D01*
G01X-1500022Y-2710637D01*
G01X-1507084Y-2698344D01*
G01X-1514196Y-2686050D01*
G01X-1518056D01*
G01X-1500022Y-2717292D01*
G01X-1490015Y-2700020D01*
G01X-1480058Y-2682748D01*
G37*
G36*
G01X-1519936Y-2632710D02*
G01X-1518006Y-2636063D01*
G01X-1514196D01*
G01X-1485798D01*
G01X-1492910Y-2648356D01*
G01X-1500022Y-2660599D01*
G01X-1507084Y-2648356D01*
G01X-1514196Y-2636063D01*
G01X-1518006D01*
G01X-1500022Y-2667254D01*
G01X-1490015Y-2649982D01*
G01X-1480058Y-2632710D01*
G37*
G36*
G01X-1519936Y-2582723D02*
G01X-1518006Y-2586076D01*
G01X-1514196D01*
G01X-1485798D01*
G01X-1492910Y-2598318D01*
G01X-1500022Y-2610612D01*
G01X-1507084Y-2598318D01*
G01X-1514196Y-2586076D01*
G01X-1518006D01*
G01X-1500022Y-2617267D01*
G01X-1490015Y-2599995D01*
G01X-1480058Y-2582723D01*
G37*
G36*
G01X-1519936Y-2532736D02*
G01X-1518056Y-2536038D01*
G01X-1514196D01*
G01X-1485798D01*
G01X-1500022Y-2560625D01*
G01X-1507084Y-2548331D01*
G01X-1514196Y-2536038D01*
G01X-1518056D01*
G01X-1500022Y-2567280D01*
G01X-1490015Y-2550008D01*
G01X-1480058Y-2532736D01*
G37*
G36*
G01X-1519936Y-2482748D02*
G01X-1518056Y-2486050D01*
G01X-1514196D01*
G01X-1485798D01*
G01X-1500022Y-2510638D01*
G01X-1507084Y-2498344D01*
G01X-1514196Y-2486050D01*
G01X-1518056D01*
G01X-1500022Y-2517292D01*
G01X-1490015Y-2500020D01*
G01X-1480058Y-2482748D01*
G37*
G36*
G01X-1519936Y-2432710D02*
G01X-1518006Y-2436063D01*
G01X-1514196D01*
G01X-1485798D01*
G01X-1492910Y-2448357D01*
G01X-1500022Y-2460600D01*
G01X-1507084Y-2448357D01*
G01X-1514196Y-2436063D01*
G01X-1518006D01*
G01X-1500022Y-2467254D01*
G01X-1490015Y-2449982D01*
G01X-1480058Y-2432710D01*
G37*
G36*
G01X-369926Y-2432710D02*
G01X-367995Y-2436063D01*
G01X-364185D01*
G01X-335839D01*
G01X-342900Y-2448357D01*
G01X-350012Y-2460600D01*
G01X-357073Y-2448357D01*
G01X-364185Y-2436063D01*
G01X-367995D01*
G01X-350012Y-2467254D01*
G01X-340055Y-2449982D01*
G01X-330048Y-2432710D01*
G37*
G36*
G01X-369926Y-2482748D02*
G01X-368046Y-2486050D01*
G01X-364185D01*
G01X-335839D01*
G01X-342900Y-2498344D01*
G01X-350012Y-2510638D01*
G01X-357073Y-2498344D01*
G01X-364185Y-2486050D01*
G01X-368046D01*
G01X-350012Y-2517292D01*
G01X-340055Y-2500020D01*
G01X-330048Y-2482748D01*
G37*
G36*
G01X-369926Y-2532736D02*
G01X-368046Y-2536038D01*
G01X-364185D01*
G01X-335839D01*
G01X-342900Y-2548331D01*
G01X-350012Y-2560625D01*
G01X-357073Y-2548331D01*
G01X-364185Y-2536038D01*
G01X-368046D01*
G01X-350012Y-2567280D01*
G01X-340055Y-2550008D01*
G01X-330048Y-2532736D01*
G37*
G36*
G01X-369926Y-2582723D02*
G01X-367995Y-2586076D01*
G01X-364185D01*
G01X-335839D01*
G01X-342900Y-2598318D01*
G01X-350012Y-2610612D01*
G01X-357073Y-2598318D01*
G01X-364185Y-2586076D01*
G01X-367995D01*
G01X-350012Y-2617267D01*
G01X-340055Y-2599995D01*
G01X-330048Y-2582723D01*
G37*
G36*
G01X-369926Y-2682748D02*
G01X-368046Y-2686050D01*
G01X-364185D01*
G01X-335839D01*
G01X-342900Y-2698344D01*
G01X-350012Y-2710637D01*
G01X-357073Y-2698344D01*
G01X-364185Y-2686050D01*
G01X-368046D01*
G01X-350012Y-2717292D01*
G01X-340055Y-2700020D01*
G01X-330048Y-2682748D01*
G37*
G36*
G01X-369926Y-2632710D02*
G01X-367995Y-2636063D01*
G01X-364185D01*
G01X-335839D01*
G01X-342900Y-2648356D01*
G01X-350012Y-2660599D01*
G01X-357073Y-2648356D01*
G01X-364185Y-2636063D01*
G01X-367995D01*
G01X-350012Y-2667254D01*
G01X-340055Y-2649982D01*
G01X-330048Y-2632710D01*
G37*
G36*
G01X-369926Y-2732735D02*
G01X-368046Y-2736037D01*
G01X-364185D01*
G01X-335839D01*
G01X-342900Y-2748331D01*
G01X-350012Y-2760624D01*
G01X-357073Y-2748331D01*
G01X-364185Y-2736037D01*
G01X-368046D01*
G01X-350012Y-2767279D01*
G01X-340055Y-2750007D01*
G01X-330048Y-2732735D01*
G37*
G36*
G01X-369926Y-2782722D02*
G01X-367995Y-2786075D01*
G01X-364185D01*
G01X-335839D01*
G01X-342900Y-2798318D01*
G01X-350012Y-2810612D01*
G01X-357073Y-2798318D01*
G01X-364185Y-2786075D01*
G01X-367995D01*
G01X-350012Y-2817266D01*
G01X-340055Y-2799994D01*
G01X-330048Y-2782722D01*
G37*
G36*
G01X-219964Y-2782722D02*
G01X-218034Y-2786075D01*
G01X-214173D01*
G01X-185826D01*
G01X-192888Y-2798318D01*
G01X-200000Y-2810612D01*
G01X-207112Y-2798318D01*
G01X-214173Y-2786075D01*
G01X-218034D01*
G01X-209956Y-2799994D01*
G01X-200000Y-2817266D01*
G01X-180086Y-2782722D01*
G37*
G36*
G01X-219964Y-2732735D02*
G01X-218034Y-2736037D01*
G01X-214173D01*
G01X-185826D01*
G01X-192888Y-2748331D01*
G01X-200000Y-2760624D01*
G01X-207112Y-2748331D01*
G01X-214173Y-2736037D01*
G01X-218034D01*
G01X-209956Y-2750007D01*
G01X-200000Y-2767279D01*
G01X-180086Y-2732735D01*
G37*
G36*
G01X-219964Y-2682748D02*
G01X-218034Y-2686050D01*
G01X-214173D01*
G01X-185826D01*
G01X-192888Y-2698344D01*
G01X-200000Y-2710637D01*
G01X-207112Y-2698344D01*
G01X-214173Y-2686050D01*
G01X-218034D01*
G01X-209956Y-2700020D01*
G01X-200000Y-2717292D01*
G01X-180086Y-2682748D01*
G37*
G36*
G01X-219964Y-2632710D02*
G01X-218034Y-2636063D01*
G01X-214173D01*
G01X-185826D01*
G01X-192888Y-2648356D01*
G01X-200000Y-2660599D01*
G01X-207112Y-2648356D01*
G01X-214173Y-2636063D01*
G01X-218034D01*
G01X-209956Y-2649982D01*
G01X-200000Y-2667254D01*
G01X-180086Y-2632710D01*
G37*
G36*
G01X-219964Y-2582723D02*
G01X-218034Y-2586076D01*
G01X-214173D01*
G01X-185826D01*
G01X-192888Y-2598318D01*
G01X-200000Y-2610612D01*
G01X-207112Y-2598318D01*
G01X-214173Y-2586076D01*
G01X-218034D01*
G01X-209956Y-2599995D01*
G01X-200000Y-2617267D01*
G01X-180086Y-2582723D01*
G37*
G36*
G01X-219964Y-2532736D02*
G01X-218034Y-2536038D01*
G01X-214173D01*
G01X-185826D01*
G01X-192888Y-2548331D01*
G01X-200000Y-2560625D01*
G01X-207112Y-2548331D01*
G01X-214173Y-2536038D01*
G01X-218034D01*
G01X-209956Y-2550008D01*
G01X-200000Y-2567280D01*
G01X-180086Y-2532736D01*
G37*
G36*
G01X-219964Y-2482748D02*
G01X-218034Y-2486050D01*
G01X-214173D01*
G01X-185826D01*
G01X-192888Y-2498344D01*
G01X-200000Y-2510638D01*
G01X-207112Y-2498344D01*
G01X-214173Y-2486050D01*
G01X-218034D01*
G01X-209956Y-2500020D01*
G01X-200000Y-2517292D01*
G01X-180086Y-2482748D01*
G37*
G36*
G01X-219964Y-2432710D02*
G01X-218034Y-2436063D01*
G01X-214173D01*
G01X-185826D01*
G01X-192888Y-2448357D01*
G01X-200000Y-2460600D01*
G01X-207112Y-2448357D01*
G01X-214173Y-2436063D01*
G01X-218034D01*
G01X-209956Y-2449982D01*
G01X-200000Y-2467254D01*
G01X-180086Y-2432710D01*
G37*
G36*
G01X2880055Y-1707744D02*
G01X2881935Y-1711046D01*
G01X2885796D01*
G01X2914193D01*
G01X2907081Y-1723339D01*
G01X2900020Y-1735633D01*
G01X2885796Y-1711046D01*
G01X2881935D01*
G01X2890012Y-1725016D01*
G01X2900020Y-1742288D01*
G01X2919933Y-1707744D01*
G37*
G36*
G01X2830068Y-1557731D02*
G01X2831948Y-1561033D01*
G01X2835808D01*
G01X2864206D01*
G01X2849982Y-1585620D01*
G01X2842920Y-1573327D01*
G01X2835808Y-1561033D01*
G01X2831948D01*
G01X2849982Y-1592275D01*
G01X2859989Y-1575003D01*
G01X2869946Y-1557731D01*
G37*
G36*
G01X1705051Y-2882748D02*
G01X1706931Y-2886050D01*
G01X1710842D01*
G01X1739189D01*
G01X1732077Y-2898343D01*
G01X1725016Y-2910637D01*
G01X1717904Y-2898343D01*
G01X1710842Y-2886050D01*
G01X1706931D01*
G01X1715008Y-2900020D01*
G01X1725016Y-2917292D01*
G01X1744929Y-2882748D01*
G37*
G36*
G01X1555039Y-2832710D02*
G01X1556969Y-2836062D01*
G01X1560830D01*
G01X1589176D01*
G01X1582115Y-2848356D01*
G01X1575003Y-2860599D01*
G01X1567891Y-2848356D01*
G01X1560830Y-2836062D01*
G01X1556969D01*
G01X1565046Y-2849982D01*
G01X1575003Y-2867254D01*
G01X1594917Y-2832710D01*
G37*
G36*
G01X405079Y-2882748D02*
G01X406959Y-2886050D01*
G01X410820D01*
G01X439166D01*
G01X432105Y-2898343D01*
G01X424993Y-2910637D01*
G01X417932Y-2898343D01*
G01X410820Y-2886050D01*
G01X406959D01*
G01X424993Y-2917292D01*
G01X434950Y-2900020D01*
G01X444957Y-2882748D01*
G37*
G36*
G01X255067Y-2832710D02*
G01X256997Y-2836062D01*
G01X260807D01*
G01X289204D01*
G01X282092Y-2848356D01*
G01X274980Y-2860599D01*
G01X267919Y-2848356D01*
G01X260807Y-2836062D01*
G01X256997D01*
G01X274980Y-2867254D01*
G01X284988Y-2849982D01*
G01X294945Y-2832710D01*
G37*
G36*
G01X-2919933Y-2157730D02*
G01X-2918054Y-2161032D01*
G01X-2914193D01*
G01X-2885796D01*
G01X-2900020Y-2185619D01*
G01X-2907081Y-2173326D01*
G01X-2914193Y-2161032D01*
G01X-2918054D01*
G01X-2900020Y-2192274D01*
G01X-2890012Y-2175002D01*
G01X-2880055Y-2157730D01*
G37*
G36*
G01X-2869946Y-2307742D02*
G01X-2868066Y-2311044D01*
G01X-2864206D01*
G01X-2835808D01*
G01X-2842920Y-2323338D01*
G01X-2849982Y-2335632D01*
G01X-2864206Y-2311044D01*
G01X-2868066D01*
G01X-2859989Y-2325014D01*
G01X-2849982Y-2342286D01*
G01X-2830068Y-2307742D01*
G37*
G36*
G01X-2194916Y-2882748D02*
G01X-2193036Y-2886050D01*
G01X-2189175D01*
G01X-2160829D01*
G01X-2167890Y-2898343D01*
G01X-2175002Y-2910637D01*
G01X-2182114Y-2898343D01*
G01X-2189175Y-2886050D01*
G01X-2193036D01*
G01X-2175002Y-2917292D01*
G01X-2165045Y-2900020D01*
G01X-2155038Y-2882748D01*
G37*
G36*
G01X-2344928Y-2832710D02*
G01X-2342998Y-2836062D01*
G01X-2339188D01*
G01X-2310841D01*
G01X-2317902Y-2848356D01*
G01X-2325014Y-2860599D01*
G01X-2332076Y-2848356D01*
G01X-2339188Y-2836062D01*
G01X-2342998D01*
G01X-2325014Y-2867254D01*
G01X-2315007Y-2849982D01*
G01X-2305050Y-2832710D01*
G37*
G36*
G01X-894944Y-2882748D02*
G01X-893064Y-2886050D01*
G01X-889203D01*
G01X-860806D01*
G01X-867918Y-2898343D01*
G01X-874979Y-2910637D01*
G01X-889203Y-2886050D01*
G01X-893064D01*
G01X-884987Y-2900020D01*
G01X-874979Y-2917292D01*
G01X-855066Y-2882748D01*
G37*
G36*
G01X-1044956Y-2832710D02*
G01X-1043026Y-2836062D01*
G01X-1039165D01*
G01X-1010818D01*
G01X-1017930Y-2848356D01*
G01X-1024992Y-2860599D01*
G01X-1032104Y-2848356D01*
G01X-1039165Y-2836062D01*
G01X-1043026D01*
G01X-1034948Y-2849982D01*
G01X-1024992Y-2867254D01*
G01X-1005078Y-2832710D01*
G37*
G36*
G01X-2919933Y1742288D02*
G01X-2918003Y1738935D01*
G01X-2914193D01*
G01X-2885796D01*
G01X-2892908Y1726641D01*
G01X-2900020Y1714398D01*
G01X-2907081Y1726641D01*
G01X-2914193Y1738935D01*
G01X-2918003D01*
G01X-2900020Y1707744D01*
G01X-2890012Y1725016D01*
G01X-2880055Y1742288D01*
G37*
G36*
G01X-2869946Y1592275D02*
G01X-2868016Y1588922D01*
G01X-2864206D01*
G01X-2835808D01*
G01X-2842920Y1576680D01*
G01X-2849982Y1564386D01*
G01X-2857094Y1576680D01*
G01X-2864206Y1588922D01*
G01X-2868016D01*
G01X-2859989Y1575003D01*
G01X-2849982Y1557731D01*
G01X-2830068Y1592275D01*
G37*
G36*
G01X-1744929Y2917292D02*
G01X-1742999Y2913939D01*
G01X-1739189D01*
G01X-1710842D01*
G01X-1717904Y2901645D01*
G01X-1725016Y2889402D01*
G01X-1732077Y2901645D01*
G01X-1739189Y2913939D01*
G01X-1742999D01*
G01X-1725016Y2882748D01*
G01X-1715008Y2900020D01*
G01X-1705051Y2917292D01*
G37*
G36*
G01X-1594917Y2867254D02*
G01X-1593037Y2863952D01*
G01X-1589176D01*
G01X-1560830D01*
G01X-1567891Y2851658D01*
G01X-1575003Y2839364D01*
G01X-1582115Y2851658D01*
G01X-1589176Y2863952D01*
G01X-1593037D01*
G01X-1575003Y2832710D01*
G01X-1565046Y2849982D01*
G01X-1555039Y2867254D01*
G37*
G36*
G01X-444957Y2917292D02*
G01X-443027Y2913939D01*
G01X-439166D01*
G01X-410820D01*
G01X-417932Y2901645D01*
G01X-424993Y2889402D01*
G01X-432105Y2901645D01*
G01X-439166Y2913939D01*
G01X-443027D01*
G01X-434950Y2900020D01*
G01X-424993Y2882748D01*
G01X-405079Y2917292D01*
G37*
G36*
G01X-294945Y2867254D02*
G01X-293065Y2863952D01*
G01X-289204D01*
G01X-260807D01*
G01X-267919Y2851658D01*
G01X-274980Y2839364D01*
G01X-289204Y2863952D01*
G01X-293065D01*
G01X-284988Y2849982D01*
G01X-274980Y2832710D01*
G01X-255067Y2867254D01*
G37*
G36*
G01X855066Y2917292D02*
G01X856996Y2913939D01*
G01X860806D01*
G01X889203D01*
G01X882091Y2901645D01*
G01X874979Y2889402D01*
G01X867918Y2901645D01*
G01X860806Y2913939D01*
G01X856996D01*
G01X874979Y2882748D01*
G01X884987Y2900020D01*
G01X894944Y2917292D01*
G37*
G36*
G01X1005078Y2867254D02*
G01X1006958Y2863952D01*
G01X1010818D01*
G01X1039165D01*
G01X1032104Y2851658D01*
G01X1024992Y2839364D01*
G01X1017930Y2851658D01*
G01X1010818Y2863952D01*
G01X1006958D01*
G01X1024992Y2832710D01*
G01X1034948Y2849982D01*
G01X1044956Y2867254D01*
G37*
G36*
G01X2155038Y2917292D02*
G01X2156968Y2913939D01*
G01X2160829D01*
G01X2189175D01*
G01X2182114Y2901645D01*
G01X2175002Y2889402D01*
G01X2167890Y2901645D01*
G01X2160829Y2913939D01*
G01X2156968D01*
G01X2165045Y2900020D01*
G01X2175002Y2882748D01*
G01X2194916Y2917292D01*
G37*
G36*
G01X2305050Y2867254D02*
G01X2306930Y2863952D01*
G01X2310841D01*
G01X2339188D01*
G01X2332076Y2851658D01*
G01X2325014Y2839364D01*
G01X2317902Y2851658D01*
G01X2310841Y2863952D01*
G01X2306930D01*
G01X2315007Y2849982D01*
G01X2325014Y2832710D01*
G01X2344928Y2867254D01*
G37*
G36*
G01X2880055Y2192274D02*
G01X2881986Y2188921D01*
G01X2885796D01*
G01X2914193D01*
G01X2907081Y2176678D01*
G01X2900020Y2164385D01*
G01X2892908Y2176678D01*
G01X2885796Y2188921D01*
G01X2881986D01*
G01X2890012Y2175002D01*
G01X2900020Y2157730D01*
G01X2919933Y2192274D01*
G37*
G36*
G01X2830068Y2342286D02*
G01X2831998Y2338934D01*
G01X2835808D01*
G01X2864206D01*
G01X2857094Y2326640D01*
G01X2849982Y2314397D01*
G01X2842920Y2326640D01*
G01X2835808Y2338934D01*
G01X2831998D01*
G01X2849982Y2307742D01*
G01X2859989Y2325014D01*
G01X2869946Y2342286D01*
G37*
G36*
G01X2705049Y-1257757D02*
G01X2706980Y-1261059D01*
G01X2710840D01*
G01X2739187D01*
G01X2732075Y-1273353D01*
G01X2725014Y-1285596D01*
G01X2717902Y-1273353D01*
G01X2710840Y-1261059D01*
G01X2706980D01*
G01X2715006Y-1274978D01*
G01X2725014Y-1292250D01*
G01X2734970Y-1274978D01*
G01X2744927Y-1257757D01*
G37*
G36*
G01X2805074Y-1232713D02*
G01X2807005Y-1236066D01*
G01X2810815D01*
G01X2839161D01*
G01X2832100Y-1248359D01*
G01X2824988Y-1260602D01*
G01X2817927Y-1248359D01*
G01X2810815Y-1236066D01*
G01X2807005D01*
G01X2824988Y-1267257D01*
G01X2834945Y-1249985D01*
G01X2844952Y-1232713D01*
G37*
G36*
G01X2855062Y-1182726D02*
G01X2856992Y-1186078D01*
G01X2860802D01*
G01X2889199D01*
G01X2882087Y-1198321D01*
G01X2874975Y-1210615D01*
G01X2867914Y-1198321D01*
G01X2860802Y-1186078D01*
G01X2856992D01*
G01X2874975Y-1217270D01*
G01X2884983Y-1199998D01*
G01X2894940Y-1182726D01*
G37*
G36*
G01X2780081Y-57760D02*
G01X2781960Y-61062D01*
G01X2785821D01*
G01X2814168D01*
G01X2807106Y-73355D01*
G01X2799994Y-85649D01*
G01X2792933Y-73355D01*
G01X2785821Y-61062D01*
G01X2781960D01*
G01X2790038Y-75032D01*
G01X2799994Y-92253D01*
G01X2809951Y-75032D01*
G01X2819959Y-57760D01*
G37*
G36*
G01X2830068Y92253D02*
G01X2831948Y88951D01*
G01X2835808D01*
G01X2864206D01*
G01X2849982Y64364D01*
G01X2842920Y76657D01*
G01X2835808Y88951D01*
G01X2831948D01*
G01X2849982Y57709D01*
G01X2859989Y74981D01*
G01X2869946Y92253D01*
G37*
G36*
G01X2930042Y692252D02*
G01X2931973Y688899D01*
G01X2935834D01*
G01X2964180D01*
G01X2957068Y676656D01*
G01X2950007Y664362D01*
G01X2942895Y676656D01*
G01X2935834Y688899D01*
G01X2931973D01*
G01X2940050Y674980D01*
G01X2950007Y657708D01*
G01X2969920Y692252D01*
G37*
G36*
G01X2880055Y542239D02*
G01X2881986Y538937D01*
G01X2885796D01*
G01X2914193D01*
G01X2907081Y526644D01*
G01X2900020Y514350D01*
G01X2885796Y538937D01*
G01X2881986D01*
G01X2890012Y525018D01*
G01X2900020Y507746D01*
G01X2909976Y525018D01*
G01X2919933Y542239D01*
G37*
G36*
G01X480060Y17272D02*
G01X481990Y13919D01*
G01X485800D01*
G01X514198D01*
G01X507086Y1676D01*
G01X500024Y-10617D01*
G01X492912Y1676D01*
G01X485800Y13919D01*
G01X481990D01*
G01X490017Y0D01*
G01X500024Y-17272D01*
G01X519938Y17272D01*
G37*
G36*
G01X2305050Y1917243D02*
G01X2306980Y1913941D01*
G01X2310841D01*
G01X2339188D01*
G01X2332076Y1901647D01*
G01X2325014Y1889404D01*
G01X2317902Y1901647D01*
G01X2310841Y1913941D01*
G01X2306980D01*
G01X2315007Y1900022D01*
G01X2325014Y1882750D01*
G01X2334971Y1900022D01*
G01X2344928Y1917243D01*
G37*
G36*
G01X2430069Y-507746D02*
G01X2431948Y-511048D01*
G01X2435809D01*
G01X2464206D01*
G01X2449982Y-535635D01*
G01X2442921Y-523342D01*
G01X2435809Y-511048D01*
G01X2431948D01*
G01X2449982Y-542290D01*
G01X2459990Y-525018D01*
G01X2469947Y-507746D01*
G37*
G36*
G01X2755036Y-1182726D02*
G01X2756967Y-1186078D01*
G01X2760828D01*
G01X2789174D01*
G01X2782113Y-1198321D01*
G01X2775001Y-1210615D01*
G01X2767889Y-1198321D01*
G01X2760828Y-1186078D01*
G01X2756967D01*
G01X2765044Y-1199998D01*
G01X2775001Y-1217270D01*
G01X2794914Y-1182726D01*
G37*
G04 Image End*
G54D10*

M02*
