;TYPE=NON_PLATED
;Layer: NPTH_Through
;EasyEDA Pro v2.2.35.2, 2025-02-20 22:18:56
;Gerber Generator version 0.3
M48
METRIC,LZ,0000.00000
;Hole size 1 = 1.02000 METRIC
T01C1.02000
;Hole size 2 = 2.00000 METRIC
T02C2.00000
%
G05
G90
T01
X-24.13Y25.77
X-21.59Y25.77
X-19.05Y25.77
X-16.51Y25.77
X-13.97Y25.77
X-11.43Y25.77
X-8.89Y25.77
X-6.35Y25.77
X-3.81Y25.77
X-1.27Y25.77
X1.27Y25.77
X3.81Y25.77
X6.35Y25.77
X8.89Y25.77
X11.43Y25.77
X13.97Y25.77
X16.51Y25.77
X19.05Y25.77
X21.59Y25.77
X24.13Y25.77
X-24.13Y23.23
X-21.59Y23.23
X-19.05Y23.23
X-16.51Y23.23
X-13.97Y23.23
X-11.43Y23.23
X-8.89Y23.23
X-6.35Y23.23
X-3.81Y23.23
X-1.27Y23.23
X1.27Y23.23
X3.81Y23.23
X6.35Y23.23
X8.89Y23.23
X11.43Y23.23
X13.97Y23.23
X16.51Y23.23
X19.05Y23.23
X21.59Y23.23
X24.13Y23.23
T02
X-22.86Y24.49987
X22.86Y24.49987
M30