;TYPE=PLATED
;Layer: PTH_Through_Via
;EasyEDA Pro v2.2.35.2, 2025-02-20 22:18:56
;Gerber Generator version 0.3
M48
METRIC,LZ,0000.00000
;Hole size 1 = 0.30000 METRIC
T01C0.30000
%
G05
G90
T01
X7.59773Y7.96236
X8.09773Y7.46224
X7.59773Y6.7123
X-1.75Y6.75
X-2.0Y7.5
X-2.0Y8.75
X-1.5Y9.25
X-2.65227Y19.2123
X-24.27708Y13.3375
X-23.27708Y19.5875
X-26.27708Y14.3375
X-21.08294Y-0.78192
X-22.60412Y-7.53192
X14.09773Y14.7123
X10.34773Y2.46225
X10.84773Y1.9623
X7.59773Y2.96237
X3.84773Y4.92408
X14.34773Y-3.7877
X6.09772Y-3.7877
X10.84773Y17.7123
X7.34772Y9.46231
X16.34773Y7.9623
X15.09773Y1.7123
X10.34773Y-2.7877
X18.59773Y-2.7877
X20.09773Y8.9623
X9.84772Y15.71231
X11.84773Y15.71231
X13.84773Y17.7123
X14.34773Y10.4623
X14.84772Y10.2123
X14.84772Y17.7123
X-2.65227Y14.7123
X-5.90227Y1.9623
X-9.15227Y2.96237
X-12.90227Y4.92408
X-2.40227Y-3.7877
X-10.65227Y-3.7877
X-5.90227Y17.7123
X-9.40227Y9.46231
X-0.40227Y7.9623
X-1.65227Y1.7123
X-6.40227Y-2.7877
X1.84773Y-2.7877
X3.34773Y8.9623
X-6.90227Y15.71231
X-4.90227Y15.71231
X-2.90227Y17.7123
X-2.40227Y10.4623
X-1.90227Y10.2123
X-1.90227Y17.7123
X12.25Y-1.85488
X12.25Y-2.75
X-6.40227Y2.46225
X-18.25Y27.29997
X-13.17Y21.70003
X-8.09Y27.29997
X-0.47Y27.29997
X7.15Y21.70003
X12.23Y27.29997
X17.31Y27.29997
X24.93Y21.70003
X-17.80903Y-8.75
X-17.9213Y-6.0
X-17.5Y-3.5
X-25.0Y-6.75
X-24.5Y-6.75
X-25.5Y-7.0
X-25.5Y-7.5
X-25.5Y-9.0
X-25.5Y-8.5
X-25.5Y-8.0
X-24.25Y-3.5
X-24.75Y-3.5
X-23.75Y-3.5
X-23.25Y-3.5
X-18.25Y-4.0
X-18.25Y-3.5
X-18.25Y-4.5
X-18.25Y-5.0
X4.0Y-2.75
X4.0Y-1.85488
X-4.5Y-2.75
X-4.5Y-1.85488
X-12.75Y-2.75
X-12.75Y-1.85488
X-12.0Y14.25
X-18.5Y11.75
X-17.25Y15.25
X-14.57673Y15.25
X-20.75Y21.75
X-18.25Y21.70003
X-24.75Y-3.0
X-24.75Y-2.5
X-23.25Y-2.5
X-23.25Y-3.0
X-27.0Y19.25
X24.5Y-3.75
X24.5Y-2.24988
X24.5Y-0.75001
X24.5Y0.75012
X24.5Y2.24999
X24.5Y3.75011
X24.5Y5.24998
X24.5Y6.74985
X-20.75Y-17.5
X-20.75Y-18.25
X-24.75Y-19.04509
X-23.0Y-19.04509
X-21.0Y-19.0
X-21.5Y-19.5
X-21.25Y-17.0
X19.0Y20.25
X25.0Y27.25
X-10.5Y28.25
X-0.5Y-15.35001
X-1.09999Y-16.25
X11.25Y-15.35001
X11.25Y-16.25
X10.40001Y-16.25
X10.41238Y-15.35001
X-0.5Y-16.25
X-1.12025Y-15.35001
X-17.50201Y16.25
X-13.75Y9.5
X-13.75Y-7.5
M30