G04 Layer: BottomLayer*
G04 EasyEDA Pro v2.2.35.2, 2025-02-20 22:18:56*
G04 Gerber Generator version 0.3*
G04 Scale: 100 percent, Rotated: No, Reflected: No*
G04 Dimensions in millimeters*
G04 Leading zeros omitted, absolute positions, 4 integers and 5 decimals*
%FSLAX45Y45*%
%MOMM*%
%ADD10C,0.2032*%
%ADD11C,5.5*%
%ADD12C,0.4*%
%ADD13C,0.127*%
%ADD14C,0.254*%
G75*


G04 Copper Start*
G36*
G01X-3500000Y2864186D02*
G01X-1089745Y2864186D01*
G03X-1078956Y2777285I39745J-39186D01*
G03X-996891Y2807836I28957J47715D01*
G01X2257535Y2807836D01*
G01X2402228Y2663143D01*
G03X2326228Y2579706I10772J-86143D01*
G03X2245772Y2579706I-40228J-129719D01*
G03X2097616Y2638390I-86772J-2707D01*
G03X2156285Y2490228I61384J-61390D01*
G03X2156277Y2409771I129715J-40241D01*
G03X2097610Y2261616I2723J-86771D01*
G03X2245771Y2320268I61390J61384D01*
G03X2326229Y2320268I40229J129719D01*
G03X2474390Y2261616I86771J2732D01*
G03X2415723Y2409771I-61390J61384D01*
G03X2415715Y2490228I-129723J40216D01*
G03X2499143Y2566228I-2715J86771D01*
G01X2507836Y2557535D01*
G01X2507836Y2125000D01*
G03X2520186Y2095186I42164J0D01*
G01X2807836Y1807535D01*
G01X2807836Y1176793D01*
G01X1955674Y2028955D01*
G03X1860534Y2064466I-55674J-3955D01*
G03X1896045Y1969326I39466J-39466D01*
G01X2757836Y1107535D01*
G01X2757836Y-982535D01*
G01X1857535Y-1882836D01*
G01X-1807536Y-1882836D01*
G01X-2020185Y-1670186D01*
G03X-2050000Y-1657836I-29814J-29814D01*
G01X-2088430Y-1657836D01*
G03X-2180814Y-1700000I-36570J-42164D01*
G03X-2088430Y-1742164I55814J0D01*
G01X-2067465Y-1742164D01*
G01X-1876793Y-1932836D01*
G01X-1907535Y-1932836D01*
G01X-1970186Y-1870186D01*
G03X-2000000Y-1857836I-29814J-29814D01*
G01X-2063430Y-1857836D01*
G03X-2155539Y-1894462I-36570J-42164D01*
G03X-2201256Y-1972091I5539J-55538D01*
G03X-2113430Y-1992164I51256J22091D01*
G01X-2041551Y-1992164D01*
G01X-1978901Y-2054815D01*
G03X-1949086Y-2067164I29814J29815D01*
G01X1925000Y-2067164D01*
G03X1954814Y-2054814I0J42164D01*
G01X2929814Y-1079814D01*
G03X2942164Y-1050000I-29814J29814D01*
G01X2942164Y1932386D01*
G03X2929814Y1962200I-42164J0D01*
G01X2617164Y2274850D01*
G01X2617164Y2321123D01*
G03X3210814Y2450000I282836J128877D01*
G03X2617164Y2578877I-310814J0D01*
G01X2617164Y2650000D01*
G03X2604815Y2679814I-42164J0D01*
G01X2555674Y2728955D01*
G03X2445901Y2738728I-55674J-3955D01*
G01X2320443Y2864186D01*
G01X2900000Y2864186D01*
G02X3214186Y2550000I0J-314186D01*
G01X3214186Y-2750000D01*
G02X2900000Y-3064186I-314186J0D01*
G01X-3500000Y-3064186D01*
G02X-3814186Y-2750000I0J314186D01*
G01X-3814186Y2550000D01*
G02X-3500000Y2864186I314186J0D01*
G37*
%LPC*%
G36*
G01X-3210814Y2450000D02*
G03X-2589186Y2450000I310814J0D01*
G03X-3210814Y2450000I-310814J0D01*
G37*
G36*
G01X-3210814Y-2450000D02*
G03X-2589186Y-2450000I310814J0D01*
G03X-3210814Y-2450000I-310814J0D01*
G37*
G36*
G01X-2415723Y2409771D02*
G03X-2474390Y2261616I2723J-86771D01*
G03X-2326229Y2320268I61390J61384D01*
G03X-2245771Y2320268I40229J129719D01*
G03X-2097610Y2261616I86771J2732D01*
G03X-2156277Y2409771I-61390J61384D01*
G03X-2156285Y2490228I-129723J40216D01*
G03X-2097616Y2638390I-2715J86771D01*
G03X-2245772Y2579706I-61384J-61390D01*
G03X-2286000Y2585801I-40228J-129719D01*
G03X-2326228Y2579706I0J-135814D01*
G03X-2474384Y2638390I-86772J-2707D01*
G03X-2415715Y2490228I61384J-61390D01*
G03X-2415723Y2409771I129715J-40241D01*
G37*
G36*
G01X-2068828Y-38726D02*
G03X-2162113Y-63401I-39466J-39466D01*
G01X-2294716Y-196005D01*
G03X-2308926Y-230309I34305J-34305D01*
G01X-2308926Y-725595D01*
G03X-2260412Y-809006I48514J-27597D01*
G03X-2211898Y-725595I0J55814D01*
G01X-2211898Y-250404D01*
G01X-2093504Y-132011D01*
G03X-2068828Y-38726I-14791J53819D01*
G37*
G36*
G01X-2032836Y2138430D02*
G03X-2075000Y2230814I-42164J36570D01*
G03X-2117164Y2138430I0J-55814D01*
G01X-2117164Y1875000D01*
G03X-2104815Y1845186I42164J0D01*
G01X-1780674Y1521045D01*
G03X-1685534Y1485534I55674J3955D01*
G03X-1721045Y1580674I-39466J39466D01*
G01X-2032836Y1892465D01*
G01X-2032836Y2138430D01*
G37*
G36*
G01X-1818186Y2577000D02*
G03X-1991814Y2577000I-86814J0D01*
G03X-1818186Y2577000I86814J0D01*
G37*
G36*
G01X-1818186Y2323000D02*
G03X-1991814Y2323000I-86814J0D01*
G03X-1818186Y2323000I86814J0D01*
G37*
G36*
G01X-1782836Y1909792D02*
G01X-1782836Y2133433D01*
G03X-1825000Y2225817I-42164J36570D01*
G03X-1867164Y2133433I0J-55814D01*
G01X-1867164Y1892327D01*
G03X-1854815Y1862512I42164J0D01*
G01X-1513347Y1521045D01*
G03X-1418207Y1485534I55674J3955D01*
G03X-1453718Y1580674I-39466J39466D01*
G01X-1782836Y1909792D01*
G37*
G36*
G01X-1564186Y2577000D02*
G03X-1737814Y2577000I-86814J0D01*
G03X-1564186Y2577000I86814J0D01*
G37*
G36*
G01X-1564186Y2323000D02*
G03X-1737814Y2323000I-86814J0D01*
G03X-1564186Y2323000I86814J0D01*
G37*
G36*
G01X-1310186Y2577000D02*
G03X-1483814Y2577000I-86814J0D01*
G03X-1310186Y2577000I86814J0D01*
G37*
G36*
G01X-1310186Y2323000D02*
G03X-1483814Y2323000I-86814J0D01*
G03X-1310186Y2323000I86814J0D01*
G37*
G36*
G01X-1375000Y-805814D02*
G03X-1332836Y-713430I0J55814D01*
G01X-1332836Y913430D01*
G03X-1375000Y1005814I-42164J36570D01*
G03X-1417164Y913430I0J-55814D01*
G01X-1417164Y-713430D01*
G03X-1375000Y-805814I42164J-36570D01*
G37*
G36*
G01X1859159Y-278515D02*
G01X1754838Y-382836D01*
G01X1439707Y-382836D01*
G01X1308714Y-251843D01*
G01X1308714Y-227038D01*
G03X1296365Y-197224I-42164J0D01*
G01X1280674Y-181533D01*
G03X1198208Y-136525I-55674J-3955D01*
G03X1191652Y-230244I26792J-48963D01*
G03X1173841Y-297315I33348J-44756D01*
G03X1235117Y-329889I51159J22315D01*
G01X1333864Y-428636D01*
G01X660507Y-428636D01*
G01X483714Y-251843D01*
G01X483714Y-227038D01*
G03X471364Y-197224I-42164J0D01*
G01X455674Y-181533D01*
G03X373208Y-136525I-55674J-3955D01*
G03X366652Y-230244I26792J-48963D01*
G03X348841Y-297315I33348J-44756D01*
G03X410117Y-329889I51159J22315D01*
G01X554663Y-474435D01*
G01X-143693Y-474435D01*
G01X-366286Y-251843D01*
G01X-366286Y-227038D01*
G03X-378635Y-197224I-42164J0D01*
G01X-394326Y-181533D01*
G03X-476792Y-136525I-55674J-3955D01*
G03X-483348Y-230244I26792J-48963D01*
G03X-501159Y-297315I33348J-44756D01*
G03X-439883Y-329889I51159J22315D01*
G01X-249537Y-520235D01*
G01X-922894Y-520235D01*
G01X-1191286Y-251843D01*
G01X-1191286Y-227038D01*
G03X-1203635Y-197224I-42164J0D01*
G01X-1219326Y-181533D01*
G03X-1301792Y-136525I-55674J-3955D01*
G03X-1308348Y-230244I26792J-48963D01*
G03X-1326159Y-297315I33348J-44756D01*
G03X-1264883Y-329889I51159J22315D01*
G01X-979659Y-615114D01*
G03X-949844Y-627463I29814J29814D01*
G01X1838532Y-627463D01*
G03X1868346Y-615114I0J42164D01*
G01X2116296Y-367164D01*
G01X2382535Y-367164D01*
G01X2394327Y-378955D01*
G03X2489467Y-414466I55674J3955D01*
G03X2453955Y-319326I-39467J39466D01*
G01X2434623Y-299994D01*
G01X2453955Y-280661D01*
G03X2489467Y-185521I-3955J55674D01*
G03X2394327Y-221032I-39466J-39466D01*
G01X2355383Y-259976D01*
G01X2158826Y-259976D01*
G01X2351637Y-67165D01*
G01X2382535Y-67165D01*
G01X2394327Y-78956D01*
G03X2489467Y-114467I55674J3955D01*
G03X2453955Y-19327I-39467J39466D01*
G01X2434623Y5D01*
G01X2453955Y19338D01*
G03X2489467Y114478I-3955J55674D01*
G03X2394327Y78967I-39466J-39466D01*
G01X2355383Y40023D01*
G01X2324704Y40023D01*
G03X2294889Y27674I0J-42164D01*
G01X2017164Y-250051D01*
G01X2017164Y-49794D01*
G01X2299793Y232835D01*
G01X2382534Y232835D01*
G01X2394327Y221042D01*
G03X2489468Y185533I55674J3957D01*
G03X2453954Y280673I-39467J39465D01*
G01X2434628Y299999D01*
G01X2453967Y319338D01*
G03X2489458Y414486I-3967J55673D01*
G03X2394326Y378954I-39458J-39475D01*
G01X2357535Y342164D01*
G01X2275000Y342164D01*
G03X2245186Y329814I0J-42164D01*
G01X1967164Y51793D01*
G01X1967164Y150206D01*
G01X2349792Y532834D01*
G01X2382535Y532834D01*
G01X2394327Y521043D01*
G03X2489467Y485532I55674J3955D01*
G03X2453955Y580672I-39467J39466D01*
G01X2434635Y599992D01*
G01X2453955Y619312D01*
G03X2489467Y714452I-3955J55674D01*
G03X2394327Y678941I-39466J-39466D01*
G01X2355298Y639913D01*
G01X2322748Y639913D01*
G03X2292934Y627563I0J-42164D01*
G01X1871508Y206137D01*
G03X1859159Y176322I29814J-29814D01*
G01X1859159Y-278515D01*
G37*
G36*
G01X-1056186Y2577000D02*
G03X-1229814Y2577000I-86814J0D01*
G03X-1056186Y2577000I86814J0D01*
G37*
G36*
G01X-1056186Y2323000D02*
G03X-1229814Y2323000I-86814J0D01*
G03X-1056186Y2323000I86814J0D01*
G37*
G36*
G01X-802186Y2577000D02*
G03X-975814Y2577000I-86814J0D01*
G03X-802186Y2577000I86814J0D01*
G37*
G36*
G01X-802186Y2323000D02*
G03X-975814Y2323000I-86814J0D01*
G03X-802186Y2323000I86814J0D01*
G37*
G36*
G01X-655251Y299979D02*
G03X-695832Y241399I15024J-53754D01*
G03X-645765Y190686I55605J4826D01*
G03X-568134Y144976I55538J5544D01*
G03X-548063Y232801I-22094J51255D01*
G01X-548063Y1453766D01*
G01X-486272Y1515557D01*
G03X-450761Y1610697I-3955J55674D01*
G03X-545901Y1575186I-39466J-39466D01*
G01X-590227Y1530859D01*
G01X-634554Y1575186D01*
G03X-729694Y1610697I-55674J-3955D01*
G03X-694183Y1515557I39466J-39466D01*
G01X-655251Y1476626D01*
G01X-655251Y299979D01*
G37*
G36*
G01X-548186Y2577000D02*
G03X-721814Y2577000I-86814J0D01*
G03X-548186Y2577000I86814J0D01*
G37*
G36*
G01X-548186Y2323000D02*
G03X-721814Y2323000I-86814J0D01*
G03X-548186Y2323000I86814J0D01*
G37*
G36*
G01X-294186Y2577000D02*
G03X-467814Y2577000I-86814J0D01*
G03X-294186Y2577000I86814J0D01*
G37*
G36*
G01X-294186Y2323000D02*
G03X-467814Y2323000I-86814J0D01*
G03X-294186Y2323000I86814J0D01*
G37*
G36*
G01X-263701Y1096868D02*
G03X-294341Y1032559I23474J-50638D01*
G03X-236833Y990520I54114J13672D01*
G03X-188464Y965444I46605J30711D01*
G03X-205538Y930539I38464J-40444D01*
G03X-251256Y852909I5538J-55539D01*
G03X-163430Y832836I51256J22091D01*
G01X-111462Y832836D01*
G01X-95042Y816416D01*
G03X-65227Y804066I29814J29814D01*
G01X-32692Y804066D01*
G01X16430Y754944D01*
G01X-140242Y754944D01*
G01X-145044Y759746D01*
G03X-233427Y794697I-54956J-9746D01*
G03X-224882Y700039I33427J-44697D01*
G03X-204461Y627595I49882J-25039D01*
G03X-130463Y641360I29461J47405D01*
G01X712625Y641360D01*
G03X783946Y620923I47148J29871D01*
G03X812554Y689377I-24173J50308D01*
G01X813728Y690550D01*
G03X865581Y745429I-3955J55674D01*
G03X815312Y801762I-55808J795D01*
G03X704099Y800192I-55540J-5526D01*
G01X681712Y777804D01*
G01X112827Y777804D01*
G01X14587Y876045D01*
G03X-15227Y888394I-29814J-29814D01*
G01X-47763Y888394D01*
G01X-64183Y904814D01*
G03X-93997Y917164I-29814J-29814D01*
G01X-94739Y917164D01*
G03X-94326Y921045I-55261J7836D01*
G01X-35413Y979958D01*
G03X-23063Y1009772I-29814J29814D01*
G01X-23063Y1721230D01*
G03X-35413Y1751045I-42164J0D01*
G01X-209554Y1925186D01*
G03X-304694Y1960697I-55674J-3955D01*
G03X-269183Y1865557I39466J-39466D01*
G01X-221253Y1817627D01*
G03X-236643Y1802227I31025J-46396D01*
G03X-250979Y1810914I-28584J-30996D01*
G03X-344643Y1783646I-39248J-39684D01*
G03X-272076Y1718450I54416J-12416D01*
G01X-263701Y1710075D01*
G01X-263701Y1096868D01*
G37*
G36*
G01X-40186Y2577000D02*
G03X-213814Y2577000I-86814J0D01*
G03X-40186Y2577000I86814J0D01*
G37*
G36*
G01X-40186Y2323000D02*
G03X-213814Y2323000I-86814J0D01*
G03X-40186Y2323000I86814J0D01*
G37*
G36*
G01X213814Y2323000D02*
G03X40186Y2323000I-86814J0D01*
G03X213814Y2323000I86814J0D01*
G37*
G36*
G01X213814Y2577000D02*
G03X40186Y2577000I-86814J0D01*
G03X213814Y2577000I86814J0D01*
G37*
G36*
G01X467814Y2323000D02*
G03X294186Y2323000I-86814J0D01*
G03X467814Y2323000I86814J0D01*
G37*
G36*
G01X467814Y2577000D02*
G03X294186Y2577000I-86814J0D01*
G03X467814Y2577000I86814J0D01*
G37*
G36*
G01X721814Y2323000D02*
G03X548186Y2323000I-86814J0D01*
G03X721814Y2323000I86814J0D01*
G37*
G36*
G01X721814Y2577000D02*
G03X548186Y2577000I-86814J0D01*
G03X721814Y2577000I86814J0D01*
G37*
G36*
G01X975814Y2323000D02*
G03X802186Y2323000I-86814J0D01*
G03X975814Y2323000I86814J0D01*
G37*
G36*
G01X975814Y2577000D02*
G03X802186Y2577000I-86814J0D01*
G03X975814Y2577000I86814J0D01*
G37*
G36*
G01X1019749Y299979D02*
G03X979168Y241399I15024J-53754D01*
G03X1029235Y190686I55605J4826D01*
G03X1106866Y144976I55538J5544D01*
G03X1126937Y232801I-22094J51255D01*
G01X1126937Y1453766D01*
G01X1188728Y1515557D01*
G03X1224239Y1610697I-3955J55674D01*
G03X1129099Y1575186I-39466J-39466D01*
G01X1084773Y1530859D01*
G01X1040446Y1575186D01*
G03X945306Y1610697I-55674J-3955D01*
G03X980817Y1515557I39466J-39466D01*
G01X1019749Y1476626D01*
G01X1019749Y299979D01*
G37*
G36*
G01X1229814Y2323000D02*
G03X1056186Y2323000I-86814J0D01*
G03X1229814Y2323000I86814J0D01*
G37*
G36*
G01X1229814Y2577000D02*
G03X1056186Y2577000I-86814J0D01*
G03X1229814Y2577000I86814J0D01*
G37*
G36*
G01X1483814Y2323000D02*
G03X1310186Y2323000I-86814J0D01*
G03X1483814Y2323000I86814J0D01*
G37*
G36*
G01X1483814Y2577000D02*
G03X1310186Y2577000I-86814J0D01*
G03X1483814Y2577000I86814J0D01*
G37*
G36*
G01X1411299Y1096868D02*
G03X1380659Y1032559I23474J-50638D01*
G03X1438167Y990520I54114J13672D01*
G03X1522917Y980485I46605J30711D01*
G03X1518487Y1065711I-38144J40746D01*
G01X1518487Y1726749D01*
G03X1523042Y1811859I-33714J44481D01*
G03X1438357Y1802227I-38269J-40628D01*
G03X1424021Y1810914I-28584J-30996D01*
G03X1330357Y1783646I-39248J-39684D01*
G03X1402924Y1718450I54416J-12416D01*
G01X1411299Y1710075D01*
G01X1411299Y1096868D01*
G37*
G36*
G01X1737814Y2323000D02*
G03X1564186Y2323000I-86814J0D01*
G03X1737814Y2323000I86814J0D01*
G37*
G36*
G01X1737814Y2577000D02*
G03X1564186Y2577000I-86814J0D01*
G03X1737814Y2577000I86814J0D01*
G37*
G36*
G01X1991814Y2323000D02*
G03X1818186Y2323000I-86814J0D01*
G03X1991814Y2323000I86814J0D01*
G37*
G36*
G01X1991814Y2577000D02*
G03X1818186Y2577000I-86814J0D01*
G03X1991814Y2577000I86814J0D01*
G37*
G36*
G01X2589186Y-2450000D02*
G03X3210814Y-2450000I310814J0D01*
G03X2589186Y-2450000I-310814J0D01*
G37*
%LPD*%
G54D10*
G01X-3500000Y2864186D02*
G01X-1089745Y2864186D01*
G03X-1078956Y2777285I39745J-39186D01*
G03X-996891Y2807836I28957J47715D01*
G01X2257535Y2807836D01*
G01X2402228Y2663143D01*
G03X2326228Y2579706I10772J-86143D01*
G03X2245772Y2579706I-40228J-129719D01*
G03X2097616Y2638390I-86772J-2707D01*
G03X2156285Y2490228I61384J-61390D01*
G03X2156277Y2409771I129715J-40241D01*
G03X2097610Y2261616I2723J-86771D01*
G03X2245771Y2320268I61390J61384D01*
G03X2326229Y2320268I40229J129719D01*
G03X2474390Y2261616I86771J2732D01*
G03X2415723Y2409771I-61390J61384D01*
G03X2415715Y2490228I-129723J40216D01*
G03X2499143Y2566228I-2715J86771D01*
G01X2507836Y2557535D01*
G01X2507836Y2125000D01*
G03X2520186Y2095186I42164J0D01*
G01X2807836Y1807535D01*
G01X2807836Y1176793D01*
G01X1955674Y2028955D01*
G03X1860534Y2064466I-55674J-3955D01*
G03X1896045Y1969326I39466J-39466D01*
G01X2757836Y1107535D01*
G01X2757836Y-982535D01*
G01X1857535Y-1882836D01*
G01X-1807536Y-1882836D01*
G01X-2020185Y-1670186D01*
G03X-2050000Y-1657836I-29814J-29814D01*
G01X-2088430Y-1657836D01*
G03X-2180814Y-1700000I-36570J-42164D01*
G03X-2088430Y-1742164I55814J0D01*
G01X-2067465Y-1742164D01*
G01X-1876793Y-1932836D01*
G01X-1907535Y-1932836D01*
G01X-1970186Y-1870186D01*
G03X-2000000Y-1857836I-29814J-29814D01*
G01X-2063430Y-1857836D01*
G03X-2155539Y-1894462I-36570J-42164D01*
G03X-2201256Y-1972091I5539J-55538D01*
G03X-2113430Y-1992164I51256J22091D01*
G01X-2041551Y-1992164D01*
G01X-1978901Y-2054815D01*
G03X-1949086Y-2067164I29814J29815D01*
G01X1925000Y-2067164D01*
G03X1954814Y-2054814I0J42164D01*
G01X2929814Y-1079814D01*
G03X2942164Y-1050000I-29814J29814D01*
G01X2942164Y1932386D01*
G03X2929814Y1962200I-42164J0D01*
G01X2617164Y2274850D01*
G01X2617164Y2321123D01*
G03X3210814Y2450000I282836J128877D01*
G03X2617164Y2578877I-310814J0D01*
G01X2617164Y2650000D01*
G03X2604815Y2679814I-42164J0D01*
G01X2555674Y2728955D01*
G03X2445901Y2738728I-55674J-3955D01*
G01X2320443Y2864186D01*
G01X2900000Y2864186D01*
G02X3214186Y2550000I0J-314186D01*
G01X3214186Y-2750000D01*
G02X2900000Y-3064186I-314186J0D01*
G01X-3500000Y-3064186D01*
G02X-3814186Y-2750000I0J314186D01*
G01X-3814186Y2550000D01*
G02X-3500000Y2864186I314186J0D01*
G01X-3210814Y2450000D02*
G03X-2589186Y2450000I310814J0D01*
G03X-3210814Y2450000I-310814J0D01*
G01X-3210814Y-2450000D02*
G03X-2589186Y-2450000I310814J0D01*
G03X-3210814Y-2450000I-310814J0D01*
G01X-2415723Y2409771D02*
G03X-2474390Y2261616I2723J-86771D01*
G03X-2326229Y2320268I61390J61384D01*
G03X-2245771Y2320268I40229J129719D01*
G03X-2097610Y2261616I86771J2732D01*
G03X-2156277Y2409771I-61390J61384D01*
G03X-2156285Y2490228I-129723J40216D01*
G03X-2097616Y2638390I-2715J86771D01*
G03X-2245772Y2579706I-61384J-61390D01*
G03X-2286000Y2585801I-40228J-129719D01*
G03X-2326228Y2579706I0J-135814D01*
G03X-2474384Y2638390I-86772J-2707D01*
G03X-2415715Y2490228I61384J-61390D01*
G03X-2415723Y2409771I129715J-40241D01*
G01X-2068828Y-38726D02*
G03X-2162113Y-63401I-39466J-39466D01*
G01X-2294716Y-196005D01*
G03X-2308926Y-230309I34305J-34305D01*
G01X-2308926Y-725595D01*
G03X-2260412Y-809006I48514J-27597D01*
G03X-2211898Y-725595I0J55814D01*
G01X-2211898Y-250404D01*
G01X-2093504Y-132011D01*
G03X-2068828Y-38726I-14791J53819D01*
G01X-2032836Y2138430D02*
G03X-2075000Y2230814I-42164J36570D01*
G03X-2117164Y2138430I0J-55814D01*
G01X-2117164Y1875000D01*
G03X-2104815Y1845186I42164J0D01*
G01X-1780674Y1521045D01*
G03X-1685534Y1485534I55674J3955D01*
G03X-1721045Y1580674I-39466J39466D01*
G01X-2032836Y1892465D01*
G01X-2032836Y2138430D01*
G01X-1818186Y2577000D02*
G03X-1991814Y2577000I-86814J0D01*
G03X-1818186Y2577000I86814J0D01*
G01X-1818186Y2323000D02*
G03X-1991814Y2323000I-86814J0D01*
G03X-1818186Y2323000I86814J0D01*
G01X-1782836Y1909792D02*
G01X-1782836Y2133433D01*
G03X-1825000Y2225817I-42164J36570D01*
G03X-1867164Y2133433I0J-55814D01*
G01X-1867164Y1892327D01*
G03X-1854815Y1862512I42164J0D01*
G01X-1513347Y1521045D01*
G03X-1418207Y1485534I55674J3955D01*
G03X-1453718Y1580674I-39466J39466D01*
G01X-1782836Y1909792D01*
G01X-1564186Y2577000D02*
G03X-1737814Y2577000I-86814J0D01*
G03X-1564186Y2577000I86814J0D01*
G01X-1564186Y2323000D02*
G03X-1737814Y2323000I-86814J0D01*
G03X-1564186Y2323000I86814J0D01*
G01X-1310186Y2577000D02*
G03X-1483814Y2577000I-86814J0D01*
G03X-1310186Y2577000I86814J0D01*
G01X-1310186Y2323000D02*
G03X-1483814Y2323000I-86814J0D01*
G03X-1310186Y2323000I86814J0D01*
G01X-1375000Y-805814D02*
G03X-1332836Y-713430I0J55814D01*
G01X-1332836Y913430D01*
G03X-1375000Y1005814I-42164J36570D01*
G03X-1417164Y913430I0J-55814D01*
G01X-1417164Y-713430D01*
G03X-1375000Y-805814I42164J-36570D01*
G01X1859159Y-278515D02*
G01X1754838Y-382836D01*
G01X1439707Y-382836D01*
G01X1308714Y-251843D01*
G01X1308714Y-227038D01*
G03X1296365Y-197224I-42164J0D01*
G01X1280674Y-181533D01*
G03X1198208Y-136525I-55674J-3955D01*
G03X1191652Y-230244I26792J-48963D01*
G03X1173841Y-297315I33348J-44756D01*
G03X1235117Y-329889I51159J22315D01*
G01X1333864Y-428636D01*
G01X660507Y-428636D01*
G01X483714Y-251843D01*
G01X483714Y-227038D01*
G03X471364Y-197224I-42164J0D01*
G01X455674Y-181533D01*
G03X373208Y-136525I-55674J-3955D01*
G03X366652Y-230244I26792J-48963D01*
G03X348841Y-297315I33348J-44756D01*
G03X410117Y-329889I51159J22315D01*
G01X554663Y-474435D01*
G01X-143693Y-474435D01*
G01X-366286Y-251843D01*
G01X-366286Y-227038D01*
G03X-378635Y-197224I-42164J0D01*
G01X-394326Y-181533D01*
G03X-476792Y-136525I-55674J-3955D01*
G03X-483348Y-230244I26792J-48963D01*
G03X-501159Y-297315I33348J-44756D01*
G03X-439883Y-329889I51159J22315D01*
G01X-249537Y-520235D01*
G01X-922894Y-520235D01*
G01X-1191286Y-251843D01*
G01X-1191286Y-227038D01*
G03X-1203635Y-197224I-42164J0D01*
G01X-1219326Y-181533D01*
G03X-1301792Y-136525I-55674J-3955D01*
G03X-1308348Y-230244I26792J-48963D01*
G03X-1326159Y-297315I33348J-44756D01*
G03X-1264883Y-329889I51159J22315D01*
G01X-979659Y-615114D01*
G03X-949844Y-627463I29814J29814D01*
G01X1838532Y-627463D01*
G03X1868346Y-615114I0J42164D01*
G01X2116296Y-367164D01*
G01X2382535Y-367164D01*
G01X2394327Y-378955D01*
G03X2489467Y-414466I55674J3955D01*
G03X2453955Y-319326I-39467J39466D01*
G01X2434623Y-299994D01*
G01X2453955Y-280661D01*
G03X2489467Y-185521I-3955J55674D01*
G03X2394327Y-221032I-39466J-39466D01*
G01X2355383Y-259976D01*
G01X2158826Y-259976D01*
G01X2351637Y-67165D01*
G01X2382535Y-67165D01*
G01X2394327Y-78956D01*
G03X2489467Y-114467I55674J3955D01*
G03X2453955Y-19327I-39467J39466D01*
G01X2434623Y5D01*
G01X2453955Y19338D01*
G03X2489467Y114478I-3955J55674D01*
G03X2394327Y78967I-39466J-39466D01*
G01X2355383Y40023D01*
G01X2324704Y40023D01*
G03X2294889Y27674I0J-42164D01*
G01X2017164Y-250051D01*
G01X2017164Y-49794D01*
G01X2299793Y232835D01*
G01X2382534Y232835D01*
G01X2394327Y221042D01*
G03X2489468Y185533I55674J3957D01*
G03X2453954Y280673I-39467J39465D01*
G01X2434628Y299999D01*
G01X2453967Y319338D01*
G03X2489458Y414486I-3967J55673D01*
G03X2394326Y378954I-39458J-39475D01*
G01X2357535Y342164D01*
G01X2275000Y342164D01*
G03X2245186Y329814I0J-42164D01*
G01X1967164Y51793D01*
G01X1967164Y150206D01*
G01X2349792Y532834D01*
G01X2382535Y532834D01*
G01X2394327Y521043D01*
G03X2489467Y485532I55674J3955D01*
G03X2453955Y580672I-39467J39466D01*
G01X2434635Y599992D01*
G01X2453955Y619312D01*
G03X2489467Y714452I-3955J55674D01*
G03X2394327Y678941I-39466J-39466D01*
G01X2355298Y639913D01*
G01X2322748Y639913D01*
G03X2292934Y627563I0J-42164D01*
G01X1871508Y206137D01*
G03X1859159Y176322I29814J-29814D01*
G01X1859159Y-278515D01*
G01X-1056186Y2577000D02*
G03X-1229814Y2577000I-86814J0D01*
G03X-1056186Y2577000I86814J0D01*
G01X-1056186Y2323000D02*
G03X-1229814Y2323000I-86814J0D01*
G03X-1056186Y2323000I86814J0D01*
G01X-802186Y2577000D02*
G03X-975814Y2577000I-86814J0D01*
G03X-802186Y2577000I86814J0D01*
G01X-802186Y2323000D02*
G03X-975814Y2323000I-86814J0D01*
G03X-802186Y2323000I86814J0D01*
G01X-655251Y299979D02*
G03X-695832Y241399I15024J-53754D01*
G03X-645765Y190686I55605J4826D01*
G03X-568134Y144976I55538J5544D01*
G03X-548063Y232801I-22094J51255D01*
G01X-548063Y1453766D01*
G01X-486272Y1515557D01*
G03X-450761Y1610697I-3955J55674D01*
G03X-545901Y1575186I-39466J-39466D01*
G01X-590227Y1530859D01*
G01X-634554Y1575186D01*
G03X-729694Y1610697I-55674J-3955D01*
G03X-694183Y1515557I39466J-39466D01*
G01X-655251Y1476626D01*
G01X-655251Y299979D01*
G01X-548186Y2577000D02*
G03X-721814Y2577000I-86814J0D01*
G03X-548186Y2577000I86814J0D01*
G01X-548186Y2323000D02*
G03X-721814Y2323000I-86814J0D01*
G03X-548186Y2323000I86814J0D01*
G01X-294186Y2577000D02*
G03X-467814Y2577000I-86814J0D01*
G03X-294186Y2577000I86814J0D01*
G01X-294186Y2323000D02*
G03X-467814Y2323000I-86814J0D01*
G03X-294186Y2323000I86814J0D01*
G01X-263701Y1096868D02*
G03X-294341Y1032559I23474J-50638D01*
G03X-236833Y990520I54114J13672D01*
G03X-188464Y965444I46605J30711D01*
G03X-205538Y930539I38464J-40444D01*
G03X-251256Y852909I5538J-55539D01*
G03X-163430Y832836I51256J22091D01*
G01X-111462Y832836D01*
G01X-95042Y816416D01*
G03X-65227Y804066I29814J29814D01*
G01X-32692Y804066D01*
G01X16430Y754944D01*
G01X-140242Y754944D01*
G01X-145044Y759746D01*
G03X-233427Y794697I-54956J-9746D01*
G03X-224882Y700039I33427J-44697D01*
G03X-204461Y627595I49882J-25039D01*
G03X-130463Y641360I29461J47405D01*
G01X712625Y641360D01*
G03X783946Y620923I47148J29871D01*
G03X812554Y689377I-24173J50308D01*
G01X813728Y690550D01*
G03X865581Y745429I-3955J55674D01*
G03X815312Y801762I-55808J795D01*
G03X704099Y800192I-55540J-5526D01*
G01X681712Y777804D01*
G01X112827Y777804D01*
G01X14587Y876045D01*
G03X-15227Y888394I-29814J-29814D01*
G01X-47763Y888394D01*
G01X-64183Y904814D01*
G03X-93997Y917164I-29814J-29814D01*
G01X-94739Y917164D01*
G03X-94326Y921045I-55261J7836D01*
G01X-35413Y979958D01*
G03X-23063Y1009772I-29814J29814D01*
G01X-23063Y1721230D01*
G03X-35413Y1751045I-42164J0D01*
G01X-209554Y1925186D01*
G03X-304694Y1960697I-55674J-3955D01*
G03X-269183Y1865557I39466J-39466D01*
G01X-221253Y1817627D01*
G03X-236643Y1802227I31025J-46396D01*
G03X-250979Y1810914I-28584J-30996D01*
G03X-344643Y1783646I-39248J-39684D01*
G03X-272076Y1718450I54416J-12416D01*
G01X-263701Y1710075D01*
G01X-263701Y1096868D01*
G01X-40186Y2577000D02*
G03X-213814Y2577000I-86814J0D01*
G03X-40186Y2577000I86814J0D01*
G01X-40186Y2323000D02*
G03X-213814Y2323000I-86814J0D01*
G03X-40186Y2323000I86814J0D01*
G01X213814Y2323000D02*
G03X40186Y2323000I-86814J0D01*
G03X213814Y2323000I86814J0D01*
G01X213814Y2577000D02*
G03X40186Y2577000I-86814J0D01*
G03X213814Y2577000I86814J0D01*
G01X467814Y2323000D02*
G03X294186Y2323000I-86814J0D01*
G03X467814Y2323000I86814J0D01*
G01X467814Y2577000D02*
G03X294186Y2577000I-86814J0D01*
G03X467814Y2577000I86814J0D01*
G01X721814Y2323000D02*
G03X548186Y2323000I-86814J0D01*
G03X721814Y2323000I86814J0D01*
G01X721814Y2577000D02*
G03X548186Y2577000I-86814J0D01*
G03X721814Y2577000I86814J0D01*
G01X975814Y2323000D02*
G03X802186Y2323000I-86814J0D01*
G03X975814Y2323000I86814J0D01*
G01X975814Y2577000D02*
G03X802186Y2577000I-86814J0D01*
G03X975814Y2577000I86814J0D01*
G01X1019749Y299979D02*
G03X979168Y241399I15024J-53754D01*
G03X1029235Y190686I55605J4826D01*
G03X1106866Y144976I55538J5544D01*
G03X1126937Y232801I-22094J51255D01*
G01X1126937Y1453766D01*
G01X1188728Y1515557D01*
G03X1224239Y1610697I-3955J55674D01*
G03X1129099Y1575186I-39466J-39466D01*
G01X1084773Y1530859D01*
G01X1040446Y1575186D01*
G03X945306Y1610697I-55674J-3955D01*
G03X980817Y1515557I39466J-39466D01*
G01X1019749Y1476626D01*
G01X1019749Y299979D01*
G01X1229814Y2323000D02*
G03X1056186Y2323000I-86814J0D01*
G03X1229814Y2323000I86814J0D01*
G01X1229814Y2577000D02*
G03X1056186Y2577000I-86814J0D01*
G03X1229814Y2577000I86814J0D01*
G01X1483814Y2323000D02*
G03X1310186Y2323000I-86814J0D01*
G03X1483814Y2323000I86814J0D01*
G01X1483814Y2577000D02*
G03X1310186Y2577000I-86814J0D01*
G03X1483814Y2577000I86814J0D01*
G01X1411299Y1096868D02*
G03X1380659Y1032559I23474J-50638D01*
G03X1438167Y990520I54114J13672D01*
G03X1522917Y980485I46605J30711D01*
G03X1518487Y1065711I-38144J40746D01*
G01X1518487Y1726749D01*
G03X1523042Y1811859I-33714J44481D01*
G03X1438357Y1802227I-38269J-40628D01*
G03X1424021Y1810914I-28584J-30996D01*
G03X1330357Y1783646I-39248J-39684D01*
G03X1402924Y1718450I54416J-12416D01*
G01X1411299Y1710075D01*
G01X1411299Y1096868D01*
G01X1737814Y2323000D02*
G03X1564186Y2323000I-86814J0D01*
G03X1737814Y2323000I86814J0D01*
G01X1737814Y2577000D02*
G03X1564186Y2577000I-86814J0D01*
G03X1737814Y2577000I86814J0D01*
G01X1991814Y2323000D02*
G03X1818186Y2323000I-86814J0D01*
G03X1991814Y2323000I86814J0D01*
G01X1991814Y2577000D02*
G03X1818186Y2577000I-86814J0D01*
G03X1991814Y2577000I86814J0D01*
G01X2589186Y-2450000D02*
G03X3210814Y-2450000I310814J0D01*
G03X2589186Y-2450000I-310814J0D01*
G04 Copper End*

G04 Pad Start*
G54D11*
G01X-2900000Y2450000D03*
G01X2900000Y2450000D03*
G01X2900000Y-2450000D03*
G01X-2900000Y-2450000D03*
G04 Pad End*

G04 Via Start*
G54D12*
G01X759773Y796236D03*
G01X809773Y746224D03*
G01X759773Y671230D03*
G01X-175000Y675000D03*
G01X-200000Y750000D03*
G01X-200000Y875000D03*
G01X-150000Y925000D03*
G01X-265227Y1921230D03*
G01X-2427708Y1333750D03*
G01X-2327708Y1958750D03*
G01X-2627708Y1433750D03*
G01X-2108294Y-78192D03*
G01X-2260412Y-753192D03*
G01X1409773Y1471230D03*
G01X1034773Y246225D03*
G01X1084773Y196230D03*
G01X759773Y296237D03*
G01X384773Y492408D03*
G01X1434773Y-378770D03*
G01X609772Y-378770D03*
G01X1084773Y1771230D03*
G01X734772Y946231D03*
G01X1634773Y796230D03*
G01X1509773Y171230D03*
G01X1034773Y-278770D03*
G01X1859773Y-278770D03*
G01X2009773Y896230D03*
G01X984772Y1571231D03*
G01X1184773Y1571231D03*
G01X1384773Y1771230D03*
G01X1434773Y1046230D03*
G01X1484772Y1021230D03*
G01X1484772Y1771230D03*
G01X-265227Y1471230D03*
G01X-590227Y196230D03*
G01X-915227Y296237D03*
G01X-1290227Y492408D03*
G01X-240227Y-378770D03*
G01X-1065227Y-378770D03*
G01X-590227Y1771230D03*
G01X-940227Y946231D03*
G01X-40227Y796230D03*
G01X-165227Y171230D03*
G01X-640227Y-278770D03*
G01X184773Y-278770D03*
G01X334773Y896230D03*
G01X-690227Y1571231D03*
G01X-490227Y1571231D03*
G01X-290227Y1771230D03*
G01X-240227Y1046230D03*
G01X-190227Y1021230D03*
G01X-190227Y1771230D03*
G01X1225000Y-185488D03*
G01X1225000Y-275000D03*
G01X-640227Y246225D03*
G01X-1825000Y2729997D03*
G01X-1317000Y2170003D03*
G01X-809000Y2729997D03*
G01X-47000Y2729997D03*
G01X715000Y2170003D03*
G01X1223000Y2729997D03*
G01X1731000Y2729997D03*
G01X2493000Y2170003D03*
G01X-1780903Y-875000D03*
G01X-1792130Y-600000D03*
G01X-1750000Y-350000D03*
G01X-2500000Y-675000D03*
G01X-2450000Y-675000D03*
G01X-2550000Y-700000D03*
G01X-2550000Y-750000D03*
G01X-2550000Y-900000D03*
G01X-2550000Y-850000D03*
G01X-2550000Y-800000D03*
G01X-2425000Y-350000D03*
G01X-2475000Y-350000D03*
G01X-2375000Y-350000D03*
G01X-2325000Y-350000D03*
G01X-1825000Y-400000D03*
G01X-1825000Y-350000D03*
G01X-1825000Y-450000D03*
G01X-1825000Y-500000D03*
G01X400000Y-275000D03*
G01X400000Y-185488D03*
G01X-450000Y-275000D03*
G01X-450000Y-185488D03*
G01X-1275000Y-275000D03*
G01X-1275000Y-185488D03*
G01X-1200000Y1425000D03*
G01X-1850000Y1175000D03*
G01X-1725000Y1525000D03*
G01X-1457673Y1525000D03*
G01X-2075000Y2175000D03*
G01X-1825000Y2170003D03*
G01X-2475000Y-300000D03*
G01X-2475000Y-250000D03*
G01X-2325000Y-250000D03*
G01X-2325000Y-300000D03*
G01X-2700000Y1925000D03*
G01X2450000Y-375000D03*
G01X2450000Y-224988D03*
G01X2450000Y-75001D03*
G01X2450000Y75012D03*
G01X2450000Y224999D03*
G01X2450000Y375011D03*
G01X2450000Y524998D03*
G01X2450000Y674985D03*
G01X-2075000Y-1750000D03*
G01X-2075000Y-1825000D03*
G01X-2475000Y-1904509D03*
G01X-2300000Y-1904509D03*
G01X-2100000Y-1900000D03*
G01X-2150000Y-1950000D03*
G01X-2125000Y-1700000D03*
G01X1900000Y2025000D03*
G01X2500000Y2725000D03*
G01X-1050000Y2825000D03*
G01X-50000Y-1535001D03*
G01X-109999Y-1625000D03*
G01X1125000Y-1535001D03*
G01X1125000Y-1625000D03*
G01X1040001Y-1625000D03*
G01X1041238Y-1535001D03*
G01X-50000Y-1625000D03*
G01X-112025Y-1535001D03*
G01X-1750201Y1625000D03*
G01X-1375000Y950000D03*
G01X-1375000Y-750000D03*
G04 Via End*

G04 Track Start*
G54D13*
G01X-93997Y875000D02*
G01X-200000Y875000D01*
G01X-65227Y846230D02*
G01X-93997Y875000D01*
G01X-15227Y846230D02*
G01X-65227Y846230D01*
G01X-150000Y925000D02*
G01X-65227Y1009772D01*
G01X-65227Y1721230D02*
G01X-265227Y1921230D01*
G01X-65227Y1009772D02*
G01X-65227Y1721230D01*
G01X776329Y712780D02*
G01X809773Y746224D01*
G01X759767Y796230D02*
G01X699177Y735640D01*
G01X95363Y735640D01*
G01X-15227Y846230D01*
G01X747466Y683524D02*
G01X759766Y671223D01*
G01X-166476Y683524D02*
G01X747466Y683524D01*
G01X-175000Y675000D02*
G01X-166476Y683524D01*
G54D14*
G01X-2108294Y-78192D02*
G01X-2260412Y-230309D01*
G01X-2260412Y-753192D01*
G54D13*
G01X1409773Y1771230D02*
G01X1453463Y1727540D01*
G01X1453463Y1064920D01*
G01X1434773Y1046230D01*
G01X1484772Y1021230D02*
G01X1476323Y1029680D01*
G01X1476323Y1762781D01*
G01X1484772Y1771230D01*
G01X1084773Y1471230D02*
G01X1184773Y1571231D01*
G01X1084773Y196230D02*
G01X1084773Y1471230D01*
G01X1061913Y1494090D02*
G01X984772Y1571231D01*
G01X1061913Y273365D02*
G01X1061913Y1494090D01*
G01X1034773Y246225D02*
G01X1061913Y273365D01*
G01X1384773Y1771230D02*
G01X1409773Y1771230D01*
G01X-221537Y1727540D02*
G01X-265227Y1771230D01*
G01X-221537Y1064920D02*
G01X-221537Y1727540D01*
G01X-240227Y1046230D02*
G01X-221537Y1064920D01*
G01X-190227Y1021230D02*
G01X-198677Y1029680D01*
G01X-198677Y1762781D01*
G01X-190227Y1771230D01*
G01X-590227Y1471230D02*
G01X-490227Y1571231D01*
G01X-590227Y196230D02*
G01X-590227Y1471230D01*
G01X-613087Y1494090D02*
G01X-690227Y1571231D01*
G01X-613087Y273365D02*
G01X-613087Y1494090D01*
G01X-640227Y246225D02*
G01X-613087Y273365D01*
G01X-265227Y1771230D02*
G01X-290227Y1771230D01*
G01X-199993Y750007D02*
G01X-194933Y750007D01*
G01X-157707Y712780D01*
G01X776329Y712780D01*
G01X441550Y-227038D02*
G01X400000Y-185488D01*
G01X-408450Y-227038D02*
G01X-450000Y-185488D01*
G01X-1233450Y-227038D02*
G01X-1275000Y-185488D01*
G01X1266550Y-227038D02*
G01X1225000Y-185488D01*
G01X1266550Y-269308D02*
G01X1266550Y-227038D01*
G01X1412757Y-447900D02*
G01X1239857Y-275000D01*
G01X1225000Y-275000D01*
G01X-161158Y-516599D02*
G01X-408450Y-269308D01*
G01X-408450Y-227038D01*
G01X-435143Y-275000D02*
G01X-170644Y-539499D01*
G01X-450000Y-275000D02*
G01X-435143Y-275000D01*
G01X643042Y-470800D02*
G01X441550Y-269308D01*
G01X441550Y-227038D01*
G01X414857Y-275000D02*
G01X400000Y-275000D01*
G01X633556Y-493700D02*
G01X414857Y-275000D01*
G01X-940359Y-562399D02*
G01X-1233450Y-269308D01*
G01X-1233450Y-227038D01*
G01X-949844Y-585299D02*
G01X-1260143Y-275000D01*
G01X-1275000Y-275000D01*
G01X1422242Y-425000D02*
G01X1266550Y-269308D01*
G01X1772303Y-425000D02*
G01X1422242Y-425000D01*
G01X1901323Y-295980D02*
G01X1772303Y-425000D01*
G01X1781788Y-447900D02*
G01X1412757Y-447900D01*
G01X1925000Y-304688D02*
G01X1781788Y-447900D01*
G01X1791274Y-470800D02*
G01X643042Y-470800D01*
G01X1950000Y-312073D02*
G01X1791274Y-470800D01*
G01X1800759Y-493700D02*
G01X633556Y-493700D01*
G01X1975000Y-319459D02*
G01X1800759Y-493700D01*
G01X1810245Y-516599D02*
G01X-161158Y-516599D01*
G01X-170644Y-539499D02*
G01X1819674Y-539499D01*
G01X1829103Y-562399D02*
G01X-940359Y-562399D01*
G01X1838532Y-585299D02*
G01X-949844Y-585299D01*
G01X1901323Y176322D02*
G01X1901323Y-295980D01*
G01X2400000Y-25001D02*
G01X2450000Y-75001D01*
G01X2334172Y-25001D02*
G01X2400000Y-25001D01*
G01X1819674Y-539499D02*
G01X2334172Y-25001D01*
G01X2450000Y524998D02*
G01X2400000Y574998D01*
G01X1950000Y-25000D02*
G01X1950000Y-312073D01*
G01X2449999Y224999D02*
G01X2399999Y274999D01*
G01X2098831Y-325000D02*
G01X1838532Y-585299D01*
G01X2400000Y-325000D02*
G01X2098831Y-325000D01*
G01X2450000Y-375000D02*
G01X2400000Y-325000D01*
G01X2450000Y-224988D02*
G01X2372848Y-302140D01*
G01X2089362Y-302140D01*
G01X1829103Y-562399D01*
G01X2450000Y75012D02*
G01X2372848Y-2141D01*
G01X2324704Y-2141D01*
G01X1810245Y-516599D01*
G01X2450000Y375000D02*
G01X2375000Y300000D01*
G01X2275000Y300000D01*
G01X1950000Y-25000D01*
G01X2450000Y674985D02*
G01X2372763Y597749D01*
G01X2322748Y597749D01*
G01X1901323Y176322D01*
G01X2399999Y274999D02*
G01X2282328Y274999D01*
G01X1975000Y-32329D01*
G01X1975000Y-319459D01*
G01X2400000Y574998D02*
G01X2332327Y574998D01*
G01X1925000Y167671D01*
G01X1925000Y-304688D01*
G01X-2150000Y-1950000D02*
G01X-2024086Y-1950000D01*
G01X-2050000Y-1700000D02*
G01X-2125000Y-1700000D01*
G01X-1050000Y2825000D02*
G01X-1025000Y2850000D01*
G01X2275000Y2850000D01*
G01X2575000Y2257385D02*
G01X2575000Y2650000D01*
G01X2500000Y2725000D01*
G01X2275000Y2850000D02*
G01X2550000Y2575000D01*
G01X2550000Y2125000D01*
G01X2850000Y1825000D01*
G01X-1925000Y-1975000D02*
G01X-2000000Y-1900000D01*
G01X-2100000Y-1900000D01*
G01X1900000Y-1975000D02*
G01X-1925000Y-1975000D01*
G01X2850000Y-1025000D02*
G01X1900000Y-1975000D01*
G01X2850000Y1825000D02*
G01X2850000Y-1025000D01*
G01X1900000Y2025000D02*
G01X2800000Y1125000D01*
G01X2800000Y-1000000D01*
G01X2900000Y-1050000D02*
G01X2900000Y1932386D01*
G01X2575000Y2257385D01*
G01X2800000Y-1000000D02*
G01X1875000Y-1925000D01*
G01X-1825001Y-1925000D01*
G01X-2050000Y-1700000D01*
G01X-2024086Y-1950000D02*
G01X-1949086Y-2025000D01*
G01X1925000Y-2025000D01*
G01X2900000Y-1050000D01*
G01X-1725000Y1525000D02*
G01X-2075000Y1875000D01*
G01X-2075000Y2175000D01*
G01X-1825000Y2170003D02*
G01X-1825000Y1892327D01*
G01X-1457673Y1525000D01*
G01X-1375000Y950000D02*
G01X-1375000Y-750000D01*
G04 Track End*

M02*

