G04 Layer: TopPasteMaskLayer*
G04 EasyEDA Pro v2.2.35.2, 2025-02-20 22:18:56*
G04 Gerber Generator version 0.3*
G04 Scale: 100 percent, Rotated: No, Reflected: No*
G04 Dimensions in millimeters*
G04 Leading zeros omitted, absolute positions, 4 integers and 5 decimals*
%FSLAX45Y45*%
%MOMM*%
%ADD10R,0.25001X0.5*%
%ADD11R,0.5X0.25001*%
%ADD12R,0.25001X0.5*%
%ADD13R,0.5X0.25001*%
%ADD14O,2.0X0.3*%
%ADD15O,0.3X2.0*%
%ADD16R,0.6X1.55001*%
%ADD17R,1.2X1.8*%
%ADD18R,0.6535X1.7*%
%ADD19R,0.65001X1.7*%
%ADD20R,0.5X1.7*%
%ADD21O,1.22199X0.36401*%
%ADD22R,0.35001X0.8*%
%ADD23R,2.99999X2.59999*%
%ADD24R,2.0X2.0*%
%ADD25R,2.924X3.49999*%
%ADD26R,1.1X0.6*%
%ADD27R,2.59999X0.7*%
%ADD28R,1.9X1.1*%
%ADD29R,1.01999X2.0*%
%ADD30R,1.01999X2.0*%
%ADD31C,0.23*%
%ADD32R,2.99999X1.0*%
%ADD33R,2.99999X1.65001*%
%ADD34R,2.99999X1.65001*%
%ADD35R,1.65001X2.99999*%
%ADD36R,1.65001X2.99999*%
%ADD37R,1.0X2.99999*%
%ADD38R,0.6X1.55001*%
%ADD39R,1.2X1.8*%
G75*


G04 PolygonModel Start*
G36*
G01X257275Y1064234D02*
G01X212273Y1064234D01*
G01X207275Y1071232D01*
G01X207275Y1119232D01*
G01X212273Y1124234D01*
G01X257275Y1124234D01*
G01X262273Y1119232D01*
G01X262273Y1071232D01*
G01X257275Y1064234D01*
G37*
G36*
G01X257275Y968232D02*
G01X212273Y968232D01*
G01X207275Y973233D01*
G01X207275Y1021232D01*
G01X212273Y1028232D01*
G01X257275Y1028232D01*
G01X262273Y1021232D01*
G01X262273Y973233D01*
G01X257275Y968232D01*
G37*
G36*
G01X-667726Y-210766D02*
G01X-712727Y-210766D01*
G01X-717726Y-203768D01*
G01X-717726Y-155768D01*
G01X-712727Y-150766D01*
G01X-667726Y-150766D01*
G01X-662727Y-155768D01*
G01X-662727Y-203768D01*
G01X-667726Y-210766D01*
G37*
G36*
G01X-667726Y-306768D02*
G01X-712727Y-306768D01*
G01X-717726Y-301767D01*
G01X-717726Y-253768D01*
G01X-712727Y-246768D01*
G01X-667726Y-246768D01*
G01X-662727Y-253768D01*
G01X-662727Y-301767D01*
G01X-667726Y-306768D01*
G37*
G36*
G01X149702Y-203438D02*
G01X104701Y-203438D01*
G01X99702Y-196441D01*
G01X99702Y-148440D01*
G01X104701Y-143438D01*
G01X149702Y-143438D01*
G01X154701Y-148440D01*
G01X154701Y-196441D01*
G01X149702Y-203438D01*
G37*
G36*
G01X149702Y-299440D02*
G01X104701Y-299440D01*
G01X99702Y-294439D01*
G01X99702Y-246440D01*
G01X104701Y-239440D01*
G01X149702Y-239440D01*
G01X154701Y-246440D01*
G01X154701Y-294439D01*
G01X149702Y-299440D01*
G37*
G36*
G01X-985289Y1435628D02*
G01X-985289Y1407978D01*
G01X-1012708Y1378603D01*
G01X-1063035Y1378603D01*
G01X-1069436Y1385003D01*
G01X-1069436Y1458602D01*
G01X-1063035Y1465003D01*
G01X-1012708Y1465003D01*
G01X-985289Y1435628D01*
G37*
G36*
G01X-933724Y1436753D02*
G01X-933724Y1409103D01*
G01X-906305Y1379728D01*
G01X-855977Y1379728D01*
G01X-849576Y1386129D01*
G01X-849576Y1459728D01*
G01X-855977Y1466128D01*
G01X-906305Y1466128D01*
G01X-933724Y1436753D01*
G37*
G36*
G01X1932275Y1064234D02*
G01X1887273Y1064234D01*
G01X1882275Y1071232D01*
G01X1882275Y1119232D01*
G01X1887273Y1124234D01*
G01X1932275Y1124234D01*
G01X1937273Y1119232D01*
G01X1937273Y1071232D01*
G01X1932275Y1064234D01*
G37*
G36*
G01X1932275Y968232D02*
G01X1887273Y968232D01*
G01X1882275Y973233D01*
G01X1882275Y1021232D01*
G01X1887273Y1028232D01*
G01X1932275Y1028232D01*
G01X1937273Y1021232D01*
G01X1937273Y973233D01*
G01X1932275Y968232D01*
G37*
G36*
G01X1007274Y-210766D02*
G01X962273Y-210766D01*
G01X957274Y-203768D01*
G01X957274Y-155768D01*
G01X962273Y-150766D01*
G01X1007274Y-150766D01*
G01X1012273Y-155768D01*
G01X1012273Y-203768D01*
G01X1007274Y-210766D01*
G37*
G36*
G01X1007274Y-306768D02*
G01X962273Y-306768D01*
G01X957274Y-301767D01*
G01X957274Y-253768D01*
G01X962273Y-246768D01*
G01X1007274Y-246768D01*
G01X1012273Y-253768D01*
G01X1012273Y-301767D01*
G01X1007274Y-306768D01*
G37*
G36*
G01X1824702Y-203438D02*
G01X1779701Y-203438D01*
G01X1774702Y-196441D01*
G01X1774702Y-148440D01*
G01X1779701Y-143438D01*
G01X1824702Y-143438D01*
G01X1829701Y-148440D01*
G01X1829701Y-196441D01*
G01X1824702Y-203438D01*
G37*
G36*
G01X1824702Y-299440D02*
G01X1779701Y-299440D01*
G01X1774702Y-294439D01*
G01X1774702Y-246440D01*
G01X1779701Y-239440D01*
G01X1824702Y-239440D01*
G01X1829701Y-246440D01*
G01X1829701Y-294439D01*
G01X1824702Y-299440D01*
G37*
G36*
G01X689711Y1435628D02*
G01X689711Y1407978D01*
G01X662292Y1378603D01*
G01X611964Y1378603D01*
G01X605564Y1385003D01*
G01X605564Y1458602D01*
G01X611964Y1465003D01*
G01X662292Y1465003D01*
G01X689711Y1435628D01*
G37*
G36*
G01X741276Y1436753D02*
G01X741276Y1409103D01*
G01X768695Y1379728D01*
G01X819023Y1379728D01*
G01X825424Y1386129D01*
G01X825424Y1459728D01*
G01X819023Y1466128D01*
G01X768695Y1466128D01*
G01X741276Y1436753D01*
G37*
G36*
G01X-2725210Y1765747D02*
G01X-2680209Y1765747D01*
G01X-2675210Y1758749D01*
G01X-2675210Y1710748D01*
G01X-2680209Y1705747D01*
G01X-2725210Y1705747D01*
G01X-2730208Y1710748D01*
G01X-2730208Y1758749D01*
G01X-2725210Y1765747D01*
G37*
G36*
G01X-2725210Y1861749D02*
G01X-2680209Y1861749D01*
G01X-2675210Y1856747D01*
G01X-2675210Y1808749D01*
G01X-2680209Y1801749D01*
G01X-2725210Y1801749D01*
G01X-2730208Y1808749D01*
G01X-2730208Y1856747D01*
G01X-2725210Y1861749D01*
G37*
G36*
G01X-2459704Y1911248D02*
G01X-2459704Y1956250D01*
G01X-2452707Y1961248D01*
G01X-2404706Y1961248D01*
G01X-2399704Y1956250D01*
G01X-2399704Y1911248D01*
G01X-2404706Y1906250D01*
G01X-2452707Y1906250D01*
G01X-2459704Y1911248D01*
G37*
G36*
G01X-2555706Y1911248D02*
G01X-2555706Y1956250D01*
G01X-2550705Y1961248D01*
G01X-2502706Y1961248D01*
G01X-2495706Y1956250D01*
G01X-2495706Y1911248D01*
G01X-2502706Y1906250D01*
G01X-2550705Y1906250D01*
G01X-2555706Y1911248D01*
G37*
G36*
G01X-2495711Y1406252D02*
G01X-2495711Y1361251D01*
G01X-2502709Y1356252D01*
G01X-2550710Y1356252D01*
G01X-2555711Y1361251D01*
G01X-2555711Y1406252D01*
G01X-2550710Y1411251D01*
G01X-2502709Y1411251D01*
G01X-2495711Y1406252D01*
G37*
G36*
G01X-2399709Y1406252D02*
G01X-2399709Y1361251D01*
G01X-2404711Y1356252D01*
G01X-2452709Y1356252D01*
G01X-2459709Y1361251D01*
G01X-2459709Y1406252D01*
G01X-2452709Y1411251D01*
G01X-2404711Y1411251D01*
G01X-2399709Y1406252D01*
G37*
G36*
G01X-2175917Y-904593D02*
G01X-2175917Y-867567D01*
G01X-2165917Y-857567D01*
G01X-2135427Y-857567D01*
G01X-2125427Y-847567D01*
G01X-2125427Y-808817D01*
G01X-2135427Y-798817D01*
G01X-2165917Y-798817D01*
G01X-2175917Y-788817D01*
G01X-2175917Y-751791D01*
G01X-2165917Y-741792D01*
G01X-2037419Y-741792D01*
G01X-2027419Y-751791D01*
G01X-2027419Y-904593D01*
G01X-2037419Y-914593D01*
G01X-2165917Y-914593D01*
G01X-2175917Y-904593D01*
G37*
G36*
G01X-2345920Y-904593D02*
G01X-2345920Y-867567D01*
G01X-2355920Y-857567D01*
G01X-2386410Y-857567D01*
G01X-2396410Y-847567D01*
G01X-2396410Y-808817D01*
G01X-2386410Y-798817D01*
G01X-2355920Y-798817D01*
G01X-2345920Y-788817D01*
G01X-2345920Y-751791D01*
G01X-2355920Y-741792D01*
G01X-2484418Y-741792D01*
G01X-2494418Y-751791D01*
G01X-2494418Y-904593D01*
G01X-2484418Y-914593D01*
G01X-2355920Y-914593D01*
G01X-2345920Y-904593D01*
G37*
G36*
G01X-2278415Y-630690D02*
G01X-2278415Y-675691D01*
G01X-2285413Y-680690D01*
G01X-2333414Y-680690D01*
G01X-2338415Y-675691D01*
G01X-2338415Y-630690D01*
G01X-2333414Y-625691D01*
G01X-2285413Y-625691D01*
G01X-2278415Y-630690D01*
G37*
G36*
G01X-2182413Y-630690D02*
G01X-2182413Y-675691D01*
G01X-2187414Y-680690D01*
G01X-2235413Y-680690D01*
G01X-2242413Y-675691D01*
G01X-2242413Y-630690D01*
G01X-2235413Y-625691D01*
G01X-2187414Y-625691D01*
G01X-2182413Y-630690D01*
G37*
G36*
G01X-2555409Y-228696D02*
G01X-2555409Y-356694D01*
G01X-2560410Y-361695D01*
G01X-2675411Y-361695D01*
G01X-2680410Y-356694D01*
G01X-2680913Y-315691D01*
G01X-2635911Y-315691D01*
G01X-2635911Y-270692D01*
G01X-2679912Y-270692D01*
G01X-2680410Y-228696D01*
G01X-2675411Y-223694D01*
G01X-2560410Y-223694D01*
G01X-2555409Y-228696D01*
G37*
G36*
G01X-2770409Y-228696D02*
G01X-2770412Y-270692D01*
G01X-2814910Y-270692D01*
G01X-2814910Y-315691D01*
G01X-2770912Y-315691D01*
G01X-2770409Y-356694D01*
G01X-2775411Y-361695D01*
G01X-2890409Y-361695D01*
G01X-2895411Y-356694D01*
G01X-2895411Y-228696D01*
G01X-2890409Y-223694D01*
G01X-2775411Y-223694D01*
G01X-2770409Y-228696D01*
G37*
G36*
G01X-2555409Y-403696D02*
G01X-2555409Y-531694D01*
G01X-2560410Y-536695D01*
G01X-2675411Y-536695D01*
G01X-2680410Y-531694D01*
G01X-2680913Y-490691D01*
G01X-2635911Y-490691D01*
G01X-2635911Y-445692D01*
G01X-2679912Y-445692D01*
G01X-2680410Y-403696D01*
G01X-2675411Y-398694D01*
G01X-2560410Y-398694D01*
G01X-2555409Y-403696D01*
G37*
G36*
G01X-2770409Y-403696D02*
G01X-2770412Y-445692D01*
G01X-2814910Y-445692D01*
G01X-2814910Y-490691D01*
G01X-2770912Y-490691D01*
G01X-2770409Y-531694D01*
G01X-2775411Y-536695D01*
G01X-2890409Y-536695D01*
G01X-2895411Y-531694D01*
G01X-2895411Y-403696D01*
G01X-2890409Y-398694D01*
G01X-2775411Y-398694D01*
G01X-2770409Y-403696D01*
G37*
G36*
G01X-1827498Y1318003D02*
G01X-1872499Y1318003D01*
G01X-1877498Y1325001D01*
G01X-1877498Y1373002D01*
G01X-1872499Y1378003D01*
G01X-1827498Y1378003D01*
G01X-1822500Y1373002D01*
G01X-1822500Y1325001D01*
G01X-1827498Y1318003D01*
G37*
G36*
G01X-1827498Y1222002D02*
G01X-1872499Y1222002D01*
G01X-1877498Y1227003D01*
G01X-1877498Y1275001D01*
G01X-1872499Y1282002D01*
G01X-1827498Y1282002D01*
G01X-1822500Y1275001D01*
G01X-1822500Y1227003D01*
G01X-1827498Y1222002D01*
G37*
G36*
G01X-1222502Y1281996D02*
G01X-1177501Y1281996D01*
G01X-1172502Y1274999D01*
G01X-1172502Y1226998D01*
G01X-1177501Y1221997D01*
G01X-1222502Y1221997D01*
G01X-1227501Y1226998D01*
G01X-1227501Y1274999D01*
G01X-1222502Y1281996D01*
G37*
G36*
G01X-1222502Y1377998D02*
G01X-1177501Y1377998D01*
G01X-1172502Y1372997D01*
G01X-1172502Y1324999D01*
G01X-1177501Y1317998D01*
G01X-1222502Y1317998D01*
G01X-1227501Y1324999D01*
G01X-1227501Y1372997D01*
G01X-1222502Y1377998D01*
G37*
G36*
G01X-1917408Y-694D02*
G01X-1917408Y44307D01*
G01X-1910410Y49306D01*
G01X-1862409Y49306D01*
G01X-1857408Y44307D01*
G01X-1857408Y-694D01*
G01X-1862409Y-5693D01*
G01X-1910410Y-5693D01*
G01X-1917408Y-694D01*
G37*
G36*
G01X-2013410Y-694D02*
G01X-2013410Y44307D01*
G01X-2008408Y49306D01*
G01X-1960410Y49306D01*
G01X-1953410Y44307D01*
G01X-1953410Y-694D01*
G01X-1960410Y-5693D01*
G01X-2008408Y-5693D01*
G01X-2013410Y-694D01*
G37*
G36*
G01X-2679708Y1572250D02*
G01X-2725708Y1572250D01*
G01X-2729708Y1576251D01*
G01X-2729708Y1626314D01*
G01X-2725708Y1630315D01*
G01X-2679708Y1630315D01*
G01X-2675708Y1626314D01*
G01X-2675708Y1576251D01*
G01X-2679708Y1572250D01*
G37*
G36*
G01X-2679708Y1545250D02*
G01X-2725708Y1545250D01*
G01X-2729708Y1541250D01*
G01X-2729708Y1491186D01*
G01X-2725708Y1487186D01*
G01X-2679708Y1487186D01*
G01X-2675708Y1491186D01*
G01X-2675708Y1541250D01*
G01X-2679708Y1545250D01*
G37*
G36*
G01X-2073000Y1386500D02*
G01X-2027000Y1386500D01*
G01X-2023000Y1382499D01*
G01X-2023000Y1332436D01*
G01X-2027000Y1328435D01*
G01X-2073000Y1328435D01*
G01X-2077000Y1332436D01*
G01X-2077000Y1382499D01*
G01X-2073000Y1386500D01*
G37*
G36*
G01X-2073000Y1413500D02*
G01X-2027000Y1413500D01*
G01X-2023000Y1417501D01*
G01X-2023000Y1467564D01*
G01X-2027000Y1471564D01*
G01X-2073000Y1471564D01*
G01X-2077000Y1467564D01*
G01X-2077000Y1417501D01*
G01X-2073000Y1413500D01*
G37*
G36*
G01X-2075708Y1770250D02*
G01X-2029708Y1770250D01*
G01X-2025708Y1766250D01*
G01X-2025708Y1716186D01*
G01X-2029708Y1712186D01*
G01X-2075708Y1712186D01*
G01X-2079708Y1716186D01*
G01X-2079708Y1766250D01*
G01X-2075708Y1770250D01*
G37*
G36*
G01X-2075708Y1797250D02*
G01X-2029708Y1797250D01*
G01X-2025708Y1801251D01*
G01X-2025708Y1851314D01*
G01X-2029708Y1855315D01*
G01X-2075708Y1855315D01*
G01X-2079708Y1851314D01*
G01X-2079708Y1801251D01*
G01X-2075708Y1797250D01*
G37*
G36*
G01X-2266208Y1406750D02*
G01X-2266208Y1360750D01*
G01X-2270208Y1356750D01*
G01X-2320272Y1356750D01*
G01X-2324272Y1360750D01*
G01X-2324272Y1406750D01*
G01X-2320272Y1410750D01*
G01X-2270208Y1410750D01*
G01X-2266208Y1406750D01*
G37*
G36*
G01X-2239208Y1406750D02*
G01X-2239208Y1360750D01*
G01X-2235207Y1356750D01*
G01X-2185144Y1356750D01*
G01X-2181143Y1360750D01*
G01X-2181143Y1406750D01*
G01X-2185144Y1410750D01*
G01X-2235207Y1410750D01*
G01X-2239208Y1406750D01*
G37*
G36*
G01X-1302000Y1313500D02*
G01X-1348000Y1313500D01*
G01X-1352000Y1317501D01*
G01X-1352000Y1367564D01*
G01X-1348000Y1371564D01*
G01X-1302000Y1371564D01*
G01X-1298000Y1367564D01*
G01X-1298000Y1317501D01*
G01X-1302000Y1313500D01*
G37*
G36*
G01X-1302000Y1286500D02*
G01X-1348000Y1286500D01*
G01X-1352000Y1282499D01*
G01X-1352000Y1232436D01*
G01X-1348000Y1228435D01*
G01X-1302000Y1228435D01*
G01X-1298000Y1232436D01*
G01X-1298000Y1282499D01*
G01X-1302000Y1286500D01*
G37*
G36*
G01X-2073000Y1586500D02*
G01X-2027000Y1586500D01*
G01X-2023000Y1582500D01*
G01X-2023000Y1532436D01*
G01X-2027000Y1528436D01*
G01X-2073000Y1528436D01*
G01X-2077000Y1532436D01*
G01X-2077000Y1582500D01*
G01X-2073000Y1586500D01*
G37*
G36*
G01X-2073000Y1613500D02*
G01X-2027000Y1613500D01*
G01X-2023000Y1617501D01*
G01X-2023000Y1667564D01*
G01X-2027000Y1671565D01*
G01X-2073000Y1671565D01*
G01X-2077000Y1667564D01*
G01X-2077000Y1617501D01*
G01X-2073000Y1613500D01*
G37*
G36*
G01X-2086500Y1927000D02*
G01X-2086500Y1973000D01*
G01X-2082500Y1977000D01*
G01X-2032436Y1977000D01*
G01X-2028436Y1973000D01*
G01X-2028436Y1927000D01*
G01X-2032436Y1923000D01*
G01X-2082500Y1923000D01*
G01X-2086500Y1927000D01*
G37*
G36*
G01X-2113500Y1927000D02*
G01X-2113500Y1973000D01*
G01X-2117501Y1977000D01*
G01X-2167564Y1977000D01*
G01X-2171565Y1973000D01*
G01X-2171565Y1927000D01*
G01X-2167564Y1923000D01*
G01X-2117501Y1923000D01*
G01X-2113500Y1927000D01*
G37*
G36*
G01X-1917408Y-100694D02*
G01X-1917408Y-55693D01*
G01X-1910410Y-50694D01*
G01X-1862409Y-50694D01*
G01X-1857408Y-55693D01*
G01X-1857408Y-100694D01*
G01X-1862409Y-105693D01*
G01X-1910410Y-105693D01*
G01X-1917408Y-100694D01*
G37*
G36*
G01X-2013410Y-100694D02*
G01X-2013410Y-55693D01*
G01X-2008408Y-50694D01*
G01X-1960410Y-50694D01*
G01X-1953410Y-55693D01*
G01X-1953410Y-100694D01*
G01X-1960410Y-105693D01*
G01X-2008408Y-105693D01*
G01X-2013410Y-100694D01*
G37*
G36*
G01X-1853415Y-780690D02*
G01X-1853415Y-825691D01*
G01X-1860413Y-830690D01*
G01X-1908414Y-830690D01*
G01X-1913415Y-825691D01*
G01X-1913415Y-780690D01*
G01X-1908414Y-775691D01*
G01X-1860413Y-775691D01*
G01X-1853415Y-780690D01*
G37*
G36*
G01X-1757413Y-780690D02*
G01X-1757413Y-825691D01*
G01X-1762414Y-830690D01*
G01X-1810413Y-830690D01*
G01X-1817413Y-825691D01*
G01X-1817413Y-780690D01*
G01X-1810413Y-775691D01*
G01X-1762414Y-775691D01*
G01X-1757413Y-780690D01*
G37*
G36*
G01X-1637412Y-14692D02*
G01X-1683411Y-14692D01*
G01X-1687412Y-10691D01*
G01X-1687412Y39372D01*
G01X-1683411Y43373D01*
G01X-1637412Y43373D01*
G01X-1633411Y39372D01*
G01X-1633411Y-10691D01*
G01X-1637412Y-14692D01*
G37*
G36*
G01X-1637412Y-41692D02*
G01X-1683411Y-41692D01*
G01X-1687412Y-45693D01*
G01X-1687412Y-95756D01*
G01X-1683411Y-99756D01*
G01X-1637412Y-99756D01*
G01X-1633411Y-95756D01*
G01X-1633411Y-45693D01*
G01X-1637412Y-41692D01*
G37*
G36*
G01X-1737412Y-214692D02*
G01X-1783411Y-214692D01*
G01X-1787412Y-210691D01*
G01X-1787412Y-160628D01*
G01X-1783411Y-156628D01*
G01X-1737412Y-156628D01*
G01X-1733411Y-160628D01*
G01X-1733411Y-210691D01*
G01X-1737412Y-214692D01*
G37*
G36*
G01X-1737412Y-241692D02*
G01X-1783411Y-241692D01*
G01X-1787412Y-245693D01*
G01X-1787412Y-295756D01*
G01X-1783411Y-299757D01*
G01X-1737412Y-299757D01*
G01X-1733411Y-295756D01*
G01X-1733411Y-245693D01*
G01X-1737412Y-241692D01*
G37*
G36*
G01X-1848911Y-655192D02*
G01X-1848911Y-701192D01*
G01X-1852912Y-705192D01*
G01X-1902975Y-705192D01*
G01X-1906976Y-701192D01*
G01X-1906976Y-655192D01*
G01X-1902975Y-651192D01*
G01X-1852912Y-651192D01*
G01X-1848911Y-655192D01*
G37*
G36*
G01X-1821911Y-655192D02*
G01X-1821911Y-701192D01*
G01X-1817911Y-705192D01*
G01X-1767847Y-705192D01*
G01X-1763847Y-701192D01*
G01X-1763847Y-655192D01*
G01X-1767847Y-651192D01*
G01X-1817911Y-651192D01*
G01X-1821911Y-655192D01*
G37*
G36*
G01X357275Y1064234D02*
G01X312273Y1064234D01*
G01X307275Y1071232D01*
G01X307275Y1119232D01*
G01X312273Y1124234D01*
G01X357275Y1124234D01*
G01X362273Y1119232D01*
G01X362273Y1071232D01*
G01X357275Y1064234D01*
G37*
G36*
G01X357275Y968232D02*
G01X312273Y968232D01*
G01X307275Y973233D01*
G01X307275Y1021232D01*
G01X312273Y1028232D01*
G01X357275Y1028232D01*
G01X362273Y1021232D01*
G01X362273Y973233D01*
G01X357275Y968232D01*
G37*
G36*
G01X-656816Y1403624D02*
G01X-656816Y1448625D01*
G01X-649818Y1453624D01*
G01X-601817Y1453624D01*
G01X-596816Y1448625D01*
G01X-596816Y1403624D01*
G01X-601817Y1398625D01*
G01X-649818Y1398625D01*
G01X-656816Y1403624D01*
G37*
G36*
G01X-752818Y1403624D02*
G01X-752818Y1448625D01*
G01X-747816Y1453624D01*
G01X-699818Y1453624D01*
G01X-692818Y1448625D01*
G01X-692818Y1403624D01*
G01X-699818Y1398625D01*
G01X-747816Y1398625D01*
G01X-752818Y1403624D01*
G37*
G36*
G01X-1237729Y278227D02*
G01X-1192728Y278227D01*
G01X-1187729Y271229D01*
G01X-1187729Y223228D01*
G01X-1192728Y218227D01*
G01X-1237729Y218227D01*
G01X-1242728Y223228D01*
G01X-1242728Y271229D01*
G01X-1237729Y278227D01*
G37*
G36*
G01X-1237729Y374229D02*
G01X-1192728Y374229D01*
G01X-1187729Y369227D01*
G01X-1187729Y321229D01*
G01X-1192728Y314229D01*
G01X-1237729Y314229D01*
G01X-1242728Y321229D01*
G01X-1242728Y369227D01*
G01X-1237729Y374229D01*
G37*
G36*
G01X2032275Y1064234D02*
G01X1987273Y1064234D01*
G01X1982275Y1071232D01*
G01X1982275Y1119232D01*
G01X1987273Y1124234D01*
G01X2032275Y1124234D01*
G01X2037273Y1119232D01*
G01X2037273Y1071232D01*
G01X2032275Y1064234D01*
G37*
G36*
G01X2032275Y968232D02*
G01X1987273Y968232D01*
G01X1982275Y973233D01*
G01X1982275Y1021232D01*
G01X1987273Y1028232D01*
G01X2032275Y1028232D01*
G01X2037273Y1021232D01*
G01X2037273Y973233D01*
G01X2032275Y968232D01*
G37*
G36*
G01X1018184Y1403624D02*
G01X1018184Y1448625D01*
G01X1025182Y1453624D01*
G01X1073183Y1453624D01*
G01X1078184Y1448625D01*
G01X1078184Y1403624D01*
G01X1073183Y1398625D01*
G01X1025182Y1398625D01*
G01X1018184Y1403624D01*
G37*
G36*
G01X922182Y1403624D02*
G01X922182Y1448625D01*
G01X927184Y1453624D01*
G01X975182Y1453624D01*
G01X982182Y1448625D01*
G01X982182Y1403624D01*
G01X975182Y1398625D01*
G01X927184Y1398625D01*
G01X922182Y1403624D01*
G37*
G36*
G01X437271Y278227D02*
G01X482272Y278227D01*
G01X487271Y271229D01*
G01X487271Y223228D01*
G01X482272Y218227D01*
G01X437271Y218227D01*
G01X432272Y223228D01*
G01X432272Y271229D01*
G01X437271Y278227D01*
G37*
G36*
G01X437271Y374229D02*
G01X482272Y374229D01*
G01X487271Y369227D01*
G01X487271Y321229D01*
G01X482272Y314229D01*
G01X437271Y314229D01*
G01X432272Y321229D01*
G01X432272Y369227D01*
G01X437271Y374229D01*
G37*
G36*
G01X-1192228Y526431D02*
G01X-1238227Y526431D01*
G01X-1242228Y522431D01*
G01X-1242228Y464582D01*
G01X-1238227Y460582D01*
G01X-1192228Y460582D01*
G01X-1188227Y464582D01*
G01X-1188227Y522431D01*
G01X-1192228Y526431D01*
G37*
G36*
G01X-1192228Y566030D02*
G01X-1238227Y566030D01*
G01X-1242228Y570030D01*
G01X-1242228Y627879D01*
G01X-1238227Y631879D01*
G01X-1192228Y631879D01*
G01X-1188227Y627879D01*
G01X-1188227Y570030D01*
G01X-1192228Y566030D01*
G37*
G36*
G01X482772Y526431D02*
G01X436773Y526431D01*
G01X432772Y522431D01*
G01X432772Y464582D01*
G01X436773Y460582D01*
G01X482772Y460582D01*
G01X486773Y464582D01*
G01X486773Y522431D01*
G01X482772Y526431D01*
G37*
G36*
G01X482772Y566030D02*
G01X436773Y566030D01*
G01X432772Y570030D01*
G01X432772Y627879D01*
G01X436773Y631879D01*
G01X482772Y631879D01*
G01X486773Y627879D01*
G01X486773Y570030D01*
G01X482772Y566030D01*
G37*
G36*
G01X-1213227Y-242270D02*
G01X-1167228Y-242270D01*
G01X-1163227Y-246270D01*
G01X-1163227Y-296334D01*
G01X-1167228Y-300334D01*
G01X-1213227Y-300334D01*
G01X-1217228Y-296334D01*
G01X-1217228Y-246270D01*
G01X-1213227Y-242270D01*
G37*
G36*
G01X-1213227Y-215270D02*
G01X-1167228Y-215270D01*
G01X-1163227Y-211269D01*
G01X-1163227Y-161206D01*
G01X-1167228Y-157205D01*
G01X-1213227Y-157205D01*
G01X-1217228Y-161206D01*
G01X-1217228Y-211269D01*
G01X-1213227Y-215270D01*
G37*
G36*
G01X-388227Y-242270D02*
G01X-342228Y-242270D01*
G01X-338227Y-246270D01*
G01X-338227Y-296334D01*
G01X-342228Y-300334D01*
G01X-388227Y-300334D01*
G01X-392228Y-296334D01*
G01X-392228Y-246270D01*
G01X-388227Y-242270D01*
G37*
G36*
G01X-388227Y-215270D02*
G01X-342228Y-215270D01*
G01X-338227Y-211269D01*
G01X-338227Y-161206D01*
G01X-342228Y-157205D01*
G01X-388227Y-157205D01*
G01X-392228Y-161206D01*
G01X-392228Y-211269D01*
G01X-388227Y-215270D01*
G37*
G36*
G01X461773Y-242270D02*
G01X507772Y-242270D01*
G01X511773Y-246270D01*
G01X511773Y-296334D01*
G01X507772Y-300334D01*
G01X461773Y-300334D01*
G01X457772Y-296334D01*
G01X457772Y-246270D01*
G01X461773Y-242270D01*
G37*
G36*
G01X461773Y-215270D02*
G01X507772Y-215270D01*
G01X511773Y-211269D01*
G01X511773Y-161206D01*
G01X507772Y-157205D01*
G01X461773Y-157205D01*
G01X457772Y-161206D01*
G01X457772Y-211269D01*
G01X461773Y-215270D01*
G37*
G36*
G01X1286773Y-242270D02*
G01X1332772Y-242270D01*
G01X1336773Y-246270D01*
G01X1336773Y-296334D01*
G01X1332772Y-300334D01*
G01X1286773Y-300334D01*
G01X1282772Y-296334D01*
G01X1282772Y-246270D01*
G01X1286773Y-242270D01*
G37*
G36*
G01X1286773Y-215270D02*
G01X1332772Y-215270D01*
G01X1336773Y-211269D01*
G01X1336773Y-161206D01*
G01X1332772Y-157205D01*
G01X1286773Y-157205D01*
G01X1282772Y-161206D01*
G01X1282772Y-211269D01*
G01X1286773Y-215270D01*
G37*
G36*
G01X-1302000Y1113500D02*
G01X-1348000Y1113500D01*
G01X-1352000Y1117500D01*
G01X-1352000Y1167564D01*
G01X-1348000Y1171564D01*
G01X-1302000Y1171564D01*
G01X-1298000Y1167564D01*
G01X-1298000Y1117500D01*
G01X-1302000Y1113500D01*
G37*
G36*
G01X-1302000Y1086500D02*
G01X-1348000Y1086500D01*
G01X-1352000Y1082499D01*
G01X-1352000Y1032436D01*
G01X-1348000Y1028435D01*
G01X-1302000Y1028435D01*
G01X-1298000Y1032436D01*
G01X-1298000Y1082499D01*
G01X-1302000Y1086500D01*
G37*
G36*
G01X-2402498Y-1831997D02*
G01X-2447499Y-1831997D01*
G01X-2452498Y-1824999D01*
G01X-2452498Y-1776998D01*
G01X-2447499Y-1771997D01*
G01X-2402498Y-1771997D01*
G01X-2397499Y-1776998D01*
G01X-2397499Y-1824999D01*
G01X-2402498Y-1831997D01*
G37*
G36*
G01X-2402498Y-1927998D02*
G01X-2447499Y-1927998D01*
G01X-2452498Y-1922997D01*
G01X-2452498Y-1874999D01*
G01X-2447499Y-1867999D01*
G01X-2402498Y-1867999D01*
G01X-2397499Y-1874999D01*
G01X-2397499Y-1922997D01*
G01X-2402498Y-1927998D01*
G37*
G36*
G01X-2248000Y-1988500D02*
G01X-2202000Y-1988500D01*
G01X-2198000Y-1992501D01*
G01X-2198000Y-2042564D01*
G01X-2202000Y-2046565D01*
G01X-2248000Y-2046565D01*
G01X-2252000Y-2042564D01*
G01X-2252000Y-1992501D01*
G01X-2248000Y-1988500D01*
G37*
G36*
G01X-2248000Y-1961500D02*
G01X-2202000Y-1961500D01*
G01X-2198000Y-1957500D01*
G01X-2198000Y-1907436D01*
G01X-2202000Y-1903436D01*
G01X-2248000Y-1903436D01*
G01X-2252000Y-1907436D01*
G01X-2252000Y-1957500D01*
G01X-2248000Y-1961500D01*
G37*
G36*
G01X-2327498Y-1831997D02*
G01X-2372499Y-1831997D01*
G01X-2377498Y-1824999D01*
G01X-2377498Y-1776998D01*
G01X-2372499Y-1771997D01*
G01X-2327498Y-1771997D01*
G01X-2322500Y-1776998D01*
G01X-2322500Y-1824999D01*
G01X-2327498Y-1831997D01*
G37*
G36*
G01X-2327498Y-1927998D02*
G01X-2372499Y-1927998D01*
G01X-2377498Y-1922997D01*
G01X-2377498Y-1874999D01*
G01X-2372499Y-1867999D01*
G01X-2327498Y-1867999D01*
G01X-2322500Y-1874999D01*
G01X-2322500Y-1922997D01*
G01X-2327498Y-1927998D01*
G37*
G36*
G01X-1783411Y-41692D02*
G01X-1737412Y-41692D01*
G01X-1733411Y-45693D01*
G01X-1733411Y-95756D01*
G01X-1737412Y-99756D01*
G01X-1783411Y-99756D01*
G01X-1787412Y-95756D01*
G01X-1787412Y-45693D01*
G01X-1783411Y-41692D01*
G37*
G36*
G01X-1783411Y-14692D02*
G01X-1737412Y-14692D01*
G01X-1733411Y-10691D01*
G01X-1733411Y39372D01*
G01X-1737412Y43373D01*
G01X-1783411Y43373D01*
G01X-1787412Y39372D01*
G01X-1787412Y-10691D01*
G01X-1783411Y-14692D01*
G37*

G04 Pad Start*
G54D10*
G01X-2602688Y1815049D03*
G54D11*
G01X-2602688Y1733744D03*
G01X-2602688Y1683756D03*
G01X-2602688Y1633744D03*
G01X-2602688Y1583757D03*
G54D12*
G01X-2602714Y1502451D03*
G01X-2552701Y1502451D03*
G01X-2502688Y1502451D03*
G01X-2452701Y1502451D03*
G01X-2402689Y1502451D03*
G01X-2352701Y1502451D03*
G01X-2302689Y1502451D03*
G01X-2252702Y1502451D03*
G01X-2202689Y1502451D03*
G01X-2152702Y1502451D03*
G54D13*
G01X-2152702Y1583757D03*
G01X-2152702Y1633769D03*
G01X-2152702Y1683756D03*
G01X-2152702Y1733769D03*
G54D10*
G01X-2152702Y1815049D03*
G01X-2202689Y1815049D03*
G01X-2252702Y1815049D03*
G01X-2302689Y1815049D03*
G01X-2352701Y1815049D03*
G01X-2402689Y1815049D03*
G01X-2452701Y1815049D03*
G01X-2502688Y1815049D03*
G01X-2552701Y1815049D03*
G54D14*
G01X84752Y996236D03*
G01X84752Y946223D03*
G01X84752Y896236D03*
G01X84752Y846224D03*
G01X84752Y796236D03*
G01X84752Y746224D03*
G01X84752Y696237D03*
G01X84752Y646224D03*
G01X84752Y596237D03*
G01X84752Y546224D03*
G01X84752Y496237D03*
G01X84752Y446224D03*
G01X84752Y396237D03*
G01X84752Y346225D03*
G01X84752Y296237D03*
G01X84752Y246225D03*
G54D15*
G01X-115222Y46251D03*
G01X-165234Y46251D03*
G01X-215222Y46251D03*
G01X-265234Y46251D03*
G01X-315221Y46251D03*
G01X-365234Y46251D03*
G01X-415221Y46251D03*
G01X-465234Y46251D03*
G01X-515221Y46251D03*
G01X-565234Y46251D03*
G01X-615221Y46251D03*
G01X-665233Y46251D03*
G01X-715221Y46251D03*
G01X-765233Y46251D03*
G01X-815220Y46251D03*
G01X-865233Y46251D03*
G54D14*
G01X-1065207Y246225D03*
G01X-1065207Y296237D03*
G01X-1065207Y346225D03*
G01X-1065207Y396237D03*
G01X-1065207Y446224D03*
G01X-1065207Y496237D03*
G01X-1065207Y546224D03*
G01X-1065207Y596237D03*
G01X-1065207Y646224D03*
G01X-1065207Y696237D03*
G01X-1065207Y746224D03*
G01X-1065207Y796236D03*
G01X-1065207Y846224D03*
G01X-1065207Y896236D03*
G01X-1065207Y946223D03*
G01X-1065207Y996236D03*
G54D15*
G01X-865233Y1196210D03*
G01X-815220Y1196210D03*
G01X-765233Y1196210D03*
G01X-715221Y1196210D03*
G01X-665233Y1196210D03*
G01X-615221Y1196210D03*
G01X-565234Y1196210D03*
G01X-515221Y1196210D03*
G01X-465234Y1196210D03*
G01X-415221Y1196210D03*
G01X-365234Y1196210D03*
G01X-315221Y1196210D03*
G01X-265234Y1196210D03*
G01X-215222Y1196210D03*
G01X-165234Y1196210D03*
G01X-115222Y1196210D03*
G54D16*
G01X-790227Y1669980D03*
G01X-690227Y1669980D03*
G01X-590227Y1669980D03*
G01X-490227Y1669980D03*
G01X-390228Y1669980D03*
G01X-290228Y1669980D03*
G01X-190228Y1669980D03*
G54D17*
G01X-60231Y1922481D03*
G01X-920224Y1922481D03*
G54D19*
G01X-335217Y1471230D03*
G54D20*
G01X-215227Y1471230D03*
G54D19*
G01X-95238Y1471230D03*
G54D21*
G01X-1061330Y-131259D03*
G01X-1061330Y-196258D03*
G01X-1061330Y-261256D03*
G01X-1061330Y-326280D03*
G01X-819115Y-131259D03*
G01X-819115Y-196258D03*
G01X-819115Y-261256D03*
G01X-819115Y-326280D03*
G01X-236329Y-131259D03*
G01X-236329Y-196258D03*
G01X-236329Y-261256D03*
G01X-236329Y-326280D03*
G01X5885Y-131259D03*
G01X5885Y-196258D03*
G01X5885Y-261256D03*
G01X5885Y-326280D03*
G54D14*
G01X1759752Y996236D03*
G01X1759752Y946223D03*
G01X1759752Y896236D03*
G01X1759752Y846224D03*
G01X1759752Y796236D03*
G01X1759752Y746224D03*
G01X1759752Y696237D03*
G01X1759752Y646224D03*
G01X1759752Y596237D03*
G01X1759752Y546224D03*
G01X1759752Y496237D03*
G01X1759752Y446224D03*
G01X1759752Y396237D03*
G01X1759752Y346225D03*
G01X1759752Y296237D03*
G01X1759752Y246225D03*
G54D15*
G01X1559778Y46251D03*
G01X1509766Y46251D03*
G01X1459778Y46251D03*
G01X1409766Y46251D03*
G01X1359779Y46251D03*
G01X1309766Y46251D03*
G01X1259779Y46251D03*
G01X1209766Y46251D03*
G01X1159779Y46251D03*
G01X1109766Y46251D03*
G01X1059779Y46251D03*
G01X1009767Y46251D03*
G01X959779Y46251D03*
G01X909767Y46251D03*
G01X859780Y46251D03*
G01X809767Y46251D03*
G54D14*
G01X609793Y246225D03*
G01X609793Y296237D03*
G01X609793Y346225D03*
G01X609793Y396237D03*
G01X609793Y446224D03*
G01X609793Y496237D03*
G01X609793Y546224D03*
G01X609793Y596237D03*
G01X609793Y646224D03*
G01X609793Y696237D03*
G01X609793Y746224D03*
G01X609793Y796236D03*
G01X609793Y846224D03*
G01X609793Y896236D03*
G01X609793Y946223D03*
G01X609793Y996236D03*
G54D15*
G01X809767Y1196210D03*
G01X859780Y1196210D03*
G01X909767Y1196210D03*
G01X959779Y1196210D03*
G01X1009767Y1196210D03*
G01X1059779Y1196210D03*
G01X1109766Y1196210D03*
G01X1159779Y1196210D03*
G01X1209766Y1196210D03*
G01X1259779Y1196210D03*
G01X1309766Y1196210D03*
G01X1359779Y1196210D03*
G01X1409766Y1196210D03*
G01X1459778Y1196210D03*
G01X1509766Y1196210D03*
G01X1559778Y1196210D03*
G54D16*
G01X884773Y1669980D03*
G01X984773Y1669980D03*
G01X1084773Y1669980D03*
G01X1184773Y1669980D03*
G01X1284772Y1669980D03*
G01X1384772Y1669980D03*
G01X1484772Y1669980D03*
G54D17*
G01X1614769Y1922481D03*
G01X754776Y1922481D03*
G54D19*
G01X1339783Y1471230D03*
G54D20*
G01X1459773Y1471230D03*
G54D19*
G01X1579762Y1471230D03*
G54D21*
G01X613670Y-131259D03*
G01X613670Y-196258D03*
G01X613670Y-261256D03*
G01X613670Y-326280D03*
G01X855885Y-131259D03*
G01X855885Y-196258D03*
G01X855885Y-261256D03*
G01X855885Y-326280D03*
G01X1438670Y-131259D03*
G01X1438670Y-196258D03*
G01X1438670Y-261256D03*
G01X1438670Y-326280D03*
G01X1680885Y-131259D03*
G01X1680885Y-196258D03*
G01X1680885Y-261256D03*
G01X1680885Y-326280D03*
G54D22*
G01X-2188106Y-567202D03*
G01X-2108094Y-566795D03*
G01X-2028112Y-567202D03*
G01X-1948127Y-567202D03*
G01X-1868117Y-567202D03*
G01X-1868318Y-177205D03*
G01X-1948328Y-177205D03*
G01X-2028312Y-177205D03*
G54D23*
G01X-2028188Y-372406D03*
G54D22*
G01X-2188307Y-177205D03*
G01X-2108294Y-176798D03*
G54D24*
G01X-2385412Y-498181D03*
G01X-2385412Y-58203D03*
G54D25*
G01X-1817378Y596808D03*
G01X-2853444Y596808D03*
G54D26*
G01X-1457673Y1447131D03*
G01X-1457673Y1352135D03*
G01X-1457673Y1257139D03*
G01X-1727675Y1257139D03*
G01X-1727675Y1352135D03*
G01X-1727675Y1447131D03*
G54D27*
G01X2617501Y524993D03*
G54D28*
G01X2982499Y870001D03*
G01X2982499Y-870001D03*
G54D27*
G01X2617501Y-375006D03*
G01X2617501Y-524993D03*
G01X2617501Y-675005D03*
G01X2617501Y-224993D03*
G01X2617501Y-75006D03*
G01X2617501Y75006D03*
G01X2617501Y224993D03*
G01X2617501Y375006D03*
G01X2617501Y674980D03*
G54D29*
G01X2413000Y2729997D03*
G01X2413000Y2170003D03*
G01X2159000Y2729997D03*
G01X2159000Y2170003D03*
G01X1905000Y2729997D03*
G01X1905000Y2170003D03*
G01X1651000Y2729997D03*
G01X1651000Y2170003D03*
G01X1397000Y2729997D03*
G01X1397000Y2170003D03*
G01X1143000Y2729997D03*
G01X1143000Y2170003D03*
G01X889000Y2729997D03*
G01X889000Y2170003D03*
G01X635000Y2729997D03*
G01X635000Y2170003D03*
G01X381000Y2729997D03*
G01X381000Y2170003D03*
G01X127000Y2729997D03*
G01X127000Y2170003D03*
G01X-127000Y2729997D03*
G01X-127000Y2170003D03*
G01X-381000Y2729997D03*
G01X-381000Y2170003D03*
G01X-635000Y2729997D03*
G01X-635000Y2170003D03*
G01X-889000Y2729997D03*
G01X-889000Y2170003D03*
G01X-1143000Y2729997D03*
G01X-1143000Y2170003D03*
G01X-1397000Y2729997D03*
G01X-1397000Y2170003D03*
G01X-1651000Y2729997D03*
G01X-1651000Y2170003D03*
G01X-1905000Y2729997D03*
G01X-1905000Y2170003D03*
G54D30*
G01X-2413000Y2170003D03*
G01X-2413000Y2729997D03*
G01X-2159000Y2170003D03*
G01X-2159000Y2729997D03*
G54D31*
G01X-2240015Y-1839995D03*
G01X-2240015Y-1799990D03*
G01X-2240015Y-1759985D03*
G01X-2200010Y-1839995D03*
G01X-2200010Y-1799990D03*
G01X-2200010Y-1759985D03*
G01X-2160005Y-1839995D03*
G01X-2160005Y-1799990D03*
G01X-2160005Y-1759985D03*
G54D32*
G01X-2464999Y-1400000D03*
G01X-2464999Y-1600000D03*
G54D33*
G01X-2835001Y-1152503D03*
G54D34*
G01X-2835001Y-1847497D03*
G54D35*
G01X302505Y-1064999D03*
G54D36*
G01X1197500Y-1064999D03*
G54D37*
G01X750003Y-1435001D03*
G01X950002Y-1435001D03*
G01X550003Y-1435001D03*
G54D35*
G01X-847495Y-1064999D03*
G54D36*
G01X47500Y-1064999D03*
G54D37*
G01X-399997Y-1435001D03*
G01X-199998Y-1435001D03*
G01X-599997Y-1435001D03*
G54D38*
G01X-1675000Y1648749D03*
G01X-1575000Y1648749D03*
G01X-1475000Y1648749D03*
G01X-1375000Y1648749D03*
G54D39*
G01X-1804997Y1901251D03*
G01X-1245003Y1901251D03*
G04 Pad End*

M02*

