G04 Layer: BottomSilkscreenLayer*
G04 EasyEDA Pro v2.2.35.2, 2025-02-20 22:18:56*
G04 Gerber Generator version 0.3*
G04 Scale: 100 percent, Rotated: No, Reflected: No*
G04 Dimensions in millimeters*
G04 Leading zeros omitted, absolute positions, 4 integers and 5 decimals*
%FSLAX45Y45*%
%MOMM*%
%ADD10C,0.254*%
G75*


G04 Text Start*
G36*
G01X2979990Y722258D02*
G01X2979990Y477713D01*
G01X2491809Y477713D01*
G01X2491809Y573167D01*
G01X2523627Y573167D01*
G01X2523627Y566577D01*
G01X2523684Y561349D01*
G01X2523801Y559218D01*
G01X2523854Y558849D01*
G01X2524082Y557713D01*
G01X2535900Y557713D01*
G01X2535900Y541804D01*
G01X2552718Y541804D01*
G01X2552718Y549758D01*
G01X2552718Y549758D01*
G01X2552718Y557713D01*
G01X2580445Y557713D01*
G01X2592548Y557755D01*
G01X2606184Y558096D01*
G01X2607391Y558235D01*
G01X2607718Y558395D01*
G01X2603797Y563881D01*
G01X2602263Y566292D01*
G01X2598797Y571154D01*
G01X2597263Y573565D01*
G01X2593797Y578427D01*
G01X2592263Y580838D01*
G01X2588797Y585699D01*
G01X2587263Y588110D01*
G01X2583797Y592972D01*
G01X2582263Y595383D01*
G01X2578797Y600245D01*
G01X2577320Y602543D01*
G01X2577050Y602898D01*
G01X2576692Y603292D01*
G01X2576152Y604002D01*
G01X2574991Y605838D01*
G01X2573797Y607518D01*
G01X2572320Y609815D01*
G01X2572050Y610170D01*
G01X2571692Y610564D01*
G01X2571152Y611275D01*
G01X2569991Y613111D01*
G01X2568798Y614790D01*
G01X2567320Y617088D01*
G01X2567050Y617443D01*
G01X2566692Y617837D01*
G01X2566152Y618547D01*
G01X2564991Y620383D01*
G01X2563798Y622063D01*
G01X2562320Y624361D01*
G01X2562050Y624716D01*
G01X2561692Y625110D01*
G01X2561152Y625820D01*
G01X2559991Y627656D01*
G01X2558798Y629336D01*
G01X2557945Y630667D01*
G01X2557206Y631804D01*
G01X2556354Y632940D01*
G01X2555307Y634361D01*
G01X2554082Y636293D01*
G01X2550616Y641154D01*
G01X2549082Y643565D01*
G01X2545616Y648427D01*
G01X2544082Y650838D01*
G01X2541125Y654986D01*
G01X2623173Y654986D01*
G01X2623173Y595895D01*
G01X2623372Y536435D01*
G01X2623400Y536122D01*
G01X2623542Y535866D01*
G01X2623996Y535866D01*
G01X2624309Y536122D01*
G01X2624309Y536122D01*
G01X2624636Y536463D01*
G01X2625204Y537145D01*
G01X2625687Y537812D01*
G01X2626255Y538381D01*
G01X2627207Y539133D01*
G01X2627959Y540085D01*
G01X2628528Y540653D01*
G01X2629479Y541406D01*
G01X2629991Y542031D01*
G01X2630672Y542926D01*
G01X2631354Y543679D01*
G01X2632050Y544631D01*
G01X2632619Y545199D01*
G01X2633570Y545952D01*
G01X2634323Y546903D01*
G01X2634891Y547472D01*
G01X2635843Y548224D01*
G01X2636596Y549176D01*
G01X2637164Y549744D01*
G01X2638116Y550497D01*
G01X2638868Y551449D01*
G01X2639437Y552017D01*
G01X2639934Y552383D01*
G01X2640275Y552695D01*
G01X2640786Y553324D01*
G01X2641468Y554375D01*
G01X2641809Y554815D01*
G01X2642150Y555170D01*
G01X2642491Y555440D01*
G01X2643116Y555952D01*
G01X2643868Y556903D01*
G01X2644437Y557471D01*
G01X2645388Y558224D01*
G01X2646141Y559176D01*
G01X2646709Y559744D01*
G01X2647661Y560497D01*
G01X2648414Y561449D01*
G01X2648982Y562017D01*
G01X2649483Y562383D01*
G01X2650048Y562883D01*
G01X2650459Y563324D01*
G01X2651326Y564389D01*
G01X2652505Y565994D01*
G01X2653073Y566562D01*
G01X2654025Y567315D01*
G01X2654778Y568267D01*
G01X2655346Y568835D01*
G01X2656297Y569588D01*
G01X2657050Y570540D01*
G01X2657619Y571108D01*
G01X2658570Y571861D01*
G01X2659323Y572812D01*
G01X2659891Y573381D01*
G01X2660843Y574133D01*
G01X2661354Y574758D01*
G01X2662036Y575653D01*
G01X2662718Y576406D01*
G01X2663414Y577358D01*
G01X2663982Y577926D01*
G01X2664934Y578679D01*
G01X2665687Y579630D01*
G01X2666255Y580199D01*
G01X2667207Y580951D01*
G01X2667959Y581903D01*
G01X2668528Y582471D01*
G01X2669479Y583224D01*
G01X2670232Y584176D01*
G01X2670800Y584744D01*
G01X2671297Y585110D01*
G01X2671638Y585422D01*
G01X2672150Y586051D01*
G01X2672832Y587102D01*
G01X2673172Y587542D01*
G01X2673513Y587898D01*
G01X2673854Y588167D01*
G01X2674479Y588679D01*
G01X2675232Y589630D01*
G01X2675800Y590199D01*
G01X2676752Y590951D01*
G01X2677505Y591903D01*
G01X2678073Y592471D01*
G01X2679025Y593224D01*
G01X2679777Y594176D01*
G01X2680346Y594744D01*
G01X2680847Y595110D01*
G01X2681411Y595611D01*
G01X2681823Y596051D01*
G01X2682690Y597116D01*
G01X2683868Y598721D01*
G01X2684437Y599290D01*
G01X2685388Y600042D01*
G01X2686141Y600994D01*
G01X2686709Y601562D01*
G01X2687661Y602315D01*
G01X2688414Y603267D01*
G01X2688982Y603835D01*
G01X2689934Y604588D01*
G01X2690687Y605539D01*
G01X2691255Y606108D01*
G01X2692206Y606861D01*
G01X2692718Y607486D01*
G01X2693400Y608380D01*
G01X2694081Y609133D01*
G01X2694777Y610085D01*
G01X2695346Y610653D01*
G01X2696297Y611406D01*
G01X2697050Y612358D01*
G01X2697618Y612926D01*
G01X2698570Y613679D01*
G01X2699323Y614630D01*
G01X2699891Y615199D01*
G01X2700843Y615951D01*
G01X2701596Y616903D01*
G01X2702164Y617471D01*
G01X2702661Y617837D01*
G01X2703002Y618150D01*
G01X2703513Y618778D01*
G01X2704195Y619815D01*
G01X2704536Y620213D01*
G01X2704877Y620497D01*
G01X2705218Y620667D01*
G01X2705325Y620437D01*
G01X2705405Y619858D01*
G01X2705524Y618141D01*
G01X2705900Y581349D01*
G01X2705900Y541804D01*
G01X2722718Y541804D01*
G01X2737263Y541804D01*
G01X2746354Y541804D01*
G01X2751926Y541900D01*
G01X2754256Y542070D01*
G01X2755005Y542187D01*
G01X2755477Y542326D01*
G01X2755956Y543167D01*
G01X2756354Y543849D01*
G01X2756752Y544588D01*
G01X2757164Y545880D01*
G01X2757505Y546676D01*
G01X2758116Y547770D01*
G01X2758528Y549062D01*
G01X2758868Y549858D01*
G01X2759479Y550952D01*
G01X2759891Y552244D01*
G01X2760232Y553040D01*
G01X2760843Y554133D01*
G01X2761255Y555426D01*
G01X2761596Y556221D01*
G01X2761922Y556758D01*
G01X2762377Y557695D01*
G01X2763173Y559815D01*
G01X2763840Y561023D01*
G01X2764181Y561818D01*
G01X2764593Y563111D01*
G01X2765204Y564204D01*
G01X2765545Y565000D01*
G01X2765957Y566292D01*
G01X2766567Y567386D01*
G01X2766908Y568182D01*
G01X2767041Y568636D01*
G01X2767283Y568784D01*
G01X2767614Y568872D01*
G01X2768894Y569051D01*
G01X2771511Y569235D01*
G01X2790672Y569531D01*
G01X2811233Y569442D01*
G01X2814989Y569331D01*
G01X2815729Y569148D01*
G01X2816127Y568906D01*
G01X2816411Y568579D01*
G01X2816581Y568167D01*
G01X2816709Y567727D01*
G01X2817050Y566932D01*
G01X2817377Y566399D01*
G01X2817832Y565547D01*
G01X2818513Y563938D01*
G01X2819309Y562244D01*
G01X2820445Y559645D01*
G01X2820900Y558849D01*
G01X2821297Y558111D01*
G01X2821709Y556818D01*
G01X2822050Y556022D01*
G01X2822377Y555490D01*
G01X2822832Y554638D01*
G01X2823513Y553029D01*
G01X2824309Y551335D01*
G01X2825445Y548736D01*
G01X2825900Y547940D01*
G01X2826297Y547202D01*
G01X2826709Y545909D01*
G01X2827050Y545113D01*
G01X2827377Y544581D01*
G01X2827832Y543729D01*
G01X2828172Y542940D01*
G01X2828627Y541804D01*
G01X2837491Y541804D01*
G01X2841368Y541818D01*
G01X2845800Y541932D01*
G01X2845800Y541932D01*
G01X2846205Y541955D01*
G01X2846326Y542202D01*
G01X2845900Y543395D01*
G01X2845445Y544417D01*
G01X2844877Y545390D01*
G01X2844422Y546243D01*
G01X2844081Y547031D01*
G01X2843172Y549304D01*
G01X2842718Y550326D01*
G01X2842150Y551300D01*
G01X2841695Y552152D01*
G01X2841013Y553761D01*
G01X2840218Y555454D01*
G01X2839081Y558054D01*
G01X2838513Y559027D01*
G01X2838059Y559879D01*
G01X2837718Y560667D01*
G01X2836809Y562940D01*
G01X2836354Y563963D01*
G01X2835786Y564936D01*
G01X2835331Y565788D01*
G01X2834650Y567397D01*
G01X2833854Y569091D01*
G01X2832718Y571690D01*
G01X2832263Y572486D01*
G01X2831866Y573224D01*
G01X2831454Y574517D01*
G01X2831113Y575312D01*
G01X2830786Y575845D01*
G01X2830331Y576697D01*
G01X2829536Y578508D01*
G01X2829081Y579304D01*
G01X2828684Y580042D01*
G01X2828272Y581335D01*
G01X2827931Y582131D01*
G01X2827604Y582663D01*
G01X2827150Y583515D01*
G01X2826354Y585326D01*
G01X2825900Y586122D01*
G01X2825502Y586861D01*
G01X2825090Y588153D01*
G01X2824749Y588949D01*
G01X2824422Y589481D01*
G01X2823968Y590333D01*
G01X2823172Y592145D01*
G01X2822604Y593121D01*
G01X2822150Y594059D01*
G01X2821354Y596179D01*
G01X2821127Y596647D01*
G01X2820786Y597209D01*
G01X2820331Y598061D01*
G01X2819650Y599670D01*
G01X2818854Y601363D01*
G01X2817718Y603963D01*
G01X2817150Y604936D01*
G01X2816695Y605788D01*
G01X2816354Y606577D01*
G01X2815445Y608849D01*
G01X2814991Y609872D01*
G01X2814422Y610845D01*
G01X2813968Y611697D01*
G01X2813286Y613306D01*
G01X2812491Y615000D01*
G01X2811354Y617599D01*
G01X2810786Y618572D01*
G01X2810331Y619425D01*
G01X2809991Y620213D01*
G01X2809082Y622486D01*
G01X2808627Y623508D01*
G01X2808059Y624481D01*
G01X2807604Y625334D01*
G01X2806923Y626942D01*
G01X2806127Y628636D01*
G01X2804991Y631236D01*
G01X2804536Y632031D01*
G01X2804138Y632770D01*
G01X2803726Y634062D01*
G01X2803386Y634858D01*
G01X2803059Y635390D01*
G01X2802604Y636243D01*
G01X2801809Y638054D01*
G01X2801354Y638849D01*
G01X2800957Y639588D01*
G01X2800545Y640881D01*
G01X2800204Y641676D01*
G01X2799877Y642209D01*
G01X2799422Y643061D01*
G01X2798627Y644872D01*
G01X2798172Y645667D01*
G01X2797775Y646406D01*
G01X2797363Y647699D01*
G01X2797022Y648494D01*
G01X2796943Y648622D01*
G01X2858172Y648622D01*
G01X2858172Y638849D01*
G01X2858286Y631576D01*
G01X2858428Y629815D01*
G01X2858502Y629421D01*
G01X2858627Y629304D01*
G01X2858854Y629432D01*
G01X2859309Y629773D01*
G01X2860047Y630440D01*
G01X2862977Y632542D01*
G01X2864309Y633395D01*
G01X2866582Y634758D01*
G01X2868577Y636008D01*
G01X2869429Y636463D01*
G01X2871038Y637145D01*
G01X2873286Y638167D01*
G01X2874536Y638622D01*
G01X2877491Y639531D01*
G01X2879763Y640213D01*
G01X2880502Y640383D01*
G01X2881795Y640454D01*
G01X2882590Y640568D01*
G01X2883179Y640721D01*
G01X2884325Y640823D01*
G01X2888400Y640895D01*
G01X2892768Y640806D01*
G01X2893620Y640721D01*
G01X2894593Y640497D01*
G01X2895885Y640426D01*
G01X2896681Y640312D01*
G01X2897945Y639986D01*
G01X2900047Y639631D01*
G01X2900672Y639474D01*
G01X2901184Y639289D01*
G01X2901759Y638966D01*
G01X2902157Y638767D01*
G01X2902860Y638523D01*
G01X2903939Y638267D01*
G01X2904422Y638111D01*
G01X2904848Y637926D01*
G01X2905395Y637599D01*
G01X2906248Y637145D01*
G01X2908059Y636349D01*
G01X2908854Y635895D01*
G01X2911809Y634020D01*
G01X2912945Y633167D01*
G01X2913485Y632741D01*
G01X2914763Y631804D01*
G01X2915388Y631293D01*
G01X2916141Y630341D01*
G01X2916709Y629773D01*
G01X2917661Y629020D01*
G01X2918414Y628068D01*
G01X2918982Y627500D01*
G01X2919934Y626747D01*
G01X2920445Y626122D01*
G01X2921127Y625227D01*
G01X2921567Y624744D01*
G01X2921752Y624474D01*
G01X2921908Y624176D01*
G01X2922178Y623522D01*
G01X2922377Y623224D01*
G01X2922633Y622954D01*
G01X2922945Y622713D01*
G01X2923272Y622443D01*
G01X2923570Y622088D01*
G01X2923840Y621648D01*
G01X2924309Y620596D01*
G01X2924763Y619801D01*
G01X2925218Y619261D01*
G01X2925445Y618906D01*
G01X2925900Y617940D01*
G01X2926922Y615380D01*
G01X2927718Y613167D01*
G01X2928627Y610213D01*
G01X2929309Y607940D01*
G01X2929479Y607201D01*
G01X2929550Y605909D01*
G01X2929664Y605114D01*
G01X2929777Y604711D01*
G01X2929910Y603417D01*
G01X2929991Y598622D01*
G01X2929902Y593668D01*
G01X2929817Y592731D01*
G01X2929593Y591747D01*
G01X2929522Y590454D01*
G01X2929408Y589659D01*
G01X2929082Y588395D01*
G01X2928652Y585934D01*
G01X2928481Y585309D01*
G01X2927959Y584062D01*
G01X2927618Y583040D01*
G01X2927363Y581946D01*
G01X2927206Y581463D01*
G01X2927022Y581037D01*
G01X2926695Y580490D01*
G01X2926241Y579638D01*
G01X2925445Y577827D01*
G01X2925218Y577400D01*
G01X2924536Y576292D01*
G01X2923961Y575209D01*
G01X2923336Y574215D01*
G01X2922718Y573395D01*
G01X2921670Y571974D01*
G01X2920786Y570596D01*
G01X2920445Y570156D01*
G01X2920104Y569801D01*
G01X2919763Y569531D01*
G01X2919138Y569020D01*
G01X2918385Y568068D01*
G01X2917817Y567500D01*
G01X2916866Y566747D01*
G01X2916113Y565795D01*
G01X2915545Y565227D01*
G01X2914848Y564730D01*
G01X2913400Y563622D01*
G01X2911979Y562574D01*
G01X2911127Y562031D01*
G01X2908854Y560667D01*
G01X2908034Y560188D01*
G01X2906809Y559531D01*
G01X2906340Y559304D01*
G01X2904476Y558508D01*
G01X2902263Y557713D01*
G01X2900218Y557031D01*
G01X2899309Y556804D01*
G01X2897207Y556463D01*
G01X2896070Y556236D01*
G01X2895581Y556095D01*
G01X2894937Y555984D01*
G01X2894199Y555927D01*
G01X2892718Y555895D01*
G01X2890843Y555838D01*
G01X2890204Y555767D01*
G01X2889437Y555582D01*
G01X2889138Y555554D01*
G01X2888868Y555582D01*
G01X2888627Y555667D01*
G01X2888188Y555787D01*
G01X2887437Y555863D01*
G01X2885623Y555898D01*
G01X2883748Y555984D01*
G01X2882491Y556122D01*
G01X2879763Y556576D01*
G01X2878740Y556804D01*
G01X2877150Y557258D01*
G01X2875587Y557613D01*
G01X2875104Y557770D01*
G01X2874678Y557954D01*
G01X2874128Y558281D01*
G01X2873190Y558736D01*
G01X2871070Y559531D01*
G01X2870601Y559758D01*
G01X2869479Y560440D01*
G01X2868172Y561136D01*
G01X2867491Y561552D01*
G01X2866095Y562542D01*
G01X2863797Y564020D01*
G01X2862931Y564744D01*
G01X2862661Y564929D01*
G01X2862363Y565085D01*
G01X2861709Y565355D01*
G01X2861411Y565554D01*
G01X2861141Y565810D01*
G01X2860775Y566292D01*
G01X2860463Y566633D01*
G01X2859834Y567145D01*
G01X2859309Y567486D01*
G01X2858172Y568167D01*
G01X2858172Y558395D01*
G01X2858268Y552343D01*
G01X2858439Y549730D01*
G01X2858556Y548849D01*
G01X2858694Y548253D01*
G01X2858854Y547940D01*
G01X2859429Y547461D01*
G01X2860133Y547045D01*
G01X2861695Y546349D01*
G01X2862668Y545781D01*
G01X2863520Y545326D01*
G01X2864309Y544986D01*
G01X2866869Y543963D01*
G01X2869081Y543167D01*
G01X2873854Y541576D01*
G01X2874763Y541349D01*
G01X2876865Y541008D01*
G01X2878002Y540781D01*
G01X2879138Y540497D01*
G01X2880431Y540426D01*
G01X2881226Y540312D01*
G01X2881761Y540172D01*
G01X2882924Y540074D01*
G01X2888854Y539986D01*
G01X2894873Y540074D01*
G01X2896038Y540160D01*
G01X2896038Y540160D01*
G01X2896354Y540213D01*
G01X2898400Y540667D01*
G01X2900672Y541122D01*
G01X2901695Y541349D01*
G01X2903343Y541804D01*
G01X2905218Y542159D01*
G01X2906241Y542404D01*
G01X2907601Y542827D01*
G01X2909763Y543622D01*
G01X2912036Y544531D01*
G01X2913059Y544986D01*
G01X2914032Y545554D01*
G01X2914884Y546008D01*
G01X2916695Y546804D01*
G01X2917121Y547031D01*
G01X2918229Y547713D01*
G01X2919536Y548409D01*
G01X2920218Y548824D01*
G01X2920900Y549304D01*
G01X2922860Y550696D01*
G01X2924849Y552230D01*
G01X2926454Y553409D01*
G01X2927022Y553977D01*
G01X2927505Y554616D01*
G01X2927775Y554872D01*
G01X2928073Y555071D01*
G01X2928726Y555355D01*
G01X2929025Y555554D01*
G01X2929295Y555810D01*
G01X2929777Y556449D01*
G01X2930346Y557017D01*
G01X2930843Y557383D01*
G01X2931184Y557695D01*
G01X2931695Y558324D01*
G01X2932377Y559375D01*
G01X2932718Y559815D01*
G01X2933059Y560170D01*
G01X2933726Y560682D01*
G01X2934295Y561250D01*
G01X2934792Y561946D01*
G01X2936326Y563935D01*
G01X2937263Y565213D01*
G01X2938400Y567031D01*
G01X2939763Y569304D01*
G01X2941013Y571299D01*
G01X2941468Y572152D01*
G01X2942150Y573761D01*
G01X2942931Y575440D01*
G01X2943272Y576349D01*
G01X2943684Y577713D01*
G01X2944295Y579091D01*
G01X2944635Y580114D01*
G01X2944891Y581264D01*
G01X2945445Y583395D01*
G01X2946127Y585668D01*
G01X2946297Y586406D01*
G01X2946369Y587699D01*
G01X2946482Y588494D01*
G01X2946681Y589218D01*
G01X2946794Y590128D01*
G01X2946866Y591690D01*
G01X2947036Y592486D01*
G01X2947113Y592837D01*
G01X2947206Y593849D01*
G01X2947263Y596577D01*
G01X2947174Y600305D01*
G01X2947036Y602031D01*
G01X2946581Y605667D01*
G01X2946127Y608395D01*
G01X2945672Y610667D01*
G01X2945445Y611690D01*
G01X2944991Y613338D01*
G01X2944635Y615184D01*
G01X2944479Y615781D01*
G01X2944295Y616321D01*
G01X2943684Y617713D01*
G01X2943272Y619062D01*
G01X2942931Y619858D01*
G01X2942604Y620394D01*
G01X2942150Y621331D01*
G01X2941581Y622883D01*
G01X2941354Y623395D01*
G01X2941127Y623792D01*
G01X2940786Y624201D01*
G01X2940559Y624513D01*
G01X2940218Y625142D01*
G01X2939536Y626690D01*
G01X2939309Y627116D01*
G01X2937263Y630383D01*
G01X2935445Y632940D01*
G01X2934763Y633835D01*
G01X2934082Y634588D01*
G01X2933400Y635540D01*
G01X2932490Y636591D01*
G01X2931809Y637486D01*
G01X2931297Y638111D01*
G01X2930346Y638863D01*
G01X2929777Y639432D01*
G01X2929025Y640383D01*
G01X2928073Y641136D01*
G01X2927505Y641704D01*
G01X2926752Y642656D01*
G01X2926127Y643167D01*
G01X2925232Y643849D01*
G01X2924479Y644531D01*
G01X2923528Y645213D01*
G01X2922594Y646012D01*
G01X2921883Y646552D01*
G01X2920161Y647656D01*
G01X2919806Y647926D01*
G01X2919266Y648395D01*
G01X2918911Y648622D01*
G01X2917391Y649318D01*
G01X2916866Y649588D01*
G01X2916368Y649886D01*
G01X2915431Y650540D01*
G01X2914934Y650838D01*
G01X2914408Y651108D01*
G01X2913034Y651690D01*
G01X2911354Y652471D01*
G01X2910445Y652812D01*
G01X2909082Y653224D01*
G01X2907689Y653835D01*
G01X2907150Y654020D01*
G01X2906553Y654176D01*
G01X2905246Y654432D01*
G01X2904650Y654588D01*
G01X2904110Y654773D01*
G01X2903389Y655096D01*
G01X2902547Y655383D01*
G01X2901880Y655540D01*
G01X2900388Y655781D01*
G01X2899252Y656008D01*
G01X2898116Y656292D01*
G01X2896823Y656363D01*
G01X2896027Y656477D01*
G01X2895625Y656590D01*
G01X2894293Y656724D01*
G01X2889309Y656804D01*
G01X2883215Y656696D01*
G01X2881581Y656576D01*
G01X2879763Y656349D01*
G01X2878400Y656122D01*
G01X2876127Y655667D01*
G01X2875104Y655440D01*
G01X2873513Y654986D01*
G01X2871297Y654474D01*
G01X2869990Y654077D01*
G01X2868464Y653508D01*
G01X2866695Y652713D01*
G01X2865445Y652258D01*
G01X2864252Y651804D01*
G01X2863783Y651576D01*
G01X2863222Y651236D01*
G01X2862370Y650781D01*
G01X2861013Y650199D01*
G01X2860161Y649783D01*
G01X2859309Y649304D01*
G01X2858172Y648622D01*
G01X2796943Y648622D01*
G01X2796695Y649027D01*
G01X2796241Y649879D01*
G01X2795445Y651690D01*
G01X2794877Y652667D01*
G01X2794422Y653604D01*
G01X2793627Y655724D01*
G01X2793400Y656193D01*
G01X2793059Y656754D01*
G01X2792604Y657606D01*
G01X2791922Y659215D01*
G01X2791354Y660440D01*
G01X2790957Y661008D01*
G01X2790672Y660895D01*
G01X2790388Y660383D01*
G01X2789877Y659581D01*
G01X2789422Y658729D01*
G01X2789082Y657940D01*
G01X2788172Y655667D01*
G01X2787718Y654645D01*
G01X2787263Y653849D01*
G01X2786866Y653111D01*
G01X2786454Y651818D01*
G01X2786113Y651022D01*
G01X2785786Y650490D01*
G01X2785331Y649638D01*
G01X2784991Y648849D01*
G01X2784082Y646576D01*
G01X2783627Y645554D01*
G01X2783059Y644577D01*
G01X2782604Y643640D01*
G01X2781809Y641520D01*
G01X2781581Y641051D01*
G01X2780957Y639929D01*
G01X2780545Y638636D01*
G01X2780204Y637841D01*
G01X2779877Y637308D01*
G01X2779422Y636456D01*
G01X2779082Y635667D01*
G01X2778172Y633395D01*
G01X2777718Y632372D01*
G01X2777263Y631576D01*
G01X2776866Y630838D01*
G01X2776454Y629545D01*
G01X2776113Y628750D01*
G01X2775786Y628217D01*
G01X2775332Y627365D01*
G01X2774991Y626577D01*
G01X2774082Y624304D01*
G01X2773627Y623281D01*
G01X2773059Y622304D01*
G01X2772604Y621367D01*
G01X2771809Y619247D01*
G01X2771581Y618778D01*
G01X2770957Y617656D01*
G01X2770545Y616363D01*
G01X2770204Y615568D01*
G01X2769877Y615035D01*
G01X2769422Y614183D01*
G01X2769082Y613395D01*
G01X2768173Y611122D01*
G01X2767718Y610099D01*
G01X2767263Y609304D01*
G01X2766866Y608565D01*
G01X2766454Y607273D01*
G01X2766113Y606477D01*
G01X2765786Y605944D01*
G01X2765332Y605092D01*
G01X2764991Y604304D01*
G01X2764082Y602031D01*
G01X2763627Y601008D01*
G01X2763059Y600032D01*
G01X2762604Y599094D01*
G01X2761809Y596974D01*
G01X2761581Y596505D01*
G01X2760956Y595383D01*
G01X2760545Y594091D01*
G01X2760204Y593295D01*
G01X2759877Y592762D01*
G01X2759422Y591910D01*
G01X2759082Y591122D01*
G01X2758173Y588849D01*
G01X2757718Y587827D01*
G01X2757263Y587031D01*
G01X2756866Y586292D01*
G01X2756454Y585000D01*
G01X2756113Y584204D01*
G01X2755786Y583672D01*
G01X2755332Y582819D01*
G01X2754991Y582031D01*
G01X2754082Y579758D01*
G01X2753627Y578736D01*
G01X2753172Y577940D01*
G01X2752775Y577201D01*
G01X2752363Y575909D01*
G01X2752022Y575114D01*
G01X2751695Y574581D01*
G01X2751241Y573729D01*
G01X2750900Y572940D01*
G01X2749991Y570667D01*
G01X2749536Y569645D01*
G01X2748968Y568668D01*
G01X2748513Y567731D01*
G01X2747718Y565611D01*
G01X2747491Y565142D01*
G01X2746865Y564020D01*
G01X2746454Y562727D01*
G01X2746113Y561932D01*
G01X2745786Y561399D01*
G01X2745332Y560547D01*
G01X2744991Y559758D01*
G01X2744082Y557486D01*
G01X2743627Y556463D01*
G01X2743059Y555486D01*
G01X2742604Y554549D01*
G01X2741809Y552429D01*
G01X2741582Y551960D01*
G01X2740956Y550838D01*
G01X2740545Y549545D01*
G01X2740204Y548750D01*
G01X2739877Y548217D01*
G01X2739423Y547365D01*
G01X2738741Y545756D01*
G01X2737959Y544077D01*
G01X2737618Y543167D01*
G01X2737263Y541804D01*
G01X2722718Y541804D01*
G01X2722718Y601804D01*
G01X2722462Y658054D01*
G01X2722318Y661569D01*
G01X2722146Y661786D01*
G01X2721890Y661644D01*
G01X2721606Y661360D01*
G01X2720786Y660142D01*
G01X2720445Y659701D01*
G01X2720104Y659346D01*
G01X2719763Y659077D01*
G01X2719138Y658565D01*
G01X2718385Y657614D01*
G01X2717817Y657045D01*
G01X2716866Y656292D01*
G01X2716113Y655341D01*
G01X2715544Y654773D01*
G01X2714593Y654020D01*
G01X2713840Y653068D01*
G01X2713272Y652500D01*
G01X2712618Y652003D01*
G01X2712320Y651690D01*
G01X2712050Y651321D01*
G01X2711567Y650469D01*
G01X2711297Y650099D01*
G01X2710999Y649787D01*
G01X2710673Y649531D01*
G01X2710047Y649020D01*
G01X2709295Y648068D01*
G01X2708726Y647500D01*
G01X2707775Y646747D01*
G01X2707022Y645795D01*
G01X2706454Y645227D01*
G01X2705502Y644474D01*
G01X2704749Y643523D01*
G01X2704181Y642954D01*
G01X2703680Y642589D01*
G01X2703115Y642088D01*
G01X2702704Y641648D01*
G01X2701837Y640582D01*
G01X2700658Y638977D01*
G01X2700090Y638409D01*
G01X2699138Y637656D01*
G01X2698386Y636704D01*
G01X2697817Y636136D01*
G01X2696866Y635383D01*
G01X2696113Y634432D01*
G01X2695545Y633864D01*
G01X2694593Y633111D01*
G01X2693840Y632159D01*
G01X2693272Y631591D01*
G01X2692775Y631225D01*
G01X2692434Y630913D01*
G01X2691922Y630284D01*
G01X2691240Y629233D01*
G01X2690900Y628792D01*
G01X2690559Y628437D01*
G01X2690218Y628167D01*
G01X2689593Y627656D01*
G01X2688840Y626704D01*
G01X2688272Y626136D01*
G01X2687320Y625383D01*
G01X2686567Y624432D01*
G01X2685999Y623864D01*
G01X2685047Y623111D01*
G01X2684295Y622159D01*
G01X2683726Y621591D01*
G01X2683073Y621094D01*
G01X2682775Y620781D01*
G01X2682505Y620412D01*
G01X2682022Y619559D01*
G01X2681752Y619190D01*
G01X2681454Y618878D01*
G01X2681127Y618622D01*
G01X2680502Y618111D01*
G01X2679749Y617159D01*
G01X2679181Y616591D01*
G01X2678229Y615838D01*
G01X2677476Y614886D01*
G01X2676908Y614318D01*
G01X2675957Y613565D01*
G01X2675204Y612613D01*
G01X2674635Y612045D01*
G01X2674135Y611679D01*
G01X2673570Y611179D01*
G01X2673158Y610738D01*
G01X2672292Y609673D01*
G01X2671113Y608068D01*
G01X2670545Y607500D01*
G01X2669593Y606747D01*
G01X2668840Y605795D01*
G01X2668272Y605227D01*
G01X2667320Y604474D01*
G01X2666567Y603522D01*
G01X2665999Y602954D01*
G01X2665048Y602201D01*
G01X2664295Y601250D01*
G01X2663726Y600682D01*
G01X2663087Y600199D01*
G01X2662832Y599929D01*
G01X2662633Y599630D01*
G01X2662348Y598977D01*
G01X2662150Y598679D01*
G01X2661894Y598409D01*
G01X2661581Y598167D01*
G01X2660957Y597656D01*
G01X2660204Y596704D01*
G01X2659636Y596136D01*
G01X2658684Y595383D01*
G01X2657931Y594432D01*
G01X2657363Y593863D01*
G01X2656411Y593110D01*
G01X2655658Y592159D01*
G01X2655090Y591591D01*
G01X2654589Y591225D01*
G01X2654025Y590724D01*
G01X2653613Y590284D01*
G01X2652746Y589218D01*
G01X2651567Y587613D01*
G01X2650999Y587045D01*
G01X2650048Y586292D01*
G01X2649295Y585341D01*
G01X2648726Y584772D01*
G01X2647775Y584020D01*
G01X2647022Y583068D01*
G01X2646454Y582500D01*
G01X2645502Y581747D01*
G01X2644749Y580795D01*
G01X2644181Y580227D01*
G01X2643684Y579861D01*
G01X2643343Y579549D01*
G01X2642832Y578920D01*
G01X2642150Y577883D01*
G01X2641809Y577486D01*
G01X2641468Y577201D01*
G01X2641127Y577031D01*
G01X2641015Y577274D01*
G01X2640930Y577892D01*
G01X2640813Y579604D01*
G01X2640445Y614758D01*
G01X2640245Y653563D01*
G01X2640218Y653849D01*
G01X2639991Y654986D01*
G01X2623173Y654986D01*
G01X2541125Y654986D01*
G01X2540616Y655699D01*
G01X2539082Y658111D01*
G01X2538400Y659077D01*
G01X2537036Y660994D01*
G01X2536364Y661827D01*
G01X2536293Y661645D01*
G01X2536209Y660573D01*
G01X2535900Y617713D01*
G01X2535900Y573167D01*
G01X2523627Y573167D01*
G01X2491809Y573167D01*
G01X2491809Y722258D01*
G01X2979990Y722258D01*
G37*
G36*
G01X2578457Y573793D02*
G01X2578400Y573395D01*
G01X2577505Y573295D01*
G01X2565445Y573167D01*
G01X2552718Y573167D01*
G01X2552718Y591122D01*
G01X2552892Y609318D01*
G01X2552945Y609758D01*
G01X2553229Y610156D01*
G01X2553627Y609985D01*
G01X2554138Y609418D01*
G01X2554763Y608622D01*
G01X2557548Y604726D01*
G01X2559081Y602315D01*
G01X2562548Y597454D01*
G01X2564081Y595042D01*
G01X2567548Y590181D01*
G01X2569025Y587883D01*
G01X2569295Y587528D01*
G01X2569653Y587134D01*
G01X2570193Y586424D01*
G01X2571354Y584588D01*
G01X2572548Y582908D01*
G01X2574025Y580611D01*
G01X2574295Y580256D01*
G01X2574653Y579861D01*
G01X2575193Y579151D01*
G01X2576354Y577315D01*
G01X2577363Y575895D01*
G01X2577800Y575213D01*
G01X2578172Y574531D01*
G01X2578457Y573793D01*
G37*
G36*
G01X2808471Y585838D02*
G01X2808286Y585637D01*
G01X2807623Y585584D01*
G01X2791354Y585440D01*
G01X2774536Y585440D01*
G01X2774891Y586790D01*
G01X2775232Y587585D01*
G01X2775843Y588679D01*
G01X2776255Y589971D01*
G01X2776596Y590767D01*
G01X2776922Y591303D01*
G01X2777377Y592241D01*
G01X2778172Y594361D01*
G01X2778400Y594829D01*
G01X2779025Y595951D01*
G01X2779437Y597244D01*
G01X2779778Y598040D01*
G01X2780388Y599133D01*
G01X2780800Y600426D01*
G01X2781141Y601221D01*
G01X2781468Y601758D01*
G01X2781922Y602695D01*
G01X2782718Y604815D01*
G01X2782945Y605284D01*
G01X2783570Y606406D01*
G01X2783982Y607699D01*
G01X2784323Y608494D01*
G01X2784650Y609030D01*
G01X2785104Y609968D01*
G01X2785900Y612088D01*
G01X2786127Y612557D01*
G01X2786752Y613679D01*
G01X2787164Y614971D01*
G01X2787505Y615767D01*
G01X2787832Y616303D01*
G01X2788286Y617240D01*
G01X2789082Y619361D01*
G01X2789749Y620568D01*
G01X2790090Y621363D01*
G01X2790360Y622216D01*
G01X2790559Y622542D01*
G01X2790814Y622784D01*
G01X2791127Y622940D01*
G01X2791454Y622968D01*
G01X2791752Y622826D01*
G01X2792022Y622514D01*
G01X2792263Y622031D01*
G01X2793172Y619758D01*
G01X2793627Y618736D01*
G01X2794082Y617940D01*
G01X2794479Y617202D01*
G01X2794891Y615909D01*
G01X2795232Y615113D01*
G01X2795559Y614581D01*
G01X2796013Y613728D01*
G01X2796695Y612120D01*
G01X2797490Y610426D01*
G01X2798627Y607826D01*
G01X2799195Y606850D01*
G01X2799650Y605912D01*
G01X2800445Y603792D01*
G01X2800672Y603324D01*
G01X2801013Y602762D01*
G01X2801468Y601910D01*
G01X2801809Y601122D01*
G01X2802718Y598849D01*
G01X2803172Y597826D01*
G01X2803741Y596850D01*
G01X2804195Y595912D01*
G01X2804991Y593792D01*
G01X2805218Y593324D01*
G01X2805559Y592762D01*
G01X2806013Y591910D01*
G01X2806695Y590302D01*
G01X2807491Y588608D01*
G01X2808172Y587031D01*
G01X2808357Y586520D01*
G01X2808456Y586122D01*
G01X2808471Y585838D01*
G37*
G36*
G01X2979996Y422279D02*
G01X2979996Y177733D01*
G01X2491814Y177733D01*
G01X2491814Y275688D01*
G01X2531360Y275688D01*
G01X2531374Y274097D01*
G01X2531488Y271597D01*
G01X2531587Y270688D01*
G01X2532042Y267506D01*
G01X2532169Y266725D01*
G01X2532415Y265606D01*
G01X2532723Y264552D01*
G01X2533633Y261824D01*
G01X2534087Y260631D01*
G01X2534314Y260162D01*
G01X2534655Y259601D01*
G01X2535110Y258749D01*
G01X2535692Y257407D01*
G01X2535962Y256881D01*
G01X2536260Y256384D01*
G01X2537099Y255201D01*
G01X2538292Y253344D01*
G01X2538633Y252904D01*
G01X2538974Y252549D01*
G01X2539314Y252279D01*
G01X2539940Y251767D01*
G01X2540692Y250816D01*
G01X2541260Y250248D01*
G01X2542212Y249495D01*
G01X2542965Y248543D01*
G01X2543533Y247975D01*
G01X2545905Y246270D01*
G01X2546587Y245834D01*
G01X2548121Y245006D01*
G01X2549201Y244339D01*
G01X2549883Y243997D01*
G01X2550905Y243586D01*
G01X2551765Y243078D01*
G01X2552163Y242879D01*
G01X2552866Y242634D01*
G01X2553959Y242378D01*
G01X2554982Y242037D01*
G01X2555934Y241611D01*
G01X2556473Y241426D01*
G01X2557070Y241270D01*
G01X2558363Y241029D01*
G01X2559386Y240802D01*
G01X2559947Y240635D01*
G01X2560564Y240517D01*
G01X2562127Y240446D01*
G01X2563036Y240333D01*
G01X2563622Y240180D01*
G01X2564826Y240063D01*
G01X2567724Y240006D01*
G01X2570099Y240038D01*
G01X2571772Y240134D01*
G01X2571772Y240134D01*
G01X2572496Y240233D01*
G01X2573519Y240461D01*
G01X2574669Y240787D01*
G01X2575465Y240901D01*
G01X2576683Y240979D01*
G01X2577308Y241093D01*
G01X2578405Y241370D01*
G01X2581360Y242279D01*
G01X2582887Y242847D01*
G01X2584101Y243415D01*
G01X2586204Y244324D01*
G01X2586999Y244779D01*
G01X2587525Y245219D01*
G01X2587837Y245404D01*
G01X2588206Y245560D01*
G01X2589059Y245830D01*
G01X2589428Y246029D01*
G01X2589741Y246284D01*
G01X2590238Y246909D01*
G01X2590508Y247165D01*
G01X2590806Y247364D01*
G01X2591459Y247648D01*
G01X2591758Y247847D01*
G01X2592028Y248103D01*
G01X2592510Y248742D01*
G01X2593079Y249310D01*
G01X2593579Y249676D01*
G01X2594144Y250176D01*
G01X2594556Y250617D01*
G01X2595422Y251682D01*
G01X2596587Y253287D01*
G01X2597383Y254218D01*
G01X2597724Y254665D01*
G01X2598633Y256313D01*
G01X2599201Y257229D01*
G01X2599655Y258081D01*
G01X2600110Y259157D01*
G01X2600905Y261370D01*
G01X2601814Y264324D01*
G01X2602496Y266597D01*
G01X2602667Y267336D01*
G01X2602738Y268628D01*
G01X2602851Y269424D01*
G01X2603121Y270517D01*
G01X2603178Y271370D01*
G01X2602978Y271632D01*
G01X2602531Y271809D01*
G01X2601828Y271958D01*
G01X2601003Y272065D01*
G01X2599311Y272190D01*
G01X2594996Y272279D01*
G01X2586814Y272279D01*
G01X2586303Y269949D01*
G01X2585792Y268305D01*
G01X2584996Y266142D01*
G01X2584542Y265120D01*
G01X2583874Y263983D01*
G01X2583533Y263301D01*
G01X2583263Y262634D01*
G01X2583064Y262336D01*
G01X2582809Y262066D01*
G01X2582496Y261824D01*
G01X2581871Y261313D01*
G01X2581118Y260361D01*
G01X2580550Y259793D01*
G01X2579897Y259324D01*
G01X2578963Y258529D01*
G01X2578650Y258301D01*
G01X2578022Y257961D01*
G01X2576473Y257279D01*
G01X2575493Y256714D01*
G01X2575039Y256515D01*
G01X2574144Y256270D01*
G01X2572667Y256029D01*
G01X2571530Y255802D01*
G01X2571041Y255660D01*
G01X2570397Y255549D01*
G01X2569659Y255492D01*
G01X2568178Y255461D01*
G01X2566633Y255492D01*
G01X2565408Y255588D01*
G01X2564769Y255688D01*
G01X2562496Y256142D01*
G01X2561473Y256370D01*
G01X2558860Y257279D01*
G01X2558292Y257520D01*
G01X2557439Y257936D01*
G01X2556587Y258415D01*
G01X2555621Y259040D01*
G01X2555266Y259310D01*
G01X2554485Y260006D01*
G01X2553533Y260702D01*
G01X2552965Y261270D01*
G01X2552496Y261924D01*
G01X2551701Y262854D01*
G01X2551360Y263301D01*
G01X2550451Y264949D01*
G01X2549883Y265869D01*
G01X2549428Y266806D01*
G01X2549087Y267733D01*
G01X2548405Y269779D01*
G01X2548306Y270176D01*
G01X2548210Y270986D01*
G01X2548121Y273415D01*
G01X2548050Y273926D01*
G01X2547866Y274651D01*
G01X2547837Y274949D01*
G01X2547866Y275219D01*
G01X2548004Y275595D01*
G01X2548146Y276561D01*
G01X2548206Y278628D01*
G01X2548292Y279495D01*
G01X2548434Y280333D01*
G01X2548633Y281142D01*
G01X2549542Y284097D01*
G01X2549783Y284750D01*
G01X2550053Y285347D01*
G01X2550351Y285887D01*
G01X2550678Y286370D01*
G01X2552269Y288415D01*
G01X2552738Y288969D01*
G01X2553235Y289495D01*
G01X2553760Y289992D01*
G01X2554314Y290461D01*
G01X2555394Y291256D01*
G01X2556360Y291824D01*
G01X2558178Y292733D01*
G01X2558661Y292946D01*
G01X2559201Y293131D01*
G01X2559797Y293287D01*
G01X2561090Y293529D01*
G01X2562113Y293756D01*
G01X2562922Y293969D01*
G01X2563881Y294065D01*
G01X2565223Y294097D01*
G01X2566928Y294154D01*
G01X2567525Y294225D01*
G01X2567951Y294324D01*
G01X2568320Y294423D01*
G01X2569229Y294537D01*
G01X2570905Y294552D01*
G01X2570905Y301370D01*
G01X2570809Y305588D01*
G01X2570639Y307406D01*
G01X2570522Y308017D01*
G01X2570383Y308429D01*
G01X2570223Y308642D01*
G01X2569755Y308841D01*
G01X2569235Y308953D01*
G01X2568050Y309068D01*
G01X2564599Y309154D01*
G01X2563608Y309271D01*
G01X2563315Y309353D01*
G01X2562382Y309551D01*
G01X2560678Y309779D01*
G01X2559336Y309981D01*
G01X2558654Y310152D01*
G01X2558142Y310351D01*
G01X2557773Y310574D01*
G01X2556921Y311029D01*
G01X2555607Y311611D01*
G01X2555167Y311881D01*
G01X2554812Y312179D01*
G01X2554300Y312833D01*
G01X2553732Y313401D01*
G01X2553235Y313767D01*
G01X2552894Y314079D01*
G01X2552383Y314708D01*
G01X2552042Y315233D01*
G01X2551562Y316054D01*
G01X2550905Y317279D01*
G01X2550692Y317748D01*
G01X2550351Y318770D01*
G01X2549996Y320347D01*
G01X2549670Y321568D01*
G01X2549574Y322527D01*
G01X2549542Y323870D01*
G01X2549574Y325276D01*
G01X2549670Y326426D01*
G01X2549769Y327052D01*
G01X2550224Y329324D01*
G01X2550351Y329892D01*
G01X2550596Y330745D01*
G01X2550905Y331597D01*
G01X2551360Y332620D01*
G01X2552951Y335233D01*
G01X2553320Y335787D01*
G01X2553746Y336313D01*
G01X2554229Y336810D01*
G01X2554769Y337279D01*
G01X2555309Y337705D01*
G01X2556587Y338642D01*
G01X2558348Y339779D01*
G01X2559158Y340120D01*
G01X2560223Y340460D01*
G01X2562824Y341220D01*
G01X2563911Y341326D01*
G01X2565905Y341370D01*
G01X2566569Y341366D01*
G01X2568871Y341281D01*
G01X2570223Y341142D01*
G01X2571005Y341014D01*
G01X2572123Y340770D01*
G01X2573178Y340460D01*
G01X2574705Y339892D01*
G01X2575451Y339551D01*
G01X2575905Y339310D01*
G01X2576587Y338895D01*
G01X2577269Y338415D01*
G01X2578064Y337790D01*
G01X2578633Y337279D01*
G01X2578860Y337037D01*
G01X2579542Y336142D01*
G01X2580564Y334601D01*
G01X2581019Y333749D01*
G01X2581474Y332673D01*
G01X2582269Y330461D01*
G01X2583178Y327506D01*
G01X2583633Y325915D01*
G01X2591814Y325915D01*
G01X2595394Y325943D01*
G01X2598846Y326093D01*
G01X2599485Y326171D01*
G01X2599868Y326263D01*
G01X2599982Y326640D01*
G01X2599769Y327961D01*
G01X2599187Y330830D01*
G01X2598633Y332961D01*
G01X2597724Y335915D01*
G01X2597155Y337442D01*
G01X2596587Y338657D01*
G01X2595451Y341256D01*
G01X2593860Y343870D01*
G01X2593235Y344836D01*
G01X2592965Y345191D01*
G01X2592606Y345585D01*
G01X2592066Y346295D01*
G01X2591218Y347606D01*
G01X2590792Y348131D01*
G01X2590309Y348628D01*
G01X2589769Y349097D01*
G01X2587496Y350915D01*
G01X2586417Y351711D01*
G01X2585920Y352023D01*
G01X2584599Y352733D01*
G01X2583679Y353301D01*
G01X2582741Y353756D01*
G01X2581814Y354097D01*
G01X2580287Y354665D01*
G01X2579531Y355006D01*
G01X2623178Y355006D01*
G01X2623178Y295915D01*
G01X2623378Y236456D01*
G01X2623405Y236142D01*
G01X2623547Y235887D01*
G01X2624002Y235887D01*
G01X2624314Y236142D01*
G01X2624314Y236142D01*
G01X2624641Y236483D01*
G01X2625209Y237165D01*
G01X2625692Y237833D01*
G01X2626260Y238401D01*
G01X2627212Y239154D01*
G01X2627965Y240105D01*
G01X2628533Y240674D01*
G01X2629485Y241426D01*
G01X2629996Y242051D01*
G01X2630678Y242946D01*
G01X2631360Y243699D01*
G01X2632056Y244651D01*
G01X2632624Y245219D01*
G01X2633576Y245972D01*
G01X2634328Y246924D01*
G01X2634897Y247492D01*
G01X2635848Y248245D01*
G01X2636601Y249196D01*
G01X2637169Y249764D01*
G01X2638121Y250517D01*
G01X2638874Y251469D01*
G01X2639442Y252037D01*
G01X2639939Y252403D01*
G01X2640280Y252715D01*
G01X2640792Y253344D01*
G01X2641474Y254395D01*
G01X2641814Y254836D01*
G01X2642155Y255191D01*
G01X2642496Y255461D01*
G01X2643121Y255972D01*
G01X2643874Y256924D01*
G01X2644442Y257492D01*
G01X2645394Y258245D01*
G01X2646147Y259196D01*
G01X2646715Y259764D01*
G01X2647667Y260517D01*
G01X2648419Y261469D01*
G01X2648988Y262037D01*
G01X2649488Y262403D01*
G01X2650053Y262904D01*
G01X2650465Y263344D01*
G01X2651332Y264409D01*
G01X2652510Y266015D01*
G01X2653079Y266583D01*
G01X2654030Y267336D01*
G01X2654783Y268287D01*
G01X2655351Y268855D01*
G01X2656303Y269608D01*
G01X2657056Y270560D01*
G01X2657624Y271128D01*
G01X2658576Y271881D01*
G01X2659329Y272833D01*
G01X2659897Y273401D01*
G01X2660848Y274154D01*
G01X2661360Y274779D01*
G01X2662042Y275674D01*
G01X2662723Y276427D01*
G01X2663420Y277378D01*
G01X2663988Y277946D01*
G01X2664939Y278699D01*
G01X2665692Y279651D01*
G01X2666260Y280219D01*
G01X2667212Y280972D01*
G01X2667965Y281924D01*
G01X2668533Y282492D01*
G01X2669485Y283245D01*
G01X2670238Y284196D01*
G01X2670806Y284765D01*
G01X2671303Y285130D01*
G01X2671644Y285443D01*
G01X2672155Y286071D01*
G01X2672837Y287123D01*
G01X2673178Y287563D01*
G01X2673519Y287918D01*
G01X2673860Y288188D01*
G01X2674485Y288699D01*
G01X2675238Y289651D01*
G01X2675806Y290219D01*
G01X2676758Y290972D01*
G01X2677511Y291924D01*
G01X2678079Y292492D01*
G01X2679030Y293245D01*
G01X2679783Y294196D01*
G01X2680351Y294765D01*
G01X2680852Y295130D01*
G01X2681417Y295631D01*
G01X2681829Y296071D01*
G01X2682695Y297137D01*
G01X2683874Y298742D01*
G01X2684442Y299310D01*
G01X2685394Y300063D01*
G01X2686147Y301015D01*
G01X2686715Y301583D01*
G01X2687667Y302336D01*
G01X2688420Y303287D01*
G01X2688988Y303856D01*
G01X2689940Y304608D01*
G01X2690692Y305560D01*
G01X2691260Y306128D01*
G01X2692212Y306881D01*
G01X2692724Y307506D01*
G01X2693405Y308401D01*
G01X2694087Y309154D01*
G01X2694783Y310105D01*
G01X2695351Y310674D01*
G01X2696303Y311427D01*
G01X2697056Y312378D01*
G01X2697624Y312946D01*
G01X2698576Y313699D01*
G01X2699329Y314651D01*
G01X2699897Y315219D01*
G01X2700849Y315972D01*
G01X2701601Y316924D01*
G01X2702170Y317492D01*
G01X2702667Y317858D01*
G01X2703008Y318170D01*
G01X2703519Y318799D01*
G01X2704201Y319835D01*
G01X2704542Y320233D01*
G01X2704883Y320517D01*
G01X2705223Y320688D01*
G01X2705331Y320457D01*
G01X2705411Y319879D01*
G01X2705530Y318161D01*
G01X2705905Y281370D01*
G01X2705905Y241824D01*
G01X2722724Y241824D01*
G01X2737269Y241824D01*
G01X2746360Y241824D01*
G01X2751932Y241920D01*
G01X2754261Y242091D01*
G01X2755010Y242208D01*
G01X2755483Y242346D01*
G01X2755962Y243188D01*
G01X2756360Y243870D01*
G01X2756758Y244608D01*
G01X2757169Y245901D01*
G01X2757510Y246696D01*
G01X2758121Y247790D01*
G01X2758533Y249083D01*
G01X2758874Y249878D01*
G01X2759485Y250972D01*
G01X2759897Y252265D01*
G01X2760238Y253060D01*
G01X2760848Y254154D01*
G01X2761260Y255446D01*
G01X2761601Y256242D01*
G01X2761928Y256778D01*
G01X2762383Y257715D01*
G01X2763178Y259836D01*
G01X2763846Y261043D01*
G01X2764186Y261838D01*
G01X2764598Y263131D01*
G01X2765209Y264225D01*
G01X2765550Y265020D01*
G01X2765962Y266313D01*
G01X2766573Y267407D01*
G01X2766914Y268202D01*
G01X2767047Y268656D01*
G01X2767288Y268805D01*
G01X2767620Y268892D01*
G01X2768899Y269072D01*
G01X2771517Y269256D01*
G01X2790678Y269552D01*
G01X2811239Y269463D01*
G01X2814994Y269352D01*
G01X2815735Y269168D01*
G01X2816133Y268926D01*
G01X2816417Y268600D01*
G01X2816587Y268188D01*
G01X2816715Y267747D01*
G01X2817056Y266952D01*
G01X2817382Y266419D01*
G01X2817837Y265567D01*
G01X2818519Y263958D01*
G01X2819314Y262265D01*
G01X2820451Y259665D01*
G01X2820905Y258870D01*
G01X2821303Y258131D01*
G01X2821715Y256838D01*
G01X2822056Y256043D01*
G01X2822382Y255510D01*
G01X2822837Y254658D01*
G01X2823519Y253049D01*
G01X2824314Y251356D01*
G01X2825451Y248756D01*
G01X2825905Y247961D01*
G01X2826303Y247222D01*
G01X2826715Y245929D01*
G01X2827056Y245134D01*
G01X2827382Y244601D01*
G01X2827837Y243749D01*
G01X2828178Y242961D01*
G01X2828633Y241824D01*
G01X2837496Y241824D01*
G01X2841374Y241838D01*
G01X2845806Y241952D01*
G01X2845806Y241952D01*
G01X2846210Y241975D01*
G01X2846331Y242222D01*
G01X2845905Y243415D01*
G01X2845451Y244438D01*
G01X2844883Y245411D01*
G01X2844428Y246263D01*
G01X2844087Y247051D01*
G01X2843178Y249324D01*
G01X2842724Y250347D01*
G01X2842155Y251320D01*
G01X2841701Y252172D01*
G01X2841019Y253781D01*
G01X2840223Y255475D01*
G01X2839087Y258074D01*
G01X2838519Y259047D01*
G01X2838064Y259900D01*
G01X2837723Y260688D01*
G01X2836814Y262961D01*
G01X2836360Y263983D01*
G01X2835792Y264956D01*
G01X2835337Y265809D01*
G01X2834655Y267417D01*
G01X2833860Y269111D01*
G01X2832723Y271711D01*
G01X2832269Y272506D01*
G01X2831871Y273245D01*
G01X2831459Y274537D01*
G01X2831118Y275333D01*
G01X2830792Y275865D01*
G01X2830337Y276718D01*
G01X2829542Y278529D01*
G01X2829087Y279324D01*
G01X2828689Y280063D01*
G01X2828277Y281355D01*
G01X2827936Y282151D01*
G01X2827610Y282684D01*
G01X2827155Y283536D01*
G01X2826360Y285347D01*
G01X2825905Y286142D01*
G01X2825507Y286881D01*
G01X2825096Y288174D01*
G01X2824755Y288969D01*
G01X2824428Y289502D01*
G01X2823974Y290354D01*
G01X2823178Y292165D01*
G01X2822610Y293142D01*
G01X2822155Y294079D01*
G01X2821360Y296199D01*
G01X2821133Y296668D01*
G01X2820792Y297229D01*
G01X2820337Y298081D01*
G01X2819655Y299690D01*
G01X2818860Y301384D01*
G01X2817723Y303983D01*
G01X2817155Y304956D01*
G01X2816701Y305809D01*
G01X2816360Y306597D01*
G01X2815451Y308870D01*
G01X2814996Y309892D01*
G01X2814428Y310865D01*
G01X2813974Y311718D01*
G01X2813292Y313326D01*
G01X2812496Y315020D01*
G01X2811360Y317620D01*
G01X2810792Y318593D01*
G01X2810337Y319445D01*
G01X2809996Y320233D01*
G01X2809087Y322506D01*
G01X2808632Y323529D01*
G01X2808064Y324502D01*
G01X2807610Y325354D01*
G01X2806928Y326963D01*
G01X2806133Y328657D01*
G01X2804996Y331256D01*
G01X2804542Y332052D01*
G01X2804144Y332790D01*
G01X2803732Y334083D01*
G01X2803391Y334878D01*
G01X2803064Y335411D01*
G01X2802610Y336263D01*
G01X2801814Y338074D01*
G01X2801360Y338870D01*
G01X2800962Y339608D01*
G01X2800550Y340901D01*
G01X2800209Y341696D01*
G01X2799883Y342229D01*
G01X2799428Y343081D01*
G01X2798632Y344892D01*
G01X2798178Y345688D01*
G01X2797780Y346426D01*
G01X2797368Y347719D01*
G01X2797027Y348515D01*
G01X2796949Y348642D01*
G01X2858178Y348642D01*
G01X2858178Y338870D01*
G01X2858292Y331597D01*
G01X2858434Y329835D01*
G01X2858507Y329441D01*
G01X2858633Y329324D01*
G01X2858860Y329452D01*
G01X2859314Y329793D01*
G01X2860053Y330461D01*
G01X2862983Y332563D01*
G01X2864314Y333415D01*
G01X2866587Y334779D01*
G01X2868583Y336029D01*
G01X2869435Y336483D01*
G01X2871044Y337165D01*
G01X2873292Y338188D01*
G01X2874542Y338642D01*
G01X2877496Y339551D01*
G01X2879769Y340233D01*
G01X2880508Y340404D01*
G01X2881800Y340475D01*
G01X2882595Y340589D01*
G01X2883185Y340741D01*
G01X2884330Y340843D01*
G01X2888405Y340915D01*
G01X2892773Y340826D01*
G01X2893625Y340741D01*
G01X2894598Y340517D01*
G01X2895891Y340446D01*
G01X2896686Y340333D01*
G01X2897951Y340006D01*
G01X2900053Y339651D01*
G01X2900678Y339495D01*
G01X2901189Y339310D01*
G01X2901765Y338987D01*
G01X2902162Y338788D01*
G01X2902865Y338543D01*
G01X2903945Y338287D01*
G01X2904428Y338131D01*
G01X2904854Y337946D01*
G01X2905401Y337620D01*
G01X2906253Y337165D01*
G01X2908064Y336370D01*
G01X2908860Y335915D01*
G01X2911814Y334040D01*
G01X2912951Y333188D01*
G01X2913490Y332762D01*
G01X2914769Y331824D01*
G01X2915394Y331313D01*
G01X2916147Y330361D01*
G01X2916715Y329793D01*
G01X2917667Y329040D01*
G01X2918419Y328088D01*
G01X2918988Y327520D01*
G01X2919939Y326767D01*
G01X2920451Y326142D01*
G01X2921133Y325247D01*
G01X2921573Y324765D01*
G01X2921757Y324495D01*
G01X2921914Y324196D01*
G01X2922184Y323543D01*
G01X2922383Y323245D01*
G01X2922638Y322975D01*
G01X2922951Y322733D01*
G01X2923277Y322463D01*
G01X2923576Y322108D01*
G01X2923846Y321668D01*
G01X2924314Y320617D01*
G01X2924769Y319821D01*
G01X2925224Y319281D01*
G01X2925451Y318926D01*
G01X2925905Y317961D01*
G01X2926928Y315400D01*
G01X2927723Y313188D01*
G01X2928632Y310233D01*
G01X2929314Y307960D01*
G01X2929485Y307222D01*
G01X2929556Y305929D01*
G01X2929670Y305134D01*
G01X2929783Y304732D01*
G01X2929916Y303437D01*
G01X2929996Y298642D01*
G01X2929907Y293688D01*
G01X2929822Y292751D01*
G01X2929598Y291767D01*
G01X2929527Y290475D01*
G01X2929414Y289679D01*
G01X2929087Y288415D01*
G01X2928657Y285954D01*
G01X2928487Y285329D01*
G01X2927965Y284083D01*
G01X2927624Y283060D01*
G01X2927368Y281966D01*
G01X2927212Y281483D01*
G01X2927027Y281057D01*
G01X2926701Y280510D01*
G01X2926246Y279658D01*
G01X2925451Y277847D01*
G01X2925224Y277421D01*
G01X2924542Y276313D01*
G01X2923966Y275230D01*
G01X2923341Y274235D01*
G01X2922723Y273415D01*
G01X2921676Y271995D01*
G01X2920791Y270617D01*
G01X2920451Y270176D01*
G01X2920110Y269821D01*
G01X2919769Y269552D01*
G01X2919144Y269040D01*
G01X2918391Y268089D01*
G01X2917823Y267520D01*
G01X2916871Y266767D01*
G01X2916118Y265816D01*
G01X2915550Y265248D01*
G01X2914854Y264750D01*
G01X2913405Y263642D01*
G01X2911985Y262595D01*
G01X2911133Y262051D01*
G01X2908860Y260688D01*
G01X2908039Y260208D01*
G01X2906814Y259552D01*
G01X2906345Y259324D01*
G01X2904481Y258529D01*
G01X2902269Y257733D01*
G01X2900223Y257051D01*
G01X2899314Y256824D01*
G01X2897212Y256483D01*
G01X2896076Y256256D01*
G01X2895587Y256115D01*
G01X2894943Y256004D01*
G01X2894204Y255947D01*
G01X2892723Y255915D01*
G01X2890848Y255858D01*
G01X2890209Y255787D01*
G01X2889442Y255603D01*
G01X2889144Y255574D01*
G01X2888874Y255603D01*
G01X2888633Y255688D01*
G01X2888193Y255808D01*
G01X2887443Y255883D01*
G01X2885628Y255919D01*
G01X2883753Y256004D01*
G01X2882496Y256142D01*
G01X2879769Y256597D01*
G01X2878746Y256824D01*
G01X2877155Y257279D01*
G01X2875593Y257634D01*
G01X2875110Y257790D01*
G01X2874684Y257975D01*
G01X2874133Y258301D01*
G01X2873196Y258756D01*
G01X2871076Y259552D01*
G01X2870607Y259779D01*
G01X2869485Y260461D01*
G01X2868178Y261157D01*
G01X2867496Y261572D01*
G01X2866100Y262563D01*
G01X2863803Y264040D01*
G01X2862937Y264764D01*
G01X2862667Y264949D01*
G01X2862368Y265106D01*
G01X2861715Y265375D01*
G01X2861417Y265574D01*
G01X2861147Y265830D01*
G01X2860781Y266313D01*
G01X2860468Y266654D01*
G01X2859840Y267165D01*
G01X2859314Y267506D01*
G01X2858178Y268188D01*
G01X2858178Y258415D01*
G01X2858274Y252364D01*
G01X2858444Y249750D01*
G01X2858561Y248870D01*
G01X2858700Y248273D01*
G01X2858860Y247961D01*
G01X2859435Y247481D01*
G01X2860138Y247066D01*
G01X2861701Y246370D01*
G01X2862674Y245802D01*
G01X2863526Y245347D01*
G01X2864314Y245006D01*
G01X2866875Y243983D01*
G01X2869087Y243188D01*
G01X2873860Y241597D01*
G01X2874769Y241370D01*
G01X2876871Y241029D01*
G01X2878007Y240802D01*
G01X2879144Y240517D01*
G01X2880436Y240446D01*
G01X2881232Y240333D01*
G01X2881767Y240193D01*
G01X2882929Y240095D01*
G01X2888860Y240006D01*
G01X2894879Y240095D01*
G01X2896044Y240180D01*
G01X2896044Y240180D01*
G01X2896360Y240233D01*
G01X2898405Y240688D01*
G01X2900678Y241142D01*
G01X2901701Y241370D01*
G01X2903349Y241824D01*
G01X2905223Y242179D01*
G01X2906246Y242424D01*
G01X2907606Y242847D01*
G01X2909769Y243642D01*
G01X2912042Y244551D01*
G01X2913064Y245006D01*
G01X2914037Y245574D01*
G01X2914890Y246029D01*
G01X2916701Y246824D01*
G01X2917127Y247051D01*
G01X2918235Y247733D01*
G01X2919542Y248429D01*
G01X2920224Y248845D01*
G01X2920905Y249324D01*
G01X2922865Y250716D01*
G01X2924854Y252250D01*
G01X2926459Y253429D01*
G01X2927027Y253998D01*
G01X2927510Y254637D01*
G01X2927780Y254892D01*
G01X2928078Y255091D01*
G01X2928732Y255375D01*
G01X2929030Y255574D01*
G01X2929300Y255830D01*
G01X2929783Y256469D01*
G01X2930351Y257037D01*
G01X2930848Y257403D01*
G01X2931189Y257715D01*
G01X2931701Y258344D01*
G01X2932383Y259395D01*
G01X2932723Y259836D01*
G01X2933064Y260191D01*
G01X2933732Y260702D01*
G01X2934300Y261270D01*
G01X2934797Y261966D01*
G01X2936331Y263955D01*
G01X2937269Y265233D01*
G01X2938405Y267051D01*
G01X2939769Y269324D01*
G01X2941019Y271320D01*
G01X2941473Y272172D01*
G01X2942155Y273781D01*
G01X2942936Y275461D01*
G01X2943277Y276370D01*
G01X2943689Y277733D01*
G01X2944300Y279111D01*
G01X2944641Y280134D01*
G01X2944897Y281284D01*
G01X2945451Y283415D01*
G01X2946133Y285688D01*
G01X2946303Y286427D01*
G01X2946374Y287719D01*
G01X2946488Y288514D01*
G01X2946687Y289239D01*
G01X2946800Y290148D01*
G01X2946871Y291711D01*
G01X2947042Y292506D01*
G01X2947119Y292858D01*
G01X2947212Y293870D01*
G01X2947269Y296597D01*
G01X2947180Y300326D01*
G01X2947042Y302051D01*
G01X2946587Y305688D01*
G01X2946133Y308415D01*
G01X2945678Y310688D01*
G01X2945451Y311710D01*
G01X2944996Y313358D01*
G01X2944641Y315205D01*
G01X2944485Y315801D01*
G01X2944300Y316341D01*
G01X2943689Y317733D01*
G01X2943277Y319083D01*
G01X2942936Y319878D01*
G01X2942610Y320414D01*
G01X2942155Y321352D01*
G01X2941587Y322904D01*
G01X2941360Y323415D01*
G01X2941133Y323813D01*
G01X2940792Y324221D01*
G01X2940564Y324534D01*
G01X2940223Y325162D01*
G01X2939541Y326710D01*
G01X2939314Y327137D01*
G01X2937269Y330404D01*
G01X2935451Y332961D01*
G01X2934769Y333855D01*
G01X2934087Y334608D01*
G01X2933405Y335560D01*
G01X2932496Y336611D01*
G01X2931814Y337506D01*
G01X2931303Y338131D01*
G01X2930351Y338884D01*
G01X2929783Y339452D01*
G01X2929030Y340404D01*
G01X2928078Y341156D01*
G01X2927510Y341725D01*
G01X2926757Y342676D01*
G01X2926133Y343188D01*
G01X2925237Y343870D01*
G01X2924485Y344551D01*
G01X2923533Y345233D01*
G01X2922599Y346032D01*
G01X2921889Y346572D01*
G01X2920167Y347676D01*
G01X2919812Y347946D01*
G01X2919272Y348415D01*
G01X2918917Y348642D01*
G01X2917397Y349338D01*
G01X2916871Y349608D01*
G01X2916374Y349906D01*
G01X2915436Y350560D01*
G01X2914939Y350858D01*
G01X2914414Y351128D01*
G01X2913039Y351711D01*
G01X2911360Y352492D01*
G01X2910451Y352833D01*
G01X2909087Y353245D01*
G01X2907695Y353855D01*
G01X2907155Y354040D01*
G01X2906559Y354196D01*
G01X2905252Y354452D01*
G01X2904655Y354608D01*
G01X2904115Y354793D01*
G01X2903394Y355116D01*
G01X2902553Y355404D01*
G01X2901885Y355560D01*
G01X2900394Y355801D01*
G01X2899258Y356029D01*
G01X2898121Y356313D01*
G01X2896829Y356384D01*
G01X2896033Y356498D01*
G01X2895630Y356611D01*
G01X2894299Y356744D01*
G01X2889314Y356824D01*
G01X2883221Y356717D01*
G01X2881587Y356597D01*
G01X2879769Y356370D01*
G01X2878405Y356142D01*
G01X2876132Y355688D01*
G01X2875110Y355460D01*
G01X2873519Y355006D01*
G01X2871303Y354495D01*
G01X2869996Y354097D01*
G01X2868469Y353529D01*
G01X2866701Y352733D01*
G01X2865451Y352279D01*
G01X2864257Y351824D01*
G01X2863789Y351597D01*
G01X2863228Y351256D01*
G01X2862376Y350801D01*
G01X2861019Y350219D01*
G01X2860166Y349804D01*
G01X2859314Y349324D01*
G01X2858178Y348642D01*
G01X2796949Y348642D01*
G01X2796701Y349047D01*
G01X2796246Y349899D01*
G01X2795451Y351711D01*
G01X2794883Y352687D01*
G01X2794428Y353625D01*
G01X2793632Y355745D01*
G01X2793405Y356213D01*
G01X2793064Y356774D01*
G01X2792610Y357627D01*
G01X2791928Y359235D01*
G01X2791360Y360460D01*
G01X2790962Y361029D01*
G01X2790678Y360915D01*
G01X2790394Y360404D01*
G01X2789883Y359601D01*
G01X2789428Y358749D01*
G01X2789087Y357961D01*
G01X2788178Y355688D01*
G01X2787723Y354665D01*
G01X2787269Y353870D01*
G01X2786871Y353131D01*
G01X2786459Y351838D01*
G01X2786118Y351043D01*
G01X2785792Y350510D01*
G01X2785337Y349658D01*
G01X2784996Y348870D01*
G01X2784087Y346597D01*
G01X2783632Y345574D01*
G01X2783064Y344598D01*
G01X2782610Y343660D01*
G01X2781814Y341540D01*
G01X2781587Y341071D01*
G01X2780962Y339949D01*
G01X2780550Y338657D01*
G01X2780209Y337861D01*
G01X2779882Y337328D01*
G01X2779428Y336476D01*
G01X2779087Y335688D01*
G01X2778178Y333415D01*
G01X2777723Y332392D01*
G01X2777269Y331597D01*
G01X2776871Y330858D01*
G01X2776459Y329566D01*
G01X2776118Y328770D01*
G01X2775792Y328238D01*
G01X2775337Y327385D01*
G01X2774996Y326597D01*
G01X2774087Y324324D01*
G01X2773633Y323302D01*
G01X2773064Y322325D01*
G01X2772610Y321387D01*
G01X2771814Y319267D01*
G01X2771587Y318799D01*
G01X2770962Y317676D01*
G01X2770550Y316384D01*
G01X2770209Y315588D01*
G01X2769882Y315056D01*
G01X2769428Y314203D01*
G01X2769087Y313415D01*
G01X2768178Y311142D01*
G01X2767723Y310120D01*
G01X2767269Y309324D01*
G01X2766871Y308586D01*
G01X2766459Y307293D01*
G01X2766118Y306497D01*
G01X2765792Y305965D01*
G01X2765337Y305113D01*
G01X2764996Y304324D01*
G01X2764087Y302051D01*
G01X2763633Y301029D01*
G01X2763064Y300052D01*
G01X2762610Y299115D01*
G01X2761814Y296995D01*
G01X2761587Y296526D01*
G01X2760962Y295404D01*
G01X2760550Y294111D01*
G01X2760209Y293316D01*
G01X2759882Y292783D01*
G01X2759428Y291931D01*
G01X2759087Y291142D01*
G01X2758178Y288870D01*
G01X2757723Y287847D01*
G01X2757269Y287051D01*
G01X2756871Y286313D01*
G01X2756459Y285020D01*
G01X2756118Y284225D01*
G01X2755792Y283692D01*
G01X2755337Y282840D01*
G01X2754996Y282051D01*
G01X2754087Y279779D01*
G01X2753633Y278756D01*
G01X2753178Y277960D01*
G01X2752780Y277222D01*
G01X2752368Y275929D01*
G01X2752028Y275134D01*
G01X2751701Y274601D01*
G01X2751246Y273749D01*
G01X2750905Y272960D01*
G01X2749996Y270688D01*
G01X2749542Y269665D01*
G01X2748973Y268688D01*
G01X2748519Y267751D01*
G01X2747723Y265631D01*
G01X2747496Y265162D01*
G01X2746871Y264040D01*
G01X2746459Y262747D01*
G01X2746118Y261952D01*
G01X2745792Y261419D01*
G01X2745337Y260567D01*
G01X2744996Y259779D01*
G01X2744087Y257506D01*
G01X2743633Y256483D01*
G01X2743064Y255507D01*
G01X2742610Y254569D01*
G01X2741814Y252449D01*
G01X2741587Y251980D01*
G01X2740962Y250858D01*
G01X2740550Y249566D01*
G01X2740209Y248770D01*
G01X2739883Y248238D01*
G01X2739428Y247385D01*
G01X2738746Y245777D01*
G01X2737965Y244097D01*
G01X2737624Y243188D01*
G01X2737269Y241824D01*
G01X2722724Y241824D01*
G01X2722724Y301824D01*
G01X2722468Y358074D01*
G01X2722324Y361590D01*
G01X2722152Y361806D01*
G01X2721896Y361664D01*
G01X2721612Y361380D01*
G01X2720792Y360162D01*
G01X2720451Y359722D01*
G01X2720110Y359367D01*
G01X2719769Y359097D01*
G01X2719144Y358585D01*
G01X2718391Y357634D01*
G01X2717823Y357066D01*
G01X2716871Y356313D01*
G01X2716118Y355361D01*
G01X2715550Y354793D01*
G01X2714599Y354040D01*
G01X2713846Y353088D01*
G01X2713278Y352520D01*
G01X2712624Y352023D01*
G01X2712326Y351711D01*
G01X2712056Y351341D01*
G01X2711573Y350489D01*
G01X2711303Y350120D01*
G01X2711005Y349807D01*
G01X2710678Y349551D01*
G01X2710053Y349040D01*
G01X2709300Y348088D01*
G01X2708732Y347520D01*
G01X2707780Y346767D01*
G01X2707027Y345816D01*
G01X2706459Y345247D01*
G01X2705508Y344495D01*
G01X2704755Y343543D01*
G01X2704187Y342975D01*
G01X2703686Y342609D01*
G01X2703121Y342108D01*
G01X2702709Y341668D01*
G01X2701843Y340602D01*
G01X2700664Y338997D01*
G01X2700096Y338429D01*
G01X2699144Y337676D01*
G01X2698391Y336725D01*
G01X2697823Y336156D01*
G01X2696871Y335404D01*
G01X2696118Y334452D01*
G01X2695550Y333884D01*
G01X2694598Y333131D01*
G01X2693846Y332179D01*
G01X2693278Y331611D01*
G01X2692780Y331245D01*
G01X2692439Y330933D01*
G01X2691928Y330304D01*
G01X2691246Y329253D01*
G01X2690905Y328813D01*
G01X2690564Y328458D01*
G01X2690223Y328188D01*
G01X2689598Y327676D01*
G01X2688846Y326725D01*
G01X2688278Y326156D01*
G01X2687326Y325404D01*
G01X2686573Y324452D01*
G01X2686005Y323884D01*
G01X2685053Y323131D01*
G01X2684300Y322179D01*
G01X2683732Y321611D01*
G01X2683079Y321114D01*
G01X2682780Y320801D01*
G01X2682511Y320432D01*
G01X2682027Y319580D01*
G01X2681758Y319211D01*
G01X2681459Y318898D01*
G01X2681133Y318642D01*
G01X2680507Y318131D01*
G01X2679755Y317179D01*
G01X2679187Y316611D01*
G01X2678235Y315858D01*
G01X2677482Y314907D01*
G01X2676914Y314338D01*
G01X2675962Y313586D01*
G01X2675209Y312634D01*
G01X2674641Y312066D01*
G01X2674140Y311700D01*
G01X2673576Y311199D01*
G01X2673164Y310759D01*
G01X2672297Y309693D01*
G01X2671118Y308088D01*
G01X2670550Y307520D01*
G01X2669598Y306767D01*
G01X2668846Y305816D01*
G01X2668277Y305247D01*
G01X2667326Y304495D01*
G01X2666573Y303543D01*
G01X2666005Y302975D01*
G01X2665053Y302222D01*
G01X2664300Y301270D01*
G01X2663732Y300702D01*
G01X2663093Y300219D01*
G01X2662837Y299949D01*
G01X2662638Y299651D01*
G01X2662354Y298998D01*
G01X2662155Y298699D01*
G01X2661900Y298429D01*
G01X2661587Y298188D01*
G01X2660962Y297676D01*
G01X2660209Y296725D01*
G01X2659641Y296157D01*
G01X2658689Y295404D01*
G01X2657937Y294452D01*
G01X2657368Y293884D01*
G01X2656417Y293131D01*
G01X2655664Y292179D01*
G01X2655096Y291611D01*
G01X2654595Y291245D01*
G01X2654030Y290745D01*
G01X2653618Y290304D01*
G01X2652752Y289239D01*
G01X2651573Y287634D01*
G01X2651005Y287066D01*
G01X2650053Y286313D01*
G01X2649300Y285361D01*
G01X2648732Y284793D01*
G01X2647780Y284040D01*
G01X2647027Y283088D01*
G01X2646459Y282520D01*
G01X2645508Y281767D01*
G01X2644755Y280816D01*
G01X2644186Y280248D01*
G01X2643689Y279882D01*
G01X2643349Y279569D01*
G01X2642837Y278941D01*
G01X2642155Y277904D01*
G01X2641814Y277506D01*
G01X2641474Y277222D01*
G01X2641133Y277051D01*
G01X2641020Y277294D01*
G01X2640936Y277913D01*
G01X2640818Y279625D01*
G01X2640451Y314779D01*
G01X2640251Y353584D01*
G01X2640224Y353870D01*
G01X2639996Y355006D01*
G01X2623178Y355006D01*
G01X2579531Y355006D01*
G01X2579059Y355219D01*
G01X2578519Y355404D01*
G01X2577922Y355560D01*
G01X2576630Y355801D01*
G01X2575607Y356029D01*
G01X2575046Y356196D01*
G01X2574428Y356313D01*
G01X2572866Y356384D01*
G01X2571957Y356498D01*
G01X2571371Y356650D01*
G01X2570167Y356767D01*
G01X2567269Y356824D01*
G01X2564371Y356767D01*
G01X2563476Y356696D01*
G01X2562951Y356597D01*
G01X2562212Y356426D01*
G01X2560919Y356355D01*
G01X2560124Y356242D01*
G01X2558803Y355915D01*
G01X2556417Y355560D01*
G01X2555678Y355404D01*
G01X2554783Y355116D01*
G01X2553633Y354608D01*
G01X2552283Y354196D01*
G01X2551488Y353855D01*
G01X2550955Y353529D01*
G01X2550103Y353074D01*
G01X2548760Y352492D01*
G01X2548235Y352222D01*
G01X2547738Y351924D01*
G01X2546814Y351270D01*
G01X2546133Y350833D01*
G01X2545025Y350219D01*
G01X2544655Y349949D01*
G01X2544343Y349651D01*
G01X2543963Y349154D01*
G01X2543650Y348813D01*
G01X2543022Y348301D01*
G01X2541985Y347620D01*
G01X2541587Y347279D01*
G01X2541303Y346938D01*
G01X2540991Y346270D01*
G01X2540792Y345972D01*
G01X2540536Y345702D01*
G01X2539897Y345219D01*
G01X2539329Y344651D01*
G01X2537624Y342279D01*
G01X2537187Y341597D01*
G01X2536360Y340063D01*
G01X2535795Y339147D01*
G01X2535596Y338749D01*
G01X2535351Y338046D01*
G01X2535096Y336952D01*
G01X2534755Y335929D01*
G01X2534329Y334978D01*
G01X2534144Y334438D01*
G01X2533988Y333841D01*
G01X2533746Y332549D01*
G01X2533519Y331526D01*
G01X2533352Y330919D01*
G01X2533242Y329754D01*
G01X2533178Y326370D01*
G01X2533182Y325400D01*
G01X2533267Y322588D01*
G01X2533352Y321821D01*
G01X2533576Y320858D01*
G01X2533640Y319772D01*
G01X2533746Y318983D01*
G01X2533888Y318387D01*
G01X2534087Y317733D01*
G01X2535451Y313870D01*
G01X2535792Y313049D01*
G01X2536360Y311824D01*
G01X2536814Y310972D01*
G01X2537482Y309892D01*
G01X2537823Y309211D01*
G01X2538093Y308543D01*
G01X2538292Y308245D01*
G01X2538547Y307975D01*
G01X2539030Y307609D01*
G01X2539371Y307296D01*
G01X2539883Y306668D01*
G01X2540593Y305588D01*
G01X2541019Y305063D01*
G01X2541502Y304566D01*
G01X2542042Y304097D01*
G01X2542581Y303671D01*
G01X2543860Y302733D01*
G01X2544428Y302279D01*
G01X2544627Y302051D01*
G01X2544769Y301824D01*
G01X2544769Y301313D01*
G01X2544598Y301015D01*
G01X2544314Y300688D01*
G01X2543959Y300361D01*
G01X2543164Y299793D01*
G01X2542297Y299310D01*
G01X2541928Y299040D01*
G01X2541615Y298742D01*
G01X2541360Y298415D01*
G01X2540849Y297790D01*
G01X2540224Y297279D01*
G01X2539655Y296824D01*
G01X2539172Y296142D01*
G01X2538974Y295915D01*
G01X2538405Y295461D01*
G01X2537780Y294949D01*
G01X2537269Y294324D01*
G01X2536133Y292506D01*
G01X2534769Y290233D01*
G01X2534442Y289665D01*
G01X2534006Y288813D01*
G01X2533633Y287960D01*
G01X2533292Y287044D01*
G01X2532723Y285233D01*
G01X2532042Y282960D01*
G01X2531871Y282222D01*
G01X2531800Y280929D01*
G01X2531687Y280134D01*
G01X2531510Y279427D01*
G01X2531417Y278415D01*
G01X2531360Y275688D01*
G01X2491814Y275688D01*
G01X2491814Y422279D01*
G01X2979996Y422279D01*
G37*
G36*
G01X2808476Y285858D02*
G01X2808291Y285657D01*
G01X2807628Y285605D01*
G01X2791360Y285461D01*
G01X2774542Y285461D01*
G01X2774897Y286810D01*
G01X2775238Y287605D01*
G01X2775848Y288699D01*
G01X2776260Y289992D01*
G01X2776601Y290787D01*
G01X2776928Y291323D01*
G01X2777383Y292261D01*
G01X2778178Y294381D01*
G01X2778405Y294850D01*
G01X2779030Y295972D01*
G01X2779442Y297264D01*
G01X2779783Y298060D01*
G01X2780394Y299154D01*
G01X2780806Y300446D01*
G01X2781147Y301242D01*
G01X2781473Y301778D01*
G01X2781928Y302716D01*
G01X2782723Y304835D01*
G01X2782951Y305304D01*
G01X2783576Y306427D01*
G01X2783988Y307719D01*
G01X2784328Y308514D01*
G01X2784655Y309051D01*
G01X2785110Y309988D01*
G01X2785905Y312108D01*
G01X2786133Y312577D01*
G01X2786757Y313699D01*
G01X2787169Y314992D01*
G01X2787510Y315787D01*
G01X2787837Y316323D01*
G01X2788292Y317261D01*
G01X2789087Y319381D01*
G01X2789755Y320588D01*
G01X2790096Y321384D01*
G01X2790366Y322236D01*
G01X2790564Y322563D01*
G01X2790820Y322804D01*
G01X2791133Y322961D01*
G01X2791459Y322989D01*
G01X2791757Y322847D01*
G01X2792027Y322534D01*
G01X2792269Y322051D01*
G01X2793178Y319779D01*
G01X2793632Y318756D01*
G01X2794087Y317961D01*
G01X2794485Y317222D01*
G01X2794897Y315929D01*
G01X2795238Y315134D01*
G01X2795564Y314601D01*
G01X2796019Y313749D01*
G01X2796701Y312140D01*
G01X2797496Y310446D01*
G01X2798632Y307847D01*
G01X2799201Y306870D01*
G01X2799655Y305933D01*
G01X2800451Y303813D01*
G01X2800678Y303344D01*
G01X2801019Y302783D01*
G01X2801473Y301931D01*
G01X2801814Y301142D01*
G01X2802723Y298870D01*
G01X2803178Y297847D01*
G01X2803746Y296870D01*
G01X2804201Y295933D01*
G01X2804996Y293813D01*
G01X2805223Y293344D01*
G01X2805564Y292783D01*
G01X2806019Y291931D01*
G01X2806701Y290322D01*
G01X2807496Y288628D01*
G01X2808178Y287051D01*
G01X2808363Y286540D01*
G01X2808462Y286142D01*
G01X2808476Y285858D01*
G37*
G54D10*
G01X3058324Y552318D02*
G01X3140112Y552318D01*
G01X3058324Y497708D02*
G01X3140112Y497708D01*
G01X3097186Y552318D02*
G01X3097186Y497708D01*
G01X3058324Y252344D02*
G01X3140112Y252344D01*
G01X3058324Y197734D02*
G01X3140112Y197734D01*
G01X3097186Y252344D02*
G01X3097186Y197734D01*
G01X3058324Y398407D02*
G01X3140112Y398407D01*
G01X3140112Y398407D02*
G01X3140112Y351671D01*
G01X3058324Y98407D02*
G01X3140112Y98407D01*
G01X3140112Y98407D02*
G01X3140112Y51671D01*
G01X3058324Y698381D02*
G01X3140112Y698381D01*
G01X3140112Y698381D02*
G01X3140112Y651645D01*
G01X3070008Y-524960D02*
G01X3140112Y-524960D01*
G01X3105060Y-489908D02*
G01X3105060Y-560012D01*
G01X3105060Y-639908D02*
G01X3105060Y-710012D01*
G36*
G01X2979990Y-177715D02*
G01X2979990Y-422260D01*
G01X2491809Y-422260D01*
G01X2491809Y-245442D01*
G01X2551809Y-245442D01*
G01X2551809Y-358169D01*
G01X2560218Y-358169D01*
G01X2567533Y-358080D01*
G01X2567533Y-358080D01*
G01X2568670Y-357995D01*
G01X2568890Y-357580D01*
G01X2569081Y-309305D01*
G01X2569081Y-260896D01*
G01X2588172Y-260896D01*
G01X2587476Y-259518D01*
G01X2586582Y-257942D01*
G01X2585218Y-255669D01*
G01X2583627Y-253112D01*
G01X2582718Y-251408D01*
G01X2581809Y-249931D01*
G01X2581127Y-248652D01*
G01X2580673Y-247970D01*
G01X2580332Y-247590D01*
G01X2580104Y-247278D01*
G01X2579763Y-246649D01*
G01X2579081Y-244987D01*
G01X2623173Y-244987D01*
G01X2623173Y-304078D01*
G01X2623372Y-363537D01*
G01X2623400Y-363851D01*
G01X2623542Y-364107D01*
G01X2623996Y-364107D01*
G01X2624309Y-363851D01*
G01X2624309Y-363851D01*
G01X2624636Y-363510D01*
G01X2625204Y-362828D01*
G01X2625687Y-362160D01*
G01X2626255Y-361592D01*
G01X2627207Y-360839D01*
G01X2627959Y-359888D01*
G01X2628528Y-359320D01*
G01X2629479Y-358567D01*
G01X2629991Y-357942D01*
G01X2630672Y-357047D01*
G01X2631354Y-356294D01*
G01X2632050Y-355342D01*
G01X2632619Y-354774D01*
G01X2633570Y-354021D01*
G01X2634323Y-353069D01*
G01X2634891Y-352501D01*
G01X2635843Y-351748D01*
G01X2636596Y-350797D01*
G01X2637164Y-350229D01*
G01X2638116Y-349476D01*
G01X2638868Y-348524D01*
G01X2639437Y-347956D01*
G01X2639934Y-347590D01*
G01X2640275Y-347278D01*
G01X2640786Y-346649D01*
G01X2641468Y-345598D01*
G01X2641809Y-345158D01*
G01X2642150Y-344803D01*
G01X2642491Y-344533D01*
G01X2643116Y-344021D01*
G01X2643868Y-343070D01*
G01X2644437Y-342501D01*
G01X2645388Y-341748D01*
G01X2646141Y-340797D01*
G01X2646709Y-340229D01*
G01X2647661Y-339476D01*
G01X2648414Y-338524D01*
G01X2648982Y-337956D01*
G01X2649483Y-337590D01*
G01X2650048Y-337090D01*
G01X2650459Y-336649D01*
G01X2651326Y-335584D01*
G01X2652505Y-333979D01*
G01X2653073Y-333410D01*
G01X2654025Y-332658D01*
G01X2654778Y-331706D01*
G01X2655346Y-331138D01*
G01X2656297Y-330385D01*
G01X2657050Y-329433D01*
G01X2657619Y-328865D01*
G01X2658570Y-328112D01*
G01X2659323Y-327160D01*
G01X2659891Y-326592D01*
G01X2660843Y-325839D01*
G01X2661354Y-325215D01*
G01X2662036Y-324319D01*
G01X2662718Y-323567D01*
G01X2663414Y-322615D01*
G01X2663982Y-322047D01*
G01X2664934Y-321294D01*
G01X2665687Y-320342D01*
G01X2666255Y-319774D01*
G01X2667207Y-319021D01*
G01X2667959Y-318070D01*
G01X2668528Y-317501D01*
G01X2669479Y-316749D01*
G01X2670232Y-315797D01*
G01X2670800Y-315229D01*
G01X2671297Y-314863D01*
G01X2671638Y-314550D01*
G01X2672150Y-313922D01*
G01X2672832Y-312871D01*
G01X2673172Y-312431D01*
G01X2673513Y-312075D01*
G01X2673854Y-311805D01*
G01X2674479Y-311294D01*
G01X2675232Y-310342D01*
G01X2675800Y-309774D01*
G01X2676752Y-309021D01*
G01X2677505Y-308070D01*
G01X2678073Y-307501D01*
G01X2679025Y-306749D01*
G01X2679777Y-305797D01*
G01X2680346Y-305229D01*
G01X2680847Y-304863D01*
G01X2681411Y-304362D01*
G01X2681823Y-303922D01*
G01X2682690Y-302856D01*
G01X2683868Y-301251D01*
G01X2684437Y-300683D01*
G01X2685388Y-299930D01*
G01X2686141Y-298979D01*
G01X2686709Y-298410D01*
G01X2687661Y-297658D01*
G01X2688414Y-296706D01*
G01X2688982Y-296138D01*
G01X2689934Y-295385D01*
G01X2690687Y-294433D01*
G01X2691255Y-293865D01*
G01X2692206Y-293112D01*
G01X2692718Y-292487D01*
G01X2693400Y-291592D01*
G01X2694081Y-290839D01*
G01X2694777Y-289888D01*
G01X2695346Y-289320D01*
G01X2696297Y-288567D01*
G01X2697050Y-287615D01*
G01X2697618Y-287047D01*
G01X2698570Y-286294D01*
G01X2699323Y-285342D01*
G01X2699891Y-284774D01*
G01X2700843Y-284021D01*
G01X2701596Y-283070D01*
G01X2702164Y-282501D01*
G01X2702661Y-282136D01*
G01X2703002Y-281823D01*
G01X2703513Y-281195D01*
G01X2704195Y-280158D01*
G01X2704536Y-279760D01*
G01X2704877Y-279476D01*
G01X2705218Y-279305D01*
G01X2705325Y-279536D01*
G01X2705405Y-280114D01*
G01X2705524Y-281832D01*
G01X2705900Y-318624D01*
G01X2705900Y-358169D01*
G01X2722718Y-358169D01*
G01X2737263Y-358169D01*
G01X2746354Y-358169D01*
G01X2751926Y-358073D01*
G01X2754256Y-357903D01*
G01X2755005Y-357786D01*
G01X2755477Y-357647D01*
G01X2755956Y-356805D01*
G01X2756354Y-356124D01*
G01X2756752Y-355385D01*
G01X2757164Y-354092D01*
G01X2757505Y-353297D01*
G01X2758116Y-352203D01*
G01X2758528Y-350910D01*
G01X2758868Y-350115D01*
G01X2759479Y-349021D01*
G01X2759891Y-347729D01*
G01X2760232Y-346933D01*
G01X2760843Y-345839D01*
G01X2761255Y-344547D01*
G01X2761596Y-343752D01*
G01X2761922Y-343215D01*
G01X2762377Y-342278D01*
G01X2763173Y-340158D01*
G01X2763840Y-338950D01*
G01X2764181Y-338155D01*
G01X2764593Y-336862D01*
G01X2765204Y-335769D01*
G01X2765545Y-334973D01*
G01X2765957Y-333680D01*
G01X2766567Y-332587D01*
G01X2766908Y-331791D01*
G01X2767041Y-331337D01*
G01X2767283Y-331188D01*
G01X2767614Y-331101D01*
G01X2768894Y-330922D01*
G01X2771511Y-330737D01*
G01X2790672Y-330442D01*
G01X2811233Y-330531D01*
G01X2814989Y-330642D01*
G01X2815729Y-330825D01*
G01X2816127Y-331067D01*
G01X2816411Y-331393D01*
G01X2816581Y-331805D01*
G01X2816709Y-332246D01*
G01X2817050Y-333041D01*
G01X2817377Y-333574D01*
G01X2817832Y-334426D01*
G01X2818513Y-336035D01*
G01X2819309Y-337729D01*
G01X2820445Y-340328D01*
G01X2820900Y-341124D01*
G01X2821297Y-341862D01*
G01X2821709Y-343155D01*
G01X2822050Y-343950D01*
G01X2822377Y-344483D01*
G01X2822832Y-345335D01*
G01X2823513Y-346944D01*
G01X2824309Y-348638D01*
G01X2825445Y-351237D01*
G01X2825900Y-352033D01*
G01X2826297Y-352771D01*
G01X2826709Y-354064D01*
G01X2827050Y-354859D01*
G01X2827377Y-355392D01*
G01X2827832Y-356244D01*
G01X2828172Y-357033D01*
G01X2828627Y-358169D01*
G01X2837491Y-358169D01*
G01X2841368Y-358155D01*
G01X2845800Y-358041D01*
G01X2845800Y-358041D01*
G01X2846205Y-358018D01*
G01X2846326Y-357771D01*
G01X2845900Y-356578D01*
G01X2845445Y-355555D01*
G01X2844877Y-354582D01*
G01X2844422Y-353730D01*
G01X2844081Y-352942D01*
G01X2843172Y-350669D01*
G01X2842718Y-349646D01*
G01X2842150Y-348673D01*
G01X2841695Y-347821D01*
G01X2841013Y-346212D01*
G01X2840218Y-344518D01*
G01X2839081Y-341919D01*
G01X2838513Y-340946D01*
G01X2838059Y-340094D01*
G01X2837718Y-339305D01*
G01X2836809Y-337033D01*
G01X2836354Y-336010D01*
G01X2835786Y-335037D01*
G01X2835331Y-334185D01*
G01X2834650Y-332576D01*
G01X2833854Y-330882D01*
G01X2832718Y-328283D01*
G01X2832263Y-327487D01*
G01X2831866Y-326748D01*
G01X2831454Y-325456D01*
G01X2831113Y-324661D01*
G01X2830786Y-324128D01*
G01X2830331Y-323276D01*
G01X2829536Y-321465D01*
G01X2829081Y-320669D01*
G01X2828684Y-319930D01*
G01X2828272Y-318638D01*
G01X2827931Y-317842D01*
G01X2827604Y-317310D01*
G01X2827150Y-316457D01*
G01X2826354Y-314646D01*
G01X2825900Y-313851D01*
G01X2825502Y-313112D01*
G01X2825090Y-311820D01*
G01X2824749Y-311024D01*
G01X2824422Y-310491D01*
G01X2823968Y-309639D01*
G01X2823172Y-307828D01*
G01X2822604Y-306852D01*
G01X2822150Y-305914D01*
G01X2821354Y-303794D01*
G01X2821127Y-303325D01*
G01X2820786Y-302764D01*
G01X2820331Y-301912D01*
G01X2819650Y-300303D01*
G01X2818854Y-298609D01*
G01X2817718Y-296010D01*
G01X2817150Y-295037D01*
G01X2816695Y-294185D01*
G01X2816354Y-293396D01*
G01X2815445Y-291123D01*
G01X2814991Y-290101D01*
G01X2814422Y-289128D01*
G01X2813968Y-288276D01*
G01X2813286Y-286667D01*
G01X2812491Y-284973D01*
G01X2811354Y-282374D01*
G01X2810786Y-281401D01*
G01X2810331Y-280548D01*
G01X2809991Y-279760D01*
G01X2809082Y-277487D01*
G01X2808627Y-276464D01*
G01X2808059Y-275492D01*
G01X2807604Y-274639D01*
G01X2806923Y-273031D01*
G01X2806127Y-271337D01*
G01X2804991Y-268737D01*
G01X2804536Y-267942D01*
G01X2804138Y-267203D01*
G01X2803726Y-265910D01*
G01X2803386Y-265115D01*
G01X2803059Y-264582D01*
G01X2802604Y-263730D01*
G01X2801809Y-261919D01*
G01X2801354Y-261124D01*
G01X2800957Y-260385D01*
G01X2800545Y-259092D01*
G01X2800204Y-258297D01*
G01X2799877Y-257764D01*
G01X2799422Y-256912D01*
G01X2798627Y-255101D01*
G01X2798172Y-254305D01*
G01X2797775Y-253567D01*
G01X2797363Y-252274D01*
G01X2797022Y-251479D01*
G01X2796943Y-251351D01*
G01X2858172Y-251351D01*
G01X2858172Y-261124D01*
G01X2858286Y-268396D01*
G01X2858428Y-270158D01*
G01X2858502Y-270552D01*
G01X2858627Y-270669D01*
G01X2858854Y-270541D01*
G01X2859309Y-270200D01*
G01X2860047Y-269533D01*
G01X2862977Y-267430D01*
G01X2864309Y-266578D01*
G01X2866582Y-265214D01*
G01X2868577Y-263965D01*
G01X2869429Y-263510D01*
G01X2871038Y-262828D01*
G01X2873286Y-261806D01*
G01X2874536Y-261351D01*
G01X2877491Y-260442D01*
G01X2879763Y-259760D01*
G01X2880502Y-259590D01*
G01X2881795Y-259518D01*
G01X2882590Y-259405D01*
G01X2883179Y-259252D01*
G01X2884325Y-259150D01*
G01X2888400Y-259078D01*
G01X2892768Y-259167D01*
G01X2893620Y-259252D01*
G01X2894593Y-259476D01*
G01X2895885Y-259547D01*
G01X2896681Y-259660D01*
G01X2897945Y-259987D01*
G01X2900047Y-260342D01*
G01X2900672Y-260499D01*
G01X2901184Y-260683D01*
G01X2901759Y-261006D01*
G01X2902157Y-261205D01*
G01X2902860Y-261450D01*
G01X2903939Y-261706D01*
G01X2904422Y-261862D01*
G01X2904848Y-262047D01*
G01X2905395Y-262373D01*
G01X2906248Y-262828D01*
G01X2908059Y-263624D01*
G01X2908854Y-264078D01*
G01X2911809Y-265953D01*
G01X2912945Y-266806D01*
G01X2913485Y-267231D01*
G01X2914763Y-268169D01*
G01X2915388Y-268680D01*
G01X2916141Y-269632D01*
G01X2916709Y-270200D01*
G01X2917661Y-270953D01*
G01X2918414Y-271905D01*
G01X2918982Y-272473D01*
G01X2919934Y-273226D01*
G01X2920445Y-273851D01*
G01X2921127Y-274746D01*
G01X2921567Y-275229D01*
G01X2921752Y-275499D01*
G01X2921908Y-275797D01*
G01X2922178Y-276450D01*
G01X2922377Y-276749D01*
G01X2922633Y-277019D01*
G01X2922945Y-277260D01*
G01X2923272Y-277530D01*
G01X2923570Y-277885D01*
G01X2923840Y-278325D01*
G01X2924309Y-279376D01*
G01X2924763Y-280172D01*
G01X2925218Y-280712D01*
G01X2925445Y-281067D01*
G01X2925900Y-282033D01*
G01X2926922Y-284593D01*
G01X2927718Y-286805D01*
G01X2928627Y-289760D01*
G01X2929309Y-292033D01*
G01X2929479Y-292771D01*
G01X2929550Y-294064D01*
G01X2929664Y-294859D01*
G01X2929777Y-295262D01*
G01X2929910Y-296556D01*
G01X2929991Y-301351D01*
G01X2929902Y-306305D01*
G01X2929817Y-307242D01*
G01X2929593Y-308226D01*
G01X2929522Y-309518D01*
G01X2929408Y-310314D01*
G01X2929082Y-311578D01*
G01X2928652Y-314039D01*
G01X2928481Y-314664D01*
G01X2927959Y-315911D01*
G01X2927618Y-316933D01*
G01X2927363Y-318027D01*
G01X2927206Y-318510D01*
G01X2927022Y-318936D01*
G01X2926695Y-319483D01*
G01X2926241Y-320335D01*
G01X2925445Y-322146D01*
G01X2925218Y-322572D01*
G01X2924536Y-323680D01*
G01X2923961Y-324763D01*
G01X2923336Y-325758D01*
G01X2922718Y-326578D01*
G01X2921670Y-327999D01*
G01X2920786Y-329376D01*
G01X2920445Y-329817D01*
G01X2920104Y-330172D01*
G01X2919763Y-330442D01*
G01X2919138Y-330953D01*
G01X2918385Y-331905D01*
G01X2917817Y-332473D01*
G01X2916866Y-333226D01*
G01X2916113Y-334177D01*
G01X2915545Y-334746D01*
G01X2914848Y-335243D01*
G01X2913400Y-336351D01*
G01X2911979Y-337398D01*
G01X2911127Y-337942D01*
G01X2908854Y-339305D01*
G01X2908034Y-339785D01*
G01X2906809Y-340442D01*
G01X2906340Y-340669D01*
G01X2904476Y-341464D01*
G01X2902263Y-342260D01*
G01X2900218Y-342942D01*
G01X2899309Y-343169D01*
G01X2897207Y-343510D01*
G01X2896070Y-343737D01*
G01X2895581Y-343878D01*
G01X2894937Y-343989D01*
G01X2894199Y-344046D01*
G01X2892718Y-344078D01*
G01X2890843Y-344135D01*
G01X2890204Y-344206D01*
G01X2889437Y-344391D01*
G01X2889138Y-344419D01*
G01X2888868Y-344391D01*
G01X2888627Y-344305D01*
G01X2888188Y-344186D01*
G01X2887437Y-344110D01*
G01X2885623Y-344075D01*
G01X2883748Y-343989D01*
G01X2882491Y-343851D01*
G01X2879763Y-343396D01*
G01X2878740Y-343169D01*
G01X2877150Y-342714D01*
G01X2875587Y-342359D01*
G01X2875104Y-342203D01*
G01X2874678Y-342018D01*
G01X2874128Y-341692D01*
G01X2873190Y-341237D01*
G01X2871070Y-340442D01*
G01X2870601Y-340215D01*
G01X2869479Y-339533D01*
G01X2868172Y-338837D01*
G01X2867491Y-338421D01*
G01X2866095Y-337430D01*
G01X2863797Y-335953D01*
G01X2862931Y-335229D01*
G01X2862661Y-335044D01*
G01X2862363Y-334888D01*
G01X2861709Y-334618D01*
G01X2861411Y-334419D01*
G01X2861141Y-334163D01*
G01X2860775Y-333680D01*
G01X2860463Y-333340D01*
G01X2859834Y-332828D01*
G01X2859309Y-332487D01*
G01X2858172Y-331805D01*
G01X2858172Y-341578D01*
G01X2858268Y-347629D01*
G01X2858439Y-350243D01*
G01X2858556Y-351124D01*
G01X2858694Y-351720D01*
G01X2858854Y-352033D01*
G01X2859429Y-352512D01*
G01X2860133Y-352928D01*
G01X2861695Y-353623D01*
G01X2862668Y-354192D01*
G01X2863520Y-354646D01*
G01X2864309Y-354987D01*
G01X2866869Y-356010D01*
G01X2869081Y-356805D01*
G01X2873854Y-358396D01*
G01X2874763Y-358623D01*
G01X2876865Y-358965D01*
G01X2878002Y-359192D01*
G01X2879138Y-359476D01*
G01X2880431Y-359547D01*
G01X2881226Y-359661D01*
G01X2881761Y-359800D01*
G01X2882924Y-359899D01*
G01X2888854Y-359987D01*
G01X2894873Y-359899D01*
G01X2896038Y-359813D01*
G01X2896038Y-359813D01*
G01X2896354Y-359760D01*
G01X2898400Y-359305D01*
G01X2900672Y-358851D01*
G01X2901695Y-358623D01*
G01X2903343Y-358169D01*
G01X2905218Y-357814D01*
G01X2906241Y-357569D01*
G01X2907601Y-357146D01*
G01X2909763Y-356351D01*
G01X2912036Y-355442D01*
G01X2913059Y-354987D01*
G01X2914032Y-354419D01*
G01X2914884Y-353965D01*
G01X2916695Y-353169D01*
G01X2917121Y-352942D01*
G01X2918229Y-352260D01*
G01X2919536Y-351564D01*
G01X2920218Y-351148D01*
G01X2920900Y-350669D01*
G01X2922860Y-349277D01*
G01X2924849Y-347743D01*
G01X2926454Y-346564D01*
G01X2927022Y-345996D01*
G01X2927505Y-345357D01*
G01X2927775Y-345101D01*
G01X2928073Y-344902D01*
G01X2928726Y-344618D01*
G01X2929025Y-344419D01*
G01X2929295Y-344163D01*
G01X2929777Y-343524D01*
G01X2930346Y-342956D01*
G01X2930843Y-342590D01*
G01X2931184Y-342278D01*
G01X2931695Y-341649D01*
G01X2932377Y-340598D01*
G01X2932718Y-340158D01*
G01X2933059Y-339803D01*
G01X2933726Y-339291D01*
G01X2934295Y-338723D01*
G01X2934792Y-338027D01*
G01X2936326Y-336038D01*
G01X2937263Y-334760D01*
G01X2938400Y-332942D01*
G01X2939763Y-330669D01*
G01X2941013Y-328673D01*
G01X2941468Y-327821D01*
G01X2942150Y-326212D01*
G01X2942931Y-324533D01*
G01X2943272Y-323624D01*
G01X2943684Y-322260D01*
G01X2944295Y-320882D01*
G01X2944635Y-319859D01*
G01X2944891Y-318709D01*
G01X2945445Y-316578D01*
G01X2946127Y-314305D01*
G01X2946297Y-313567D01*
G01X2946369Y-312274D01*
G01X2946482Y-311479D01*
G01X2946681Y-310754D01*
G01X2946794Y-309845D01*
G01X2946866Y-308283D01*
G01X2947036Y-307487D01*
G01X2947113Y-307136D01*
G01X2947206Y-306124D01*
G01X2947263Y-303396D01*
G01X2947174Y-299668D01*
G01X2947036Y-297942D01*
G01X2946581Y-294305D01*
G01X2946127Y-291578D01*
G01X2945672Y-289305D01*
G01X2945445Y-288283D01*
G01X2944991Y-286635D01*
G01X2944635Y-284788D01*
G01X2944479Y-284192D01*
G01X2944295Y-283652D01*
G01X2943684Y-282260D01*
G01X2943272Y-280911D01*
G01X2942931Y-280115D01*
G01X2942604Y-279579D01*
G01X2942150Y-278641D01*
G01X2941581Y-277089D01*
G01X2941354Y-276578D01*
G01X2941127Y-276180D01*
G01X2940786Y-275772D01*
G01X2940559Y-275460D01*
G01X2940218Y-274831D01*
G01X2939536Y-273283D01*
G01X2939309Y-272857D01*
G01X2937263Y-269590D01*
G01X2935445Y-267033D01*
G01X2934763Y-266138D01*
G01X2934082Y-265385D01*
G01X2933400Y-264433D01*
G01X2932490Y-263382D01*
G01X2931809Y-262487D01*
G01X2931297Y-261862D01*
G01X2930346Y-261109D01*
G01X2929777Y-260541D01*
G01X2929025Y-259590D01*
G01X2928073Y-258837D01*
G01X2927505Y-258269D01*
G01X2926752Y-257317D01*
G01X2926127Y-256806D01*
G01X2925232Y-256124D01*
G01X2924479Y-255442D01*
G01X2923528Y-254760D01*
G01X2922594Y-253961D01*
G01X2921883Y-253421D01*
G01X2920161Y-252317D01*
G01X2919806Y-252047D01*
G01X2919266Y-251578D01*
G01X2918911Y-251351D01*
G01X2917391Y-250655D01*
G01X2916866Y-250385D01*
G01X2916368Y-250087D01*
G01X2915431Y-249433D01*
G01X2914934Y-249135D01*
G01X2914408Y-248865D01*
G01X2913034Y-248283D01*
G01X2911354Y-247502D01*
G01X2910445Y-247161D01*
G01X2909082Y-246749D01*
G01X2907689Y-246138D01*
G01X2907150Y-245953D01*
G01X2906553Y-245797D01*
G01X2905246Y-245541D01*
G01X2904650Y-245385D01*
G01X2904110Y-245200D01*
G01X2903389Y-244877D01*
G01X2902547Y-244589D01*
G01X2901880Y-244433D01*
G01X2900388Y-244192D01*
G01X2899252Y-243965D01*
G01X2898116Y-243680D01*
G01X2896823Y-243609D01*
G01X2896027Y-243496D01*
G01X2895625Y-243382D01*
G01X2894293Y-243249D01*
G01X2889309Y-243169D01*
G01X2883215Y-243276D01*
G01X2881581Y-243396D01*
G01X2879763Y-243624D01*
G01X2878400Y-243851D01*
G01X2876127Y-244305D01*
G01X2875104Y-244533D01*
G01X2873513Y-244987D01*
G01X2871297Y-245498D01*
G01X2869990Y-245896D01*
G01X2868464Y-246464D01*
G01X2866695Y-247260D01*
G01X2865445Y-247715D01*
G01X2864252Y-248169D01*
G01X2863783Y-248396D01*
G01X2863222Y-248737D01*
G01X2862370Y-249192D01*
G01X2861013Y-249774D01*
G01X2860161Y-250190D01*
G01X2859309Y-250669D01*
G01X2858172Y-251351D01*
G01X2796943Y-251351D01*
G01X2796695Y-250946D01*
G01X2796241Y-250094D01*
G01X2795445Y-248283D01*
G01X2794877Y-247306D01*
G01X2794422Y-246369D01*
G01X2793627Y-244249D01*
G01X2793400Y-243780D01*
G01X2793059Y-243219D01*
G01X2792604Y-242366D01*
G01X2791922Y-240758D01*
G01X2791354Y-239533D01*
G01X2790957Y-238965D01*
G01X2790672Y-239078D01*
G01X2790388Y-239589D01*
G01X2789877Y-240392D01*
G01X2789422Y-241244D01*
G01X2789082Y-242033D01*
G01X2788172Y-244305D01*
G01X2787718Y-245328D01*
G01X2787263Y-246124D01*
G01X2786866Y-246862D01*
G01X2786454Y-248155D01*
G01X2786113Y-248950D01*
G01X2785786Y-249483D01*
G01X2785331Y-250335D01*
G01X2784991Y-251124D01*
G01X2784082Y-253396D01*
G01X2783627Y-254419D01*
G01X2783059Y-255396D01*
G01X2782604Y-256333D01*
G01X2781809Y-258453D01*
G01X2781581Y-258922D01*
G01X2780957Y-260044D01*
G01X2780545Y-261337D01*
G01X2780204Y-262132D01*
G01X2779877Y-262665D01*
G01X2779422Y-263517D01*
G01X2779082Y-264305D01*
G01X2778172Y-266578D01*
G01X2777718Y-267601D01*
G01X2777263Y-268396D01*
G01X2776866Y-269135D01*
G01X2776454Y-270428D01*
G01X2776113Y-271223D01*
G01X2775786Y-271756D01*
G01X2775332Y-272608D01*
G01X2774991Y-273396D01*
G01X2774082Y-275669D01*
G01X2773627Y-276692D01*
G01X2773059Y-277668D01*
G01X2772604Y-278606D01*
G01X2771809Y-280726D01*
G01X2771581Y-281195D01*
G01X2770957Y-282317D01*
G01X2770545Y-283609D01*
G01X2770204Y-284405D01*
G01X2769877Y-284938D01*
G01X2769422Y-285790D01*
G01X2769082Y-286578D01*
G01X2768173Y-288851D01*
G01X2767718Y-289874D01*
G01X2767263Y-290669D01*
G01X2766866Y-291408D01*
G01X2766454Y-292700D01*
G01X2766113Y-293496D01*
G01X2765786Y-294028D01*
G01X2765332Y-294881D01*
G01X2764991Y-295669D01*
G01X2764082Y-297942D01*
G01X2763627Y-298964D01*
G01X2763059Y-299941D01*
G01X2762604Y-300879D01*
G01X2761809Y-302998D01*
G01X2761581Y-303467D01*
G01X2760956Y-304590D01*
G01X2760545Y-305882D01*
G01X2760204Y-306678D01*
G01X2759877Y-307210D01*
G01X2759422Y-308062D01*
G01X2759082Y-308851D01*
G01X2758173Y-311124D01*
G01X2757718Y-312146D01*
G01X2757263Y-312942D01*
G01X2756866Y-313680D01*
G01X2756454Y-314973D01*
G01X2756113Y-315769D01*
G01X2755786Y-316301D01*
G01X2755332Y-317153D01*
G01X2754991Y-317942D01*
G01X2754082Y-320215D01*
G01X2753627Y-321237D01*
G01X2753172Y-322033D01*
G01X2752775Y-322771D01*
G01X2752363Y-324064D01*
G01X2752022Y-324859D01*
G01X2751695Y-325392D01*
G01X2751241Y-326244D01*
G01X2750900Y-327033D01*
G01X2749991Y-329306D01*
G01X2749536Y-330328D01*
G01X2748968Y-331305D01*
G01X2748513Y-332242D01*
G01X2747718Y-334362D01*
G01X2747491Y-334831D01*
G01X2746865Y-335953D01*
G01X2746454Y-337246D01*
G01X2746113Y-338041D01*
G01X2745786Y-338574D01*
G01X2745332Y-339426D01*
G01X2744991Y-340215D01*
G01X2744082Y-342487D01*
G01X2743627Y-343510D01*
G01X2743059Y-344487D01*
G01X2742604Y-345424D01*
G01X2741809Y-347544D01*
G01X2741582Y-348013D01*
G01X2740956Y-349135D01*
G01X2740545Y-350428D01*
G01X2740204Y-351223D01*
G01X2739877Y-351756D01*
G01X2739423Y-352608D01*
G01X2738741Y-354217D01*
G01X2737959Y-355896D01*
G01X2737618Y-356805D01*
G01X2737263Y-358169D01*
G01X2722718Y-358169D01*
G01X2722718Y-298169D01*
G01X2722462Y-241919D01*
G01X2722318Y-238403D01*
G01X2722146Y-238187D01*
G01X2721890Y-238329D01*
G01X2721606Y-238613D01*
G01X2720786Y-239831D01*
G01X2720445Y-240271D01*
G01X2720104Y-240626D01*
G01X2719763Y-240896D01*
G01X2719138Y-241408D01*
G01X2718385Y-242359D01*
G01X2717817Y-242927D01*
G01X2716866Y-243680D01*
G01X2716113Y-244632D01*
G01X2715544Y-245200D01*
G01X2714593Y-245953D01*
G01X2713840Y-246905D01*
G01X2713272Y-247473D01*
G01X2712618Y-247970D01*
G01X2712320Y-248283D01*
G01X2712050Y-248652D01*
G01X2711567Y-249504D01*
G01X2711297Y-249874D01*
G01X2710999Y-250186D01*
G01X2710673Y-250442D01*
G01X2710047Y-250953D01*
G01X2709295Y-251905D01*
G01X2708726Y-252473D01*
G01X2707775Y-253226D01*
G01X2707022Y-254178D01*
G01X2706454Y-254746D01*
G01X2705502Y-255499D01*
G01X2704749Y-256450D01*
G01X2704181Y-257018D01*
G01X2703680Y-257384D01*
G01X2703115Y-257885D01*
G01X2702704Y-258325D01*
G01X2701837Y-259391D01*
G01X2700658Y-260996D01*
G01X2700090Y-261564D01*
G01X2699138Y-262317D01*
G01X2698386Y-263269D01*
G01X2697817Y-263837D01*
G01X2696866Y-264590D01*
G01X2696113Y-265541D01*
G01X2695545Y-266109D01*
G01X2694593Y-266862D01*
G01X2693840Y-267814D01*
G01X2693272Y-268382D01*
G01X2692775Y-268748D01*
G01X2692434Y-269060D01*
G01X2691922Y-269689D01*
G01X2691240Y-270740D01*
G01X2690900Y-271180D01*
G01X2690559Y-271535D01*
G01X2690218Y-271805D01*
G01X2689593Y-272317D01*
G01X2688840Y-273269D01*
G01X2688272Y-273837D01*
G01X2687320Y-274590D01*
G01X2686567Y-275541D01*
G01X2685999Y-276109D01*
G01X2685047Y-276862D01*
G01X2684295Y-277814D01*
G01X2683726Y-278382D01*
G01X2683073Y-278879D01*
G01X2682775Y-279192D01*
G01X2682505Y-279561D01*
G01X2682022Y-280413D01*
G01X2681752Y-280783D01*
G01X2681454Y-281095D01*
G01X2681127Y-281351D01*
G01X2680502Y-281862D01*
G01X2679749Y-282814D01*
G01X2679181Y-283382D01*
G01X2678229Y-284135D01*
G01X2677476Y-285087D01*
G01X2676908Y-285655D01*
G01X2675957Y-286408D01*
G01X2675204Y-287359D01*
G01X2674635Y-287928D01*
G01X2674135Y-288293D01*
G01X2673570Y-288794D01*
G01X2673158Y-289234D01*
G01X2672292Y-290300D01*
G01X2671113Y-291905D01*
G01X2670545Y-292473D01*
G01X2669593Y-293226D01*
G01X2668840Y-294178D01*
G01X2668272Y-294746D01*
G01X2667320Y-295499D01*
G01X2666567Y-296450D01*
G01X2665999Y-297019D01*
G01X2665048Y-297771D01*
G01X2664295Y-298723D01*
G01X2663726Y-299291D01*
G01X2663087Y-299774D01*
G01X2662832Y-300044D01*
G01X2662633Y-300342D01*
G01X2662348Y-300996D01*
G01X2662150Y-301294D01*
G01X2661894Y-301564D01*
G01X2661581Y-301805D01*
G01X2660957Y-302317D01*
G01X2660204Y-303268D01*
G01X2659636Y-303837D01*
G01X2658684Y-304590D01*
G01X2657931Y-305541D01*
G01X2657363Y-306109D01*
G01X2656411Y-306862D01*
G01X2655658Y-307814D01*
G01X2655090Y-308382D01*
G01X2654589Y-308748D01*
G01X2654025Y-309249D01*
G01X2653613Y-309689D01*
G01X2652746Y-310754D01*
G01X2651567Y-312359D01*
G01X2650999Y-312928D01*
G01X2650048Y-313680D01*
G01X2649295Y-314632D01*
G01X2648726Y-315200D01*
G01X2647775Y-315953D01*
G01X2647022Y-316905D01*
G01X2646454Y-317473D01*
G01X2645502Y-318226D01*
G01X2644749Y-319178D01*
G01X2644181Y-319746D01*
G01X2643684Y-320111D01*
G01X2643343Y-320424D01*
G01X2642832Y-321053D01*
G01X2642150Y-322089D01*
G01X2641809Y-322487D01*
G01X2641468Y-322771D01*
G01X2641127Y-322942D01*
G01X2641015Y-322699D01*
G01X2640930Y-322080D01*
G01X2640813Y-320369D01*
G01X2640445Y-285214D01*
G01X2640245Y-246410D01*
G01X2640218Y-246124D01*
G01X2639991Y-244987D01*
G01X2623173Y-244987D01*
G01X2579081Y-244987D01*
G01X2566582Y-244987D01*
G01X2554223Y-245115D01*
G01X2553132Y-245187D01*
G01X2551809Y-245442D01*
G01X2491809Y-245442D01*
G01X2491809Y-177715D01*
G01X2979990Y-177715D01*
G37*
G36*
G01X2808471Y-314135D02*
G01X2808286Y-314336D01*
G01X2807623Y-314388D01*
G01X2791354Y-314533D01*
G01X2774536Y-314533D01*
G01X2774891Y-313183D01*
G01X2775232Y-312388D01*
G01X2775843Y-311294D01*
G01X2776255Y-310002D01*
G01X2776596Y-309206D01*
G01X2776922Y-308670D01*
G01X2777377Y-307732D01*
G01X2778172Y-305612D01*
G01X2778400Y-305144D01*
G01X2779025Y-304021D01*
G01X2779437Y-302729D01*
G01X2779778Y-301933D01*
G01X2780388Y-300839D01*
G01X2780800Y-299547D01*
G01X2781141Y-298751D01*
G01X2781468Y-298215D01*
G01X2781922Y-297278D01*
G01X2782718Y-295158D01*
G01X2782945Y-294689D01*
G01X2783570Y-293567D01*
G01X2783982Y-292274D01*
G01X2784323Y-291479D01*
G01X2784650Y-290942D01*
G01X2785104Y-290005D01*
G01X2785900Y-287885D01*
G01X2786127Y-287416D01*
G01X2786752Y-286294D01*
G01X2787164Y-285001D01*
G01X2787505Y-284206D01*
G01X2787832Y-283670D01*
G01X2788286Y-282732D01*
G01X2789082Y-280612D01*
G01X2789749Y-279405D01*
G01X2790090Y-278609D01*
G01X2790360Y-277757D01*
G01X2790559Y-277430D01*
G01X2790814Y-277189D01*
G01X2791127Y-277033D01*
G01X2791454Y-277004D01*
G01X2791752Y-277146D01*
G01X2792022Y-277459D01*
G01X2792263Y-277942D01*
G01X2793172Y-280214D01*
G01X2793627Y-281237D01*
G01X2794082Y-282033D01*
G01X2794479Y-282771D01*
G01X2794891Y-284064D01*
G01X2795232Y-284859D01*
G01X2795559Y-285392D01*
G01X2796013Y-286244D01*
G01X2796695Y-287853D01*
G01X2797490Y-289547D01*
G01X2798627Y-292146D01*
G01X2799195Y-293123D01*
G01X2799650Y-294060D01*
G01X2800445Y-296180D01*
G01X2800672Y-296649D01*
G01X2801013Y-297210D01*
G01X2801468Y-298062D01*
G01X2801809Y-298851D01*
G01X2802718Y-301123D01*
G01X2803172Y-302146D01*
G01X2803741Y-303123D01*
G01X2804195Y-304060D01*
G01X2804991Y-306180D01*
G01X2805218Y-306649D01*
G01X2805559Y-307210D01*
G01X2806013Y-308062D01*
G01X2806695Y-309671D01*
G01X2807491Y-311365D01*
G01X2808172Y-312942D01*
G01X2808357Y-313453D01*
G01X2808456Y-313851D01*
G01X2808471Y-314135D01*
G37*
G36*
G01X2979990Y122285D02*
G01X2979990Y-122260D01*
G01X2491809Y-122260D01*
G01X2491809Y-42261D01*
G01X2529991Y-42261D01*
G01X2529991Y-58170D01*
G01X2605445Y-58170D01*
G01X2605445Y-58170D01*
G01X2604991Y-57261D01*
G01X2604749Y-56834D01*
G01X2604479Y-56465D01*
G01X2604181Y-56153D01*
G01X2603528Y-55641D01*
G01X2603229Y-55329D01*
G01X2602959Y-54959D01*
G01X2602476Y-54107D01*
G01X2602207Y-53738D01*
G01X2601908Y-53425D01*
G01X2601269Y-52928D01*
G01X2601013Y-52658D01*
G01X2600814Y-52360D01*
G01X2600530Y-51707D01*
G01X2600332Y-51408D01*
G01X2600076Y-51138D01*
G01X2599763Y-50897D01*
G01X2599437Y-50641D01*
G01X2599138Y-50329D01*
G01X2598869Y-49959D01*
G01X2598385Y-49107D01*
G01X2598116Y-48738D01*
G01X2597817Y-48425D01*
G01X2597491Y-48170D01*
G01X2597164Y-47914D01*
G01X2596866Y-47601D01*
G01X2596596Y-47232D01*
G01X2596113Y-46380D01*
G01X2595843Y-46010D01*
G01X2595545Y-45698D01*
G01X2595218Y-45442D01*
G01X2594891Y-45187D01*
G01X2594593Y-44874D01*
G01X2594323Y-44505D01*
G01X2593840Y-43653D01*
G01X2593570Y-43283D01*
G01X2593272Y-42971D01*
G01X2592633Y-42473D01*
G01X2592377Y-42204D01*
G01X2592178Y-41906D01*
G01X2591894Y-41252D01*
G01X2591695Y-40954D01*
G01X2591440Y-40684D01*
G01X2591127Y-40442D01*
G01X2590800Y-40187D01*
G01X2590502Y-39874D01*
G01X2590232Y-39505D01*
G01X2589749Y-38653D01*
G01X2589479Y-38283D01*
G01X2589181Y-37971D01*
G01X2588854Y-37715D01*
G01X2588527Y-37460D01*
G01X2588229Y-37147D01*
G01X2587960Y-36778D01*
G01X2587476Y-35925D01*
G01X2587207Y-35556D01*
G01X2586908Y-35243D01*
G01X2586582Y-34988D01*
G01X2586255Y-34732D01*
G01X2585956Y-34420D01*
G01X2585687Y-34050D01*
G01X2585204Y-33198D01*
G01X2584934Y-32829D01*
G01X2584635Y-32516D01*
G01X2583996Y-32019D01*
G01X2583741Y-31749D01*
G01X2583542Y-31451D01*
G01X2583258Y-30797D01*
G01X2583059Y-30499D01*
G01X2582803Y-30229D01*
G01X2582491Y-29988D01*
G01X2582164Y-29732D01*
G01X2581866Y-29420D01*
G01X2581596Y-29050D01*
G01X2581113Y-28198D01*
G01X2580843Y-27829D01*
G01X2580545Y-27516D01*
G01X2580218Y-27261D01*
G01X2579891Y-27005D01*
G01X2579593Y-26692D01*
G01X2579323Y-26323D01*
G01X2578840Y-25471D01*
G01X2578570Y-25101D01*
G01X2578272Y-24789D01*
G01X2577945Y-24533D01*
G01X2577618Y-24278D01*
G01X2577320Y-23965D01*
G01X2577050Y-23596D01*
G01X2576567Y-22744D01*
G01X2576297Y-22374D01*
G01X2575999Y-22062D01*
G01X2575360Y-21564D01*
G01X2575104Y-21295D01*
G01X2574905Y-20996D01*
G01X2574621Y-20343D01*
G01X2574423Y-20045D01*
G01X2574167Y-19775D01*
G01X2573854Y-19533D01*
G01X2573527Y-19278D01*
G01X2573229Y-18965D01*
G01X2572959Y-18596D01*
G01X2572476Y-17744D01*
G01X2572206Y-17374D01*
G01X2571908Y-17062D01*
G01X2571255Y-16550D01*
G01X2570957Y-16238D01*
G01X2570687Y-15868D01*
G01X2570204Y-15016D01*
G01X2569934Y-14647D01*
G01X2569635Y-14334D01*
G01X2568996Y-13837D01*
G01X2568741Y-13567D01*
G01X2568542Y-13269D01*
G01X2568258Y-12616D01*
G01X2568059Y-12317D01*
G01X2567803Y-12048D01*
G01X2567178Y-11564D01*
G01X2566922Y-11295D01*
G01X2566724Y-10996D01*
G01X2566440Y-10343D01*
G01X2566241Y-10045D01*
G01X2565985Y-9775D01*
G01X2565673Y-9533D01*
G01X2565047Y-9022D01*
G01X2564536Y-8397D01*
G01X2563854Y-7502D01*
G01X2563172Y-6749D01*
G01X2562462Y-5755D01*
G01X2561354Y-4306D01*
G01X2559110Y-1494D01*
G01X2557917Y154D01*
G01X2556383Y2143D01*
G01X2555445Y3421D01*
G01X2553172Y6603D01*
G01X2551809Y8705D01*
G01X2551127Y9984D01*
G01X2550673Y10666D01*
G01X2550331Y11046D01*
G01X2550104Y11358D01*
G01X2549764Y11987D01*
G01X2549195Y13333D01*
G01X2548172Y15580D01*
G01X2547718Y16830D01*
G01X2547036Y18876D01*
G01X2546959Y19195D01*
G01X2546852Y20218D01*
G01X2546809Y22058D01*
G01X2546812Y22654D01*
G01X2546866Y24103D01*
G01X2546983Y25040D01*
G01X2547263Y26148D01*
G01X2547693Y28609D01*
G01X2547864Y29235D01*
G01X2548172Y30012D01*
G01X2549202Y32061D01*
G01X2549827Y33055D01*
G01X2550871Y34416D01*
G01X2552064Y36021D01*
G01X2552377Y36319D01*
G01X2552746Y36589D01*
G01X2553599Y37072D01*
G01X2553968Y37342D01*
G01X2554280Y37640D01*
G01X2554536Y37967D01*
G01X2554806Y38293D01*
G01X2555161Y38592D01*
G01X2555601Y38862D01*
G01X2556947Y39444D01*
G01X2558641Y40225D01*
G01X2559664Y40566D01*
G01X2561241Y40921D01*
G01X2562127Y41176D01*
G01X2562771Y41287D01*
G01X2563510Y41344D01*
G01X2564991Y41376D01*
G01X2567475Y41304D01*
G01X2569309Y41149D01*
G01X2569809Y41088D01*
G01X2571184Y40864D01*
G01X2571994Y40680D01*
G01X2573055Y40353D01*
G01X2575218Y39558D01*
G01X2575743Y39330D01*
G01X2576539Y38876D01*
G01X2576930Y38535D01*
G01X2577377Y38194D01*
G01X2578400Y37615D01*
G01X2578854Y37303D01*
G01X2579536Y36674D01*
G01X2579991Y36148D01*
G01X2580417Y35609D01*
G01X2581354Y34330D01*
G01X2582377Y32789D01*
G01X2582832Y31937D01*
G01X2583514Y30328D01*
G01X2584295Y28634D01*
G01X2584635Y27612D01*
G01X2584991Y26035D01*
G01X2585445Y24274D01*
G01X2585673Y22740D01*
G01X2585900Y20921D01*
G01X2602718Y20921D01*
G01X2602491Y22285D01*
G01X2602036Y24785D01*
G01X2601582Y27058D01*
G01X2601354Y28080D01*
G01X2600900Y29785D01*
G01X2600545Y31887D01*
G01X2600388Y32512D01*
G01X2600204Y33023D01*
G01X2599881Y33599D01*
G01X2599682Y33997D01*
G01X2599437Y34700D01*
G01X2599181Y35779D01*
G01X2599025Y36262D01*
G01X2598840Y36688D01*
G01X2598513Y37235D01*
G01X2598059Y38087D01*
G01X2597476Y39444D01*
G01X2597061Y40296D01*
G01X2596582Y41149D01*
G01X2595900Y42228D01*
G01X2594707Y43908D01*
G01X2593513Y45765D01*
G01X2593172Y46205D01*
G01X2592831Y46560D01*
G01X2592491Y46830D01*
G01X2591866Y47342D01*
G01X2591113Y48293D01*
G01X2590545Y48862D01*
G01X2589849Y49359D01*
G01X2588400Y50467D01*
G01X2587320Y51262D01*
G01X2586823Y51575D01*
G01X2585502Y52285D01*
G01X2584586Y52853D01*
G01X2583733Y53308D01*
G01X2582945Y53649D01*
G01X2580673Y54558D01*
G01X2579460Y55012D01*
G01X2623173Y55012D01*
G01X2623173Y-4079D01*
G01X2623372Y-63538D01*
G01X2623400Y-63851D01*
G01X2623542Y-64107D01*
G01X2623996Y-64107D01*
G01X2624309Y-63851D01*
G01X2624309Y-63851D01*
G01X2624636Y-63511D01*
G01X2625204Y-62829D01*
G01X2625687Y-62161D01*
G01X2626255Y-61593D01*
G01X2627207Y-60840D01*
G01X2627959Y-59888D01*
G01X2628528Y-59320D01*
G01X2629479Y-58567D01*
G01X2629991Y-57942D01*
G01X2630672Y-57047D01*
G01X2631354Y-56295D01*
G01X2632050Y-55343D01*
G01X2632619Y-54775D01*
G01X2633570Y-54022D01*
G01X2634323Y-53070D01*
G01X2634891Y-52502D01*
G01X2635843Y-51749D01*
G01X2636596Y-50798D01*
G01X2637164Y-50229D01*
G01X2638116Y-49477D01*
G01X2638868Y-48525D01*
G01X2639437Y-47957D01*
G01X2639934Y-47591D01*
G01X2640275Y-47278D01*
G01X2640786Y-46650D01*
G01X2641468Y-45599D01*
G01X2641809Y-45158D01*
G01X2642150Y-44803D01*
G01X2642491Y-44533D01*
G01X2643116Y-44022D01*
G01X2643868Y-43070D01*
G01X2644437Y-42502D01*
G01X2645388Y-41749D01*
G01X2646141Y-40798D01*
G01X2646709Y-40229D01*
G01X2647661Y-39477D01*
G01X2648414Y-38525D01*
G01X2648982Y-37957D01*
G01X2649483Y-37591D01*
G01X2650048Y-37090D01*
G01X2650459Y-36650D01*
G01X2651326Y-35584D01*
G01X2652505Y-33979D01*
G01X2653073Y-33411D01*
G01X2654025Y-32658D01*
G01X2654778Y-31707D01*
G01X2655346Y-31138D01*
G01X2656297Y-30386D01*
G01X2657050Y-29434D01*
G01X2657619Y-28866D01*
G01X2658570Y-28113D01*
G01X2659323Y-27161D01*
G01X2659891Y-26593D01*
G01X2660843Y-25840D01*
G01X2661354Y-25215D01*
G01X2662036Y-24320D01*
G01X2662718Y-23567D01*
G01X2663414Y-22616D01*
G01X2663982Y-22048D01*
G01X2664934Y-21295D01*
G01X2665687Y-20343D01*
G01X2666255Y-19775D01*
G01X2667207Y-19022D01*
G01X2667959Y-18070D01*
G01X2668528Y-17502D01*
G01X2669479Y-16749D01*
G01X2670232Y-15797D01*
G01X2670800Y-15229D01*
G01X2671297Y-14863D01*
G01X2671638Y-14551D01*
G01X2672150Y-13922D01*
G01X2672832Y-12871D01*
G01X2673172Y-12431D01*
G01X2673513Y-12076D01*
G01X2673854Y-11806D01*
G01X2674479Y-11295D01*
G01X2675232Y-10343D01*
G01X2675800Y-9775D01*
G01X2676752Y-9022D01*
G01X2677505Y-8070D01*
G01X2678073Y-7502D01*
G01X2679025Y-6749D01*
G01X2679777Y-5797D01*
G01X2680346Y-5229D01*
G01X2680847Y-4863D01*
G01X2681411Y-4363D01*
G01X2681823Y-3922D01*
G01X2682690Y-2857D01*
G01X2683868Y-1252D01*
G01X2684437Y-684D01*
G01X2685388Y69D01*
G01X2686141Y1021D01*
G01X2686709Y1589D01*
G01X2687661Y2342D01*
G01X2688414Y3294D01*
G01X2688982Y3862D01*
G01X2689934Y4615D01*
G01X2690687Y5566D01*
G01X2691255Y6134D01*
G01X2692206Y6887D01*
G01X2692718Y7512D01*
G01X2693400Y8407D01*
G01X2694081Y9160D01*
G01X2694777Y10112D01*
G01X2695346Y10680D01*
G01X2696297Y11433D01*
G01X2697050Y12384D01*
G01X2697618Y12953D01*
G01X2698570Y13705D01*
G01X2699323Y14657D01*
G01X2699891Y15225D01*
G01X2700843Y15978D01*
G01X2701596Y16930D01*
G01X2702164Y17498D01*
G01X2702661Y17864D01*
G01X2703002Y18176D01*
G01X2703513Y18805D01*
G01X2704195Y19842D01*
G01X2704536Y20239D01*
G01X2704877Y20524D01*
G01X2705218Y20694D01*
G01X2705325Y20464D01*
G01X2705405Y19885D01*
G01X2705524Y18168D01*
G01X2705900Y-18624D01*
G01X2705900Y-58170D01*
G01X2722718Y-58170D01*
G01X2737263Y-58170D01*
G01X2746354Y-58170D01*
G01X2751926Y-58074D01*
G01X2754256Y-57903D01*
G01X2755005Y-57786D01*
G01X2755477Y-57648D01*
G01X2755956Y-56806D01*
G01X2756354Y-56124D01*
G01X2756752Y-55386D01*
G01X2757164Y-54093D01*
G01X2757505Y-53297D01*
G01X2758116Y-52204D01*
G01X2758528Y-50911D01*
G01X2758868Y-50116D01*
G01X2759479Y-49022D01*
G01X2759891Y-47729D01*
G01X2760232Y-46934D01*
G01X2760843Y-45840D01*
G01X2761255Y-44547D01*
G01X2761596Y-43752D01*
G01X2761922Y-43216D01*
G01X2762377Y-42278D01*
G01X2763173Y-40158D01*
G01X2763840Y-38951D01*
G01X2764181Y-38155D01*
G01X2764593Y-36863D01*
G01X2765204Y-35769D01*
G01X2765545Y-34974D01*
G01X2765957Y-33681D01*
G01X2766567Y-32587D01*
G01X2766908Y-31792D01*
G01X2767041Y-31337D01*
G01X2767283Y-31189D01*
G01X2767614Y-31102D01*
G01X2768894Y-30922D01*
G01X2771511Y-30738D01*
G01X2790672Y-30442D01*
G01X2811233Y-30531D01*
G01X2814989Y-30642D01*
G01X2815729Y-30826D01*
G01X2816127Y-31067D01*
G01X2816411Y-31394D01*
G01X2816581Y-31806D01*
G01X2816709Y-32246D01*
G01X2817050Y-33042D01*
G01X2817377Y-33574D01*
G01X2817832Y-34427D01*
G01X2818513Y-36035D01*
G01X2819309Y-37729D01*
G01X2820445Y-40329D01*
G01X2820900Y-41124D01*
G01X2821297Y-41863D01*
G01X2821709Y-43155D01*
G01X2822050Y-43951D01*
G01X2822377Y-44484D01*
G01X2822832Y-45336D01*
G01X2823513Y-46944D01*
G01X2824309Y-48638D01*
G01X2825445Y-51238D01*
G01X2825900Y-52033D01*
G01X2826297Y-52772D01*
G01X2826709Y-54065D01*
G01X2827050Y-54860D01*
G01X2827377Y-55393D01*
G01X2827832Y-56245D01*
G01X2828172Y-57033D01*
G01X2828627Y-58170D01*
G01X2837491Y-58170D01*
G01X2841368Y-58155D01*
G01X2845800Y-58042D01*
G01X2845800Y-58042D01*
G01X2846205Y-58018D01*
G01X2846326Y-57772D01*
G01X2845900Y-56579D01*
G01X2845445Y-55556D01*
G01X2844877Y-54583D01*
G01X2844422Y-53731D01*
G01X2844081Y-52942D01*
G01X2843172Y-50670D01*
G01X2842718Y-49647D01*
G01X2842150Y-48674D01*
G01X2841695Y-47822D01*
G01X2841013Y-46213D01*
G01X2840218Y-44519D01*
G01X2839081Y-41919D01*
G01X2838513Y-40947D01*
G01X2838059Y-40094D01*
G01X2837718Y-39306D01*
G01X2836809Y-37033D01*
G01X2836354Y-36010D01*
G01X2835786Y-35038D01*
G01X2835331Y-34185D01*
G01X2834650Y-32577D01*
G01X2833854Y-30883D01*
G01X2832718Y-28283D01*
G01X2832263Y-27488D01*
G01X2831866Y-26749D01*
G01X2831454Y-25456D01*
G01X2831113Y-24661D01*
G01X2830786Y-24128D01*
G01X2830331Y-23276D01*
G01X2829536Y-21465D01*
G01X2829081Y-20670D01*
G01X2828684Y-19931D01*
G01X2828272Y-18638D01*
G01X2827931Y-17843D01*
G01X2827604Y-17310D01*
G01X2827150Y-16458D01*
G01X2826354Y-14647D01*
G01X2825900Y-13851D01*
G01X2825502Y-13113D01*
G01X2825090Y-11820D01*
G01X2824749Y-11025D01*
G01X2824422Y-10492D01*
G01X2823968Y-9640D01*
G01X2823172Y-7829D01*
G01X2822604Y-6852D01*
G01X2822150Y-5915D01*
G01X2821354Y-3795D01*
G01X2821127Y-3326D01*
G01X2820786Y-2765D01*
G01X2820331Y-1912D01*
G01X2819650Y-304D01*
G01X2818854Y1390D01*
G01X2817718Y3989D01*
G01X2817150Y4963D01*
G01X2816695Y5815D01*
G01X2816354Y6603D01*
G01X2815445Y8876D01*
G01X2814991Y9899D01*
G01X2814422Y10872D01*
G01X2813968Y11724D01*
G01X2813286Y13333D01*
G01X2812491Y15026D01*
G01X2811354Y17626D01*
G01X2810786Y18599D01*
G01X2810331Y19451D01*
G01X2809991Y20239D01*
G01X2809082Y22512D01*
G01X2808627Y23535D01*
G01X2808059Y24508D01*
G01X2807604Y25360D01*
G01X2806923Y26969D01*
G01X2806127Y28663D01*
G01X2804991Y31262D01*
G01X2804536Y32058D01*
G01X2804138Y32796D01*
G01X2803726Y34089D01*
G01X2803386Y34884D01*
G01X2803059Y35417D01*
G01X2802604Y36269D01*
G01X2801809Y38080D01*
G01X2801354Y38876D01*
G01X2800957Y39615D01*
G01X2800545Y40907D01*
G01X2800204Y41703D01*
G01X2799877Y42235D01*
G01X2799422Y43087D01*
G01X2798627Y44898D01*
G01X2798172Y45694D01*
G01X2797775Y46433D01*
G01X2797363Y47725D01*
G01X2797022Y48521D01*
G01X2796943Y48649D01*
G01X2858172Y48649D01*
G01X2858172Y38876D01*
G01X2858286Y31603D01*
G01X2858428Y29842D01*
G01X2858502Y29447D01*
G01X2858627Y29330D01*
G01X2858854Y29458D01*
G01X2859309Y29799D01*
G01X2860047Y30467D01*
G01X2862977Y32569D01*
G01X2864309Y33421D01*
G01X2866582Y34785D01*
G01X2868577Y36035D01*
G01X2869429Y36490D01*
G01X2871038Y37171D01*
G01X2873286Y38194D01*
G01X2874536Y38649D01*
G01X2877491Y39558D01*
G01X2879763Y40239D01*
G01X2880502Y40410D01*
G01X2881795Y40481D01*
G01X2882590Y40595D01*
G01X2883179Y40747D01*
G01X2884325Y40849D01*
G01X2888400Y40921D01*
G01X2892768Y40832D01*
G01X2893620Y40747D01*
G01X2894593Y40524D01*
G01X2895885Y40452D01*
G01X2896681Y40339D01*
G01X2897945Y40012D01*
G01X2900047Y39657D01*
G01X2900672Y39501D01*
G01X2901184Y39316D01*
G01X2901759Y38993D01*
G01X2902157Y38794D01*
G01X2902860Y38549D01*
G01X2903939Y38293D01*
G01X2904422Y38137D01*
G01X2904848Y37953D01*
G01X2905395Y37626D01*
G01X2906248Y37171D01*
G01X2908059Y36376D01*
G01X2908854Y35921D01*
G01X2911809Y34046D01*
G01X2912945Y33194D01*
G01X2913485Y32768D01*
G01X2914763Y31830D01*
G01X2915388Y31319D01*
G01X2916141Y30367D01*
G01X2916709Y29799D01*
G01X2917661Y29046D01*
G01X2918414Y28095D01*
G01X2918982Y27526D01*
G01X2919934Y26774D01*
G01X2920445Y26148D01*
G01X2921127Y25254D01*
G01X2921567Y24771D01*
G01X2921752Y24501D01*
G01X2921908Y24203D01*
G01X2922178Y23549D01*
G01X2922377Y23251D01*
G01X2922633Y22981D01*
G01X2922945Y22740D01*
G01X2923272Y22470D01*
G01X2923570Y22114D01*
G01X2923840Y21674D01*
G01X2924309Y20623D01*
G01X2924763Y19828D01*
G01X2925218Y19288D01*
G01X2925445Y18933D01*
G01X2925900Y17967D01*
G01X2926922Y15406D01*
G01X2927718Y13194D01*
G01X2928627Y10239D01*
G01X2929309Y7967D01*
G01X2929479Y7228D01*
G01X2929550Y5935D01*
G01X2929664Y5140D01*
G01X2929777Y4738D01*
G01X2929910Y3443D01*
G01X2929991Y-1351D01*
G01X2929902Y-6305D01*
G01X2929817Y-7243D01*
G01X2929593Y-8226D01*
G01X2929522Y-9519D01*
G01X2929408Y-10315D01*
G01X2929082Y-11579D01*
G01X2928652Y-14040D01*
G01X2928481Y-14665D01*
G01X2927959Y-15911D01*
G01X2927618Y-16934D01*
G01X2927363Y-18027D01*
G01X2927206Y-18511D01*
G01X2927022Y-18937D01*
G01X2926695Y-19483D01*
G01X2926241Y-20336D01*
G01X2925445Y-22147D01*
G01X2925218Y-22573D01*
G01X2924536Y-23681D01*
G01X2923961Y-24764D01*
G01X2923336Y-25758D01*
G01X2922718Y-26579D01*
G01X2921670Y-27999D01*
G01X2920786Y-29377D01*
G01X2920445Y-29817D01*
G01X2920104Y-30173D01*
G01X2919763Y-30442D01*
G01X2919138Y-30954D01*
G01X2918385Y-31905D01*
G01X2917817Y-32473D01*
G01X2916866Y-33226D01*
G01X2916113Y-34178D01*
G01X2915545Y-34746D01*
G01X2914848Y-35243D01*
G01X2913400Y-36352D01*
G01X2911979Y-37399D01*
G01X2911127Y-37942D01*
G01X2908854Y-39306D01*
G01X2908034Y-39785D01*
G01X2906809Y-40442D01*
G01X2906340Y-40670D01*
G01X2904476Y-41465D01*
G01X2902263Y-42261D01*
G01X2900218Y-42942D01*
G01X2899309Y-43170D01*
G01X2897207Y-43511D01*
G01X2896070Y-43738D01*
G01X2895581Y-43879D01*
G01X2894937Y-43990D01*
G01X2894199Y-44047D01*
G01X2892718Y-44079D01*
G01X2890843Y-44136D01*
G01X2890204Y-44207D01*
G01X2889437Y-44391D01*
G01X2889138Y-44420D01*
G01X2888868Y-44391D01*
G01X2888627Y-44306D01*
G01X2888188Y-44186D01*
G01X2887437Y-44111D01*
G01X2885623Y-44075D01*
G01X2883748Y-43990D01*
G01X2882491Y-43851D01*
G01X2879763Y-43397D01*
G01X2878740Y-43170D01*
G01X2877150Y-42715D01*
G01X2875587Y-42360D01*
G01X2875104Y-42204D01*
G01X2874678Y-42019D01*
G01X2874128Y-41692D01*
G01X2873190Y-41238D01*
G01X2871070Y-40442D01*
G01X2870601Y-40215D01*
G01X2869479Y-39533D01*
G01X2868172Y-38837D01*
G01X2867491Y-38422D01*
G01X2866095Y-37431D01*
G01X2863797Y-35954D01*
G01X2862931Y-35229D01*
G01X2862661Y-35045D01*
G01X2862363Y-34888D01*
G01X2861709Y-34619D01*
G01X2861411Y-34420D01*
G01X2861141Y-34164D01*
G01X2860775Y-33681D01*
G01X2860463Y-33340D01*
G01X2859834Y-32829D01*
G01X2859309Y-32488D01*
G01X2858172Y-31806D01*
G01X2858172Y-41579D01*
G01X2858268Y-47630D01*
G01X2858439Y-50244D01*
G01X2858556Y-51124D01*
G01X2858694Y-51721D01*
G01X2858854Y-52033D01*
G01X2859429Y-52513D01*
G01X2860133Y-52928D01*
G01X2861695Y-53624D01*
G01X2862668Y-54192D01*
G01X2863520Y-54647D01*
G01X2864309Y-54988D01*
G01X2866869Y-56010D01*
G01X2869081Y-56806D01*
G01X2873854Y-58397D01*
G01X2874763Y-58624D01*
G01X2876865Y-58965D01*
G01X2878002Y-59192D01*
G01X2879138Y-59476D01*
G01X2880431Y-59547D01*
G01X2881226Y-59661D01*
G01X2881761Y-59801D01*
G01X2882924Y-59899D01*
G01X2888854Y-59988D01*
G01X2894873Y-59899D01*
G01X2896038Y-59814D01*
G01X2896038Y-59814D01*
G01X2896354Y-59760D01*
G01X2898400Y-59306D01*
G01X2900672Y-58851D01*
G01X2901695Y-58624D01*
G01X2903343Y-58170D01*
G01X2905218Y-57815D01*
G01X2906241Y-57569D01*
G01X2907601Y-57147D01*
G01X2909763Y-56352D01*
G01X2912036Y-55442D01*
G01X2913059Y-54988D01*
G01X2914032Y-54420D01*
G01X2914884Y-53965D01*
G01X2916695Y-53170D01*
G01X2917121Y-52942D01*
G01X2918229Y-52261D01*
G01X2919536Y-51564D01*
G01X2920218Y-51149D01*
G01X2920900Y-50670D01*
G01X2922860Y-49278D01*
G01X2924849Y-47743D01*
G01X2926454Y-46564D01*
G01X2927022Y-45996D01*
G01X2927505Y-45357D01*
G01X2927775Y-45101D01*
G01X2928073Y-44902D01*
G01X2928726Y-44618D01*
G01X2929025Y-44420D01*
G01X2929295Y-44164D01*
G01X2929777Y-43525D01*
G01X2930346Y-42957D01*
G01X2930843Y-42591D01*
G01X2931184Y-42278D01*
G01X2931695Y-41650D01*
G01X2932377Y-40599D01*
G01X2932718Y-40158D01*
G01X2933059Y-39803D01*
G01X2933726Y-39292D01*
G01X2934295Y-38724D01*
G01X2934792Y-38027D01*
G01X2936326Y-36039D01*
G01X2937263Y-34761D01*
G01X2938400Y-32942D01*
G01X2939763Y-30670D01*
G01X2941013Y-28674D01*
G01X2941468Y-27822D01*
G01X2942150Y-26213D01*
G01X2942931Y-24533D01*
G01X2943272Y-23624D01*
G01X2943684Y-22260D01*
G01X2944295Y-20883D01*
G01X2944635Y-19860D01*
G01X2944891Y-18709D01*
G01X2945445Y-16579D01*
G01X2946127Y-14306D01*
G01X2946297Y-13567D01*
G01X2946369Y-12275D01*
G01X2946482Y-11479D01*
G01X2946681Y-10755D01*
G01X2946794Y-9846D01*
G01X2946866Y-8283D01*
G01X2947036Y-7488D01*
G01X2947113Y-7136D01*
G01X2947206Y-6124D01*
G01X2947263Y-3397D01*
G01X2947174Y332D01*
G01X2947036Y2058D01*
G01X2946581Y5694D01*
G01X2946127Y8421D01*
G01X2945672Y10694D01*
G01X2945445Y11717D01*
G01X2944991Y13364D01*
G01X2944635Y15211D01*
G01X2944479Y15808D01*
G01X2944295Y16347D01*
G01X2943684Y17740D01*
G01X2943272Y19089D01*
G01X2942931Y19884D01*
G01X2942604Y20420D01*
G01X2942150Y21358D01*
G01X2941581Y22910D01*
G01X2941354Y23421D01*
G01X2941127Y23819D01*
G01X2940786Y24227D01*
G01X2940559Y24540D01*
G01X2940218Y25169D01*
G01X2939536Y26717D01*
G01X2939309Y27143D01*
G01X2937263Y30410D01*
G01X2935445Y32967D01*
G01X2934763Y33862D01*
G01X2934082Y34615D01*
G01X2933400Y35566D01*
G01X2932490Y36617D01*
G01X2931809Y37512D01*
G01X2931297Y38137D01*
G01X2930346Y38890D01*
G01X2929777Y39458D01*
G01X2929025Y40410D01*
G01X2928073Y41163D01*
G01X2927505Y41731D01*
G01X2926752Y42683D01*
G01X2926127Y43194D01*
G01X2925232Y43876D01*
G01X2924479Y44558D01*
G01X2923528Y45239D01*
G01X2922594Y46038D01*
G01X2921883Y46578D01*
G01X2920161Y47683D01*
G01X2919806Y47953D01*
G01X2919266Y48421D01*
G01X2918911Y48649D01*
G01X2917391Y49344D01*
G01X2916866Y49614D01*
G01X2916368Y49913D01*
G01X2915431Y50566D01*
G01X2914934Y50864D01*
G01X2914408Y51134D01*
G01X2913034Y51717D01*
G01X2911354Y52498D01*
G01X2910445Y52839D01*
G01X2909082Y53251D01*
G01X2907689Y53862D01*
G01X2907150Y54046D01*
G01X2906553Y54202D01*
G01X2905246Y54458D01*
G01X2904650Y54614D01*
G01X2904110Y54799D01*
G01X2903389Y55122D01*
G01X2902547Y55410D01*
G01X2901880Y55566D01*
G01X2900388Y55808D01*
G01X2899252Y56035D01*
G01X2898116Y56319D01*
G01X2896823Y56390D01*
G01X2896027Y56504D01*
G01X2895625Y56617D01*
G01X2894293Y56750D01*
G01X2889309Y56830D01*
G01X2883215Y56723D01*
G01X2881581Y56603D01*
G01X2879763Y56376D01*
G01X2878400Y56149D01*
G01X2876127Y55694D01*
G01X2875104Y55467D01*
G01X2873513Y55012D01*
G01X2871297Y54501D01*
G01X2869990Y54103D01*
G01X2868464Y53535D01*
G01X2866695Y52739D01*
G01X2865445Y52285D01*
G01X2864252Y51830D01*
G01X2863783Y51603D01*
G01X2863222Y51262D01*
G01X2862370Y50808D01*
G01X2861013Y50225D01*
G01X2860161Y49810D01*
G01X2859309Y49330D01*
G01X2858172Y48649D01*
G01X2796943Y48649D01*
G01X2796695Y49053D01*
G01X2796241Y49906D01*
G01X2795445Y51717D01*
G01X2794877Y52693D01*
G01X2794422Y53631D01*
G01X2793627Y55751D01*
G01X2793400Y56220D01*
G01X2793059Y56781D01*
G01X2792604Y57633D01*
G01X2791922Y59242D01*
G01X2791354Y60467D01*
G01X2790957Y61035D01*
G01X2790672Y60921D01*
G01X2790388Y60410D01*
G01X2789877Y59607D01*
G01X2789422Y58755D01*
G01X2789082Y57967D01*
G01X2788172Y55694D01*
G01X2787718Y54671D01*
G01X2787263Y53876D01*
G01X2786866Y53137D01*
G01X2786454Y51845D01*
G01X2786113Y51049D01*
G01X2785786Y50516D01*
G01X2785331Y49664D01*
G01X2784991Y48876D01*
G01X2784082Y46603D01*
G01X2783627Y45580D01*
G01X2783059Y44604D01*
G01X2782604Y43666D01*
G01X2781809Y41546D01*
G01X2781581Y41078D01*
G01X2780957Y39955D01*
G01X2780545Y38663D01*
G01X2780204Y37867D01*
G01X2779877Y37335D01*
G01X2779422Y36482D01*
G01X2779082Y35694D01*
G01X2778172Y33421D01*
G01X2777718Y32399D01*
G01X2777263Y31603D01*
G01X2776866Y30864D01*
G01X2776454Y29572D01*
G01X2776113Y28776D01*
G01X2775786Y28244D01*
G01X2775332Y27392D01*
G01X2774991Y26603D01*
G01X2774082Y24330D01*
G01X2773627Y23308D01*
G01X2773059Y22331D01*
G01X2772604Y21394D01*
G01X2771809Y19273D01*
G01X2771581Y18805D01*
G01X2770957Y17683D01*
G01X2770545Y16390D01*
G01X2770204Y15594D01*
G01X2769877Y15062D01*
G01X2769422Y14210D01*
G01X2769082Y13421D01*
G01X2768173Y11148D01*
G01X2767718Y10126D01*
G01X2767263Y9330D01*
G01X2766866Y8592D01*
G01X2766454Y7299D01*
G01X2766113Y6504D01*
G01X2765786Y5971D01*
G01X2765332Y5119D01*
G01X2764991Y4330D01*
G01X2764082Y2058D01*
G01X2763627Y1035D01*
G01X2763059Y58D01*
G01X2762604Y-879D01*
G01X2761809Y-2999D01*
G01X2761581Y-3468D01*
G01X2760956Y-4590D01*
G01X2760545Y-5883D01*
G01X2760204Y-6678D01*
G01X2759877Y-7211D01*
G01X2759422Y-8063D01*
G01X2759082Y-8851D01*
G01X2758173Y-11124D01*
G01X2757718Y-12147D01*
G01X2757263Y-12942D01*
G01X2756866Y-13681D01*
G01X2756454Y-14974D01*
G01X2756113Y-15769D01*
G01X2755786Y-16302D01*
G01X2755332Y-17154D01*
G01X2754991Y-17942D01*
G01X2754082Y-20215D01*
G01X2753627Y-21238D01*
G01X2753172Y-22033D01*
G01X2752775Y-22772D01*
G01X2752363Y-24065D01*
G01X2752022Y-24860D01*
G01X2751695Y-25393D01*
G01X2751241Y-26245D01*
G01X2750900Y-27033D01*
G01X2749991Y-29306D01*
G01X2749536Y-30329D01*
G01X2748968Y-31305D01*
G01X2748513Y-32243D01*
G01X2747718Y-34363D01*
G01X2747491Y-34832D01*
G01X2746865Y-35954D01*
G01X2746454Y-37246D01*
G01X2746113Y-38042D01*
G01X2745786Y-38575D01*
G01X2745332Y-39427D01*
G01X2744991Y-40215D01*
G01X2744082Y-42488D01*
G01X2743627Y-43511D01*
G01X2743059Y-44487D01*
G01X2742604Y-45425D01*
G01X2741809Y-47545D01*
G01X2741582Y-48013D01*
G01X2740956Y-49136D01*
G01X2740545Y-50428D01*
G01X2740204Y-51224D01*
G01X2739877Y-51756D01*
G01X2739423Y-52609D01*
G01X2738741Y-54217D01*
G01X2737959Y-55897D01*
G01X2737618Y-56806D01*
G01X2737263Y-58170D01*
G01X2722718Y-58170D01*
G01X2722718Y1830D01*
G01X2722462Y58080D01*
G01X2722318Y61596D01*
G01X2722146Y61813D01*
G01X2721890Y61671D01*
G01X2721606Y61386D01*
G01X2720786Y60168D01*
G01X2720445Y59728D01*
G01X2720104Y59373D01*
G01X2719763Y59103D01*
G01X2719138Y58592D01*
G01X2718385Y57640D01*
G01X2717817Y57072D01*
G01X2716866Y56319D01*
G01X2716113Y55367D01*
G01X2715544Y54799D01*
G01X2714593Y54046D01*
G01X2713840Y53095D01*
G01X2713272Y52526D01*
G01X2712618Y52029D01*
G01X2712320Y51717D01*
G01X2712050Y51348D01*
G01X2711567Y50495D01*
G01X2711297Y50126D01*
G01X2710999Y49813D01*
G01X2710673Y49558D01*
G01X2710047Y49046D01*
G01X2709295Y48095D01*
G01X2708726Y47526D01*
G01X2707775Y46773D01*
G01X2707022Y45822D01*
G01X2706454Y45254D01*
G01X2705502Y44501D01*
G01X2704749Y43549D01*
G01X2704181Y42981D01*
G01X2703680Y42615D01*
G01X2703115Y42114D01*
G01X2702704Y41674D01*
G01X2701837Y40609D01*
G01X2700658Y39004D01*
G01X2700090Y38435D01*
G01X2699138Y37683D01*
G01X2698386Y36731D01*
G01X2697817Y36163D01*
G01X2696866Y35410D01*
G01X2696113Y34458D01*
G01X2695545Y33890D01*
G01X2694593Y33137D01*
G01X2693840Y32186D01*
G01X2693272Y31617D01*
G01X2692775Y31252D01*
G01X2692434Y30939D01*
G01X2691922Y30310D01*
G01X2691240Y29259D01*
G01X2690900Y28819D01*
G01X2690559Y28464D01*
G01X2690218Y28194D01*
G01X2689593Y27683D01*
G01X2688840Y26731D01*
G01X2688272Y26163D01*
G01X2687320Y25410D01*
G01X2686567Y24458D01*
G01X2685999Y23890D01*
G01X2685047Y23137D01*
G01X2684295Y22186D01*
G01X2683726Y21617D01*
G01X2683073Y21120D01*
G01X2682775Y20808D01*
G01X2682505Y20438D01*
G01X2682022Y19586D01*
G01X2681752Y19217D01*
G01X2681454Y18904D01*
G01X2681127Y18649D01*
G01X2680502Y18137D01*
G01X2679749Y17186D01*
G01X2679181Y16617D01*
G01X2678229Y15864D01*
G01X2677476Y14913D01*
G01X2676908Y14345D01*
G01X2675957Y13592D01*
G01X2675204Y12640D01*
G01X2674635Y12072D01*
G01X2674135Y11706D01*
G01X2673570Y11205D01*
G01X2673158Y10765D01*
G01X2672292Y9700D01*
G01X2671113Y8095D01*
G01X2670545Y7526D01*
G01X2669593Y6774D01*
G01X2668840Y5822D01*
G01X2668272Y5254D01*
G01X2667320Y4501D01*
G01X2666567Y3549D01*
G01X2665999Y2981D01*
G01X2665048Y2228D01*
G01X2664295Y1277D01*
G01X2663726Y708D01*
G01X2663087Y225D01*
G01X2662832Y-45D01*
G01X2662633Y-343D01*
G01X2662348Y-996D01*
G01X2662150Y-1295D01*
G01X2661894Y-1564D01*
G01X2661581Y-1806D01*
G01X2660957Y-2317D01*
G01X2660204Y-3269D01*
G01X2659636Y-3837D01*
G01X2658684Y-4590D01*
G01X2657931Y-5542D01*
G01X2657363Y-6110D01*
G01X2656411Y-6863D01*
G01X2655658Y-7814D01*
G01X2655090Y-8383D01*
G01X2654589Y-8748D01*
G01X2654025Y-9249D01*
G01X2653613Y-9689D01*
G01X2652746Y-10755D01*
G01X2651567Y-12360D01*
G01X2650999Y-12928D01*
G01X2650048Y-13681D01*
G01X2649295Y-14633D01*
G01X2648726Y-15201D01*
G01X2647775Y-15954D01*
G01X2647022Y-16905D01*
G01X2646454Y-17474D01*
G01X2645502Y-18226D01*
G01X2644749Y-19178D01*
G01X2644181Y-19746D01*
G01X2643684Y-20112D01*
G01X2643343Y-20424D01*
G01X2642832Y-21053D01*
G01X2642150Y-22090D01*
G01X2641809Y-22488D01*
G01X2641468Y-22772D01*
G01X2641127Y-22942D01*
G01X2641015Y-22699D01*
G01X2640930Y-22081D01*
G01X2640813Y-20369D01*
G01X2640445Y14785D01*
G01X2640245Y53590D01*
G01X2640218Y53876D01*
G01X2639991Y55012D01*
G01X2623173Y55012D01*
G01X2579460Y55012D01*
G01X2578854Y55240D01*
G01X2578002Y55467D01*
G01X2576170Y55808D01*
G01X2575147Y56035D01*
G01X2574394Y56248D01*
G01X2573485Y56361D01*
G01X2571922Y56433D01*
G01X2571127Y56603D01*
G01X2570807Y56680D01*
G01X2569785Y56787D01*
G01X2567945Y56830D01*
G01X2567334Y56827D01*
G01X2565175Y56741D01*
G01X2563854Y56603D01*
G01X2559224Y56021D01*
G01X2557839Y55776D01*
G01X2556582Y55467D01*
G01X2553627Y54558D01*
G01X2552100Y53989D01*
G01X2550885Y53421D01*
G01X2548755Y52498D01*
G01X2548229Y52228D01*
G01X2547732Y51930D01*
G01X2546550Y51092D01*
G01X2544252Y49614D01*
G01X2543897Y49344D01*
G01X2543386Y48876D01*
G01X2542491Y48194D01*
G01X2541596Y47512D01*
G01X2540843Y46830D01*
G01X2540044Y46252D01*
G01X2539479Y45751D01*
G01X2539067Y45310D01*
G01X2538627Y44785D01*
G01X2536809Y42512D01*
G01X2535761Y41092D01*
G01X2535218Y40239D01*
G01X2533968Y38244D01*
G01X2533513Y37391D01*
G01X2533172Y36603D01*
G01X2532263Y34330D01*
G01X2531582Y32512D01*
G01X2531354Y31660D01*
G01X2531013Y29828D01*
G01X2530786Y28805D01*
G01X2530619Y28197D01*
G01X2530509Y27033D01*
G01X2530445Y23649D01*
G01X2530534Y19689D01*
G01X2530619Y18751D01*
G01X2530672Y18421D01*
G01X2531582Y13876D01*
G01X2531866Y12796D01*
G01X2532477Y11362D01*
G01X2532817Y10339D01*
G01X2533073Y9245D01*
G01X2533229Y8762D01*
G01X2533414Y8336D01*
G01X2533741Y7789D01*
G01X2534195Y6937D01*
G01X2534778Y5580D01*
G01X2535193Y4728D01*
G01X2535673Y3876D01*
G01X2538627Y-840D01*
G01X2539309Y-1806D01*
G01X2540701Y-3766D01*
G01X2542235Y-5755D01*
G01X2543172Y-7033D01*
G01X2543854Y-7928D01*
G01X2544295Y-8411D01*
G01X2544479Y-8681D01*
G01X2544636Y-8979D01*
G01X2544906Y-9633D01*
G01X2545104Y-9931D01*
G01X2545360Y-10201D01*
G01X2545673Y-10442D01*
G01X2545999Y-10698D01*
G01X2546297Y-11010D01*
G01X2546567Y-11380D01*
G01X2547050Y-12232D01*
G01X2547320Y-12602D01*
G01X2547618Y-12914D01*
G01X2548258Y-13411D01*
G01X2548513Y-13681D01*
G01X2548712Y-13979D01*
G01X2548996Y-14633D01*
G01X2549195Y-14931D01*
G01X2549451Y-15201D01*
G01X2549764Y-15442D01*
G01X2550090Y-15698D01*
G01X2550388Y-16010D01*
G01X2550658Y-16380D01*
G01X2551141Y-17232D01*
G01X2551411Y-17602D01*
G01X2551709Y-17914D01*
G01X2552206Y-18294D01*
G01X2552548Y-18606D01*
G01X2553059Y-19235D01*
G01X2553741Y-20286D01*
G01X2554082Y-20726D01*
G01X2554422Y-21082D01*
G01X2554763Y-21351D01*
G01X2555090Y-21607D01*
G01X2555388Y-21920D01*
G01X2555658Y-22289D01*
G01X2556141Y-23141D01*
G01X2556411Y-23511D01*
G01X2556709Y-23823D01*
G01X2557206Y-24203D01*
G01X2557548Y-24515D01*
G01X2558059Y-25144D01*
G01X2558741Y-26195D01*
G01X2559081Y-26636D01*
G01X2559422Y-26991D01*
G01X2559763Y-27261D01*
G01X2560090Y-27516D01*
G01X2560388Y-27829D01*
G01X2560658Y-28198D01*
G01X2561141Y-29050D01*
G01X2561411Y-29420D01*
G01X2561709Y-29732D01*
G01X2562206Y-30112D01*
G01X2562548Y-30424D01*
G01X2563059Y-31053D01*
G01X2563741Y-32104D01*
G01X2564081Y-32545D01*
G01X2564422Y-32900D01*
G01X2564763Y-33170D01*
G01X2565090Y-33425D01*
G01X2565388Y-33738D01*
G01X2565658Y-34107D01*
G01X2566141Y-34959D01*
G01X2566411Y-35329D01*
G01X2566709Y-35641D01*
G01X2567349Y-36138D01*
G01X2567604Y-36408D01*
G01X2567803Y-36707D01*
G01X2568087Y-37360D01*
G01X2568286Y-37658D01*
G01X2568542Y-37928D01*
G01X2568854Y-38170D01*
G01X2569479Y-38681D01*
G01X2569991Y-39306D01*
G01X2570673Y-40201D01*
G01X2571113Y-40684D01*
G01X2571297Y-40954D01*
G01X2571454Y-41252D01*
G01X2571582Y-41579D01*
G01X2571228Y-41757D01*
G01X2570374Y-41877D01*
G01X2568407Y-42014D01*
G01X2550900Y-42261D01*
G01X2529991Y-42261D01*
G01X2491809Y-42261D01*
G01X2491809Y122285D01*
G01X2979990Y122285D01*
G37*
G36*
G01X2808471Y-14135D02*
G01X2808286Y-14337D01*
G01X2807623Y-14389D01*
G01X2791354Y-14533D01*
G01X2774536Y-14533D01*
G01X2774891Y-13184D01*
G01X2775232Y-12388D01*
G01X2775843Y-11295D01*
G01X2776255Y-10002D01*
G01X2776596Y-9207D01*
G01X2776922Y-8670D01*
G01X2777377Y-7733D01*
G01X2778172Y-5613D01*
G01X2778400Y-5144D01*
G01X2779025Y-4022D01*
G01X2779437Y-2729D01*
G01X2779778Y-1934D01*
G01X2780388Y-840D01*
G01X2780800Y453D01*
G01X2781141Y1248D01*
G01X2781468Y1784D01*
G01X2781922Y2722D01*
G01X2782718Y4842D01*
G01X2782945Y5311D01*
G01X2783570Y6433D01*
G01X2783982Y7725D01*
G01X2784323Y8521D01*
G01X2784650Y9057D01*
G01X2785104Y9995D01*
G01X2785900Y12114D01*
G01X2786127Y12583D01*
G01X2786752Y13705D01*
G01X2787164Y14998D01*
G01X2787505Y15793D01*
G01X2787832Y16330D01*
G01X2788286Y17267D01*
G01X2789082Y19387D01*
G01X2789749Y20594D01*
G01X2790090Y21390D01*
G01X2790360Y22242D01*
G01X2790559Y22569D01*
G01X2790814Y22810D01*
G01X2791127Y22967D01*
G01X2791454Y22995D01*
G01X2791752Y22853D01*
G01X2792022Y22541D01*
G01X2792263Y22058D01*
G01X2793172Y19785D01*
G01X2793627Y18762D01*
G01X2794082Y17967D01*
G01X2794479Y17228D01*
G01X2794891Y15935D01*
G01X2795232Y15140D01*
G01X2795559Y14607D01*
G01X2796013Y13755D01*
G01X2796695Y12146D01*
G01X2797490Y10453D01*
G01X2798627Y7853D01*
G01X2799195Y6876D01*
G01X2799650Y5939D01*
G01X2800445Y3819D01*
G01X2800672Y3350D01*
G01X2801013Y2789D01*
G01X2801468Y1937D01*
G01X2801809Y1148D01*
G01X2802718Y-1124D01*
G01X2803172Y-2147D01*
G01X2803741Y-3124D01*
G01X2804195Y-4061D01*
G01X2804991Y-6181D01*
G01X2805218Y-6650D01*
G01X2805559Y-7211D01*
G01X2806013Y-8063D01*
G01X2806695Y-9672D01*
G01X2807491Y-11366D01*
G01X2808172Y-12942D01*
G01X2808357Y-13454D01*
G01X2808456Y-13851D01*
G01X2808471Y-14135D01*
G37*
G36*
G01X2979990Y-477715D02*
G01X2979990Y-722260D01*
G01X2385445Y-722260D01*
G01X2385445Y-658169D01*
G01X2414536Y-658169D01*
G01X2424536Y-658169D01*
G01X2430758Y-658041D01*
G01X2433485Y-657814D01*
G01X2434423Y-657658D01*
G01X2435076Y-657473D01*
G01X2435445Y-657260D01*
G01X2435886Y-656791D01*
G01X2436297Y-656294D01*
G01X2436681Y-655769D01*
G01X2437775Y-654078D01*
G01X2438627Y-652942D01*
G01X2439675Y-651522D01*
G01X2440843Y-649703D01*
G01X2441113Y-649348D01*
G01X2441472Y-648954D01*
G01X2442011Y-648244D01*
G01X2443172Y-646408D01*
G01X2446638Y-641546D01*
G01X2447491Y-640215D01*
G01X2448229Y-639078D01*
G01X2449082Y-637942D01*
G01X2450129Y-636522D01*
G01X2451411Y-634533D01*
G01X2452263Y-633396D01*
G01X2453311Y-631976D01*
G01X2454479Y-630158D01*
G01X2454749Y-629803D01*
G01X2455108Y-629409D01*
G01X2455648Y-628698D01*
G01X2456809Y-626862D01*
G01X2460275Y-622001D01*
G01X2461127Y-620669D01*
G01X2461866Y-619533D01*
G01X2462718Y-618396D01*
G01X2463765Y-616976D01*
G01X2464934Y-615158D01*
G01X2465204Y-614803D01*
G01X2465563Y-614409D01*
G01X2466102Y-613698D01*
G01X2466766Y-612676D01*
G01X2466979Y-612445D01*
G01X2467221Y-612249D01*
G01X2467491Y-612090D01*
G01X2467789Y-611965D01*
G01X2468116Y-611877D01*
G01X2468471Y-611823D01*
G01X2468854Y-611806D01*
G01X2470445Y-611806D01*
G01X2470445Y-658169D01*
G01X2478854Y-658169D01*
G01X2486170Y-658080D01*
G01X2486170Y-658080D01*
G01X2487306Y-657995D01*
G01X2487523Y-657605D01*
G01X2487718Y-602487D01*
G01X2487544Y-547253D01*
G01X2487491Y-546124D01*
G01X2487264Y-544987D01*
G01X2509991Y-544987D01*
G01X2509991Y-560896D01*
G01X2555445Y-560896D01*
G01X2555445Y-588169D01*
G01X2511354Y-588169D01*
G01X2511354Y-604078D01*
G01X2555445Y-604078D01*
G01X2555445Y-642260D01*
G01X2509991Y-642260D01*
G01X2509991Y-658169D01*
G01X2572263Y-658169D01*
G01X2572263Y-601578D01*
G01X2572263Y-601578D01*
G01X2572263Y-545669D01*
G01X2587036Y-545669D01*
G01X2587718Y-547487D01*
G01X2589536Y-552033D01*
G01X2589877Y-552853D01*
G01X2590672Y-554547D01*
G01X2591354Y-556124D01*
G01X2593172Y-560669D01*
G01X2593513Y-561489D01*
G01X2594309Y-563183D01*
G01X2594991Y-564760D01*
G01X2596809Y-569306D01*
G01X2597150Y-570126D01*
G01X2598116Y-572260D01*
G01X2598528Y-573610D01*
G01X2598869Y-574405D01*
G01X2599479Y-575499D01*
G01X2599891Y-576791D01*
G01X2600232Y-577587D01*
G01X2600559Y-578123D01*
G01X2601013Y-579060D01*
G01X2601354Y-579987D01*
G01X2601922Y-581514D01*
G01X2602491Y-582729D01*
G01X2603172Y-584306D01*
G01X2604082Y-586578D01*
G01X2604423Y-587399D01*
G01X2605388Y-589533D01*
G01X2605800Y-590882D01*
G01X2606141Y-591678D01*
G01X2606752Y-592772D01*
G01X2607164Y-594064D01*
G01X2607505Y-594859D01*
G01X2607831Y-595396D01*
G01X2608286Y-596333D01*
G01X2608627Y-597260D01*
G01X2609195Y-598787D01*
G01X2609763Y-600002D01*
G01X2610445Y-601578D01*
G01X2612263Y-606124D01*
G01X2612604Y-606944D01*
G01X2613400Y-608638D01*
G01X2614082Y-610215D01*
G01X2615900Y-614760D01*
G01X2616241Y-615581D01*
G01X2617036Y-617274D01*
G01X2617718Y-618851D01*
G01X2619536Y-623396D01*
G01X2619877Y-624217D01*
G01X2620672Y-625911D01*
G01X2621354Y-627487D01*
G01X2623173Y-632033D01*
G01X2623513Y-632853D01*
G01X2624479Y-634987D01*
G01X2624891Y-636337D01*
G01X2625232Y-637132D01*
G01X2625843Y-638226D01*
G01X2626255Y-639519D01*
G01X2626596Y-640314D01*
G01X2626922Y-640850D01*
G01X2627377Y-641788D01*
G01X2627718Y-642715D01*
G01X2628286Y-644242D01*
G01X2628854Y-645456D01*
G01X2629536Y-647033D01*
G01X2630445Y-649306D01*
G01X2630786Y-650126D01*
G01X2631752Y-652260D01*
G01X2632164Y-653609D01*
G01X2632505Y-654405D01*
G01X2632832Y-654941D01*
G01X2633286Y-655879D01*
G01X2633627Y-656805D01*
G01X2634195Y-658333D01*
G01X2634763Y-659547D01*
G01X2635445Y-661124D01*
G01X2636354Y-663397D01*
G01X2636581Y-663865D01*
G01X2636809Y-664135D01*
G01X2637263Y-664078D01*
G01X2637572Y-663641D01*
G01X2637743Y-663244D01*
G01X2638073Y-661933D01*
G01X2638414Y-660911D01*
G01X2639082Y-659419D01*
G01X2639536Y-658169D01*
G01X2640445Y-655442D01*
G01X2641013Y-653915D01*
G01X2641567Y-652700D01*
G01X2641908Y-651678D01*
G01X2642164Y-650584D01*
G01X2642320Y-650101D01*
G01X2642505Y-649675D01*
G01X2642828Y-649128D01*
G01X2643027Y-648730D01*
G01X2643272Y-648027D01*
G01X2643528Y-646933D01*
G01X2643868Y-645911D01*
G01X2644536Y-644419D01*
G01X2644991Y-643169D01*
G01X2645900Y-640442D01*
G01X2646468Y-638915D01*
G01X2647022Y-637700D01*
G01X2647363Y-636678D01*
G01X2647619Y-635584D01*
G01X2647775Y-635101D01*
G01X2647959Y-634675D01*
G01X2648282Y-634128D01*
G01X2648481Y-633730D01*
G01X2648726Y-633027D01*
G01X2648982Y-631933D01*
G01X2649323Y-630911D01*
G01X2649991Y-629419D01*
G01X2650445Y-628169D01*
G01X2651354Y-625442D01*
G01X2651923Y-623915D01*
G01X2652477Y-622700D01*
G01X2652817Y-621678D01*
G01X2653073Y-620584D01*
G01X2653229Y-620101D01*
G01X2653414Y-619675D01*
G01X2653737Y-619128D01*
G01X2653936Y-618730D01*
G01X2654181Y-618027D01*
G01X2654437Y-616933D01*
G01X2654778Y-615911D01*
G01X2655204Y-614987D01*
G01X2655545Y-614078D01*
G01X2655957Y-612715D01*
G01X2656567Y-611337D01*
G01X2656908Y-610314D01*
G01X2657164Y-609220D01*
G01X2657320Y-608737D01*
G01X2657505Y-608311D01*
G01X2657828Y-607764D01*
G01X2658027Y-607367D01*
G01X2658272Y-606664D01*
G01X2658528Y-605570D01*
G01X2658868Y-604547D01*
G01X2659536Y-603056D01*
G01X2659991Y-601806D01*
G01X2660900Y-599078D01*
G01X2661468Y-597551D01*
G01X2662022Y-596337D01*
G01X2662363Y-595314D01*
G01X2662619Y-594220D01*
G01X2662775Y-593737D01*
G01X2662959Y-593311D01*
G01X2663282Y-592764D01*
G01X2663481Y-592367D01*
G01X2663726Y-591664D01*
G01X2663854Y-591124D01*
G01X2664138Y-590044D01*
G01X2664749Y-588610D01*
G01X2665090Y-587587D01*
G01X2665360Y-586550D01*
G01X2665559Y-586237D01*
G01X2665815Y-586095D01*
G01X2666127Y-586124D01*
G01X2666439Y-586280D01*
G01X2666695Y-586521D01*
G01X2666894Y-586848D01*
G01X2667164Y-587715D01*
G01X2667505Y-588624D01*
G01X2668116Y-589987D01*
G01X2668528Y-591351D01*
G01X2668868Y-592260D01*
G01X2669479Y-593624D01*
G01X2669891Y-594987D01*
G01X2670232Y-595897D01*
G01X2670900Y-597374D01*
G01X2671468Y-598961D01*
G01X2672377Y-601411D01*
G01X2673172Y-603624D01*
G01X2673741Y-605151D01*
G01X2674479Y-606806D01*
G01X2674891Y-608169D01*
G01X2675232Y-609078D01*
G01X2675843Y-610442D01*
G01X2676255Y-611806D01*
G01X2676596Y-612715D01*
G01X2677263Y-614192D01*
G01X2677832Y-615779D01*
G01X2678741Y-618229D01*
G01X2679536Y-620442D01*
G01X2680104Y-621969D01*
G01X2680843Y-623624D01*
G01X2681255Y-624987D01*
G01X2681596Y-625896D01*
G01X2682206Y-627260D01*
G01X2682618Y-628624D01*
G01X2682959Y-629533D01*
G01X2683570Y-630896D01*
G01X2683982Y-632260D01*
G01X2684323Y-633169D01*
G01X2684991Y-634647D01*
G01X2685559Y-636234D01*
G01X2686468Y-638684D01*
G01X2687263Y-640896D01*
G01X2687832Y-642423D01*
G01X2688570Y-644078D01*
G01X2688982Y-645442D01*
G01X2689323Y-646351D01*
G01X2689934Y-647715D01*
G01X2690346Y-649078D01*
G01X2690687Y-649987D01*
G01X2691297Y-651351D01*
G01X2691709Y-652715D01*
G01X2692050Y-653624D01*
G01X2692718Y-655101D01*
G01X2693286Y-656688D01*
G01X2694081Y-658851D01*
G01X2695104Y-661411D01*
G01X2695900Y-663624D01*
G01X2696354Y-664987D01*
G01X2696354Y-664987D01*
G01X2696809Y-664078D01*
G01X2697263Y-663055D01*
G01X2697718Y-661805D01*
G01X2698286Y-660278D01*
G01X2699081Y-658510D01*
G01X2699536Y-657260D01*
G01X2700104Y-655733D01*
G01X2700900Y-653965D01*
G01X2701354Y-652715D01*
G01X2701922Y-651188D01*
G01X2702718Y-649419D01*
G01X2703172Y-648169D01*
G01X2703741Y-646642D01*
G01X2704536Y-644874D01*
G01X2704991Y-643624D01*
G01X2705559Y-642097D01*
G01X2706354Y-640328D01*
G01X2706809Y-639078D01*
G01X2707377Y-637551D01*
G01X2708172Y-635783D01*
G01X2708627Y-634533D01*
G01X2709195Y-633006D01*
G01X2709991Y-631237D01*
G01X2710445Y-629987D01*
G01X2711013Y-628460D01*
G01X2711809Y-626692D01*
G01X2712263Y-625442D01*
G01X2712832Y-623915D01*
G01X2713627Y-622146D01*
G01X2714081Y-620896D01*
G01X2714650Y-619369D01*
G01X2715445Y-617601D01*
G01X2715900Y-616351D01*
G01X2716468Y-614824D01*
G01X2717263Y-613056D01*
G01X2717718Y-611806D01*
G01X2718286Y-610279D01*
G01X2719081Y-608510D01*
G01X2719536Y-607260D01*
G01X2720104Y-605733D01*
G01X2720900Y-603965D01*
G01X2721354Y-602715D01*
G01X2721922Y-601188D01*
G01X2722053Y-600897D01*
G01X2748172Y-600897D01*
G01X2748261Y-605247D01*
G01X2748347Y-606241D01*
G01X2748513Y-607203D01*
G01X2748854Y-609760D01*
G01X2749082Y-611578D01*
G01X2749309Y-612942D01*
G01X2749536Y-613965D01*
G01X2749991Y-615612D01*
G01X2750346Y-617487D01*
G01X2750591Y-618510D01*
G01X2751013Y-619870D01*
G01X2751809Y-622033D01*
G01X2752718Y-624305D01*
G01X2753172Y-625328D01*
G01X2753740Y-626301D01*
G01X2754195Y-627154D01*
G01X2754991Y-628965D01*
G01X2755218Y-629391D01*
G01X2755900Y-630499D01*
G01X2756596Y-631806D01*
G01X2757011Y-632487D01*
G01X2757491Y-633169D01*
G01X2758883Y-635129D01*
G01X2760417Y-637118D01*
G01X2761596Y-638723D01*
G01X2762164Y-639291D01*
G01X2762803Y-639774D01*
G01X2763059Y-640044D01*
G01X2763258Y-640342D01*
G01X2763542Y-640996D01*
G01X2763740Y-641294D01*
G01X2763996Y-641564D01*
G01X2764636Y-642047D01*
G01X2765204Y-642615D01*
G01X2765701Y-643269D01*
G01X2766013Y-643567D01*
G01X2766383Y-643837D01*
G01X2767235Y-644320D01*
G01X2767604Y-644590D01*
G01X2767917Y-644888D01*
G01X2768297Y-645389D01*
G01X2768797Y-645953D01*
G01X2769238Y-646365D01*
G01X2770303Y-647232D01*
G01X2771908Y-648397D01*
G01X2772842Y-649195D01*
G01X2773552Y-649735D01*
G01X2774309Y-650215D01*
G01X2776866Y-651805D01*
G01X2778187Y-652501D01*
G01X2780331Y-653723D01*
G01X2781184Y-654160D01*
G01X2783059Y-654987D01*
G01X2784032Y-655552D01*
G01X2784430Y-655751D01*
G01X2785133Y-655996D01*
G01X2785672Y-656124D01*
G01X2786752Y-656408D01*
G01X2788215Y-657033D01*
G01X2789121Y-657374D01*
G01X2790218Y-657715D01*
G01X2792490Y-658397D01*
G01X2793400Y-658624D01*
G01X2795502Y-658965D01*
G01X2796638Y-659192D01*
G01X2797775Y-659476D01*
G01X2799067Y-659547D01*
G01X2799863Y-659661D01*
G01X2800398Y-659801D01*
G01X2801560Y-659899D01*
G01X2807491Y-659987D01*
G01X2813421Y-659899D01*
G01X2814501Y-659813D01*
G01X2814501Y-659813D01*
G01X2814763Y-659760D01*
G01X2815672Y-659533D01*
G01X2817775Y-659192D01*
G01X2818911Y-658965D01*
G01X2820218Y-658624D01*
G01X2822679Y-658194D01*
G01X2823304Y-658024D01*
G01X2823843Y-657825D01*
G01X2825047Y-657317D01*
G01X2826681Y-656905D01*
G01X2827704Y-656564D01*
G01X2828641Y-656124D01*
G01X2830218Y-655442D01*
G01X2832491Y-654533D01*
G01X2833513Y-654078D01*
G01X2833939Y-653851D01*
G01X2835047Y-653169D01*
G01X2836368Y-652473D01*
G01X2837945Y-651578D01*
G01X2839025Y-650896D01*
G01X2840431Y-649902D01*
G01X2841226Y-649448D01*
G01X2841908Y-649163D01*
G01X2842206Y-648965D01*
G01X2842476Y-648709D01*
G01X2842959Y-648084D01*
G01X2843229Y-647828D01*
G01X2843527Y-647629D01*
G01X2844181Y-647345D01*
G01X2844479Y-647146D01*
G01X2844749Y-646891D01*
G01X2844991Y-646578D01*
G01X2845246Y-646252D01*
G01X2845559Y-645953D01*
G01X2845928Y-645683D01*
G01X2846780Y-645200D01*
G01X2847150Y-644930D01*
G01X2847462Y-644632D01*
G01X2847959Y-643979D01*
G01X2848527Y-643411D01*
G01X2849479Y-642658D01*
G01X2850232Y-641706D01*
G01X2850800Y-641138D01*
G01X2851752Y-640385D01*
G01X2852263Y-639760D01*
G01X2852945Y-638865D01*
G01X2853577Y-638187D01*
G01X2854536Y-637033D01*
G01X2854962Y-636493D01*
G01X2855900Y-635215D01*
G01X2857036Y-633396D01*
G01X2857661Y-632431D01*
G01X2858286Y-631681D01*
G01X2858513Y-631369D01*
G01X2858854Y-630740D01*
G01X2859536Y-629192D01*
G01X2860104Y-628219D01*
G01X2860559Y-627367D01*
G01X2861241Y-625758D01*
G01X2862263Y-623510D01*
G01X2862718Y-622260D01*
G01X2864536Y-616635D01*
G01X2864877Y-614803D01*
G01X2865104Y-613780D01*
G01X2865218Y-613396D01*
G01X2865388Y-612658D01*
G01X2865459Y-611365D01*
G01X2865573Y-610570D01*
G01X2865700Y-610123D01*
G01X2865811Y-609479D01*
G01X2865868Y-608741D01*
G01X2865900Y-607260D01*
G01X2865956Y-605385D01*
G01X2866028Y-604746D01*
G01X2866127Y-604305D01*
G01X2866226Y-603894D01*
G01X2866322Y-603009D01*
G01X2866354Y-601806D01*
G01X2866297Y-600271D01*
G01X2866226Y-599717D01*
G01X2866127Y-599305D01*
G01X2866028Y-598908D01*
G01X2865932Y-598098D01*
G01X2865886Y-596237D01*
G01X2865811Y-595044D01*
G01X2865672Y-593851D01*
G01X2865218Y-591124D01*
G01X2864763Y-588851D01*
G01X2864536Y-587828D01*
G01X2864081Y-586181D01*
G01X2863726Y-584334D01*
G01X2863570Y-583737D01*
G01X2863385Y-583198D01*
G01X2862775Y-581806D01*
G01X2862363Y-580456D01*
G01X2862022Y-579661D01*
G01X2861695Y-579128D01*
G01X2861241Y-578276D01*
G01X2861094Y-577942D01*
G01X2878172Y-577942D01*
G01X2878229Y-579306D01*
G01X2878300Y-579817D01*
G01X2878453Y-580392D01*
G01X2878570Y-581010D01*
G01X2878641Y-582601D01*
G01X2878716Y-583453D01*
G01X2878854Y-584306D01*
G01X2879309Y-586578D01*
G01X2879536Y-587601D01*
G01X2879990Y-589192D01*
G01X2880346Y-590754D01*
G01X2880502Y-591237D01*
G01X2880687Y-591664D01*
G01X2881013Y-592210D01*
G01X2881468Y-593063D01*
G01X2882050Y-594419D01*
G01X2882466Y-595271D01*
G01X2882945Y-596124D01*
G01X2883684Y-597260D01*
G01X2884536Y-598396D01*
G01X2884962Y-598936D01*
G01X2885900Y-600215D01*
G01X2886411Y-600840D01*
G01X2887363Y-601592D01*
G01X2887931Y-602161D01*
G01X2888414Y-602800D01*
G01X2888684Y-603056D01*
G01X2888982Y-603254D01*
G01X2889635Y-603538D01*
G01X2889934Y-603737D01*
G01X2890204Y-603993D01*
G01X2890445Y-604305D01*
G01X2890701Y-604632D01*
G01X2891013Y-604931D01*
G01X2891383Y-605201D01*
G01X2892235Y-605669D01*
G01X2892917Y-606124D01*
G01X2893297Y-606465D01*
G01X2893609Y-606692D01*
G01X2894238Y-607033D01*
G01X2895786Y-607715D01*
G01X2896763Y-608283D01*
G01X2897700Y-608737D01*
G01X2898627Y-609078D01*
G01X2904252Y-610897D01*
G01X2906084Y-611237D01*
G01X2907107Y-611465D01*
G01X2907888Y-611678D01*
G01X2908698Y-611774D01*
G01X2911127Y-611862D01*
G01X2911638Y-611933D01*
G01X2912084Y-612047D01*
G01X2913453Y-612180D01*
G01X2918627Y-612260D01*
G01X2924536Y-612260D01*
G01X2924536Y-658169D01*
G01X2932945Y-658169D01*
G01X2940260Y-658080D01*
G01X2940260Y-658080D01*
G01X2941397Y-657995D01*
G01X2941614Y-657605D01*
G01X2941809Y-602487D01*
G01X2941635Y-547253D01*
G01X2941581Y-546124D01*
G01X2941354Y-544987D01*
G01X2930672Y-544987D01*
G01X2922490Y-545044D01*
G01X2919636Y-545161D01*
G01X2919309Y-545215D01*
G01X2918965Y-545292D01*
G01X2917751Y-545399D01*
G01X2915052Y-545443D01*
G01X2911912Y-545531D01*
G01X2910218Y-545669D01*
G01X2906581Y-546124D01*
G01X2905843Y-546238D01*
G01X2904706Y-546465D01*
G01X2903954Y-546678D01*
G01X2903158Y-546791D01*
G01X2902263Y-546834D01*
G01X2901809Y-546919D01*
G01X2901354Y-547061D01*
G01X2900431Y-547473D01*
G01X2899408Y-547814D01*
G01X2898314Y-548070D01*
G01X2897831Y-548226D01*
G01X2897405Y-548411D01*
G01X2896859Y-548737D01*
G01X2896006Y-549192D01*
G01X2894664Y-549774D01*
G01X2894138Y-550044D01*
G01X2893641Y-550342D01*
G01X2892732Y-550982D01*
G01X2891937Y-551436D01*
G01X2891255Y-551720D01*
G01X2890956Y-551919D01*
G01X2890687Y-552175D01*
G01X2890204Y-552814D01*
G01X2889635Y-553382D01*
G01X2888684Y-554135D01*
G01X2887931Y-555087D01*
G01X2887363Y-555655D01*
G01X2886862Y-556021D01*
G01X2886297Y-556521D01*
G01X2885886Y-556962D01*
G01X2885019Y-558027D01*
G01X2884081Y-559306D01*
G01X2882718Y-561408D01*
G01X2881809Y-563113D01*
G01X2881244Y-564029D01*
G01X2881045Y-564426D01*
G01X2880800Y-565130D01*
G01X2880545Y-566209D01*
G01X2880388Y-566692D01*
G01X2880204Y-567118D01*
G01X2879880Y-567669D01*
G01X2879682Y-568095D01*
G01X2879436Y-568894D01*
G01X2879195Y-570172D01*
G01X2878968Y-571195D01*
G01X2878801Y-571759D01*
G01X2878684Y-572430D01*
G01X2878613Y-574263D01*
G01X2878499Y-575286D01*
G01X2878300Y-576067D01*
G01X2878204Y-576877D01*
G01X2878172Y-577942D01*
G01X2861094Y-577942D01*
G01X2860445Y-576465D01*
G01X2859877Y-575492D01*
G01X2859422Y-574639D01*
G01X2858840Y-573297D01*
G01X2858570Y-572771D01*
G01X2858272Y-572274D01*
G01X2857434Y-571092D01*
G01X2856582Y-569760D01*
G01X2855843Y-568624D01*
G01X2854990Y-567487D01*
G01X2852746Y-564675D01*
G01X2851809Y-563396D01*
G01X2851297Y-562771D01*
G01X2850346Y-562019D01*
G01X2849777Y-561450D01*
G01X2849025Y-560499D01*
G01X2848073Y-559746D01*
G01X2847505Y-559178D01*
G01X2847022Y-558538D01*
G01X2846752Y-558283D01*
G01X2846454Y-558084D01*
G01X2845800Y-557800D01*
G01X2845502Y-557601D01*
G01X2845232Y-557345D01*
G01X2844749Y-556706D01*
G01X2844181Y-556138D01*
G01X2843485Y-555641D01*
G01X2841496Y-554107D01*
G01X2840218Y-553169D01*
G01X2835843Y-550442D01*
G01X2834138Y-549533D01*
G01X2833222Y-548965D01*
G01X2832370Y-548510D01*
G01X2831582Y-548169D01*
G01X2829021Y-547147D01*
G01X2826809Y-546351D01*
G01X2822036Y-544760D01*
G01X2821127Y-544533D01*
G01X2819025Y-544192D01*
G01X2817888Y-543965D01*
G01X2816752Y-543680D01*
G01X2815459Y-543610D01*
G01X2814664Y-543496D01*
G01X2814262Y-543383D01*
G01X2813005Y-543249D01*
G01X2808400Y-543169D01*
G01X2802716Y-543277D01*
G01X2801127Y-543397D01*
G01X2799309Y-543624D01*
G01X2794422Y-544433D01*
G01X2793229Y-544678D01*
G01X2792036Y-544987D01*
G01X2789408Y-545783D01*
G01X2787718Y-546251D01*
G01X2786809Y-546593D01*
G01X2785331Y-547260D01*
G01X2784082Y-547715D01*
G01X2782888Y-548169D01*
G01X2782420Y-548397D01*
G01X2781859Y-548737D01*
G01X2781006Y-549192D01*
G01X2779664Y-549774D01*
G01X2779138Y-550044D01*
G01X2778641Y-550342D01*
G01X2777718Y-550996D01*
G01X2777036Y-551433D01*
G01X2775900Y-552047D01*
G01X2775218Y-552463D01*
G01X2774536Y-552942D01*
G01X2772619Y-554306D01*
G01X2771688Y-555101D01*
G01X2771241Y-555442D01*
G01X2770019Y-556138D01*
G01X2769650Y-556408D01*
G01X2769337Y-556706D01*
G01X2768840Y-557360D01*
G01X2768272Y-557928D01*
G01X2767320Y-558680D01*
G01X2766567Y-559632D01*
G01X2765999Y-560200D01*
G01X2765047Y-560953D01*
G01X2764294Y-561905D01*
G01X2763727Y-562473D01*
G01X2763226Y-562839D01*
G01X2762661Y-563340D01*
G01X2762249Y-563780D01*
G01X2761383Y-564845D01*
G01X2760190Y-566493D01*
G01X2759082Y-567942D01*
G01X2758034Y-569362D01*
G01X2756866Y-571181D01*
G01X2756241Y-571930D01*
G01X2756013Y-572242D01*
G01X2755672Y-572871D01*
G01X2754991Y-574419D01*
G01X2754422Y-575392D01*
G01X2753968Y-576245D01*
G01X2753172Y-578056D01*
G01X2752608Y-579029D01*
G01X2752409Y-579426D01*
G01X2752164Y-580129D01*
G01X2751908Y-581209D01*
G01X2751752Y-581692D01*
G01X2751567Y-582118D01*
G01X2751244Y-582665D01*
G01X2751045Y-583063D01*
G01X2750800Y-583766D01*
G01X2750545Y-584902D01*
G01X2749991Y-587033D01*
G01X2749309Y-589305D01*
G01X2749138Y-590044D01*
G01X2749067Y-591337D01*
G01X2748954Y-592132D01*
G01X2748684Y-593226D01*
G01X2748613Y-594519D01*
G01X2748499Y-595314D01*
G01X2748347Y-595900D01*
G01X2748237Y-597157D01*
G01X2748172Y-600897D01*
G01X2722053Y-600897D01*
G01X2722718Y-599419D01*
G01X2723172Y-598169D01*
G01X2723741Y-596642D01*
G01X2724536Y-594874D01*
G01X2724990Y-593624D01*
G01X2725559Y-592097D01*
G01X2726354Y-590328D01*
G01X2726809Y-589078D01*
G01X2727377Y-587551D01*
G01X2728172Y-585783D01*
G01X2728627Y-584533D01*
G01X2729195Y-583006D01*
G01X2729990Y-581237D01*
G01X2730445Y-579987D01*
G01X2731013Y-578460D01*
G01X2731809Y-576692D01*
G01X2732263Y-575442D01*
G01X2732831Y-573915D01*
G01X2733627Y-572147D01*
G01X2734081Y-570897D01*
G01X2734650Y-569370D01*
G01X2735388Y-567715D01*
G01X2735800Y-566351D01*
G01X2736141Y-565442D01*
G01X2736809Y-563965D01*
G01X2737263Y-562715D01*
G01X2737831Y-561188D01*
G01X2738627Y-559419D01*
G01X2739081Y-558169D01*
G01X2739650Y-556642D01*
G01X2740445Y-554874D01*
G01X2740900Y-553624D01*
G01X2741468Y-552097D01*
G01X2742207Y-550442D01*
G01X2742618Y-549092D01*
G01X2742959Y-548297D01*
G01X2743283Y-547764D01*
G01X2743481Y-547367D01*
G01X2743726Y-546663D01*
G01X2743854Y-546124D01*
G01X2744082Y-544987D01*
G01X2725900Y-544987D01*
G01X2725332Y-546688D01*
G01X2724536Y-548851D01*
G01X2722604Y-553684D01*
G01X2721809Y-555896D01*
G01X2721241Y-557423D01*
G01X2720445Y-559192D01*
G01X2719990Y-560442D01*
G01X2719422Y-561969D01*
G01X2718684Y-563624D01*
G01X2718272Y-564987D01*
G01X2717931Y-565896D01*
G01X2717263Y-567374D01*
G01X2716809Y-568624D01*
G01X2716241Y-570151D01*
G01X2715502Y-571806D01*
G01X2715090Y-573169D01*
G01X2714749Y-574078D01*
G01X2714081Y-575555D01*
G01X2713627Y-576806D01*
G01X2713059Y-578332D01*
G01X2712320Y-579987D01*
G01X2711908Y-581351D01*
G01X2711567Y-582260D01*
G01X2710900Y-583737D01*
G01X2710445Y-584987D01*
G01X2709877Y-586514D01*
G01X2709138Y-588169D01*
G01X2708726Y-589533D01*
G01X2708385Y-590442D01*
G01X2707718Y-591919D01*
G01X2707263Y-593169D01*
G01X2706695Y-594696D01*
G01X2705900Y-596465D01*
G01X2705331Y-598052D01*
G01X2704536Y-600215D01*
G01X2701695Y-607320D01*
G01X2700900Y-609533D01*
G01X2700331Y-611060D01*
G01X2699536Y-612828D01*
G01X2699081Y-614078D01*
G01X2698513Y-615605D01*
G01X2697959Y-616820D01*
G01X2697618Y-617842D01*
G01X2697349Y-618908D01*
G01X2697150Y-619305D01*
G01X2696894Y-619590D01*
G01X2696582Y-619760D01*
G01X2696255Y-619774D01*
G01X2695957Y-619590D01*
G01X2695687Y-619206D01*
G01X2695562Y-618940D01*
G01X2695331Y-618286D01*
G01X2694422Y-615836D01*
G01X2693627Y-613624D01*
G01X2693059Y-612097D01*
G01X2692263Y-610328D01*
G01X2691695Y-608741D01*
G01X2690786Y-606291D01*
G01X2689991Y-604078D01*
G01X2689422Y-602551D01*
G01X2688684Y-600897D01*
G01X2688272Y-599533D01*
G01X2687931Y-598624D01*
G01X2687263Y-597146D01*
G01X2686695Y-595559D01*
G01X2685786Y-593109D01*
G01X2684991Y-590897D01*
G01X2684422Y-589370D01*
G01X2683684Y-587715D01*
G01X2683272Y-586351D01*
G01X2682931Y-585442D01*
G01X2682263Y-583965D01*
G01X2681695Y-582377D01*
G01X2680786Y-579927D01*
G01X2679991Y-577715D01*
G01X2679422Y-576188D01*
G01X2678684Y-574533D01*
G01X2678272Y-573169D01*
G01X2677931Y-572260D01*
G01X2677263Y-570783D01*
G01X2676695Y-569196D01*
G01X2675786Y-566745D01*
G01X2674991Y-564533D01*
G01X2674422Y-563006D01*
G01X2673684Y-561351D01*
G01X2673272Y-559987D01*
G01X2672931Y-559078D01*
G01X2672320Y-557715D01*
G01X2671908Y-556351D01*
G01X2671567Y-555442D01*
G01X2670900Y-553965D01*
G01X2670331Y-552377D01*
G01X2669536Y-550215D01*
G01X2668513Y-547654D01*
G01X2667718Y-545442D01*
G01X2667150Y-543915D01*
G01X2666411Y-542203D01*
G01X2666127Y-541124D01*
G01X2665924Y-540379D01*
G01X2665672Y-540442D01*
G01X2664536Y-542828D01*
G01X2664082Y-544078D01*
G01X2663172Y-546805D01*
G01X2662604Y-548333D01*
G01X2661866Y-550044D01*
G01X2661454Y-551678D01*
G01X2661113Y-552701D01*
G01X2660445Y-554192D01*
G01X2659991Y-555442D01*
G01X2659082Y-558169D01*
G01X2658513Y-559696D01*
G01X2657959Y-560911D01*
G01X2657619Y-561933D01*
G01X2657363Y-563027D01*
G01X2657207Y-563510D01*
G01X2657022Y-563936D01*
G01X2656699Y-564483D01*
G01X2656500Y-564881D01*
G01X2656255Y-565584D01*
G01X2655999Y-566678D01*
G01X2655658Y-567701D01*
G01X2654991Y-569192D01*
G01X2654536Y-570442D01*
G01X2653627Y-573169D01*
G01X2653059Y-574696D01*
G01X2652505Y-575911D01*
G01X2652164Y-576933D01*
G01X2651908Y-578027D01*
G01X2651752Y-578510D01*
G01X2651567Y-578936D01*
G01X2651244Y-579483D01*
G01X2651045Y-579881D01*
G01X2650800Y-580584D01*
G01X2650545Y-581678D01*
G01X2650204Y-582700D01*
G01X2649536Y-584192D01*
G01X2649082Y-585442D01*
G01X2648173Y-588169D01*
G01X2647604Y-589696D01*
G01X2647050Y-590911D01*
G01X2646709Y-591933D01*
G01X2646454Y-593027D01*
G01X2646297Y-593510D01*
G01X2646113Y-593936D01*
G01X2645790Y-594483D01*
G01X2645591Y-594881D01*
G01X2645346Y-595584D01*
G01X2645090Y-596678D01*
G01X2644749Y-597700D01*
G01X2644082Y-599192D01*
G01X2643627Y-600442D01*
G01X2642718Y-603169D01*
G01X2642150Y-604696D01*
G01X2641596Y-605911D01*
G01X2641255Y-606933D01*
G01X2640999Y-608027D01*
G01X2640843Y-608510D01*
G01X2640658Y-608936D01*
G01X2640335Y-609483D01*
G01X2640136Y-609881D01*
G01X2639891Y-610584D01*
G01X2639636Y-611678D01*
G01X2639295Y-612700D01*
G01X2638868Y-613624D01*
G01X2638528Y-614533D01*
G01X2638116Y-615897D01*
G01X2637505Y-617274D01*
G01X2637164Y-618297D01*
G01X2636894Y-619334D01*
G01X2636695Y-619647D01*
G01X2636439Y-619789D01*
G01X2636127Y-619760D01*
G01X2635800Y-619575D01*
G01X2635502Y-619249D01*
G01X2635364Y-619032D01*
G01X2635108Y-618492D01*
G01X2634422Y-616642D01*
G01X2633854Y-615428D01*
G01X2633173Y-613851D01*
G01X2631354Y-609305D01*
G01X2631013Y-608485D01*
G01X2629991Y-606237D01*
G01X2629536Y-604987D01*
G01X2628968Y-603460D01*
G01X2628400Y-602246D01*
G01X2627718Y-600669D01*
G01X2625900Y-596124D01*
G01X2625559Y-595303D01*
G01X2624536Y-593056D01*
G01X2624082Y-591806D01*
G01X2623513Y-590279D01*
G01X2622945Y-589064D01*
G01X2622263Y-587487D01*
G01X2620445Y-582942D01*
G01X2620104Y-582122D01*
G01X2619082Y-579874D01*
G01X2618627Y-578624D01*
G01X2618059Y-577097D01*
G01X2617491Y-575882D01*
G01X2616809Y-574306D01*
G01X2614991Y-569760D01*
G01X2614650Y-568940D01*
G01X2613627Y-566692D01*
G01X2613173Y-565442D01*
G01X2612604Y-563915D01*
G01X2612036Y-562701D01*
G01X2611354Y-561124D01*
G01X2609536Y-556578D01*
G01X2609195Y-555758D01*
G01X2608173Y-553510D01*
G01X2607718Y-552260D01*
G01X2607150Y-550733D01*
G01X2606582Y-549519D01*
G01X2605900Y-547942D01*
G01X2605559Y-547122D01*
G01X2604974Y-545868D01*
G01X2604643Y-545635D01*
G01X2604316Y-545520D01*
G01X2603467Y-545342D01*
G01X2602577Y-545229D01*
G01X2600773Y-545095D01*
G01X2595672Y-544987D01*
G01X2590303Y-545083D01*
G01X2588144Y-545254D01*
G01X2587491Y-545371D01*
G01X2587133Y-545487D01*
G01X2587036Y-545669D01*
G01X2572263Y-545669D01*
G01X2572263Y-544987D01*
G01X2509991Y-544987D01*
G01X2487264Y-544987D01*
G01X2476582Y-544987D01*
G01X2468400Y-545044D01*
G01X2465545Y-545161D01*
G01X2465218Y-545215D01*
G01X2464882Y-545292D01*
G01X2463732Y-545399D01*
G01X2459195Y-545499D01*
G01X2458151Y-545616D01*
G01X2457590Y-545769D01*
G01X2456795Y-545882D01*
G01X2455502Y-545953D01*
G01X2454408Y-546223D01*
G01X2453613Y-546337D01*
G01X2452395Y-546415D01*
G01X2451770Y-546529D01*
G01X2450673Y-546805D01*
G01X2447548Y-547715D01*
G01X2445715Y-548070D01*
G01X2445161Y-548226D01*
G01X2444692Y-548411D01*
G01X2444128Y-548737D01*
G01X2443190Y-549192D01*
G01X2441070Y-549987D01*
G01X2440601Y-550215D01*
G01X2439479Y-550896D01*
G01X2438201Y-551578D01*
G01X2437519Y-552033D01*
G01X2437139Y-552377D01*
G01X2436429Y-552917D01*
G01X2435147Y-553737D01*
G01X2434707Y-554078D01*
G01X2434351Y-554419D01*
G01X2434081Y-554760D01*
G01X2433570Y-555385D01*
G01X2432618Y-556138D01*
G01X2432050Y-556706D01*
G01X2431582Y-557360D01*
G01X2430783Y-558293D01*
G01X2430243Y-559004D01*
G01X2429082Y-560840D01*
G01X2428073Y-562274D01*
G01X2427775Y-562771D01*
G01X2427505Y-563297D01*
G01X2427263Y-563851D01*
G01X2426354Y-566124D01*
G01X2425673Y-567942D01*
G01X2425445Y-568794D01*
G01X2425104Y-570627D01*
G01X2424877Y-571649D01*
G01X2424664Y-572445D01*
G01X2424568Y-573329D01*
G01X2424479Y-576067D01*
G01X2424408Y-576621D01*
G01X2424224Y-577374D01*
G01X2424195Y-577715D01*
G01X2424224Y-578056D01*
G01X2424309Y-578396D01*
G01X2424408Y-578808D01*
G01X2424504Y-579693D01*
G01X2424593Y-582430D01*
G01X2424664Y-582984D01*
G01X2424764Y-583396D01*
G01X2424991Y-584306D01*
G01X2425346Y-586451D01*
G01X2425591Y-587569D01*
G01X2426013Y-588961D01*
G01X2426809Y-591124D01*
G01X2427263Y-592146D01*
G01X2427832Y-593120D01*
G01X2428286Y-593972D01*
G01X2428883Y-595328D01*
G01X2429195Y-595897D01*
G01X2429565Y-596465D01*
G01X2430417Y-597573D01*
G01X2431354Y-598851D01*
G01X2432036Y-599746D01*
G01X2432718Y-600499D01*
G01X2433297Y-601298D01*
G01X2433798Y-601862D01*
G01X2434238Y-602274D01*
G01X2435303Y-603141D01*
G01X2436582Y-604078D01*
G01X2438627Y-605541D01*
G01X2439309Y-605978D01*
G01X2440843Y-606806D01*
G01X2441763Y-607374D01*
G01X2442700Y-607828D01*
G01X2443627Y-608169D01*
G01X2448400Y-609760D01*
G01X2448670Y-609916D01*
G01X2448797Y-610158D01*
G01X2448783Y-610485D01*
G01X2448627Y-610897D01*
G01X2448506Y-611127D01*
G01X2447881Y-612122D01*
G01X2446837Y-613482D01*
G01X2445900Y-614760D01*
G01X2443400Y-618269D01*
G01X2442601Y-619203D01*
G01X2442061Y-619913D01*
G01X2440957Y-621635D01*
G01X2440687Y-621990D01*
G01X2440328Y-622384D01*
G01X2439788Y-623095D01*
G01X2438570Y-624987D01*
G01X2437718Y-626124D01*
G01X2437292Y-626664D01*
G01X2436354Y-627942D01*
G01X2433854Y-631450D01*
G01X2433055Y-632384D01*
G01X2432516Y-633095D01*
G01X2431297Y-634987D01*
G01X2430445Y-636124D01*
G01X2430019Y-636664D01*
G01X2429082Y-637942D01*
G01X2426582Y-641450D01*
G01X2425783Y-642384D01*
G01X2425243Y-643095D01*
G01X2424025Y-644987D01*
G01X2423172Y-646124D01*
G01X2422746Y-646664D01*
G01X2421809Y-647942D01*
G01X2419309Y-651450D01*
G01X2418510Y-652384D01*
G01X2417970Y-653095D01*
G01X2416866Y-654817D01*
G01X2416596Y-655172D01*
G01X2416237Y-655566D01*
G01X2415697Y-656276D01*
G01X2415218Y-657033D01*
G01X2414536Y-658169D01*
G01X2385445Y-658169D01*
G01X2385445Y-477715D01*
G01X2979990Y-477715D01*
G37*
G36*
G01X2470271Y-596699D02*
G01X2470218Y-597033D01*
G01X2469832Y-597153D01*
G01X2468957Y-597228D01*
G01X2467263Y-597260D01*
G01X2465047Y-597203D01*
G01X2464057Y-597086D01*
G01X2463428Y-596933D01*
G01X2462469Y-596838D01*
G01X2461127Y-596806D01*
G01X2459423Y-596749D01*
G01X2458826Y-596678D01*
G01X2458309Y-596550D01*
G01X2457377Y-596351D01*
G01X2454721Y-595996D01*
G01X2453911Y-595840D01*
G01X2452963Y-595552D01*
G01X2451809Y-595044D01*
G01X2450474Y-594632D01*
G01X2450104Y-594476D01*
G01X2449792Y-594291D01*
G01X2449280Y-593865D01*
G01X2448968Y-593681D01*
G01X2448599Y-593524D01*
G01X2447746Y-593254D01*
G01X2447377Y-593056D01*
G01X2447064Y-592800D01*
G01X2446567Y-592161D01*
G01X2445999Y-591593D01*
G01X2445499Y-591227D01*
G01X2444934Y-590726D01*
G01X2444522Y-590286D01*
G01X2444082Y-589760D01*
G01X2443286Y-588681D01*
G01X2442974Y-588183D01*
G01X2442263Y-586692D01*
G01X2441809Y-585442D01*
G01X2441127Y-583396D01*
G01X2441050Y-583045D01*
G01X2440957Y-582033D01*
G01X2440900Y-579306D01*
G01X2440932Y-577068D01*
G01X2441028Y-575470D01*
G01X2441127Y-574760D01*
G01X2441354Y-573737D01*
G01X2441695Y-572587D01*
G01X2442100Y-571124D01*
G01X2442270Y-570669D01*
G01X2442633Y-569987D01*
G01X2444082Y-567942D01*
G01X2444739Y-567090D01*
G01X2445559Y-566252D01*
G01X2446241Y-565683D01*
G01X2448854Y-563858D01*
G01X2449309Y-563631D01*
G01X2449763Y-563460D01*
G01X2450900Y-563113D01*
G01X2452292Y-562502D01*
G01X2452832Y-562317D01*
G01X2453428Y-562161D01*
G01X2454721Y-561919D01*
G01X2455744Y-561692D01*
G01X2456539Y-561479D01*
G01X2457423Y-561383D01*
G01X2460161Y-561294D01*
G01X2460715Y-561223D01*
G01X2461127Y-561124D01*
G01X2462565Y-560961D01*
G01X2466127Y-560896D01*
G01X2470445Y-560896D01*
G01X2470445Y-578851D01*
G01X2470442Y-583063D01*
G01X2470271Y-596699D01*
G37*
G36*
G01X2813584Y-643752D02*
G01X2813201Y-643917D01*
G01X2812200Y-644006D01*
G01X2807718Y-644078D01*
G01X2802764Y-643989D01*
G01X2801827Y-643904D01*
G01X2801226Y-643752D01*
G01X2800431Y-643638D01*
G01X2799213Y-643560D01*
G01X2798588Y-643446D01*
G01X2797490Y-643169D01*
G01X2794422Y-642260D01*
G01X2792846Y-641905D01*
G01X2791823Y-641564D01*
G01X2790885Y-641124D01*
G01X2788741Y-640200D01*
G01X2787888Y-639785D01*
G01X2787036Y-639306D01*
G01X2784763Y-637942D01*
G01X2783797Y-637317D01*
G01X2783442Y-637047D01*
G01X2783048Y-636688D01*
G01X2782338Y-636149D01*
G01X2781056Y-635328D01*
G01X2780615Y-634987D01*
G01X2780260Y-634647D01*
G01X2779866Y-634135D01*
G01X2779554Y-633794D01*
G01X2778925Y-633283D01*
G01X2777874Y-632587D01*
G01X2777434Y-632203D01*
G01X2777079Y-631791D01*
G01X2776567Y-630925D01*
G01X2776297Y-630556D01*
G01X2775999Y-630243D01*
G01X2775346Y-629746D01*
G01X2774778Y-629178D01*
G01X2774309Y-628524D01*
G01X2773510Y-627590D01*
G01X2772970Y-626880D01*
G01X2771866Y-625158D01*
G01X2771241Y-624409D01*
G01X2771013Y-624096D01*
G01X2770672Y-623467D01*
G01X2769991Y-621919D01*
G01X2769422Y-620946D01*
G01X2768968Y-620094D01*
G01X2768513Y-619018D01*
G01X2767718Y-616806D01*
G01X2766809Y-613851D01*
G01X2766127Y-611578D01*
G01X2765957Y-610840D01*
G01X2765886Y-609547D01*
G01X2765772Y-608751D01*
G01X2765658Y-608349D01*
G01X2765525Y-607092D01*
G01X2765445Y-602487D01*
G01X2765477Y-599078D01*
G01X2765595Y-596394D01*
G01X2765672Y-595669D01*
G01X2766127Y-592942D01*
G01X2766581Y-590669D01*
G01X2766809Y-589646D01*
G01X2767263Y-588056D01*
G01X2767619Y-586493D01*
G01X2767775Y-586010D01*
G01X2767959Y-585584D01*
G01X2768286Y-585033D01*
G01X2768741Y-584096D01*
G01X2769323Y-582502D01*
G01X2769593Y-581862D01*
G01X2769891Y-581252D01*
G01X2770218Y-580669D01*
G01X2771581Y-578396D01*
G01X2772207Y-577430D01*
G01X2772931Y-576564D01*
G01X2773116Y-576294D01*
G01X2773272Y-575996D01*
G01X2773542Y-575343D01*
G01X2773741Y-575044D01*
G01X2773996Y-574774D01*
G01X2774309Y-574533D01*
G01X2774934Y-574022D01*
G01X2775445Y-573396D01*
G01X2776127Y-572502D01*
G01X2776809Y-571749D01*
G01X2777388Y-570950D01*
G01X2777888Y-570385D01*
G01X2778329Y-569973D01*
G01X2778854Y-569533D01*
G01X2781667Y-567289D01*
G01X2782945Y-566351D01*
G01X2784991Y-564888D01*
G01X2785672Y-564451D01*
G01X2787207Y-563624D01*
G01X2788123Y-563056D01*
G01X2788975Y-562601D01*
G01X2790051Y-562147D01*
G01X2792263Y-561351D01*
G01X2795218Y-560442D01*
G01X2797490Y-559760D01*
G01X2798229Y-559590D01*
G01X2799522Y-559519D01*
G01X2800317Y-559405D01*
G01X2800903Y-559252D01*
G01X2802161Y-559142D01*
G01X2805900Y-559078D01*
G01X2810968Y-559186D01*
G01X2812491Y-559306D01*
G01X2813428Y-559419D01*
G01X2814792Y-559646D01*
G01X2816127Y-559987D01*
G01X2818272Y-560342D01*
G01X2819390Y-560587D01*
G01X2820445Y-560896D01*
G01X2821972Y-561465D01*
G01X2823187Y-562033D01*
G01X2824763Y-562715D01*
G01X2825584Y-563056D01*
G01X2826809Y-563624D01*
G01X2827661Y-564078D01*
G01X2830218Y-565669D01*
G01X2831184Y-566294D01*
G01X2831539Y-566564D01*
G01X2831933Y-566923D01*
G01X2832643Y-567463D01*
G01X2833925Y-568283D01*
G01X2834366Y-568624D01*
G01X2834721Y-568965D01*
G01X2834991Y-569306D01*
G01X2835502Y-569931D01*
G01X2836454Y-570683D01*
G01X2837022Y-571252D01*
G01X2837775Y-572203D01*
G01X2838726Y-572956D01*
G01X2839295Y-573524D01*
G01X2839792Y-574220D01*
G01X2841326Y-576209D01*
G01X2842263Y-577487D01*
G01X2844650Y-581301D01*
G01X2845104Y-582154D01*
G01X2845445Y-582942D01*
G01X2846468Y-585502D01*
G01X2847263Y-587715D01*
G01X2847743Y-589330D01*
G01X2848172Y-591237D01*
G01X2848570Y-592772D01*
G01X2848641Y-594064D01*
G01X2848755Y-594859D01*
G01X2848907Y-595438D01*
G01X2849017Y-596603D01*
G01X2849081Y-599987D01*
G01X2848993Y-604302D01*
G01X2848854Y-606124D01*
G01X2848400Y-609760D01*
G01X2848272Y-610556D01*
G01X2848027Y-611749D01*
G01X2847718Y-612942D01*
G01X2846922Y-615570D01*
G01X2846297Y-617715D01*
G01X2845672Y-619093D01*
G01X2844536Y-621692D01*
G01X2844309Y-622118D01*
G01X2843627Y-623226D01*
G01X2843052Y-624309D01*
G01X2842427Y-625303D01*
G01X2841383Y-626664D01*
G01X2840218Y-628269D01*
G01X2839309Y-629320D01*
G01X2838627Y-630215D01*
G01X2838115Y-630840D01*
G01X2837164Y-631592D01*
G01X2836596Y-632161D01*
G01X2836230Y-632661D01*
G01X2835729Y-633226D01*
G01X2835289Y-633638D01*
G01X2834223Y-634504D01*
G01X2832618Y-635669D01*
G01X2831684Y-636468D01*
G01X2830974Y-637008D01*
G01X2830218Y-637487D01*
G01X2827661Y-639078D01*
G01X2825957Y-639987D01*
G01X2824863Y-640655D01*
G01X2824067Y-640996D01*
G01X2822718Y-641408D01*
G01X2821312Y-642033D01*
G01X2820406Y-642374D01*
G01X2819309Y-642715D01*
G01X2816652Y-643496D01*
G01X2815630Y-643609D01*
G01X2813911Y-643681D01*
G01X2813584Y-643752D01*
G37*
G36*
G01X2924362Y-595797D02*
G01X2924309Y-596124D01*
G01X2924064Y-596201D01*
G01X2923097Y-596287D01*
G01X2919309Y-596351D01*
G01X2914035Y-596244D01*
G01X2912490Y-596124D01*
G01X2911553Y-596010D01*
G01X2910190Y-595783D01*
G01X2908911Y-595442D01*
G01X2907064Y-595087D01*
G01X2906468Y-594931D01*
G01X2905928Y-594746D01*
G01X2904976Y-594305D01*
G01X2902846Y-593382D01*
G01X2902320Y-593112D01*
G01X2901823Y-592814D01*
G01X2899589Y-591227D01*
G01X2899025Y-590726D01*
G01X2898613Y-590286D01*
G01X2898172Y-589760D01*
G01X2897377Y-588681D01*
G01X2896809Y-587715D01*
G01X2895900Y-585897D01*
G01X2895687Y-585413D01*
G01X2895502Y-584874D01*
G01X2895346Y-584277D01*
G01X2895104Y-582984D01*
G01X2894877Y-581962D01*
G01X2894710Y-581401D01*
G01X2894593Y-580783D01*
G01X2894536Y-579760D01*
G01X2894568Y-578780D01*
G01X2894763Y-576578D01*
G01X2894877Y-575641D01*
G01X2895104Y-574277D01*
G01X2895445Y-573056D01*
G01X2895814Y-571465D01*
G01X2896013Y-570897D01*
G01X2896269Y-570328D01*
G01X2896581Y-569760D01*
G01X2897207Y-568794D01*
G01X2897476Y-568439D01*
G01X2898172Y-567658D01*
G01X2898751Y-566859D01*
G01X2899252Y-566294D01*
G01X2899692Y-565882D01*
G01X2900218Y-565442D01*
G01X2901297Y-564646D01*
G01X2902263Y-564078D01*
G01X2904082Y-563169D01*
G01X2904579Y-562942D01*
G01X2905484Y-562601D01*
G01X2906581Y-562260D01*
G01X2908854Y-561578D01*
G01X2909593Y-561408D01*
G01X2910885Y-561337D01*
G01X2911681Y-561223D01*
G01X2912084Y-561110D01*
G01X2913453Y-560977D01*
G01X2918627Y-560896D01*
G01X2924536Y-560896D01*
G01X2924536Y-578396D01*
G01X2924522Y-586067D01*
G01X2924362Y-595797D01*
G37*
G01X3058324Y-47656D02*
G01X3140112Y-47656D01*
G01X3058324Y-102266D02*
G01X3140112Y-102266D01*
G01X3097186Y-47656D02*
G01X3097186Y-102266D01*
G01X3058324Y-347655D02*
G01X3140112Y-347655D01*
G01X3058324Y-402265D02*
G01X3140112Y-402265D01*
G01X3097186Y-347655D02*
G01X3097186Y-402265D01*
G01X3058324Y-201592D02*
G01X3140112Y-201592D01*
G01X3140112Y-201592D02*
G01X3140112Y-248328D01*
G04 Text End*

M02*

