G04 Layer: TopSolderMaskLayer*
G04 EasyEDA Pro v2.2.35.2, 2025-02-20 22:18:56*
G04 Gerber Generator version 0.3*
G04 Scale: 100 percent, Rotated: No, Reflected: No*
G04 Dimensions in millimeters*
G04 Leading zeros omitted, absolute positions, 4 integers and 5 decimals*
%FSLAX45Y45*%
%MOMM*%
%AMRoundRect*1,1,$1,$2,$3*1,1,$1,$4,$5*1,1,$1,0-$2,0-$3*1,1,$1,0-$4,0-$5*20,1,$1,$2,$3,$4,$5,0*20,1,$1,$4,$5,0-$2,0-$3,0*20,1,$1,0-$2,0-$3,0-$4,0-$5,0*20,1,$1,0-$4,0-$5,$2,$3,0*4,1,4,$2,$3,$4,$5,0-$2,0-$3,0-$4,0-$5,$2,$3,0*%
%ADD10C,5.602*%
%ADD11RoundRect,0.07882X-0.13639X0.26139X0.13639X0.26139*%
%ADD12RoundRect,0.07882X-0.26139X-0.13639X-0.26139X0.13639*%
%ADD13RoundRect,0.07882X0.13639X-0.26139X-0.13639X-0.26139*%
%ADD14RoundRect,0.07882X0.26139X0.13639X0.26139X-0.13639*%
%ADD15O,2.1016X0.4016*%
%ADD16O,0.4059X2.1016*%
%ADD17O,0.4016X2.1016*%
%ADD18RoundRect,0.08875X-0.30643X-0.78143X-0.30643X0.78143*%
%ADD19RoundRect,0.09424X-0.60368X-0.90368X-0.60368X0.90368*%
%ADD20RoundRect,0.0895X-0.33105X0.85605X0.33105X0.85605*%
%ADD21RoundRect,0.08692X-0.25734X0.85734X0.25734X0.85734*%
%ADD22RoundRect,0.08771X0.27695X0.40199X0.27695X-0.40199*%
%ADD23RoundRect,0.09131X0.40514X-0.43715X-0.40514X-0.43715*%
%ADD24O,1.32359X0.46561*%
%ADD25RoundRect,0.08771X-0.27695X-0.40199X-0.27695X0.40199*%
%ADD26RoundRect,0.08771X0.40199X-0.27695X-0.40199X-0.27695*%
%ADD27RoundRect,0.08771X-0.40199X0.27695X0.40199X0.27695*%
%ADD28RoundRect,0.08294X-0.18434X-0.40933X-0.18434X0.40933*%
%ADD29RoundRect,0.09792X-1.50184X-1.30184X-1.50184X1.30184*%
%ADD30RoundRect,0.09691X-1.00234X-1.00234X-1.00234X1.00234*%
%ADD31RoundRect,0.0983X-1.46365X1.75165X1.46365X1.75165*%
%ADD32RoundRect,0.09549X-0.74556X0.86705X0.74556X0.86705*%
%ADD33RoundRect,0.09495X0.70833X-0.67833X-0.70833X-0.67833*%
%ADD34RoundRect,0.08906X-0.55647X0.30647X0.55647X0.30647*%
%ADD35RoundRect,0.08891X-1.30556X-0.35556X-1.30556X0.35556*%
%ADD36RoundRect,0.09233X-0.95385X-0.55385X-0.95385X0.55385*%
%ADD37RoundRect,0.09316X0.51421X-1.00422X-0.51421X-1.00422*%
%ADD38RoundRect,0.09316X-0.51421X1.00422X0.51421X1.00422*%
%ADD39RoundRect,0.08771X-0.27695X-0.28977X-0.27695X0.28977*%
%ADD40RoundRect,0.08771X0.27695X0.28977X0.27695X-0.28977*%
%ADD41RoundRect,0.08771X0.28977X-0.27695X-0.28977X-0.27695*%
%ADD42RoundRect,0.08771X-0.28977X0.27695X0.28977X0.27695*%
%ADD43RoundRect,0.08771X-0.27695X-0.32518X-0.27695X0.32518*%
%ADD44C,0.3316*%
%ADD45RoundRect,0.09169X1.50417X0.50417X1.50417X-0.50417*%
%ADD46RoundRect,0.09462X1.5027X0.82771X1.5027X-0.82771*%
%ADD47RoundRect,0.09462X-1.5027X-0.82771X-1.5027X0.82771*%
%ADD48RoundRect,0.09462X-0.82771X1.5027X0.82771X1.5027*%
%ADD49RoundRect,0.09462X0.82771X-1.5027X-0.82771X-1.5027*%
%ADD50RoundRect,0.09169X0.50417X-1.50417X-0.50417X-1.50417*%
%ADD51RoundRect,0.08875X-0.30643X0.78143X0.30643X0.78143*%
%ADD52RoundRect,0.09424X-0.60368X0.90368X0.60368X0.90368*%
G75*


G04 Pad Start*
G54D10*
G01X-2900000Y2450000D03*
G01X2900000Y2450000D03*
G01X2900000Y-2450000D03*
G01X-2900000Y-2450000D03*
G54D11*
G01X-2602688Y1815049D03*
G54D12*
G01X-2602688Y1733744D03*
G01X-2602688Y1683756D03*
G01X-2602688Y1633744D03*
G01X-2602688Y1583757D03*
G54D13*
G01X-2602714Y1502451D03*
G01X-2552701Y1502451D03*
G01X-2502688Y1502451D03*
G01X-2452701Y1502451D03*
G01X-2402689Y1502451D03*
G01X-2352701Y1502451D03*
G01X-2302689Y1502451D03*
G01X-2252702Y1502451D03*
G01X-2202689Y1502451D03*
G01X-2152702Y1502451D03*
G54D14*
G01X-2152702Y1583757D03*
G01X-2152702Y1633769D03*
G01X-2152702Y1683756D03*
G01X-2152702Y1733769D03*
G54D11*
G01X-2152702Y1815049D03*
G01X-2202689Y1815049D03*
G01X-2252702Y1815049D03*
G01X-2302689Y1815049D03*
G01X-2352701Y1815049D03*
G01X-2402689Y1815049D03*
G01X-2452701Y1815049D03*
G01X-2502688Y1815049D03*
G01X-2552701Y1815049D03*
G54D15*
G01X84752Y996236D03*
G01X84752Y946223D03*
G01X84752Y896236D03*
G01X84752Y846224D03*
G01X84752Y796236D03*
G01X84752Y746224D03*
G01X84752Y696237D03*
G01X84752Y646224D03*
G01X84752Y596237D03*
G01X84752Y546224D03*
G01X84752Y496237D03*
G01X84752Y446224D03*
G01X84752Y396237D03*
G01X84752Y346225D03*
G01X84752Y296237D03*
G01X84752Y246225D03*
G54D17*
G01X-115222Y46251D03*
G01X-165234Y46251D03*
G01X-215222Y46251D03*
G01X-265234Y46251D03*
G01X-315221Y46251D03*
G01X-365234Y46251D03*
G01X-415221Y46251D03*
G01X-465234Y46251D03*
G01X-515221Y46251D03*
G01X-565234Y46251D03*
G01X-615221Y46251D03*
G01X-665233Y46251D03*
G01X-715221Y46251D03*
G01X-765233Y46251D03*
G01X-815220Y46251D03*
G01X-865233Y46251D03*
G54D15*
G01X-1065207Y246225D03*
G01X-1065207Y296237D03*
G01X-1065207Y346225D03*
G01X-1065207Y396237D03*
G01X-1065207Y446224D03*
G01X-1065207Y496237D03*
G01X-1065207Y546224D03*
G01X-1065207Y596237D03*
G01X-1065207Y646224D03*
G01X-1065207Y696237D03*
G01X-1065207Y746224D03*
G01X-1065207Y796236D03*
G01X-1065207Y846224D03*
G01X-1065207Y896236D03*
G01X-1065207Y946223D03*
G01X-1065207Y996236D03*
G54D17*
G01X-865233Y1196210D03*
G01X-815220Y1196210D03*
G01X-765233Y1196210D03*
G01X-715221Y1196210D03*
G01X-665233Y1196210D03*
G01X-615221Y1196210D03*
G01X-565234Y1196210D03*
G01X-515221Y1196210D03*
G01X-465234Y1196210D03*
G01X-415221Y1196210D03*
G01X-365234Y1196210D03*
G01X-315221Y1196210D03*
G01X-265234Y1196210D03*
G01X-215222Y1196210D03*
G01X-165234Y1196210D03*
G01X-115222Y1196210D03*
G54D18*
G01X-790227Y1669980D03*
G01X-690227Y1669980D03*
G01X-590227Y1669980D03*
G01X-490227Y1669980D03*
G01X-390228Y1669980D03*
G01X-290228Y1669980D03*
G01X-190228Y1669980D03*
G54D19*
G01X-60231Y1922481D03*
G01X-920224Y1922481D03*
G54D20*
G01X-335217Y1471230D03*
G54D21*
G01X-215227Y1471230D03*
G54D20*
G01X-95238Y1471230D03*
G54D22*
G01X234773Y991722D03*
G01X234773Y1100739D03*
G01X-690227Y-283278D03*
G01X-690227Y-174261D03*
G01X127200Y-275950D03*
G01X127200Y-166933D03*
G54D23*
G01X-1030117Y1421330D03*
G01X-890138Y1421330D03*
G54D24*
G01X-1061330Y-131259D03*
G01X-1061330Y-196258D03*
G01X-1061330Y-261256D03*
G01X-1061330Y-326280D03*
G01X-819115Y-131259D03*
G01X-819115Y-196258D03*
G01X-819115Y-261256D03*
G01X-819115Y-326280D03*
G01X-236329Y-131259D03*
G01X-236329Y-196258D03*
G01X-236329Y-261256D03*
G01X-236329Y-326280D03*
G01X5885Y-131259D03*
G01X5885Y-196258D03*
G01X5885Y-261256D03*
G01X5885Y-326280D03*
G54D15*
G01X1759752Y996236D03*
G01X1759752Y946223D03*
G01X1759752Y896236D03*
G01X1759752Y846224D03*
G01X1759752Y796236D03*
G01X1759752Y746224D03*
G01X1759752Y696237D03*
G01X1759752Y646224D03*
G01X1759752Y596237D03*
G01X1759752Y546224D03*
G01X1759752Y496237D03*
G01X1759752Y446224D03*
G01X1759752Y396237D03*
G01X1759752Y346225D03*
G01X1759752Y296237D03*
G01X1759752Y246225D03*
G54D17*
G01X1559778Y46251D03*
G01X1509766Y46251D03*
G01X1459778Y46251D03*
G01X1409766Y46251D03*
G01X1359779Y46251D03*
G01X1309766Y46251D03*
G01X1259779Y46251D03*
G01X1209766Y46251D03*
G01X1159779Y46251D03*
G01X1109766Y46251D03*
G01X1059779Y46251D03*
G01X1009767Y46251D03*
G01X959779Y46251D03*
G01X909767Y46251D03*
G01X859780Y46251D03*
G01X809767Y46251D03*
G54D15*
G01X609793Y246225D03*
G01X609793Y296237D03*
G01X609793Y346225D03*
G01X609793Y396237D03*
G01X609793Y446224D03*
G01X609793Y496237D03*
G01X609793Y546224D03*
G01X609793Y596237D03*
G01X609793Y646224D03*
G01X609793Y696237D03*
G01X609793Y746224D03*
G01X609793Y796236D03*
G01X609793Y846224D03*
G01X609793Y896236D03*
G01X609793Y946223D03*
G01X609793Y996236D03*
G54D17*
G01X809767Y1196210D03*
G01X859780Y1196210D03*
G01X909767Y1196210D03*
G01X959779Y1196210D03*
G01X1009767Y1196210D03*
G01X1059779Y1196210D03*
G01X1109766Y1196210D03*
G01X1159779Y1196210D03*
G01X1209766Y1196210D03*
G01X1259779Y1196210D03*
G01X1309766Y1196210D03*
G01X1359779Y1196210D03*
G01X1409766Y1196210D03*
G01X1459778Y1196210D03*
G01X1509766Y1196210D03*
G01X1559778Y1196210D03*
G54D18*
G01X884773Y1669980D03*
G01X984773Y1669980D03*
G01X1084773Y1669980D03*
G01X1184773Y1669980D03*
G01X1284772Y1669980D03*
G01X1384772Y1669980D03*
G01X1484772Y1669980D03*
G54D19*
G01X1614769Y1922481D03*
G01X754776Y1922481D03*
G54D20*
G01X1339783Y1471230D03*
G54D21*
G01X1459773Y1471230D03*
G54D20*
G01X1579762Y1471230D03*
G54D22*
G01X1909773Y991722D03*
G01X1909773Y1100739D03*
G01X984772Y-283278D03*
G01X984772Y-174261D03*
G01X1802200Y-275950D03*
G01X1802200Y-166933D03*
G54D23*
G01X644883Y1421330D03*
G01X784862Y1421330D03*
G54D24*
G01X613670Y-131259D03*
G01X613670Y-196258D03*
G01X613670Y-261256D03*
G01X613670Y-326280D03*
G01X855885Y-131259D03*
G01X855885Y-196258D03*
G01X855885Y-261256D03*
G01X855885Y-326280D03*
G01X1438670Y-131259D03*
G01X1438670Y-196258D03*
G01X1438670Y-261256D03*
G01X1438670Y-326280D03*
G01X1680885Y-131259D03*
G01X1680885Y-196258D03*
G01X1680885Y-261256D03*
G01X1680885Y-326280D03*
G54D25*
G01X-2702708Y1838259D03*
G01X-2702708Y1729242D03*
G54D26*
G01X-2532216Y1933750D03*
G01X-2423199Y1933750D03*
G54D27*
G01X-2423199Y1383750D03*
G01X-2532216Y1383750D03*
G54D28*
G01X-2188106Y-567202D03*
G01X-2108094Y-566795D03*
G01X-2028112Y-567202D03*
G01X-1948127Y-567202D03*
G01X-1868117Y-567202D03*
G01X-1868318Y-177205D03*
G01X-1948328Y-177205D03*
G01X-2028312Y-177205D03*
G54D29*
G01X-2028188Y-372406D03*
G54D28*
G01X-2188307Y-177205D03*
G01X-2108294Y-176798D03*
G54D30*
G01X-2385412Y-498181D03*
G01X-2385412Y-58203D03*
G54D31*
G01X-1817378Y596808D03*
G01X-2853444Y596808D03*
G54D32*
G01X-2101661Y-828192D03*
G01X-2420177Y-828192D03*
G54D27*
G01X-2205903Y-653192D03*
G01X-2314920Y-653192D03*
G54D33*
G01X-2825908Y-290692D03*
G01X-2619914Y-290692D03*
G01X-2825908Y-465692D03*
G01X-2619914Y-465692D03*
G54D34*
G01X-1457673Y1447131D03*
G01X-1457673Y1352135D03*
G01X-1457673Y1257139D03*
G01X-1727675Y1257139D03*
G01X-1727675Y1352135D03*
G01X-1727675Y1447131D03*
G54D22*
G01X-1850000Y1245492D03*
G01X-1850000Y1354508D03*
G54D25*
G01X-1200000Y1354508D03*
G01X-1200000Y1245492D03*
G54D35*
G01X2617501Y524993D03*
G54D36*
G01X2982499Y870001D03*
G01X2982499Y-870001D03*
G54D35*
G01X2617501Y-375006D03*
G01X2617501Y-524993D03*
G01X2617501Y-675005D03*
G01X2617501Y-224993D03*
G01X2617501Y-75006D03*
G01X2617501Y75006D03*
G01X2617501Y224993D03*
G01X2617501Y375006D03*
G01X2617501Y674980D03*
G54D37*
G01X2413000Y2729997D03*
G01X2413000Y2170003D03*
G01X2159000Y2729997D03*
G01X2159000Y2170003D03*
G01X1905000Y2729997D03*
G01X1905000Y2170003D03*
G01X1651000Y2729997D03*
G01X1651000Y2170003D03*
G01X1397000Y2729997D03*
G01X1397000Y2170003D03*
G01X1143000Y2729997D03*
G01X1143000Y2170003D03*
G01X889000Y2729997D03*
G01X889000Y2170003D03*
G01X635000Y2729997D03*
G01X635000Y2170003D03*
G01X381000Y2729997D03*
G01X381000Y2170003D03*
G01X127000Y2729997D03*
G01X127000Y2170003D03*
G01X-127000Y2729997D03*
G01X-127000Y2170003D03*
G01X-381000Y2729997D03*
G01X-381000Y2170003D03*
G01X-635000Y2729997D03*
G01X-635000Y2170003D03*
G01X-889000Y2729997D03*
G01X-889000Y2170003D03*
G01X-1143000Y2729997D03*
G01X-1143000Y2170003D03*
G01X-1397000Y2729997D03*
G01X-1397000Y2170003D03*
G01X-1651000Y2729997D03*
G01X-1651000Y2170003D03*
G01X-1905000Y2729997D03*
G01X-1905000Y2170003D03*
G54D38*
G01X-2413000Y2170003D03*
G01X-2413000Y2729997D03*
G01X-2159000Y2170003D03*
G01X-2159000Y2729997D03*
G54D26*
G01X-1989920Y21808D03*
G01X-1880903Y21808D03*
G54D39*
G01X-2702708Y1602032D03*
G01X-2702708Y1515469D03*
G54D40*
G01X-2050000Y1356718D03*
G01X-2050000Y1443282D03*
G01X-2052708Y1740469D03*
G01X-2052708Y1827032D03*
G54D41*
G01X-2295989Y1383750D03*
G01X-2209426Y1383750D03*
G54D39*
G01X-1325000Y1343282D03*
G01X-1325000Y1256718D03*
G54D40*
G01X-2050000Y1556719D03*
G01X-2050000Y1643282D03*
G54D42*
G01X-2056719Y1950000D03*
G01X-2143282Y1950000D03*
G54D26*
G01X-1989920Y-78192D03*
G01X-1880903Y-78192D03*
G54D27*
G01X-1780903Y-803192D03*
G01X-1889920Y-803192D03*
G54D39*
G01X-1660411Y15090D03*
G01X-1660411Y-71474D03*
G01X-1760412Y-184910D03*
G01X-1760412Y-271474D03*
G54D41*
G01X-1878693Y-678192D03*
G01X-1792130Y-678192D03*
G54D22*
G01X334773Y991722D03*
G01X334773Y1100739D03*
G54D26*
G01X-729328Y1426126D03*
G01X-620311Y1426126D03*
G54D25*
G01X-1215227Y350739D03*
G01X-1215227Y241722D03*
G54D22*
G01X2009773Y991722D03*
G01X2009773Y1100739D03*
G54D26*
G01X945672Y1426126D03*
G01X1054689Y1426126D03*
G54D25*
G01X459773Y350739D03*
G01X459773Y241722D03*
G54D43*
G01X-1215227Y492408D03*
G01X-1215227Y600053D03*
G01X459773Y492408D03*
G01X459773Y600053D03*
G54D40*
G01X-1190227Y-272051D03*
G01X-1190227Y-185488D03*
G01X-365227Y-272051D03*
G01X-365227Y-185488D03*
G01X484772Y-272051D03*
G01X484772Y-185488D03*
G01X1309773Y-272051D03*
G01X1309773Y-185488D03*
G54D39*
G01X-1325000Y1143281D03*
G01X-1325000Y1056718D03*
G54D22*
G01X-2425000Y-1904509D03*
G01X-2425000Y-1795492D03*
G54D40*
G01X-2225000Y-2018282D03*
G01X-2225000Y-1931719D03*
G54D44*
G01X-2240015Y-1839995D03*
G01X-2240015Y-1799990D03*
G01X-2240015Y-1759985D03*
G01X-2200010Y-1839995D03*
G01X-2200010Y-1799990D03*
G01X-2200010Y-1759985D03*
G01X-2160005Y-1839995D03*
G01X-2160005Y-1799990D03*
G01X-2160005Y-1759985D03*
G54D45*
G01X-2464999Y-1400000D03*
G01X-2464999Y-1600000D03*
G54D46*
G01X-2835001Y-1152503D03*
G54D47*
G01X-2835001Y-1847497D03*
G54D48*
G01X302505Y-1064999D03*
G54D49*
G01X1197500Y-1064999D03*
G54D50*
G01X750003Y-1435001D03*
G01X950002Y-1435001D03*
G01X550003Y-1435001D03*
G54D48*
G01X-847495Y-1064999D03*
G54D49*
G01X47500Y-1064999D03*
G54D50*
G01X-399997Y-1435001D03*
G01X-199998Y-1435001D03*
G01X-599997Y-1435001D03*
G54D22*
G01X-2350000Y-1904509D03*
G01X-2350000Y-1795492D03*
G54D51*
G01X-1675000Y1648749D03*
G01X-1575000Y1648749D03*
G01X-1475000Y1648749D03*
G01X-1375000Y1648749D03*
G54D52*
G01X-1804997Y1901251D03*
G01X-1245003Y1901251D03*
G54D40*
G01X-1760412Y-71474D03*
G01X-1760412Y15090D03*
G04 Pad End*

M02*

