ISO-10303-21;
HEADER;
/* Generated by software containing ST-Developer
 * from STEP Tools, Inc. (www.steptools.com) 
 */

FILE_DESCRIPTION(
/* description */ (''),
/* implementation_level */ '2;1');

FILE_NAME(
/* name */ '',
/* time_stamp */ '2026-05-17T21:00:09+03:00',
/* author */ ('katya_notebook'),
/* organization */ (''),
/* preprocessor_version */ 'ST-DEVELOPER v20',
/* originating_system */ 'Autodesk Inventor 2024',
/* authorisation */ '');

FILE_SCHEMA (('AUTOMOTIVE_DESIGN { 1 0 10303 214 3 1 1 }'));
ENDSEC;

DATA;
#10=MECHANICAL_DESIGN_GEOMETRIC_PRESENTATION_REPRESENTATION('',(#13),#1464);
#11=SHAPE_REPRESENTATION_RELATIONSHIP('SRR','None',#1471,#12);
#12=ADVANCED_BREP_SHAPE_REPRESENTATION('',(#14),#1463);
#13=STYLED_ITEM('',(#1480),#14);
#14=MANIFOLD_SOLID_BREP('\X2\04220432043504400434043E0435\X0\ \X2\04420435043B043E\X0\1',
#903);
#15=FACE_BOUND('',#109,.T.);
#16=FACE_BOUND('',#110,.T.);
#17=FACE_BOUND('',#149,.T.);
#18=FACE_BOUND('',#150,.T.);
#19=PLANE('',#936);
#20=PLANE('',#938);
#21=PLANE('',#939);
#22=PLANE('',#943);
#23=PLANE('',#944);
#24=PLANE('',#945);
#25=PLANE('',#946);
#26=PLANE('',#947);
#27=PLANE('',#948);
#28=PLANE('',#949);
#29=PLANE('',#950);
#30=PLANE('',#951);
#31=PLANE('',#952);
#32=PLANE('',#953);
#33=PLANE('',#954);
#34=PLANE('',#955);
#35=PLANE('',#956);
#36=PLANE('',#957);
#37=PLANE('',#958);
#38=PLANE('',#959);
#39=PLANE('',#960);
#40=PLANE('',#961);
#41=PLANE('',#962);
#42=PLANE('',#963);
#43=PLANE('',#964);
#44=PLANE('',#965);
#45=PLANE('',#966);
#46=PLANE('',#967);
#47=PLANE('',#968);
#48=PLANE('',#969);
#49=PLANE('',#970);
#50=PLANE('',#971);
#51=PLANE('',#972);
#52=PLANE('',#973);
#53=PLANE('',#974);
#54=PLANE('',#975);
#55=PLANE('',#976);
#56=PLANE('',#977);
#57=PLANE('',#978);
#58=PLANE('',#979);
#59=FACE_OUTER_BOUND('',#103,.T.);
#60=FACE_OUTER_BOUND('',#104,.T.);
#61=FACE_OUTER_BOUND('',#105,.T.);
#62=FACE_OUTER_BOUND('',#106,.T.);
#63=FACE_OUTER_BOUND('',#107,.T.);
#64=FACE_OUTER_BOUND('',#108,.T.);
#65=FACE_OUTER_BOUND('',#111,.T.);
#66=FACE_OUTER_BOUND('',#112,.T.);
#67=FACE_OUTER_BOUND('',#113,.T.);
#68=FACE_OUTER_BOUND('',#114,.T.);
#69=FACE_OUTER_BOUND('',#115,.T.);
#70=FACE_OUTER_BOUND('',#116,.T.);
#71=FACE_OUTER_BOUND('',#117,.T.);
#72=FACE_OUTER_BOUND('',#118,.T.);
#73=FACE_OUTER_BOUND('',#119,.T.);
#74=FACE_OUTER_BOUND('',#120,.T.);
#75=FACE_OUTER_BOUND('',#121,.T.);
#76=FACE_OUTER_BOUND('',#122,.T.);
#77=FACE_OUTER_BOUND('',#123,.T.);
#78=FACE_OUTER_BOUND('',#124,.T.);
#79=FACE_OUTER_BOUND('',#125,.T.);
#80=FACE_OUTER_BOUND('',#126,.T.);
#81=FACE_OUTER_BOUND('',#127,.T.);
#82=FACE_OUTER_BOUND('',#128,.T.);
#83=FACE_OUTER_BOUND('',#129,.T.);
#84=FACE_OUTER_BOUND('',#130,.T.);
#85=FACE_OUTER_BOUND('',#131,.T.);
#86=FACE_OUTER_BOUND('',#132,.T.);
#87=FACE_OUTER_BOUND('',#133,.T.);
#88=FACE_OUTER_BOUND('',#134,.T.);
#89=FACE_OUTER_BOUND('',#135,.T.);
#90=FACE_OUTER_BOUND('',#136,.T.);
#91=FACE_OUTER_BOUND('',#137,.T.);
#92=FACE_OUTER_BOUND('',#138,.T.);
#93=FACE_OUTER_BOUND('',#139,.T.);
#94=FACE_OUTER_BOUND('',#140,.T.);
#95=FACE_OUTER_BOUND('',#141,.T.);
#96=FACE_OUTER_BOUND('',#142,.T.);
#97=FACE_OUTER_BOUND('',#143,.T.);
#98=FACE_OUTER_BOUND('',#144,.T.);
#99=FACE_OUTER_BOUND('',#145,.T.);
#100=FACE_OUTER_BOUND('',#146,.T.);
#101=FACE_OUTER_BOUND('',#147,.T.);
#102=FACE_OUTER_BOUND('',#148,.T.);
#103=EDGE_LOOP('',(#603,#604,#605,#606));
#104=EDGE_LOOP('',(#607,#608,#609,#610));
#105=EDGE_LOOP('',(#611,#612,#613,#614,#615,#616));
#106=EDGE_LOOP('',(#617,#618,#619,#620,#621,#622,#623,#624,#625,#626,#627,
#628,#629,#630,#631,#632,#633,#634,#635,#636,#637,#638,#639,#640,#641,#642,
#643,#644,#645,#646,#647,#648,#649,#650,#651,#652));
#107=EDGE_LOOP('',(#653,#654,#655,#656));
#108=EDGE_LOOP('',(#657,#658,#659,#660,#661,#662,#663,#664,#665,#666,#667,
#668,#669,#670,#671,#672,#673,#674,#675,#676,#677,#678,#679,#680,#681,#682,
#683,#684,#685,#686,#687));
#109=EDGE_LOOP('',(#688));
#110=EDGE_LOOP('',(#689));
#111=EDGE_LOOP('',(#690,#691,#692,#693,#694,#695));
#112=EDGE_LOOP('',(#696,#697,#698,#699));
#113=EDGE_LOOP('',(#700,#701,#702,#703));
#114=EDGE_LOOP('',(#704,#705,#706,#707));
#115=EDGE_LOOP('',(#708,#709,#710,#711));
#116=EDGE_LOOP('',(#712,#713,#714,#715));
#117=EDGE_LOOP('',(#716,#717,#718,#719));
#118=EDGE_LOOP('',(#720,#721,#722,#723));
#119=EDGE_LOOP('',(#724,#725,#726,#727));
#120=EDGE_LOOP('',(#728,#729,#730,#731));
#121=EDGE_LOOP('',(#732,#733,#734,#735));
#122=EDGE_LOOP('',(#736,#737,#738,#739));
#123=EDGE_LOOP('',(#740,#741,#742,#743));
#124=EDGE_LOOP('',(#744,#745,#746,#747));
#125=EDGE_LOOP('',(#748,#749,#750,#751));
#126=EDGE_LOOP('',(#752,#753,#754,#755));
#127=EDGE_LOOP('',(#756,#757,#758,#759));
#128=EDGE_LOOP('',(#760,#761,#762,#763));
#129=EDGE_LOOP('',(#764,#765,#766,#767));
#130=EDGE_LOOP('',(#768,#769,#770,#771));
#131=EDGE_LOOP('',(#772,#773,#774,#775));
#132=EDGE_LOOP('',(#776,#777,#778,#779));
#133=EDGE_LOOP('',(#780,#781,#782,#783));
#134=EDGE_LOOP('',(#784,#785,#786,#787));
#135=EDGE_LOOP('',(#788,#789,#790,#791));
#136=EDGE_LOOP('',(#792,#793,#794,#795));
#137=EDGE_LOOP('',(#796,#797,#798,#799));
#138=EDGE_LOOP('',(#800,#801,#802,#803));
#139=EDGE_LOOP('',(#804,#805,#806,#807));
#140=EDGE_LOOP('',(#808,#809,#810,#811));
#141=EDGE_LOOP('',(#812,#813,#814,#815));
#142=EDGE_LOOP('',(#816,#817,#818,#819));
#143=EDGE_LOOP('',(#820,#821,#822,#823));
#144=EDGE_LOOP('',(#824,#825,#826,#827));
#145=EDGE_LOOP('',(#828,#829,#830,#831));
#146=EDGE_LOOP('',(#832,#833,#834,#835));
#147=EDGE_LOOP('',(#836,#837,#838,#839));
#148=EDGE_LOOP('',(#840,#841,#842,#843,#844,#845,#846,#847,#848,#849,#850,
#851,#852));
#149=EDGE_LOOP('',(#853));
#150=EDGE_LOOP('',(#854));
#151=LINE('',#1211,#267);
#152=LINE('',#1217,#268);
#153=LINE('',#1224,#269);
#154=LINE('',#1228,#270);
#155=LINE('',#1231,#271);
#156=LINE('',#1234,#272);
#157=LINE('',#1236,#273);
#158=LINE('',#1238,#274);
#159=LINE('',#1240,#275);
#160=LINE('',#1242,#276);
#161=LINE('',#1244,#277);
#162=LINE('',#1246,#278);
#163=LINE('',#1248,#279);
#164=LINE('',#1250,#280);
#165=LINE('',#1252,#281);
#166=LINE('',#1254,#282);
#167=LINE('',#1256,#283);
#168=LINE('',#1258,#284);
#169=LINE('',#1260,#285);
#170=LINE('',#1262,#286);
#171=LINE('',#1264,#287);
#172=LINE('',#1266,#288);
#173=LINE('',#1268,#289);
#174=LINE('',#1270,#290);
#175=LINE('',#1272,#291);
#176=LINE('',#1274,#292);
#177=LINE('',#1276,#293);
#178=LINE('',#1278,#294);
#179=LINE('',#1280,#295);
#180=LINE('',#1282,#296);
#181=LINE('',#1284,#297);
#182=LINE('',#1288,#298);
#183=LINE('',#1290,#299);
#184=LINE('',#1292,#300);
#185=LINE('',#1294,#301);
#186=LINE('',#1296,#302);
#187=LINE('',#1298,#303);
#188=LINE('',#1300,#304);
#189=LINE('',#1301,#305);
#190=LINE('',#1304,#306);
#191=LINE('',#1305,#307);
#192=LINE('',#1308,#308);
#193=LINE('',#1310,#309);
#194=LINE('',#1312,#310);
#195=LINE('',#1316,#311);
#196=LINE('',#1318,#312);
#197=LINE('',#1320,#313);
#198=LINE('',#1322,#314);
#199=LINE('',#1324,#315);
#200=LINE('',#1326,#316);
#201=LINE('',#1328,#317);
#202=LINE('',#1330,#318);
#203=LINE('',#1332,#319);
#204=LINE('',#1334,#320);
#205=LINE('',#1336,#321);
#206=LINE('',#1338,#322);
#207=LINE('',#1340,#323);
#208=LINE('',#1342,#324);
#209=LINE('',#1344,#325);
#210=LINE('',#1346,#326);
#211=LINE('',#1348,#327);
#212=LINE('',#1350,#328);
#213=LINE('',#1352,#329);
#214=LINE('',#1354,#330);
#215=LINE('',#1356,#331);
#216=LINE('',#1358,#332);
#217=LINE('',#1360,#333);
#218=LINE('',#1362,#334);
#219=LINE('',#1363,#335);
#220=LINE('',#1366,#336);
#221=LINE('',#1369,#337);
#222=LINE('',#1370,#338);
#223=LINE('',#1373,#339);
#224=LINE('',#1374,#340);
#225=LINE('',#1376,#341);
#226=LINE('',#1378,#342);
#227=LINE('',#1380,#343);
#228=LINE('',#1382,#344);
#229=LINE('',#1384,#345);
#230=LINE('',#1386,#346);
#231=LINE('',#1388,#347);
#232=LINE('',#1390,#348);
#233=LINE('',#1392,#349);
#234=LINE('',#1394,#350);
#235=LINE('',#1396,#351);
#236=LINE('',#1398,#352);
#237=LINE('',#1400,#353);
#238=LINE('',#1402,#354);
#239=LINE('',#1404,#355);
#240=LINE('',#1406,#356);
#241=LINE('',#1408,#357);
#242=LINE('',#1410,#358);
#243=LINE('',#1412,#359);
#244=LINE('',#1414,#360);
#245=LINE('',#1416,#361);
#246=LINE('',#1418,#362);
#247=LINE('',#1420,#363);
#248=LINE('',#1422,#364);
#249=LINE('',#1427,#365);
#250=LINE('',#1428,#366);
#251=LINE('',#1429,#367);
#252=LINE('',#1432,#368);
#253=LINE('',#1433,#369);
#254=LINE('',#1435,#370);
#255=LINE('',#1438,#371);
#256=LINE('',#1439,#372);
#257=LINE('',#1441,#373);
#258=LINE('',#1444,#374);
#259=LINE('',#1445,#375);
#260=LINE('',#1448,#376);
#261=LINE('',#1449,#377);
#262=LINE('',#1452,#378);
#263=LINE('',#1453,#379);
#264=LINE('',#1456,#380);
#265=LINE('',#1457,#381);
#266=LINE('',#1459,#382);
#267=VECTOR('',#986,2.10000000000015);
#268=VECTOR('',#993,2.10000000000015);
#269=VECTOR('',#1000,2.);
#270=VECTOR('',#1003,2.);
#271=VECTOR('',#1006,10.);
#272=VECTOR('',#1009,10.);
#273=VECTOR('',#1010,10.);
#274=VECTOR('',#1011,10.);
#275=VECTOR('',#1012,10.);
#276=VECTOR('',#1013,10.);
#277=VECTOR('',#1014,10.);
#278=VECTOR('',#1015,10.);
#279=VECTOR('',#1016,10.);
#280=VECTOR('',#1017,10.);
#281=VECTOR('',#1018,10.);
#282=VECTOR('',#1019,10.);
#283=VECTOR('',#1020,10.);
#284=VECTOR('',#1021,10.);
#285=VECTOR('',#1022,10.);
#286=VECTOR('',#1023,10.);
#287=VECTOR('',#1024,10.);
#288=VECTOR('',#1025,10.);
#289=VECTOR('',#1026,10.);
#290=VECTOR('',#1027,10.);
#291=VECTOR('',#1028,10.);
#292=VECTOR('',#1029,10.);
#293=VECTOR('',#1030,10.);
#294=VECTOR('',#1031,10.);
#295=VECTOR('',#1032,10.);
#296=VECTOR('',#1033,10.);
#297=VECTOR('',#1034,10.);
#298=VECTOR('',#1037,10.);
#299=VECTOR('',#1038,10.);
#300=VECTOR('',#1039,10.);
#301=VECTOR('',#1040,10.);
#302=VECTOR('',#1041,10.);
#303=VECTOR('',#1042,10.);
#304=VECTOR('',#1043,10.);
#305=VECTOR('',#1044,10.);
#306=VECTOR('',#1047,10.);
#307=VECTOR('',#1048,10.);
#308=VECTOR('',#1051,10.);
#309=VECTOR('',#1052,10.);
#310=VECTOR('',#1053,10.);
#311=VECTOR('',#1056,10.);
#312=VECTOR('',#1057,10.);
#313=VECTOR('',#1058,10.);
#314=VECTOR('',#1059,10.);
#315=VECTOR('',#1060,10.);
#316=VECTOR('',#1061,10.);
#317=VECTOR('',#1062,10.);
#318=VECTOR('',#1063,10.);
#319=VECTOR('',#1064,10.);
#320=VECTOR('',#1065,10.);
#321=VECTOR('',#1066,10.);
#322=VECTOR('',#1067,10.);
#323=VECTOR('',#1068,10.);
#324=VECTOR('',#1069,10.);
#325=VECTOR('',#1070,10.);
#326=VECTOR('',#1071,10.);
#327=VECTOR('',#1072,10.);
#328=VECTOR('',#1073,10.);
#329=VECTOR('',#1074,10.);
#330=VECTOR('',#1075,10.);
#331=VECTOR('',#1076,10.);
#332=VECTOR('',#1077,10.);
#333=VECTOR('',#1078,10.);
#334=VECTOR('',#1079,10.);
#335=VECTOR('',#1080,10.);
#336=VECTOR('',#1083,10.);
#337=VECTOR('',#1086,10.);
#338=VECTOR('',#1087,10.);
#339=VECTOR('',#1090,10.);
#340=VECTOR('',#1091,10.);
#341=VECTOR('',#1094,10.);
#342=VECTOR('',#1097,10.);
#343=VECTOR('',#1100,10.);
#344=VECTOR('',#1103,10.);
#345=VECTOR('',#1106,10.);
#346=VECTOR('',#1109,10.);
#347=VECTOR('',#1112,10.);
#348=VECTOR('',#1115,10.);
#349=VECTOR('',#1118,10.);
#350=VECTOR('',#1121,10.);
#351=VECTOR('',#1124,10.);
#352=VECTOR('',#1127,10.);
#353=VECTOR('',#1130,10.);
#354=VECTOR('',#1133,10.);
#355=VECTOR('',#1136,10.);
#356=VECTOR('',#1139,10.);
#357=VECTOR('',#1142,10.);
#358=VECTOR('',#1145,10.);
#359=VECTOR('',#1148,10.);
#360=VECTOR('',#1151,10.);
#361=VECTOR('',#1154,10.);
#362=VECTOR('',#1157,10.);
#363=VECTOR('',#1160,10.);
#364=VECTOR('',#1163,10.);
#365=VECTOR('',#1168,10.);
#366=VECTOR('',#1169,10.);
#367=VECTOR('',#1170,10.);
#368=VECTOR('',#1173,10.);
#369=VECTOR('',#1174,10.);
#370=VECTOR('',#1177,10.);
#371=VECTOR('',#1180,10.);
#372=VECTOR('',#1181,10.);
#373=VECTOR('',#1184,10.);
#374=VECTOR('',#1187,10.);
#375=VECTOR('',#1188,10.);
#376=VECTOR('',#1191,10.);
#377=VECTOR('',#1192,10.);
#378=VECTOR('',#1195,10.);
#379=VECTOR('',#1196,10.);
#380=VECTOR('',#1199,10.);
#381=VECTOR('',#1200,10.);
#382=VECTOR('',#1203,10.);
#383=CIRCLE('',#927,2.10000000000015);
#384=CIRCLE('',#928,2.10000000000015);
#385=CIRCLE('',#930,2.10000000000015);
#386=CIRCLE('',#931,2.10000000000015);
#387=CIRCLE('',#933,2.);
#388=CIRCLE('',#934,2.);
#389=CIRCLE('',#935,2.);
#390=CIRCLE('',#937,2.);
#391=CIRCLE('',#940,2.);
#392=CIRCLE('',#942,2.);
#393=VERTEX_POINT('',#1208);
#394=VERTEX_POINT('',#1210);
#395=VERTEX_POINT('',#1214);
#396=VERTEX_POINT('',#1216);
#397=VERTEX_POINT('',#1220);
#398=VERTEX_POINT('',#1221);
#399=VERTEX_POINT('',#1223);
#400=VERTEX_POINT('',#1225);
#401=VERTEX_POINT('',#1227);
#402=VERTEX_POINT('',#1229);
#403=VERTEX_POINT('',#1233);
#404=VERTEX_POINT('',#1235);
#405=VERTEX_POINT('',#1237);
#406=VERTEX_POINT('',#1239);
#407=VERTEX_POINT('',#1241);
#408=VERTEX_POINT('',#1243);
#409=VERTEX_POINT('',#1245);
#410=VERTEX_POINT('',#1247);
#411=VERTEX_POINT('',#1249);
#412=VERTEX_POINT('',#1251);
#413=VERTEX_POINT('',#1253);
#414=VERTEX_POINT('',#1255);
#415=VERTEX_POINT('',#1257);
#416=VERTEX_POINT('',#1259);
#417=VERTEX_POINT('',#1261);
#418=VERTEX_POINT('',#1263);
#419=VERTEX_POINT('',#1265);
#420=VERTEX_POINT('',#1267);
#421=VERTEX_POINT('',#1269);
#422=VERTEX_POINT('',#1271);
#423=VERTEX_POINT('',#1273);
#424=VERTEX_POINT('',#1275);
#425=VERTEX_POINT('',#1277);
#426=VERTEX_POINT('',#1279);
#427=VERTEX_POINT('',#1281);
#428=VERTEX_POINT('',#1283);
#429=VERTEX_POINT('',#1285);
#430=VERTEX_POINT('',#1287);
#431=VERTEX_POINT('',#1289);
#432=VERTEX_POINT('',#1291);
#433=VERTEX_POINT('',#1293);
#434=VERTEX_POINT('',#1295);
#435=VERTEX_POINT('',#1297);
#436=VERTEX_POINT('',#1299);
#437=VERTEX_POINT('',#1303);
#438=VERTEX_POINT('',#1307);
#439=VERTEX_POINT('',#1309);
#440=VERTEX_POINT('',#1311);
#441=VERTEX_POINT('',#1313);
#442=VERTEX_POINT('',#1315);
#443=VERTEX_POINT('',#1317);
#444=VERTEX_POINT('',#1319);
#445=VERTEX_POINT('',#1321);
#446=VERTEX_POINT('',#1323);
#447=VERTEX_POINT('',#1325);
#448=VERTEX_POINT('',#1327);
#449=VERTEX_POINT('',#1329);
#450=VERTEX_POINT('',#1331);
#451=VERTEX_POINT('',#1333);
#452=VERTEX_POINT('',#1335);
#453=VERTEX_POINT('',#1337);
#454=VERTEX_POINT('',#1339);
#455=VERTEX_POINT('',#1341);
#456=VERTEX_POINT('',#1343);
#457=VERTEX_POINT('',#1345);
#458=VERTEX_POINT('',#1347);
#459=VERTEX_POINT('',#1349);
#460=VERTEX_POINT('',#1351);
#461=VERTEX_POINT('',#1353);
#462=VERTEX_POINT('',#1355);
#463=VERTEX_POINT('',#1357);
#464=VERTEX_POINT('',#1359);
#465=VERTEX_POINT('',#1361);
#466=VERTEX_POINT('',#1365);
#467=VERTEX_POINT('',#1367);
#468=VERTEX_POINT('',#1372);
#469=VERTEX_POINT('',#1425);
#470=VERTEX_POINT('',#1426);
#471=VERTEX_POINT('',#1431);
#472=VERTEX_POINT('',#1437);
#473=VERTEX_POINT('',#1443);
#474=VERTEX_POINT('',#1447);
#475=VERTEX_POINT('',#1451);
#476=VERTEX_POINT('',#1455);
#477=EDGE_CURVE('',#393,#393,#383,.T.);
#478=EDGE_CURVE('',#393,#394,#151,.T.);
#479=EDGE_CURVE('',#394,#394,#384,.T.);
#480=EDGE_CURVE('',#395,#395,#385,.T.);
#481=EDGE_CURVE('',#395,#396,#152,.T.);
#482=EDGE_CURVE('',#396,#396,#386,.T.);
#483=EDGE_CURVE('',#397,#398,#387,.T.);
#484=EDGE_CURVE('',#398,#399,#153,.T.);
#485=EDGE_CURVE('',#399,#400,#388,.T.);
#486=EDGE_CURVE('',#400,#401,#154,.T.);
#487=EDGE_CURVE('',#401,#402,#389,.T.);
#488=EDGE_CURVE('',#402,#397,#155,.T.);
#489=EDGE_CURVE('',#403,#401,#156,.T.);
#490=EDGE_CURVE('',#404,#403,#157,.T.);
#491=EDGE_CURVE('',#405,#404,#158,.T.);
#492=EDGE_CURVE('',#406,#405,#159,.T.);
#493=EDGE_CURVE('',#407,#406,#160,.T.);
#494=EDGE_CURVE('',#408,#407,#161,.T.);
#495=EDGE_CURVE('',#409,#408,#162,.T.);
#496=EDGE_CURVE('',#410,#409,#163,.T.);
#497=EDGE_CURVE('',#411,#410,#164,.T.);
#498=EDGE_CURVE('',#412,#411,#165,.T.);
#499=EDGE_CURVE('',#413,#412,#166,.T.);
#500=EDGE_CURVE('',#414,#413,#167,.T.);
#501=EDGE_CURVE('',#415,#414,#168,.T.);
#502=EDGE_CURVE('',#416,#415,#169,.T.);
#503=EDGE_CURVE('',#417,#416,#170,.T.);
#504=EDGE_CURVE('',#418,#417,#171,.T.);
#505=EDGE_CURVE('',#419,#418,#172,.T.);
#506=EDGE_CURVE('',#420,#419,#173,.T.);
#507=EDGE_CURVE('',#421,#420,#174,.T.);
#508=EDGE_CURVE('',#422,#421,#175,.T.);
#509=EDGE_CURVE('',#423,#422,#176,.T.);
#510=EDGE_CURVE('',#424,#423,#177,.T.);
#511=EDGE_CURVE('',#425,#424,#178,.T.);
#512=EDGE_CURVE('',#426,#425,#179,.T.);
#513=EDGE_CURVE('',#427,#426,#180,.T.);
#514=EDGE_CURVE('',#428,#427,#181,.T.);
#515=EDGE_CURVE('',#429,#428,#390,.T.);
#516=EDGE_CURVE('',#429,#430,#182,.T.);
#517=EDGE_CURVE('',#430,#431,#183,.T.);
#518=EDGE_CURVE('',#431,#432,#184,.T.);
#519=EDGE_CURVE('',#432,#433,#185,.T.);
#520=EDGE_CURVE('',#433,#434,#186,.T.);
#521=EDGE_CURVE('',#434,#435,#187,.T.);
#522=EDGE_CURVE('',#435,#436,#188,.T.);
#523=EDGE_CURVE('',#436,#402,#189,.T.);
#524=EDGE_CURVE('',#437,#400,#190,.T.);
#525=EDGE_CURVE('',#403,#437,#191,.T.);
#526=EDGE_CURVE('',#399,#438,#192,.T.);
#527=EDGE_CURVE('',#438,#439,#193,.T.);
#528=EDGE_CURVE('',#439,#440,#194,.T.);
#529=EDGE_CURVE('',#441,#440,#391,.T.);
#530=EDGE_CURVE('',#441,#442,#195,.T.);
#531=EDGE_CURVE('',#442,#443,#196,.T.);
#532=EDGE_CURVE('',#443,#444,#197,.T.);
#533=EDGE_CURVE('',#444,#445,#198,.T.);
#534=EDGE_CURVE('',#445,#446,#199,.T.);
#535=EDGE_CURVE('',#446,#447,#200,.T.);
#536=EDGE_CURVE('',#447,#448,#201,.T.);
#537=EDGE_CURVE('',#448,#449,#202,.T.);
#538=EDGE_CURVE('',#449,#450,#203,.T.);
#539=EDGE_CURVE('',#450,#451,#204,.T.);
#540=EDGE_CURVE('',#451,#452,#205,.T.);
#541=EDGE_CURVE('',#452,#453,#206,.T.);
#542=EDGE_CURVE('',#453,#454,#207,.T.);
#543=EDGE_CURVE('',#454,#455,#208,.T.);
#544=EDGE_CURVE('',#455,#456,#209,.T.);
#545=EDGE_CURVE('',#456,#457,#210,.T.);
#546=EDGE_CURVE('',#457,#458,#211,.T.);
#547=EDGE_CURVE('',#458,#459,#212,.T.);
#548=EDGE_CURVE('',#459,#460,#213,.T.);
#549=EDGE_CURVE('',#460,#461,#214,.T.);
#550=EDGE_CURVE('',#461,#462,#215,.T.);
#551=EDGE_CURVE('',#462,#463,#216,.T.);
#552=EDGE_CURVE('',#463,#464,#217,.T.);
#553=EDGE_CURVE('',#464,#465,#218,.T.);
#554=EDGE_CURVE('',#465,#437,#219,.T.);
#555=EDGE_CURVE('',#440,#466,#220,.T.);
#556=EDGE_CURVE('',#466,#467,#392,.T.);
#557=EDGE_CURVE('',#467,#429,#221,.T.);
#558=EDGE_CURVE('',#428,#441,#222,.T.);
#559=EDGE_CURVE('',#468,#439,#223,.T.);
#560=EDGE_CURVE('',#468,#466,#224,.T.);
#561=EDGE_CURVE('',#427,#442,#225,.T.);
#562=EDGE_CURVE('',#404,#465,#226,.T.);
#563=EDGE_CURVE('',#405,#464,#227,.T.);
#564=EDGE_CURVE('',#406,#463,#228,.T.);
#565=EDGE_CURVE('',#407,#462,#229,.T.);
#566=EDGE_CURVE('',#408,#461,#230,.T.);
#567=EDGE_CURVE('',#409,#460,#231,.T.);
#568=EDGE_CURVE('',#410,#459,#232,.T.);
#569=EDGE_CURVE('',#411,#458,#233,.T.);
#570=EDGE_CURVE('',#412,#457,#234,.T.);
#571=EDGE_CURVE('',#413,#456,#235,.T.);
#572=EDGE_CURVE('',#414,#455,#236,.T.);
#573=EDGE_CURVE('',#415,#454,#237,.T.);
#574=EDGE_CURVE('',#416,#453,#238,.T.);
#575=EDGE_CURVE('',#417,#452,#239,.T.);
#576=EDGE_CURVE('',#418,#451,#240,.T.);
#577=EDGE_CURVE('',#419,#450,#241,.T.);
#578=EDGE_CURVE('',#420,#449,#242,.T.);
#579=EDGE_CURVE('',#421,#448,#243,.T.);
#580=EDGE_CURVE('',#422,#447,#244,.T.);
#581=EDGE_CURVE('',#423,#446,#245,.T.);
#582=EDGE_CURVE('',#424,#445,#246,.T.);
#583=EDGE_CURVE('',#425,#444,#247,.T.);
#584=EDGE_CURVE('',#426,#443,#248,.T.);
#585=EDGE_CURVE('',#469,#470,#249,.T.);
#586=EDGE_CURVE('',#470,#432,#250,.T.);
#587=EDGE_CURVE('',#469,#431,#251,.T.);
#588=EDGE_CURVE('',#471,#469,#252,.T.);
#589=EDGE_CURVE('',#471,#430,#253,.T.);
#590=EDGE_CURVE('',#467,#471,#254,.T.);
#591=EDGE_CURVE('',#472,#468,#255,.T.);
#592=EDGE_CURVE('',#472,#438,#256,.T.);
#593=EDGE_CURVE('',#398,#472,#257,.T.);
#594=EDGE_CURVE('',#473,#436,#258,.T.);
#595=EDGE_CURVE('',#473,#397,#259,.T.);
#596=EDGE_CURVE('',#474,#473,#260,.T.);
#597=EDGE_CURVE('',#474,#435,#261,.T.);
#598=EDGE_CURVE('',#475,#474,#262,.T.);
#599=EDGE_CURVE('',#475,#434,#263,.T.);
#600=EDGE_CURVE('',#476,#475,#264,.T.);
#601=EDGE_CURVE('',#476,#433,#265,.T.);
#602=EDGE_CURVE('',#470,#476,#266,.T.);
#603=ORIENTED_EDGE('',*,*,#477,.F.);
#604=ORIENTED_EDGE('',*,*,#478,.T.);
#605=ORIENTED_EDGE('',*,*,#479,.F.);
#606=ORIENTED_EDGE('',*,*,#478,.F.);
#607=ORIENTED_EDGE('',*,*,#480,.F.);
#608=ORIENTED_EDGE('',*,*,#481,.T.);
#609=ORIENTED_EDGE('',*,*,#482,.F.);
#610=ORIENTED_EDGE('',*,*,#481,.F.);
#611=ORIENTED_EDGE('',*,*,#483,.T.);
#612=ORIENTED_EDGE('',*,*,#484,.T.);
#613=ORIENTED_EDGE('',*,*,#485,.T.);
#614=ORIENTED_EDGE('',*,*,#486,.T.);
#615=ORIENTED_EDGE('',*,*,#487,.T.);
#616=ORIENTED_EDGE('',*,*,#488,.T.);
#617=ORIENTED_EDGE('',*,*,#487,.F.);
#618=ORIENTED_EDGE('',*,*,#489,.F.);
#619=ORIENTED_EDGE('',*,*,#490,.F.);
#620=ORIENTED_EDGE('',*,*,#491,.F.);
#621=ORIENTED_EDGE('',*,*,#492,.F.);
#622=ORIENTED_EDGE('',*,*,#493,.F.);
#623=ORIENTED_EDGE('',*,*,#494,.F.);
#624=ORIENTED_EDGE('',*,*,#495,.F.);
#625=ORIENTED_EDGE('',*,*,#496,.F.);
#626=ORIENTED_EDGE('',*,*,#497,.F.);
#627=ORIENTED_EDGE('',*,*,#498,.F.);
#628=ORIENTED_EDGE('',*,*,#499,.F.);
#629=ORIENTED_EDGE('',*,*,#500,.F.);
#630=ORIENTED_EDGE('',*,*,#501,.F.);
#631=ORIENTED_EDGE('',*,*,#502,.F.);
#632=ORIENTED_EDGE('',*,*,#503,.F.);
#633=ORIENTED_EDGE('',*,*,#504,.F.);
#634=ORIENTED_EDGE('',*,*,#505,.F.);
#635=ORIENTED_EDGE('',*,*,#506,.F.);
#636=ORIENTED_EDGE('',*,*,#507,.F.);
#637=ORIENTED_EDGE('',*,*,#508,.F.);
#638=ORIENTED_EDGE('',*,*,#509,.F.);
#639=ORIENTED_EDGE('',*,*,#510,.F.);
#640=ORIENTED_EDGE('',*,*,#511,.F.);
#641=ORIENTED_EDGE('',*,*,#512,.F.);
#642=ORIENTED_EDGE('',*,*,#513,.F.);
#643=ORIENTED_EDGE('',*,*,#514,.F.);
#644=ORIENTED_EDGE('',*,*,#515,.F.);
#645=ORIENTED_EDGE('',*,*,#516,.T.);
#646=ORIENTED_EDGE('',*,*,#517,.T.);
#647=ORIENTED_EDGE('',*,*,#518,.T.);
#648=ORIENTED_EDGE('',*,*,#519,.T.);
#649=ORIENTED_EDGE('',*,*,#520,.T.);
#650=ORIENTED_EDGE('',*,*,#521,.T.);
#651=ORIENTED_EDGE('',*,*,#522,.T.);
#652=ORIENTED_EDGE('',*,*,#523,.T.);
#653=ORIENTED_EDGE('',*,*,#486,.F.);
#654=ORIENTED_EDGE('',*,*,#524,.F.);
#655=ORIENTED_EDGE('',*,*,#525,.F.);
#656=ORIENTED_EDGE('',*,*,#489,.T.);
#657=ORIENTED_EDGE('',*,*,#485,.F.);
#658=ORIENTED_EDGE('',*,*,#526,.T.);
#659=ORIENTED_EDGE('',*,*,#527,.T.);
#660=ORIENTED_EDGE('',*,*,#528,.T.);
#661=ORIENTED_EDGE('',*,*,#529,.F.);
#662=ORIENTED_EDGE('',*,*,#530,.T.);
#663=ORIENTED_EDGE('',*,*,#531,.T.);
#664=ORIENTED_EDGE('',*,*,#532,.T.);
#665=ORIENTED_EDGE('',*,*,#533,.T.);
#666=ORIENTED_EDGE('',*,*,#534,.T.);
#667=ORIENTED_EDGE('',*,*,#535,.T.);
#668=ORIENTED_EDGE('',*,*,#536,.T.);
#669=ORIENTED_EDGE('',*,*,#537,.T.);
#670=ORIENTED_EDGE('',*,*,#538,.T.);
#671=ORIENTED_EDGE('',*,*,#539,.T.);
#672=ORIENTED_EDGE('',*,*,#540,.T.);
#673=ORIENTED_EDGE('',*,*,#541,.T.);
#674=ORIENTED_EDGE('',*,*,#542,.T.);
#675=ORIENTED_EDGE('',*,*,#543,.T.);
#676=ORIENTED_EDGE('',*,*,#544,.T.);
#677=ORIENTED_EDGE('',*,*,#545,.T.);
#678=ORIENTED_EDGE('',*,*,#546,.T.);
#679=ORIENTED_EDGE('',*,*,#547,.T.);
#680=ORIENTED_EDGE('',*,*,#548,.T.);
#681=ORIENTED_EDGE('',*,*,#549,.T.);
#682=ORIENTED_EDGE('',*,*,#550,.T.);
#683=ORIENTED_EDGE('',*,*,#551,.T.);
#684=ORIENTED_EDGE('',*,*,#552,.T.);
#685=ORIENTED_EDGE('',*,*,#553,.T.);
#686=ORIENTED_EDGE('',*,*,#554,.T.);
#687=ORIENTED_EDGE('',*,*,#524,.T.);
#688=ORIENTED_EDGE('',*,*,#477,.T.);
#689=ORIENTED_EDGE('',*,*,#480,.T.);
#690=ORIENTED_EDGE('',*,*,#529,.T.);
#691=ORIENTED_EDGE('',*,*,#555,.T.);
#692=ORIENTED_EDGE('',*,*,#556,.T.);
#693=ORIENTED_EDGE('',*,*,#557,.T.);
#694=ORIENTED_EDGE('',*,*,#515,.T.);
#695=ORIENTED_EDGE('',*,*,#558,.T.);
#696=ORIENTED_EDGE('',*,*,#555,.F.);
#697=ORIENTED_EDGE('',*,*,#528,.F.);
#698=ORIENTED_EDGE('',*,*,#559,.F.);
#699=ORIENTED_EDGE('',*,*,#560,.T.);
#700=ORIENTED_EDGE('',*,*,#558,.F.);
#701=ORIENTED_EDGE('',*,*,#514,.T.);
#702=ORIENTED_EDGE('',*,*,#561,.T.);
#703=ORIENTED_EDGE('',*,*,#530,.F.);
#704=ORIENTED_EDGE('',*,*,#490,.T.);
#705=ORIENTED_EDGE('',*,*,#525,.T.);
#706=ORIENTED_EDGE('',*,*,#554,.F.);
#707=ORIENTED_EDGE('',*,*,#562,.F.);
#708=ORIENTED_EDGE('',*,*,#491,.T.);
#709=ORIENTED_EDGE('',*,*,#562,.T.);
#710=ORIENTED_EDGE('',*,*,#553,.F.);
#711=ORIENTED_EDGE('',*,*,#563,.F.);
#712=ORIENTED_EDGE('',*,*,#492,.T.);
#713=ORIENTED_EDGE('',*,*,#563,.T.);
#714=ORIENTED_EDGE('',*,*,#552,.F.);
#715=ORIENTED_EDGE('',*,*,#564,.F.);
#716=ORIENTED_EDGE('',*,*,#493,.T.);
#717=ORIENTED_EDGE('',*,*,#564,.T.);
#718=ORIENTED_EDGE('',*,*,#551,.F.);
#719=ORIENTED_EDGE('',*,*,#565,.F.);
#720=ORIENTED_EDGE('',*,*,#494,.T.);
#721=ORIENTED_EDGE('',*,*,#565,.T.);
#722=ORIENTED_EDGE('',*,*,#550,.F.);
#723=ORIENTED_EDGE('',*,*,#566,.F.);
#724=ORIENTED_EDGE('',*,*,#495,.T.);
#725=ORIENTED_EDGE('',*,*,#566,.T.);
#726=ORIENTED_EDGE('',*,*,#549,.F.);
#727=ORIENTED_EDGE('',*,*,#567,.F.);
#728=ORIENTED_EDGE('',*,*,#496,.T.);
#729=ORIENTED_EDGE('',*,*,#567,.T.);
#730=ORIENTED_EDGE('',*,*,#548,.F.);
#731=ORIENTED_EDGE('',*,*,#568,.F.);
#732=ORIENTED_EDGE('',*,*,#497,.T.);
#733=ORIENTED_EDGE('',*,*,#568,.T.);
#734=ORIENTED_EDGE('',*,*,#547,.F.);
#735=ORIENTED_EDGE('',*,*,#569,.F.);
#736=ORIENTED_EDGE('',*,*,#498,.T.);
#737=ORIENTED_EDGE('',*,*,#569,.T.);
#738=ORIENTED_EDGE('',*,*,#546,.F.);
#739=ORIENTED_EDGE('',*,*,#570,.F.);
#740=ORIENTED_EDGE('',*,*,#499,.T.);
#741=ORIENTED_EDGE('',*,*,#570,.T.);
#742=ORIENTED_EDGE('',*,*,#545,.F.);
#743=ORIENTED_EDGE('',*,*,#571,.F.);
#744=ORIENTED_EDGE('',*,*,#500,.T.);
#745=ORIENTED_EDGE('',*,*,#571,.T.);
#746=ORIENTED_EDGE('',*,*,#544,.F.);
#747=ORIENTED_EDGE('',*,*,#572,.F.);
#748=ORIENTED_EDGE('',*,*,#501,.T.);
#749=ORIENTED_EDGE('',*,*,#572,.T.);
#750=ORIENTED_EDGE('',*,*,#543,.F.);
#751=ORIENTED_EDGE('',*,*,#573,.F.);
#752=ORIENTED_EDGE('',*,*,#502,.T.);
#753=ORIENTED_EDGE('',*,*,#573,.T.);
#754=ORIENTED_EDGE('',*,*,#542,.F.);
#755=ORIENTED_EDGE('',*,*,#574,.F.);
#756=ORIENTED_EDGE('',*,*,#503,.T.);
#757=ORIENTED_EDGE('',*,*,#574,.T.);
#758=ORIENTED_EDGE('',*,*,#541,.F.);
#759=ORIENTED_EDGE('',*,*,#575,.F.);
#760=ORIENTED_EDGE('',*,*,#504,.T.);
#761=ORIENTED_EDGE('',*,*,#575,.T.);
#762=ORIENTED_EDGE('',*,*,#540,.F.);
#763=ORIENTED_EDGE('',*,*,#576,.F.);
#764=ORIENTED_EDGE('',*,*,#505,.T.);
#765=ORIENTED_EDGE('',*,*,#576,.T.);
#766=ORIENTED_EDGE('',*,*,#539,.F.);
#767=ORIENTED_EDGE('',*,*,#577,.F.);
#768=ORIENTED_EDGE('',*,*,#506,.T.);
#769=ORIENTED_EDGE('',*,*,#577,.T.);
#770=ORIENTED_EDGE('',*,*,#538,.F.);
#771=ORIENTED_EDGE('',*,*,#578,.F.);
#772=ORIENTED_EDGE('',*,*,#507,.T.);
#773=ORIENTED_EDGE('',*,*,#578,.T.);
#774=ORIENTED_EDGE('',*,*,#537,.F.);
#775=ORIENTED_EDGE('',*,*,#579,.F.);
#776=ORIENTED_EDGE('',*,*,#508,.T.);
#777=ORIENTED_EDGE('',*,*,#579,.T.);
#778=ORIENTED_EDGE('',*,*,#536,.F.);
#779=ORIENTED_EDGE('',*,*,#580,.F.);
#780=ORIENTED_EDGE('',*,*,#509,.T.);
#781=ORIENTED_EDGE('',*,*,#580,.T.);
#782=ORIENTED_EDGE('',*,*,#535,.F.);
#783=ORIENTED_EDGE('',*,*,#581,.F.);
#784=ORIENTED_EDGE('',*,*,#510,.T.);
#785=ORIENTED_EDGE('',*,*,#581,.T.);
#786=ORIENTED_EDGE('',*,*,#534,.F.);
#787=ORIENTED_EDGE('',*,*,#582,.F.);
#788=ORIENTED_EDGE('',*,*,#511,.T.);
#789=ORIENTED_EDGE('',*,*,#582,.T.);
#790=ORIENTED_EDGE('',*,*,#533,.F.);
#791=ORIENTED_EDGE('',*,*,#583,.F.);
#792=ORIENTED_EDGE('',*,*,#512,.T.);
#793=ORIENTED_EDGE('',*,*,#583,.T.);
#794=ORIENTED_EDGE('',*,*,#532,.F.);
#795=ORIENTED_EDGE('',*,*,#584,.F.);
#796=ORIENTED_EDGE('',*,*,#513,.T.);
#797=ORIENTED_EDGE('',*,*,#584,.T.);
#798=ORIENTED_EDGE('',*,*,#531,.F.);
#799=ORIENTED_EDGE('',*,*,#561,.F.);
#800=ORIENTED_EDGE('',*,*,#585,.T.);
#801=ORIENTED_EDGE('',*,*,#586,.T.);
#802=ORIENTED_EDGE('',*,*,#518,.F.);
#803=ORIENTED_EDGE('',*,*,#587,.F.);
#804=ORIENTED_EDGE('',*,*,#588,.T.);
#805=ORIENTED_EDGE('',*,*,#587,.T.);
#806=ORIENTED_EDGE('',*,*,#517,.F.);
#807=ORIENTED_EDGE('',*,*,#589,.F.);
#808=ORIENTED_EDGE('',*,*,#557,.F.);
#809=ORIENTED_EDGE('',*,*,#590,.T.);
#810=ORIENTED_EDGE('',*,*,#589,.T.);
#811=ORIENTED_EDGE('',*,*,#516,.F.);
#812=ORIENTED_EDGE('',*,*,#591,.T.);
#813=ORIENTED_EDGE('',*,*,#559,.T.);
#814=ORIENTED_EDGE('',*,*,#527,.F.);
#815=ORIENTED_EDGE('',*,*,#592,.F.);
#816=ORIENTED_EDGE('',*,*,#484,.F.);
#817=ORIENTED_EDGE('',*,*,#593,.T.);
#818=ORIENTED_EDGE('',*,*,#592,.T.);
#819=ORIENTED_EDGE('',*,*,#526,.F.);
#820=ORIENTED_EDGE('',*,*,#488,.F.);
#821=ORIENTED_EDGE('',*,*,#523,.F.);
#822=ORIENTED_EDGE('',*,*,#594,.F.);
#823=ORIENTED_EDGE('',*,*,#595,.T.);
#824=ORIENTED_EDGE('',*,*,#596,.T.);
#825=ORIENTED_EDGE('',*,*,#594,.T.);
#826=ORIENTED_EDGE('',*,*,#522,.F.);
#827=ORIENTED_EDGE('',*,*,#597,.F.);
#828=ORIENTED_EDGE('',*,*,#598,.T.);
#829=ORIENTED_EDGE('',*,*,#597,.T.);
#830=ORIENTED_EDGE('',*,*,#521,.F.);
#831=ORIENTED_EDGE('',*,*,#599,.F.);
#832=ORIENTED_EDGE('',*,*,#600,.T.);
#833=ORIENTED_EDGE('',*,*,#599,.T.);
#834=ORIENTED_EDGE('',*,*,#520,.F.);
#835=ORIENTED_EDGE('',*,*,#601,.F.);
#836=ORIENTED_EDGE('',*,*,#602,.T.);
#837=ORIENTED_EDGE('',*,*,#601,.T.);
#838=ORIENTED_EDGE('',*,*,#519,.F.);
#839=ORIENTED_EDGE('',*,*,#586,.F.);
#840=ORIENTED_EDGE('',*,*,#483,.F.);
#841=ORIENTED_EDGE('',*,*,#595,.F.);
#842=ORIENTED_EDGE('',*,*,#596,.F.);
#843=ORIENTED_EDGE('',*,*,#598,.F.);
#844=ORIENTED_EDGE('',*,*,#600,.F.);
#845=ORIENTED_EDGE('',*,*,#602,.F.);
#846=ORIENTED_EDGE('',*,*,#585,.F.);
#847=ORIENTED_EDGE('',*,*,#588,.F.);
#848=ORIENTED_EDGE('',*,*,#590,.F.);
#849=ORIENTED_EDGE('',*,*,#556,.F.);
#850=ORIENTED_EDGE('',*,*,#560,.F.);
#851=ORIENTED_EDGE('',*,*,#591,.F.);
#852=ORIENTED_EDGE('',*,*,#593,.F.);
#853=ORIENTED_EDGE('',*,*,#479,.T.);
#854=ORIENTED_EDGE('',*,*,#482,.T.);
#855=CYLINDRICAL_SURFACE('',#926,2.10000000000015);
#856=CYLINDRICAL_SURFACE('',#929,2.10000000000015);
#857=CYLINDRICAL_SURFACE('',#932,2.);
#858=CYLINDRICAL_SURFACE('',#941,2.);
#859=ADVANCED_FACE('',(#59),#855,.F.);
#860=ADVANCED_FACE('',(#60),#856,.F.);
#861=ADVANCED_FACE('',(#61),#857,.T.);
#862=ADVANCED_FACE('',(#62),#19,.F.);
#863=ADVANCED_FACE('',(#63),#20,.T.);
#864=ADVANCED_FACE('',(#64,#15,#16),#21,.T.);
#865=ADVANCED_FACE('',(#65),#858,.T.);
#866=ADVANCED_FACE('',(#66),#22,.T.);
#867=ADVANCED_FACE('',(#67),#23,.T.);
#868=ADVANCED_FACE('',(#68),#24,.T.);
#869=ADVANCED_FACE('',(#69),#25,.T.);
#870=ADVANCED_FACE('',(#70),#26,.T.);
#871=ADVANCED_FACE('',(#71),#27,.T.);
#872=ADVANCED_FACE('',(#72),#28,.T.);
#873=ADVANCED_FACE('',(#73),#29,.T.);
#874=ADVANCED_FACE('',(#74),#30,.T.);
#875=ADVANCED_FACE('',(#75),#31,.T.);
#876=ADVANCED_FACE('',(#76),#32,.T.);
#877=ADVANCED_FACE('',(#77),#33,.T.);
#878=ADVANCED_FACE('',(#78),#34,.T.);
#879=ADVANCED_FACE('',(#79),#35,.T.);
#880=ADVANCED_FACE('',(#80),#36,.T.);
#881=ADVANCED_FACE('',(#81),#37,.T.);
#882=ADVANCED_FACE('',(#82),#38,.T.);
#883=ADVANCED_FACE('',(#83),#39,.T.);
#884=ADVANCED_FACE('',(#84),#40,.T.);
#885=ADVANCED_FACE('',(#85),#41,.T.);
#886=ADVANCED_FACE('',(#86),#42,.T.);
#887=ADVANCED_FACE('',(#87),#43,.T.);
#888=ADVANCED_FACE('',(#88),#44,.T.);
#889=ADVANCED_FACE('',(#89),#45,.T.);
#890=ADVANCED_FACE('',(#90),#46,.T.);
#891=ADVANCED_FACE('',(#91),#47,.T.);
#892=ADVANCED_FACE('',(#92),#48,.T.);
#893=ADVANCED_FACE('',(#93),#49,.T.);
#894=ADVANCED_FACE('',(#94),#50,.T.);
#895=ADVANCED_FACE('',(#95),#51,.T.);
#896=ADVANCED_FACE('',(#96),#52,.T.);
#897=ADVANCED_FACE('',(#97),#53,.T.);
#898=ADVANCED_FACE('',(#98),#54,.T.);
#899=ADVANCED_FACE('',(#99),#55,.T.);
#900=ADVANCED_FACE('',(#100),#56,.T.);
#901=ADVANCED_FACE('',(#101),#57,.T.);
#902=ADVANCED_FACE('',(#102,#17,#18),#58,.F.);
#903=CLOSED_SHELL('',(#859,#860,#861,#862,#863,#864,#865,#866,#867,#868,
#869,#870,#871,#872,#873,#874,#875,#876,#877,#878,#879,#880,#881,#882,#883,
#884,#885,#886,#887,#888,#889,#890,#891,#892,#893,#894,#895,#896,#897,#898,
#899,#900,#901,#902));
#904=DERIVED_UNIT_ELEMENT(#907,1.);
#905=DERIVED_UNIT_ELEMENT(#1466,-3.);
#906=DIMENSIONAL_EXPONENTS(0.,1.,0.,0.,0.,0.,0.);
#907=(
CONVERSION_BASED_UNIT('gram',#909)
MASS_UNIT()
NAMED_UNIT(#906)
);
#908=(
MASS_UNIT()
NAMED_UNIT(*)
SI_UNIT(.KILO.,.GRAM.)
);
#909=MASS_MEASURE_WITH_UNIT(MASS_MEASURE(0.001),#908);
#910=DERIVED_UNIT((#904,#905));
#911=MEASURE_REPRESENTATION_ITEM('density measure',
POSITIVE_RATIO_MEASURE(1.),#910);
#912=PROPERTY_DEFINITION_REPRESENTATION(#917,#914);
#913=PROPERTY_DEFINITION_REPRESENTATION(#918,#915);
#914=REPRESENTATION('material name',(#916),#1463);
#915=REPRESENTATION('density',(#911),#1463);
#916=DESCRIPTIVE_REPRESENTATION_ITEM('\X2\04220438043F043E0432044B0435\X0\',
'\X2\04220438043F043E0432044B0435\X0\');
#917=PROPERTY_DEFINITION('material property','material name',#1473);
#918=PROPERTY_DEFINITION('material property','density of part',#1473);
#919=DATE_TIME_ROLE('creation_date');
#920=APPLIED_DATE_AND_TIME_ASSIGNMENT(#921,#919,(#1473));
#921=DATE_AND_TIME(#922,#923);
#922=CALENDAR_DATE(2026,17,5);
#923=LOCAL_TIME(0,0,0.,#924);
#924=COORDINATED_UNIVERSAL_TIME_OFFSET(0,0,.BEHIND.);
#925=AXIS2_PLACEMENT_3D('',#1206,#980,#981);
#926=AXIS2_PLACEMENT_3D('',#1207,#982,#983);
#927=AXIS2_PLACEMENT_3D('',#1209,#984,#985);
#928=AXIS2_PLACEMENT_3D('',#1212,#987,#988);
#929=AXIS2_PLACEMENT_3D('',#1213,#989,#990);
#930=AXIS2_PLACEMENT_3D('',#1215,#991,#992);
#931=AXIS2_PLACEMENT_3D('',#1218,#994,#995);
#932=AXIS2_PLACEMENT_3D('',#1219,#996,#997);
#933=AXIS2_PLACEMENT_3D('',#1222,#998,#999);
#934=AXIS2_PLACEMENT_3D('',#1226,#1001,#1002);
#935=AXIS2_PLACEMENT_3D('',#1230,#1004,#1005);
#936=AXIS2_PLACEMENT_3D('',#1232,#1007,#1008);
#937=AXIS2_PLACEMENT_3D('',#1286,#1035,#1036);
#938=AXIS2_PLACEMENT_3D('',#1302,#1045,#1046);
#939=AXIS2_PLACEMENT_3D('',#1306,#1049,#1050);
#940=AXIS2_PLACEMENT_3D('',#1314,#1054,#1055);
#941=AXIS2_PLACEMENT_3D('',#1364,#1081,#1082);
#942=AXIS2_PLACEMENT_3D('',#1368,#1084,#1085);
#943=AXIS2_PLACEMENT_3D('',#1371,#1088,#1089);
#944=AXIS2_PLACEMENT_3D('',#1375,#1092,#1093);
#945=AXIS2_PLACEMENT_3D('',#1377,#1095,#1096);
#946=AXIS2_PLACEMENT_3D('',#1379,#1098,#1099);
#947=AXIS2_PLACEMENT_3D('',#1381,#1101,#1102);
#948=AXIS2_PLACEMENT_3D('',#1383,#1104,#1105);
#949=AXIS2_PLACEMENT_3D('',#1385,#1107,#1108);
#950=AXIS2_PLACEMENT_3D('',#1387,#1110,#1111);
#951=AXIS2_PLACEMENT_3D('',#1389,#1113,#1114);
#952=AXIS2_PLACEMENT_3D('',#1391,#1116,#1117);
#953=AXIS2_PLACEMENT_3D('',#1393,#1119,#1120);
#954=AXIS2_PLACEMENT_3D('',#1395,#1122,#1123);
#955=AXIS2_PLACEMENT_3D('',#1397,#1125,#1126);
#956=AXIS2_PLACEMENT_3D('',#1399,#1128,#1129);
#957=AXIS2_PLACEMENT_3D('',#1401,#1131,#1132);
#958=AXIS2_PLACEMENT_3D('',#1403,#1134,#1135);
#959=AXIS2_PLACEMENT_3D('',#1405,#1137,#1138);
#960=AXIS2_PLACEMENT_3D('',#1407,#1140,#1141);
#961=AXIS2_PLACEMENT_3D('',#1409,#1143,#1144);
#962=AXIS2_PLACEMENT_3D('',#1411,#1146,#1147);
#963=AXIS2_PLACEMENT_3D('',#1413,#1149,#1150);
#964=AXIS2_PLACEMENT_3D('',#1415,#1152,#1153);
#965=AXIS2_PLACEMENT_3D('',#1417,#1155,#1156);
#966=AXIS2_PLACEMENT_3D('',#1419,#1158,#1159);
#967=AXIS2_PLACEMENT_3D('',#1421,#1161,#1162);
#968=AXIS2_PLACEMENT_3D('',#1423,#1164,#1165);
#969=AXIS2_PLACEMENT_3D('',#1424,#1166,#1167);
#970=AXIS2_PLACEMENT_3D('',#1430,#1171,#1172);
#971=AXIS2_PLACEMENT_3D('',#1434,#1175,#1176);
#972=AXIS2_PLACEMENT_3D('',#1436,#1178,#1179);
#973=AXIS2_PLACEMENT_3D('',#1440,#1182,#1183);
#974=AXIS2_PLACEMENT_3D('',#1442,#1185,#1186);
#975=AXIS2_PLACEMENT_3D('',#1446,#1189,#1190);
#976=AXIS2_PLACEMENT_3D('',#1450,#1193,#1194);
#977=AXIS2_PLACEMENT_3D('',#1454,#1197,#1198);
#978=AXIS2_PLACEMENT_3D('',#1458,#1201,#1202);
#979=AXIS2_PLACEMENT_3D('',#1460,#1204,#1205);
#980=DIRECTION('axis',(0.,0.,1.));
#981=DIRECTION('refdir',(1.,0.,0.));
#982=DIRECTION('center_axis',(0.,0.,-1.));
#983=DIRECTION('ref_axis',(1.,2.77555756156269E-17,0.));
#984=DIRECTION('center_axis',(0.,0.,-1.));
#985=DIRECTION('ref_axis',(1.,2.77555756156269E-17,0.));
#986=DIRECTION('',(0.,0.,-1.));
#987=DIRECTION('center_axis',(-1.49077798716746E-18,8.565197162634E-18,
1.));
#988=DIRECTION('ref_axis',(1.,2.77555756156269E-17,0.));
#989=DIRECTION('center_axis',(0.,0.,-1.));
#990=DIRECTION('ref_axis',(1.,2.77555756156269E-17,0.));
#991=DIRECTION('center_axis',(0.,0.,-1.));
#992=DIRECTION('ref_axis',(1.,2.77555756156269E-17,0.));
#993=DIRECTION('',(0.,0.,-1.));
#994=DIRECTION('center_axis',(-1.49077798716746E-18,8.565197162634E-18,
1.));
#995=DIRECTION('ref_axis',(1.,2.77555756156269E-17,0.));
#996=DIRECTION('center_axis',(0.,0.,1.));
#997=DIRECTION('ref_axis',(0.999997755160541,-0.00211888505542823,0.));
#998=DIRECTION('center_axis',(-1.49077798716746E-18,8.565197162634E-18,
1.));
#999=DIRECTION('ref_axis',(0.999997755160541,-0.00211888505542823,0.));
#1000=DIRECTION('',(0.,0.,1.));
#1001=DIRECTION('center_axis',(0.,0.,-1.));
#1002=DIRECTION('ref_axis',(0.999997755160541,-0.00211888505542823,0.));
#1003=DIRECTION('',(0.,0.,-1.));
#1004=DIRECTION('center_axis',(0.,0.,1.));
#1005=DIRECTION('ref_axis',(0.999997755160541,-0.00211888505542823,0.));
#1006=DIRECTION('',(0.,0.,-1.));
#1007=DIRECTION('center_axis',(0.,0.,1.));
#1008=DIRECTION('ref_axis',(1.,0.,0.));
#1009=DIRECTION('',(0.00211888505542818,0.999997755160541,0.));
#1010=DIRECTION('',(-0.660609969664698,0.75072929074308,0.));
#1011=DIRECTION('',(-0.866025403784439,0.5,0.));
#1012=DIRECTION('',(-0.866249315431892,0.499611972948786,0.));
#1013=DIRECTION('',(0.00211888505542677,0.999997755160541,0.));
#1014=DIRECTION('',(-1.88614999863116E-15,1.,0.));
#1015=DIRECTION('',(0.00211888505542686,0.999997755160541,0.));
#1016=DIRECTION('',(0.865800143732034,0.500389959045532,0.));
#1017=DIRECTION('',(0.866025403784401,0.500000000000065,0.));
#1018=DIRECTION('',(1.,-1.44466060621122E-14,0.));
#1019=DIRECTION('',(0.866025403784432,-0.500000000000011,0.));
#1020=DIRECTION('',(0.867082902224139,0.498163869294598,0.));
#1021=DIRECTION('',(1.,-2.53854539108608E-14,0.));
#1022=DIRECTION('',(0.866025403784443,-0.499999999999993,0.));
#1023=DIRECTION('',(0.866025403784437,0.500000000000002,0.));
#1024=DIRECTION('',(1.,-2.16837868809673E-14,0.));
#1025=DIRECTION('',(0.866025403784449,-0.499999999999982,0.));
#1026=DIRECTION('',(0.866249315431886,-0.499611972948797,0.));
#1027=DIRECTION('',(-0.00211888505542686,-0.999997755160541,0.));
#1028=DIRECTION('',(1.51447111402805E-15,-1.,0.));
#1029=DIRECTION('',(-0.0021188850554162,-0.999997755160541,0.));
#1030=DIRECTION('',(-0.865800143732054,-0.500389959045497,0.));
#1031=DIRECTION('',(-0.866025403784428,-0.500000000000018,0.));
#1032=DIRECTION('',(-0.635163214425488,-0.772377945723906,0.));
#1033=DIRECTION('',(2.77555756156269E-17,-1.,0.));
#1034=DIRECTION('',(-0.00211888505542685,-0.999997755160541,0.));
#1035=DIRECTION('center_axis',(0.,0.,1.));
#1036=DIRECTION('ref_axis',(-0.865495196201155,0.500917224052762,0.));
#1037=DIRECTION('',(2.77555756156269E-17,-1.,8.565197162634E-18));
#1038=DIRECTION('',(1.,4.48388269949226E-15,1.49077798716742E-18));
#1039=DIRECTION('',(0.866025403784451,0.499999999999978,-2.99154697302714E-18));
#1040=DIRECTION('',(0.86602540378445,-0.49999999999998,5.5736501896065E-18));
#1041=DIRECTION('',(1.,-1.8952071107678E-15,1.49077798716748E-18));
#1042=DIRECTION('',(0.866025403784448,0.499999999999984,-2.9915469730272E-18));
#1043=DIRECTION('',(0.866025403784478,-0.499999999999932,5.57365018960613E-18));
#1044=DIRECTION('',(1.,-2.3632157486883E-14,1.49077798716766E-18));
#1045=DIRECTION('center_axis',(0.999997755160541,-0.00211888505542818,0.));
#1046=DIRECTION('ref_axis',(0.00211888505542818,0.999997755160541,0.));
#1047=DIRECTION('',(0.00211888505542818,0.999997755160541,0.));
#1048=DIRECTION('',(0.,0.,1.));
#1049=DIRECTION('center_axis',(0.,0.,1.));
#1050=DIRECTION('ref_axis',(1.,0.,0.));
#1051=DIRECTION('',(-0.866025403784447,0.499999999999985,0.));
#1052=DIRECTION('',(-1.,5.01356326069147E-15,0.));
#1053=DIRECTION('',(-0.866025403784451,-0.499999999999978,0.));
#1054=DIRECTION('center_axis',(0.,0.,-1.));
#1055=DIRECTION('ref_axis',(-0.865495196201155,0.500917224052762,0.));
#1056=DIRECTION('',(-0.00211888505542685,-0.999997755160541,0.));
#1057=DIRECTION('',(2.77555756156269E-17,-1.,0.));
#1058=DIRECTION('',(-0.635163214425488,-0.772377945723906,0.));
#1059=DIRECTION('',(-0.866025403784428,-0.500000000000018,0.));
#1060=DIRECTION('',(-0.865800143732054,-0.500389959045497,0.));
#1061=DIRECTION('',(-0.0021188850554162,-0.999997755160541,0.));
#1062=DIRECTION('',(1.51447111402805E-15,-1.,0.));
#1063=DIRECTION('',(-0.00211888505542686,-0.999997755160541,0.));
#1064=DIRECTION('',(0.866249315431886,-0.499611972948797,0.));
#1065=DIRECTION('',(0.866025403784449,-0.499999999999982,0.));
#1066=DIRECTION('',(1.,-2.16837868809673E-14,0.));
#1067=DIRECTION('',(0.866025403784437,0.500000000000002,0.));
#1068=DIRECTION('',(0.866025403784443,-0.499999999999993,0.));
#1069=DIRECTION('',(1.,-2.53854539108608E-14,0.));
#1070=DIRECTION('',(0.867082902224139,0.498163869294598,0.));
#1071=DIRECTION('',(0.866025403784432,-0.500000000000011,0.));
#1072=DIRECTION('',(1.,-1.44466060621122E-14,0.));
#1073=DIRECTION('',(0.866025403784401,0.500000000000065,0.));
#1074=DIRECTION('',(0.865800143732034,0.500389959045532,0.));
#1075=DIRECTION('',(0.00211888505542686,0.999997755160541,0.));
#1076=DIRECTION('',(-1.88614999863116E-15,1.,0.));
#1077=DIRECTION('',(0.00211888505542677,0.999997755160541,0.));
#1078=DIRECTION('',(-0.866249315431892,0.499611972948786,0.));
#1079=DIRECTION('',(-0.866025403784439,0.5,0.));
#1080=DIRECTION('',(-0.660609969664698,0.75072929074308,0.));
#1081=DIRECTION('center_axis',(0.,0.,1.));
#1082=DIRECTION('ref_axis',(-0.865495196201155,0.500917224052762,0.));
#1083=DIRECTION('',(0.,0.,-1.));
#1084=DIRECTION('center_axis',(-1.49077798716746E-18,8.565197162634E-18,
1.));
#1085=DIRECTION('ref_axis',(-0.865495196201155,0.500917224052762,0.));
#1086=DIRECTION('',(0.,0.,1.));
#1087=DIRECTION('',(0.,0.,1.));
#1088=DIRECTION('center_axis',(-0.499999999999978,0.866025403784451,0.));
#1089=DIRECTION('ref_axis',(-0.866025403784451,-0.499999999999978,2.99154697302714E-18));
#1090=DIRECTION('',(0.,0.,1.));
#1091=DIRECTION('',(-0.866025403784451,-0.499999999999978,2.99154697302714E-18));
#1092=DIRECTION('center_axis',(-0.999997755160541,0.00211888505542685,0.));
#1093=DIRECTION('ref_axis',(-0.00211888505542685,-0.999997755160541,0.));
#1094=DIRECTION('',(0.,0.,1.));
#1095=DIRECTION('center_axis',(0.75072929074308,0.660609969664698,0.));
#1096=DIRECTION('ref_axis',(-0.660609969664698,0.75072929074308,0.));
#1097=DIRECTION('',(0.,0.,1.));
#1098=DIRECTION('center_axis',(0.5,0.866025403784439,0.));
#1099=DIRECTION('ref_axis',(-0.866025403784439,0.5,0.));
#1100=DIRECTION('',(0.,0.,1.));
#1101=DIRECTION('center_axis',(0.499611972948786,0.866249315431892,0.));
#1102=DIRECTION('ref_axis',(-0.866249315431892,0.499611972948786,0.));
#1103=DIRECTION('',(0.,0.,1.));
#1104=DIRECTION('center_axis',(0.999997755160541,-0.00211888505542677,0.));
#1105=DIRECTION('ref_axis',(0.00211888505542677,0.999997755160541,0.));
#1106=DIRECTION('',(0.,0.,1.));
#1107=DIRECTION('center_axis',(1.,1.88614999863116E-15,0.));
#1108=DIRECTION('ref_axis',(-1.88614999863116E-15,1.,0.));
#1109=DIRECTION('',(0.,0.,1.));
#1110=DIRECTION('center_axis',(0.999997755160541,-0.00211888505542686,0.));
#1111=DIRECTION('ref_axis',(0.00211888505542686,0.999997755160541,0.));
#1112=DIRECTION('',(0.,0.,1.));
#1113=DIRECTION('center_axis',(0.500389959045532,-0.865800143732034,0.));
#1114=DIRECTION('ref_axis',(0.865800143732034,0.500389959045532,0.));
#1115=DIRECTION('',(0.,0.,1.));
#1116=DIRECTION('center_axis',(0.500000000000065,-0.866025403784401,0.));
#1117=DIRECTION('ref_axis',(0.866025403784401,0.500000000000065,0.));
#1118=DIRECTION('',(0.,0.,1.));
#1119=DIRECTION('center_axis',(-1.44466060621122E-14,-1.,0.));
#1120=DIRECTION('ref_axis',(1.,-1.44466060621122E-14,0.));
#1121=DIRECTION('',(0.,0.,1.));
#1122=DIRECTION('center_axis',(-0.500000000000011,-0.866025403784432,0.));
#1123=DIRECTION('ref_axis',(0.866025403784432,-0.500000000000011,0.));
#1124=DIRECTION('',(0.,0.,1.));
#1125=DIRECTION('center_axis',(0.498163869294598,-0.867082902224139,0.));
#1126=DIRECTION('ref_axis',(0.867082902224139,0.498163869294598,0.));
#1127=DIRECTION('',(0.,0.,1.));
#1128=DIRECTION('center_axis',(-2.53854539108608E-14,-1.,0.));
#1129=DIRECTION('ref_axis',(1.,-2.53854539108608E-14,0.));
#1130=DIRECTION('',(0.,0.,1.));
#1131=DIRECTION('center_axis',(-0.499999999999993,-0.866025403784443,0.));
#1132=DIRECTION('ref_axis',(0.866025403784443,-0.499999999999993,0.));
#1133=DIRECTION('',(0.,0.,1.));
#1134=DIRECTION('center_axis',(0.500000000000002,-0.866025403784437,0.));
#1135=DIRECTION('ref_axis',(0.866025403784437,0.500000000000002,0.));
#1136=DIRECTION('',(0.,0.,1.));
#1137=DIRECTION('center_axis',(-2.16837868809673E-14,-1.,0.));
#1138=DIRECTION('ref_axis',(1.,-2.16837868809673E-14,0.));
#1139=DIRECTION('',(0.,0.,1.));
#1140=DIRECTION('center_axis',(-0.499999999999982,-0.866025403784449,0.));
#1141=DIRECTION('ref_axis',(0.866025403784449,-0.499999999999982,0.));
#1142=DIRECTION('',(0.,0.,1.));
#1143=DIRECTION('center_axis',(-0.499611972948797,-0.866249315431886,0.));
#1144=DIRECTION('ref_axis',(0.866249315431886,-0.499611972948797,0.));
#1145=DIRECTION('',(0.,0.,1.));
#1146=DIRECTION('center_axis',(-0.999997755160541,0.00211888505542686,0.));
#1147=DIRECTION('ref_axis',(-0.00211888505542686,-0.999997755160541,0.));
#1148=DIRECTION('',(0.,0.,1.));
#1149=DIRECTION('center_axis',(-1.,-1.51447111402805E-15,0.));
#1150=DIRECTION('ref_axis',(1.51447111402805E-15,-1.,0.));
#1151=DIRECTION('',(0.,0.,1.));
#1152=DIRECTION('center_axis',(-0.999997755160541,0.0021188850554162,0.));
#1153=DIRECTION('ref_axis',(-0.0021188850554162,-0.999997755160541,0.));
#1154=DIRECTION('',(0.,0.,1.));
#1155=DIRECTION('center_axis',(-0.500389959045497,0.865800143732054,0.));
#1156=DIRECTION('ref_axis',(-0.865800143732054,-0.500389959045497,0.));
#1157=DIRECTION('',(0.,0.,1.));
#1158=DIRECTION('center_axis',(-0.500000000000018,0.866025403784428,0.));
#1159=DIRECTION('ref_axis',(-0.866025403784428,-0.500000000000018,0.));
#1160=DIRECTION('',(0.,0.,1.));
#1161=DIRECTION('center_axis',(-0.772377945723906,0.635163214425488,0.));
#1162=DIRECTION('ref_axis',(-0.635163214425488,-0.772377945723906,0.));
#1163=DIRECTION('',(0.,0.,1.));
#1164=DIRECTION('center_axis',(-1.,-2.77555756156269E-17,0.));
#1165=DIRECTION('ref_axis',(2.77555756156269E-17,-1.,0.));
#1166=DIRECTION('center_axis',(0.499999999999978,-0.866025403784451,0.));
#1167=DIRECTION('ref_axis',(0.866025403784451,0.499999999999978,-2.99154697302714E-18));
#1168=DIRECTION('',(0.866025403784451,0.499999999999978,-2.99154697302714E-18));
#1169=DIRECTION('',(0.,0.,1.));
#1170=DIRECTION('',(0.,0.,1.));
#1171=DIRECTION('center_axis',(4.48388269949226E-15,-1.,0.));
#1172=DIRECTION('ref_axis',(1.,4.48388269949226E-15,1.49077798716742E-18));
#1173=DIRECTION('',(1.,4.48388269949226E-15,1.49077798716742E-18));
#1174=DIRECTION('',(0.,0.,1.));
#1175=DIRECTION('center_axis',(-1.,-2.77555756156269E-17,0.));
#1176=DIRECTION('ref_axis',(2.77555756156269E-17,-1.,8.565197162634E-18));
#1177=DIRECTION('',(2.77555756156269E-17,-1.,8.565197162634E-18));
#1178=DIRECTION('center_axis',(5.04188527662578E-15,1.,0.));
#1179=DIRECTION('ref_axis',(-1.,5.04188527662578E-15,-1.4907779871675E-18));
#1180=DIRECTION('',(-1.,5.04188527662578E-15,-1.4907779871675E-18));
#1181=DIRECTION('',(0.,0.,1.));
#1182=DIRECTION('center_axis',(0.499999999999985,0.866025403784447,0.));
#1183=DIRECTION('ref_axis',(-0.866025403784447,0.499999999999985,-5.57365018960654E-18));
#1184=DIRECTION('',(-0.866025403784447,0.499999999999985,-5.57365018960654E-18));
#1185=DIRECTION('center_axis',(-2.3632157486883E-14,-1.,0.));
#1186=DIRECTION('ref_axis',(1.,-2.3632157486883E-14,1.49077798716766E-18));
#1187=DIRECTION('',(0.,0.,1.));
#1188=DIRECTION('',(1.,-2.3632157486883E-14,1.49077798716766E-18));
#1189=DIRECTION('center_axis',(-0.499999999999932,-0.866025403784478,0.));
#1190=DIRECTION('ref_axis',(0.866025403784478,-0.499999999999932,5.57365018960613E-18));
#1191=DIRECTION('',(0.866025403784478,-0.499999999999932,5.57365018960613E-18));
#1192=DIRECTION('',(0.,0.,1.));
#1193=DIRECTION('center_axis',(0.499999999999985,-0.866025403784448,0.));
#1194=DIRECTION('ref_axis',(0.866025403784448,0.499999999999984,-2.9915469730272E-18));
#1195=DIRECTION('',(0.866025403784448,0.499999999999984,-2.9915469730272E-18));
#1196=DIRECTION('',(0.,0.,1.));
#1197=DIRECTION('center_axis',(-1.8952071107678E-15,-1.,0.));
#1198=DIRECTION('ref_axis',(1.,-1.8952071107678E-15,1.49077798716748E-18));
#1199=DIRECTION('',(1.,-1.8952071107678E-15,1.49077798716748E-18));
#1200=DIRECTION('',(0.,0.,1.));
#1201=DIRECTION('center_axis',(-0.49999999999998,-0.86602540378445,0.));
#1202=DIRECTION('ref_axis',(0.86602540378445,-0.49999999999998,5.5736501896065E-18));
#1203=DIRECTION('',(0.86602540378445,-0.49999999999998,5.5736501896065E-18));
#1204=DIRECTION('center_axis',(-1.49077798716746E-18,8.565197162634E-18,
1.));
#1205=DIRECTION('ref_axis',(1.,0.,1.49077798716746E-18));
#1206=CARTESIAN_POINT('',(0.,0.,0.));
#1207=CARTESIAN_POINT('Origin',(-3.7199999999985,1.79170962313611,5.40000000000001));
#1208=CARTESIAN_POINT('',(-5.81999999999865,1.79170962313611,5.40000000000001));
#1209=CARTESIAN_POINT('Origin',(-3.7199999999985,1.79170962313611,5.40000000000001));
#1210=CARTESIAN_POINT('',(-5.81999999999865,1.79170962313611,-2.55351295663786E-14));
#1211=CARTESIAN_POINT('',(-5.81999999999865,1.79170962313611,5.40000000000001));
#1212=CARTESIAN_POINT('Origin',(-3.7199999999985,1.79170962313611,7.7715611723761E-15));
#1213=CARTESIAN_POINT('Origin',(3.71982575919214,1.79170962313609,5.40000000000001));
#1214=CARTESIAN_POINT('',(1.61982575919198,1.79170962313609,5.40000000000001));
#1215=CARTESIAN_POINT('Origin',(3.71982575919214,1.79170962313609,5.40000000000001));
#1216=CARTESIAN_POINT('',(1.61982575919198,1.79170962313609,-2.55351295663786E-14));
#1217=CARTESIAN_POINT('',(1.61982575919198,1.79170962313609,5.40000000000001));
#1218=CARTESIAN_POINT('Origin',(3.71982575919214,1.79170962313609,7.7715611723761E-15));
#1219=CARTESIAN_POINT('Origin',(21.080548529626,-4.13051918380671,2.60000000000001));
#1220=CARTESIAN_POINT('',(23.0767784363776,-4.00777489925359,7.7715611723761E-15));
#1221=CARTESIAN_POINT('',(22.080548529626,-2.39846837623782,7.82502172259946E-15));
#1222=CARTESIAN_POINT('Origin',(21.080548529626,-4.13051918380671,7.7715611723761E-15));
#1223=CARTESIAN_POINT('',(22.080548529626,-2.39846837623782,5.40000000000001));
#1224=CARTESIAN_POINT('',(22.080548529626,-2.39846837623782,2.60000000000001));
#1225=CARTESIAN_POINT('',(23.0805440399471,-4.13475695391757,5.40000000000001));
#1226=CARTESIAN_POINT('Origin',(21.080548529626,-4.13051918380671,5.40000000000001));
#1227=CARTESIAN_POINT('',(23.0805440399471,-4.13475695391757,2.60000000000001));
#1228=CARTESIAN_POINT('',(23.0805440399471,-4.13475695391757,2.60000000000001));
#1229=CARTESIAN_POINT('',(23.0767784363776,-4.00777489925359,2.60000000000001));
#1230=CARTESIAN_POINT('Origin',(21.080548529626,-4.13051918380671,2.60000000000001));
#1231=CARTESIAN_POINT('',(23.0767784363776,-4.00777489925359,2.60000000000001));
#1232=CARTESIAN_POINT('Origin',(-0.0516710987469793,-17.7357575921128,2.60000000000001));
#1233=CARTESIAN_POINT('',(23.0619738070757,-12.898890306359,2.60000000000001));
#1234=CARTESIAN_POINT('',(23.0619738070757,-12.898890306359,2.60000000000001));
#1235=CARTESIAN_POINT('',(25.587787512242,-15.7692713458567,2.60000000000001));
#1236=CARTESIAN_POINT('',(25.587787512242,-15.7692713458567,2.60000000000001));
#1237=CARTESIAN_POINT('',(29.3662780936834,-17.9507839001824,2.60000000000001));
#1238=CARTESIAN_POINT('',(29.3662780936834,-17.9507839001824,2.60000000000001));
#1239=CARTESIAN_POINT('',(32.8519408812621,-19.9611506979536,2.60000000000001));
#1240=CARTESIAN_POINT('',(32.8519408812621,-19.9611506979536,2.60000000000001));
#1241=CARTESIAN_POINT('',(32.8483289012522,-21.6658075373112,2.60000000000001));
#1242=CARTESIAN_POINT('',(32.8483289012522,-21.6658075373112,2.60000000000001));
#1243=CARTESIAN_POINT('',(32.8483289012522,-33.6140033656612,2.60000000000001));
#1244=CARTESIAN_POINT('',(32.8483289012522,-33.6140033656612,2.60000000000001));
#1245=CARTESIAN_POINT('',(32.8447169212424,-35.3186602050187,2.60000000000001));
#1246=CARTESIAN_POINT('',(32.8447169212424,-35.3186602050187,2.60000000000001));
#1247=CARTESIAN_POINT('',(29.3662780936835,-37.3290270027901,2.60000000000001));
#1248=CARTESIAN_POINT('',(29.3662780936835,-37.3290270027901,2.60000000000001));
#1249=CARTESIAN_POINT('',(24.4573034974658,-40.1632248073619,2.60000000000001));
#1250=CARTESIAN_POINT('',(24.4573034974658,-40.1632248073619,2.60000000000001));
#1251=CARTESIAN_POINT('',(14.6393543050392,-40.1632248073618,2.60000000000001));
#1252=CARTESIAN_POINT('',(14.6393543050392,-40.1632248073618,2.60000000000001));
#1253=CARTESIAN_POINT('',(9.74430205990591,-37.3370650759367,2.60000000000001));
#1254=CARTESIAN_POINT('',(9.74430205990591,-37.3370650759367,2.60000000000001));
#1255=CARTESIAN_POINT('',(4.82520829756069,-40.1632248073615,2.60000000000001));
#1256=CARTESIAN_POINT('',(4.82520829756069,-40.1632248073615,2.60000000000001));
#1257=CARTESIAN_POINT('',(-4.9606456949614,-40.1632248073613,2.60000000000001));
#1258=CARTESIAN_POINT('',(-4.9606456949614,-40.1632248073613,2.60000000000001));
#1259=CARTESIAN_POINT('',(-9.85167109874673,-37.3393899738726,2.60000000000001));
#1260=CARTESIAN_POINT('',(-9.85167109874673,-37.3393899738726,2.60000000000001));
#1261=CARTESIAN_POINT('',(-14.7426965025315,-40.163224807361,2.60000000000001));
#1262=CARTESIAN_POINT('',(-14.7426965025315,-40.163224807361,2.60000000000001));
#1263=CARTESIAN_POINT('',(-24.5606456949621,-40.1632248073608,2.60000000000001));
#1264=CARTESIAN_POINT('',(-24.5606456949621,-40.1632248073608,2.60000000000001));
#1265=CARTESIAN_POINT('',(-29.4696202911774,-37.329027002791,2.60000000000001));
#1266=CARTESIAN_POINT('',(-29.4696202911774,-37.329027002791,2.60000000000001));
#1267=CARTESIAN_POINT('',(-32.955283078756,-35.3186602050197,2.60000000000001));
#1268=CARTESIAN_POINT('',(-32.955283078756,-35.3186602050197,2.60000000000001));
#1269=CARTESIAN_POINT('',(-32.9516710987462,-33.6140033656622,2.60000000000001));
#1270=CARTESIAN_POINT('',(-32.9516710987462,-33.6140033656622,2.60000000000001));
#1271=CARTESIAN_POINT('',(-32.9516710987462,-21.6658075373122,2.60000000000001));
#1272=CARTESIAN_POINT('',(-32.9516710987462,-21.6658075373122,2.60000000000001));
#1273=CARTESIAN_POINT('',(-32.9480591187364,-19.9611506979545,2.60000000000001));
#1274=CARTESIAN_POINT('',(-32.9480591187364,-19.9611506979545,2.60000000000001));
#1275=CARTESIAN_POINT('',(-29.4696202911775,-17.9507839001833,2.60000000000001));
#1276=CARTESIAN_POINT('',(-29.4696202911775,-17.9507839001833,2.60000000000001));
#1277=CARTESIAN_POINT('',(-25.5036229657034,-15.6610142767154,2.60000000000001));
#1278=CARTESIAN_POINT('',(-25.5036229657034,-15.6610142767154,2.60000000000001));
#1279=CARTESIAN_POINT('',(-23.1516710987469,-12.8009686849937,2.60000000000001));
#1280=CARTESIAN_POINT('',(-23.1516710987469,-12.8009686849937,2.60000000000001));
#1281=CARTESIAN_POINT('',(-23.1516710987469,-4.69170962313696,2.60000000000001));
#1282=CARTESIAN_POINT('',(-23.1516710987469,-4.69170962313696,2.60000000000001));
#1283=CARTESIAN_POINT('',(-23.1505586704848,-4.16670437948462,2.60000000000001));
#1284=CARTESIAN_POINT('',(-23.148059118737,-2.98705278377946,2.60000000000001));
#1285=CARTESIAN_POINT('',(-23.100000000004,-3.72406855731925,2.60000000000001));
#1286=CARTESIAN_POINT('Origin',(-21.1505631601638,-4.17094214959548,2.60000000000001));
#1287=CARTESIAN_POINT('',(-23.100000000004,-4.00777489925349,2.60000000000001));
#1288=CARTESIAN_POINT('',(-23.100000000004,-2.98704895708686,2.60000000000001));
#1289=CARTESIAN_POINT('',(-17.8679491924306,-4.00777489925347,2.60000000000001));
#1290=CARTESIAN_POINT('',(-23.100000000004,-4.00777489925349,2.60000000000001));
#1291=CARTESIAN_POINT('',(-9.79999999999888,0.650257738804935,2.60000000000001));
#1292=CARTESIAN_POINT('',(-17.8679491924306,-4.00777489925347,2.60000000000001));
#1293=CARTESIAN_POINT('',(-1.73205080756722,-4.00777489925346,2.60000000000001));
#1294=CARTESIAN_POINT('',(-9.79999999999888,0.650257738804935,2.60000000000001));
#1295=CARTESIAN_POINT('',(1.73205080757078,-4.00777489925346,2.60000000000001));
#1296=CARTESIAN_POINT('',(-1.73205080756722,-4.00777489925346,2.60000000000001));
#1297=CARTESIAN_POINT('',(9.8000000000019,0.650257738804675,2.60000000000001));
#1298=CARTESIAN_POINT('',(1.73205080757078,-4.00777489925346,2.60000000000001));
#1299=CARTESIAN_POINT('',(17.8679491924342,-4.00777489925347,2.60000000000001));
#1300=CARTESIAN_POINT('',(9.8000000000019,0.650257738804675,2.60000000000001));
#1301=CARTESIAN_POINT('',(17.8679491924342,-4.00777489925347,2.60000000000001));
#1302=CARTESIAN_POINT('Origin',(23.0619738070757,-12.898890306359,2.60000000000001));
#1303=CARTESIAN_POINT('',(23.0619738070757,-12.898890306359,5.40000000000001));
#1304=CARTESIAN_POINT('',(23.0619738070757,-12.898890306359,5.40000000000001));
#1305=CARTESIAN_POINT('',(23.0619738070757,-12.898890306359,2.60000000000001));
#1306=CARTESIAN_POINT('Origin',(-0.0516710987469793,-17.7357575921128,5.40000000000001));
#1307=CARTESIAN_POINT('',(9.80000000000267,4.69170962313619,5.40000000000001));
#1308=CARTESIAN_POINT('',(23.1000000000051,-2.98704895708694,5.40000000000001));
#1309=CARTESIAN_POINT('',(-9.80000000000125,4.69170962313629,5.40000000000001));
#1310=CARTESIAN_POINT('',(9.80000000000267,4.69170962313619,5.40000000000001));
#1311=CARTESIAN_POINT('',(-22.1505631601637,-2.43889134202657,5.40000000000001));
#1312=CARTESIAN_POINT('',(-9.80000000000125,4.69170962313629,5.40000000000001));
#1313=CARTESIAN_POINT('',(-23.1505586704848,-4.16670437948462,5.40000000000001));
#1314=CARTESIAN_POINT('Origin',(-21.1505631601638,-4.17094214959548,5.40000000000001));
#1315=CARTESIAN_POINT('',(-23.1516710987469,-4.69170962313696,5.40000000000001));
#1316=CARTESIAN_POINT('',(-23.148059118737,-2.98705278377946,5.40000000000001));
#1317=CARTESIAN_POINT('',(-23.1516710987469,-12.8009686849937,5.40000000000001));
#1318=CARTESIAN_POINT('',(-23.1516710987469,-4.69170962313696,5.40000000000001));
#1319=CARTESIAN_POINT('',(-25.5036229657034,-15.6610142767154,5.40000000000001));
#1320=CARTESIAN_POINT('',(-23.1516710987469,-12.8009686849937,5.40000000000001));
#1321=CARTESIAN_POINT('',(-29.4696202911775,-17.9507839001833,5.40000000000001));
#1322=CARTESIAN_POINT('',(-25.5036229657034,-15.6610142767154,5.40000000000001));
#1323=CARTESIAN_POINT('',(-32.9480591187364,-19.9611506979545,5.40000000000001));
#1324=CARTESIAN_POINT('',(-29.4696202911775,-17.9507839001833,5.40000000000001));
#1325=CARTESIAN_POINT('',(-32.9516710987462,-21.6658075373122,5.40000000000001));
#1326=CARTESIAN_POINT('',(-32.9480591187364,-19.9611506979545,5.40000000000001));
#1327=CARTESIAN_POINT('',(-32.9516710987462,-33.6140033656622,5.40000000000001));
#1328=CARTESIAN_POINT('',(-32.9516710987462,-21.6658075373122,5.40000000000001));
#1329=CARTESIAN_POINT('',(-32.955283078756,-35.3186602050197,5.40000000000001));
#1330=CARTESIAN_POINT('',(-32.9516710987462,-33.6140033656622,5.40000000000001));
#1331=CARTESIAN_POINT('',(-29.4696202911774,-37.329027002791,5.40000000000001));
#1332=CARTESIAN_POINT('',(-32.955283078756,-35.3186602050197,5.40000000000001));
#1333=CARTESIAN_POINT('',(-24.5606456949621,-40.1632248073608,5.40000000000001));
#1334=CARTESIAN_POINT('',(-29.4696202911774,-37.329027002791,5.40000000000001));
#1335=CARTESIAN_POINT('',(-14.7426965025315,-40.163224807361,5.40000000000001));
#1336=CARTESIAN_POINT('',(-24.5606456949621,-40.1632248073608,5.40000000000001));
#1337=CARTESIAN_POINT('',(-9.85167109874673,-37.3393899738726,5.40000000000001));
#1338=CARTESIAN_POINT('',(-14.7426965025315,-40.163224807361,5.40000000000001));
#1339=CARTESIAN_POINT('',(-4.9606456949614,-40.1632248073613,5.40000000000001));
#1340=CARTESIAN_POINT('',(-9.85167109874673,-37.3393899738726,5.40000000000001));
#1341=CARTESIAN_POINT('',(4.82520829756069,-40.1632248073615,5.40000000000001));
#1342=CARTESIAN_POINT('',(-4.9606456949614,-40.1632248073613,5.40000000000001));
#1343=CARTESIAN_POINT('',(9.74430205990591,-37.3370650759367,5.40000000000001));
#1344=CARTESIAN_POINT('',(4.82520829756069,-40.1632248073615,5.40000000000001));
#1345=CARTESIAN_POINT('',(14.6393543050392,-40.1632248073618,5.40000000000001));
#1346=CARTESIAN_POINT('',(9.74430205990591,-37.3370650759367,5.40000000000001));
#1347=CARTESIAN_POINT('',(24.4573034974658,-40.1632248073619,5.40000000000001));
#1348=CARTESIAN_POINT('',(14.6393543050392,-40.1632248073618,5.40000000000001));
#1349=CARTESIAN_POINT('',(29.3662780936835,-37.3290270027901,5.40000000000001));
#1350=CARTESIAN_POINT('',(24.4573034974658,-40.1632248073619,5.40000000000001));
#1351=CARTESIAN_POINT('',(32.8447169212424,-35.3186602050187,5.40000000000001));
#1352=CARTESIAN_POINT('',(29.3662780936835,-37.3290270027901,5.40000000000001));
#1353=CARTESIAN_POINT('',(32.8483289012522,-33.6140033656612,5.40000000000001));
#1354=CARTESIAN_POINT('',(32.8447169212424,-35.3186602050187,5.40000000000001));
#1355=CARTESIAN_POINT('',(32.8483289012522,-21.6658075373112,5.40000000000001));
#1356=CARTESIAN_POINT('',(32.8483289012522,-33.6140033656612,5.40000000000001));
#1357=CARTESIAN_POINT('',(32.8519408812621,-19.9611506979536,5.40000000000001));
#1358=CARTESIAN_POINT('',(32.8483289012522,-21.6658075373112,5.40000000000001));
#1359=CARTESIAN_POINT('',(29.3662780936834,-17.9507839001824,5.40000000000001));
#1360=CARTESIAN_POINT('',(32.8519408812621,-19.9611506979536,5.40000000000001));
#1361=CARTESIAN_POINT('',(25.587787512242,-15.7692713458567,5.40000000000001));
#1362=CARTESIAN_POINT('',(29.3662780936834,-17.9507839001824,5.40000000000001));
#1363=CARTESIAN_POINT('',(25.587787512242,-15.7692713458567,5.40000000000001));
#1364=CARTESIAN_POINT('Origin',(-21.1505631601638,-4.17094214959548,1.30000000000001));
#1365=CARTESIAN_POINT('',(-22.1505631601637,-2.43889134202657,7.75942918561626E-15));
#1366=CARTESIAN_POINT('',(-22.1505631601637,-2.43889134202657,1.30000000000001));
#1367=CARTESIAN_POINT('',(-23.100000000004,-3.72406855731925,7.7715611723761E-15));
#1368=CARTESIAN_POINT('Origin',(-21.1505631601638,-4.17094214959548,7.7715611723761E-15));
#1369=CARTESIAN_POINT('',(-23.100000000004,-3.72406855731925,1.30000000000001));
#1370=CARTESIAN_POINT('',(-23.1505586704848,-4.16670437948462,1.30000000000001));
#1371=CARTESIAN_POINT('Origin',(-9.80000000000125,4.69170962313629,7.71676613014986E-15));
#1372=CARTESIAN_POINT('',(-9.80000000000125,4.69170962313629,7.71676613014986E-15));
#1373=CARTESIAN_POINT('',(-9.80000000000125,4.69170962313629,7.71676613014986E-15));
#1374=CARTESIAN_POINT('',(-9.80000000000125,4.69170962313629,7.71676613014986E-15));
#1375=CARTESIAN_POINT('Origin',(-23.1481179753498,-3.01482988310562,2.60000000000001));
#1376=CARTESIAN_POINT('',(-23.1516710987469,-4.69170962313696,2.60000000000001));
#1377=CARTESIAN_POINT('Origin',(25.587787512242,-15.7692713458567,2.60000000000001));
#1378=CARTESIAN_POINT('',(25.587787512242,-15.7692713458567,2.60000000000001));
#1379=CARTESIAN_POINT('Origin',(29.3662780936834,-17.9507839001824,2.60000000000001));
#1380=CARTESIAN_POINT('',(29.3662780936834,-17.9507839001824,2.60000000000001));
#1381=CARTESIAN_POINT('Origin',(32.8519408812621,-19.9611506979536,2.60000000000001));
#1382=CARTESIAN_POINT('',(32.8519408812621,-19.9611506979536,2.60000000000001));
#1383=CARTESIAN_POINT('Origin',(32.8483289012522,-21.6658075373112,2.60000000000001));
#1384=CARTESIAN_POINT('',(32.8483289012522,-21.6658075373112,2.60000000000001));
#1385=CARTESIAN_POINT('Origin',(32.8483289012522,-33.6140033656612,2.60000000000001));
#1386=CARTESIAN_POINT('',(32.8483289012522,-33.6140033656612,2.60000000000001));
#1387=CARTESIAN_POINT('Origin',(32.8447169212424,-35.3186602050187,2.60000000000001));
#1388=CARTESIAN_POINT('',(32.8447169212424,-35.3186602050187,2.60000000000001));
#1389=CARTESIAN_POINT('Origin',(29.3662780936835,-37.3290270027901,2.60000000000001));
#1390=CARTESIAN_POINT('',(29.3662780936835,-37.3290270027901,2.60000000000001));
#1391=CARTESIAN_POINT('Origin',(24.4573034974658,-40.1632248073619,2.60000000000001));
#1392=CARTESIAN_POINT('',(24.4573034974658,-40.1632248073619,2.60000000000001));
#1393=CARTESIAN_POINT('Origin',(14.6393543050392,-40.1632248073618,2.60000000000001));
#1394=CARTESIAN_POINT('',(14.6393543050392,-40.1632248073618,2.60000000000001));
#1395=CARTESIAN_POINT('Origin',(9.74430205990591,-37.3370650759367,2.60000000000001));
#1396=CARTESIAN_POINT('',(9.74430205990591,-37.3370650759367,2.60000000000001));
#1397=CARTESIAN_POINT('Origin',(4.82520829756069,-40.1632248073615,2.60000000000001));
#1398=CARTESIAN_POINT('',(4.82520829756069,-40.1632248073615,2.60000000000001));
#1399=CARTESIAN_POINT('Origin',(-4.9606456949614,-40.1632248073613,2.60000000000001));
#1400=CARTESIAN_POINT('',(-4.9606456949614,-40.1632248073613,2.60000000000001));
#1401=CARTESIAN_POINT('Origin',(-9.85167109874673,-37.3393899738726,2.60000000000001));
#1402=CARTESIAN_POINT('',(-9.85167109874673,-37.3393899738726,2.60000000000001));
#1403=CARTESIAN_POINT('Origin',(-14.7426965025315,-40.163224807361,2.60000000000001));
#1404=CARTESIAN_POINT('',(-14.7426965025315,-40.163224807361,2.60000000000001));
#1405=CARTESIAN_POINT('Origin',(-24.5606456949621,-40.1632248073608,2.60000000000001));
#1406=CARTESIAN_POINT('',(-24.5606456949621,-40.1632248073608,2.60000000000001));
#1407=CARTESIAN_POINT('Origin',(-29.4696202911774,-37.329027002791,2.60000000000001));
#1408=CARTESIAN_POINT('',(-29.4696202911774,-37.329027002791,2.60000000000001));
#1409=CARTESIAN_POINT('Origin',(-32.955283078756,-35.3186602050197,2.60000000000001));
#1410=CARTESIAN_POINT('',(-32.955283078756,-35.3186602050197,2.60000000000001));
#1411=CARTESIAN_POINT('Origin',(-32.9516710987462,-33.6140033656622,2.60000000000001));
#1412=CARTESIAN_POINT('',(-32.9516710987462,-33.6140033656622,2.60000000000001));
#1413=CARTESIAN_POINT('Origin',(-32.9516710987462,-21.6658075373122,2.60000000000001));
#1414=CARTESIAN_POINT('',(-32.9516710987462,-21.6658075373122,2.60000000000001));
#1415=CARTESIAN_POINT('Origin',(-32.9480591187364,-19.9611506979545,2.60000000000001));
#1416=CARTESIAN_POINT('',(-32.9480591187364,-19.9611506979545,2.60000000000001));
#1417=CARTESIAN_POINT('Origin',(-29.4696202911775,-17.9507839001833,2.60000000000001));
#1418=CARTESIAN_POINT('',(-29.4696202911775,-17.9507839001833,2.60000000000001));
#1419=CARTESIAN_POINT('Origin',(-25.5036229657034,-15.6610142767154,2.60000000000001));
#1420=CARTESIAN_POINT('',(-25.5036229657034,-15.6610142767154,2.60000000000001));
#1421=CARTESIAN_POINT('Origin',(-23.1516710987469,-12.8009686849937,2.60000000000001));
#1422=CARTESIAN_POINT('',(-23.1516710987469,-12.8009686849937,2.60000000000001));
#1423=CARTESIAN_POINT('Origin',(-23.1516710987469,-4.69170962313696,2.60000000000001));
#1424=CARTESIAN_POINT('Origin',(-17.8679491924306,-4.00777489925347,7.77925140923976E-15));
#1425=CARTESIAN_POINT('',(-17.8679491924306,-4.00777489925347,7.77925140923976E-15));
#1426=CARTESIAN_POINT('',(-9.79999999999888,0.650257738804935,7.75138196236246E-15));
#1427=CARTESIAN_POINT('',(-17.8679491924306,-4.00777489925347,7.77925140923976E-15));
#1428=CARTESIAN_POINT('',(-9.79999999999888,0.650257738804935,7.75138196236246E-15));
#1429=CARTESIAN_POINT('',(-17.8679491924306,-4.00777489925347,7.77925140923976E-15));
#1430=CARTESIAN_POINT('Origin',(-23.100000000004,-4.00777489925349,7.77145158306808E-15));
#1431=CARTESIAN_POINT('',(-23.100000000004,-4.00777489925349,7.77145158306808E-15));
#1432=CARTESIAN_POINT('',(-23.100000000004,-4.00777489925349,7.77145158306808E-15));
#1433=CARTESIAN_POINT('',(-23.100000000004,-4.00777489925349,7.77145158306808E-15));
#1434=CARTESIAN_POINT('Origin',(-23.100000000004,-2.98704895708686,7.76270886412441E-15));
#1435=CARTESIAN_POINT('',(-23.100000000004,-2.98704895708686,7.76270886412441E-15));
#1436=CARTESIAN_POINT('Origin',(9.80000000000267,4.69170962313619,7.74598537869835E-15));
#1437=CARTESIAN_POINT('',(9.80000000000267,4.69170962313619,7.74598537869835E-15));
#1438=CARTESIAN_POINT('',(9.80000000000267,4.69170962313619,7.74598537869835E-15));
#1439=CARTESIAN_POINT('',(9.80000000000267,4.69170962313619,7.74598537869835E-15));
#1440=CARTESIAN_POINT('Origin',(23.1000000000051,-2.98704895708694,7.83158280713156E-15));
#1441=CARTESIAN_POINT('',(23.1000000000051,-2.98704895708694,7.83158280713156E-15));
#1442=CARTESIAN_POINT('Origin',(17.8679491924342,-4.00777489925347,7.83252569990356E-15));
#1443=CARTESIAN_POINT('',(17.8679491924342,-4.00777489925347,7.83252569990356E-15));
#1444=CARTESIAN_POINT('',(17.8679491924342,-4.00777489925347,7.83252569990356E-15));
#1445=CARTESIAN_POINT('',(17.8679491924342,-4.00777489925347,7.83252569990356E-15));
#1446=CARTESIAN_POINT('Origin',(9.8000000000019,0.650257738804675,7.78060121091095E-15));
#1447=CARTESIAN_POINT('',(9.8000000000019,0.650257738804675,7.78060121091095E-15));
#1448=CARTESIAN_POINT('',(9.8000000000019,0.650257738804675,7.78060121091095E-15));
#1449=CARTESIAN_POINT('',(9.8000000000019,0.650257738804675,7.78060121091095E-15));
#1450=CARTESIAN_POINT('Origin',(1.73205080757078,-4.00777489925346,7.80847065778824E-15));
#1451=CARTESIAN_POINT('',(1.73205080757078,-4.00777489925346,7.80847065778824E-15));
#1452=CARTESIAN_POINT('',(1.73205080757078,-4.00777489925346,7.80847065778824E-15));
#1453=CARTESIAN_POINT('',(1.73205080757078,-4.00777489925346,7.80847065778824E-15));
#1454=CARTESIAN_POINT('Origin',(-1.73205080756722,-4.00777489925346,7.80330645135508E-15));
#1455=CARTESIAN_POINT('',(-1.73205080756722,-4.00777489925346,7.80330645135508E-15));
#1456=CARTESIAN_POINT('',(-1.73205080756722,-4.00777489925346,7.80330645135508E-15));
#1457=CARTESIAN_POINT('',(-1.73205080756722,-4.00777489925346,7.80330645135508E-15));
#1458=CARTESIAN_POINT('Origin',(-9.79999999999888,0.650257738804935,7.75138196236246E-15));
#1459=CARTESIAN_POINT('',(-9.79999999999888,0.650257738804935,7.75138196236246E-15));
#1460=CARTESIAN_POINT('Origin',(5.86197757002083E-13,0.341967361941347,
7.76863215449788E-15));
#1461=UNCERTAINTY_MEASURE_WITH_UNIT(LENGTH_MEASURE(0.01),#1465,
'DISTANCE_ACCURACY_VALUE',
'Maximum model space distance between geometric entities at asserted c
onnectivities');
#1462=UNCERTAINTY_MEASURE_WITH_UNIT(LENGTH_MEASURE(0.01),#1465,
'DISTANCE_ACCURACY_VALUE',
'Maximum model space distance between geometric entities at asserted c
onnectivities');
#1463=(
GEOMETRIC_REPRESENTATION_CONTEXT(3)
GLOBAL_UNCERTAINTY_ASSIGNED_CONTEXT((#1461))
GLOBAL_UNIT_ASSIGNED_CONTEXT((#1465,#1467,#1468))
REPRESENTATION_CONTEXT('','3D')
);
#1464=(
GEOMETRIC_REPRESENTATION_CONTEXT(3)
GLOBAL_UNCERTAINTY_ASSIGNED_CONTEXT((#1462))
GLOBAL_UNIT_ASSIGNED_CONTEXT((#1465,#1467,#1468))
REPRESENTATION_CONTEXT('','3D')
);
#1465=(
LENGTH_UNIT()
NAMED_UNIT(*)
SI_UNIT(.MILLI.,.METRE.)
);
#1466=(
LENGTH_UNIT()
NAMED_UNIT(*)
SI_UNIT(.CENTI.,.METRE.)
);
#1467=(
NAMED_UNIT(*)
PLANE_ANGLE_UNIT()
SI_UNIT($,.RADIAN.)
);
#1468=(
NAMED_UNIT(*)
SI_UNIT($,.STERADIAN.)
SOLID_ANGLE_UNIT()
);
#1469=SHAPE_DEFINITION_REPRESENTATION(#1470,#1471);
#1470=PRODUCT_DEFINITION_SHAPE('',$,#1473);
#1471=SHAPE_REPRESENTATION('',(#925),#1463);
#1472=PRODUCT_DEFINITION_CONTEXT('part definition',#1477,'design');
#1473=PRODUCT_DEFINITION(
'\X2\0434043504420430043B044C043A0430\X0\ \X2\043A04400435043F043B0435043D04380435\X0\ 
\X2\04320442043E04400430044F\X0\ \X2\0447043004410442044C\X0\',
'\X2\0434043504420430043B044C043A0430\X0\ \X2\043A04400435043F043B0435043D04380435\X0\ 
\X2\04320442043E04400430044F\X0\ \X2\0447043004410442044C\X0\',#1474,#1472);
#1474=PRODUCT_DEFINITION_FORMATION('',$,#1479);
#1475=PRODUCT_RELATED_PRODUCT_CATEGORY(
'\X2\0434043504420430043B044C043A0430\X0\ \X2\043A04400435043F043B0435043D04380435\X0\ 
\X2\04320442043E04400430044F\X0\ \X2\0447043004410442044C\X0\',
'\X2\0434043504420430043B044C043A0430\X0\ \X2\043A04400435043F043B0435043D04380435\X0\ 
\X2\04320442043E04400430044F\X0\ \X2\0447043004410442044C\X0\',(#1479));
#1476=APPLICATION_PROTOCOL_DEFINITION('international standard',
'automotive_design',2009,#1477);
#1477=APPLICATION_CONTEXT(
'Core Data for Automotive Mechanical Design Process');
#1478=PRODUCT_CONTEXT('part definition',#1477,'mechanical');
#1479=PRODUCT(
'\X2\0434043504420430043B044C043A0430\X0\ \X2\043A04400435043F043B0435043D04380435\X0\ 
\X2\04320442043E04400430044F\X0\ \X2\0447043004410442044C\X0\',
'\X2\0434043504420430043B044C043A0430\X0\ \X2\043A04400435043F043B0435043D04380435\X0\ 
\X2\04320442043E04400430044F\X0\ \X2\0447043004410442044C\X0\',$,(#1478));
#1480=PRESENTATION_STYLE_ASSIGNMENT((#1481));
#1481=SURFACE_STYLE_USAGE(.BOTH.,#1484);
#1482=SURFACE_STYLE_RENDERING_WITH_PROPERTIES($,#1488,(#1483));
#1483=SURFACE_STYLE_TRANSPARENT(0.);
#1484=SURFACE_SIDE_STYLE('',(#1485,#1482));
#1485=SURFACE_STYLE_FILL_AREA(#1486);
#1486=FILL_AREA_STYLE('',(#1487));
#1487=FILL_AREA_STYLE_COLOUR('',#1488);
#1488=COLOUR_RGB('',0.749019607843137,0.749019607843137,0.749019607843137);
ENDSEC;
END-ISO-10303-21;
