ISO-10303-21;
HEADER;
/* Generated by software containing ST-Developer
 * from STEP Tools, Inc. (www.steptools.com) 
 */

FILE_DESCRIPTION(
/* description */ (''),
/* implementation_level */ '2;1');

FILE_NAME(
/* name */ '',
/* time_stamp */ '2026-05-17T20:53:37+03:00',
/* author */ ('katya_notebook'),
/* organization */ (''),
/* preprocessor_version */ 'ST-DEVELOPER v20',
/* originating_system */ 'Autodesk Inventor 2024',
/* authorisation */ '');

FILE_SCHEMA (('AUTOMOTIVE_DESIGN { 1 0 10303 214 3 1 1 }'));
ENDSEC;

DATA;
#10=MECHANICAL_DESIGN_GEOMETRIC_PRESENTATION_REPRESENTATION('',(#17),#1898);
#11=GEOMETRICALLY_BOUNDED_WIREFRAME_SHAPE_REPRESENTATION('',(#12,#13),#1897);
#12=GEOMETRIC_CURVE_SET('\X2\042D0441043A04380437\X0\10',(#1893));
#13=GEOMETRIC_CURVE_SET('\X2\042D0441043A04380437\X0\20',(#1894));
#14=SHAPE_REPRESENTATION_RELATIONSHIP('SRR','None',#1905,#16);
#15=SHAPE_REPRESENTATION_RELATIONSHIP('SRR','None',#1905,#11);
#16=ADVANCED_BREP_SHAPE_REPRESENTATION('',(#1169),#1897);
#17=STYLED_ITEM('',(#1914),#1169);
#18=ELLIPSE('',#1212,2.42424434004085,2.10000000000001);
#19=ELLIPSE('',#1213,2.42487113059644,2.10000000000001);
#20=ELLIPSE('',#1214,2.42424434004085,2.10000000000001);
#21=ELLIPSE('',#1217,2.42487113059643,2.10000000000001);
#22=FACE_BOUND('',#123,.T.);
#23=FACE_BOUND('',#124,.T.);
#24=FACE_BOUND('',#129,.T.);
#25=FACE_BOUND('',#130,.T.);
#26=FACE_BOUND('',#136,.T.);
#27=FACE_BOUND('',#137,.T.);
#28=FACE_BOUND('',#149,.T.);
#29=FACE_BOUND('',#150,.T.);
#30=FACE_BOUND('',#152,.T.);
#31=FACE_BOUND('',#153,.T.);
#32=FACE_BOUND('',#161,.T.);
#33=ORIENTED_CLOSED_SHELL('',*,#1166,.F.);
#34=ORIENTED_CLOSED_SHELL('',*,#1168,.F.);
#35=CYLINDRICAL_SURFACE('',#1195,2.10000000000006);
#36=CYLINDRICAL_SURFACE('',#1210,2.10000000000001);
#37=CYLINDRICAL_SURFACE('',#1215,2.10000000000001);
#38=CYLINDRICAL_SURFACE('',#1244,2.);
#39=CYLINDRICAL_SURFACE('',#1245,2.);
#40=CYLINDRICAL_SURFACE('',#1250,1.75);
#41=CYLINDRICAL_SURFACE('',#1251,1.75);
#42=CYLINDRICAL_SURFACE('',#1263,2.10000000000006);
#43=CIRCLE('',#1194,2.10000000000006);
#44=CIRCLE('',#1196,2.10000000000006);
#45=CIRCLE('',#1201,2.);
#46=CIRCLE('',#1202,2.);
#47=CIRCLE('',#1207,1.75);
#48=CIRCLE('',#1208,1.75);
#49=CIRCLE('',#1211,2.10000000000001);
#50=CIRCLE('',#1216,2.10000000000001);
#51=CIRCLE('',#1231,1.75);
#52=CIRCLE('',#1232,1.75);
#53=CIRCLE('',#1234,2.);
#54=CIRCLE('',#1235,2.);
#55=CIRCLE('',#1264,2.10000000000006);
#56=CIRCLE('',#1265,2.10000000000006);
#57=FACE_OUTER_BOUND('',#116,.T.);
#58=FACE_OUTER_BOUND('',#117,.T.);
#59=FACE_OUTER_BOUND('',#118,.T.);
#60=FACE_OUTER_BOUND('',#119,.T.);
#61=FACE_OUTER_BOUND('',#120,.T.);
#62=FACE_OUTER_BOUND('',#121,.T.);
#63=FACE_OUTER_BOUND('',#122,.T.);
#64=FACE_OUTER_BOUND('',#125,.T.);
#65=FACE_OUTER_BOUND('',#126,.T.);
#66=FACE_OUTER_BOUND('',#127,.T.);
#67=FACE_OUTER_BOUND('',#128,.T.);
#68=FACE_OUTER_BOUND('',#131,.T.);
#69=FACE_OUTER_BOUND('',#132,.T.);
#70=FACE_OUTER_BOUND('',#133,.T.);
#71=FACE_OUTER_BOUND('',#134,.T.);
#72=FACE_OUTER_BOUND('',#135,.T.);
#73=FACE_OUTER_BOUND('',#138,.T.);
#74=FACE_OUTER_BOUND('',#139,.T.);
#75=FACE_OUTER_BOUND('',#140,.T.);
#76=FACE_OUTER_BOUND('',#141,.T.);
#77=FACE_OUTER_BOUND('',#142,.T.);
#78=FACE_OUTER_BOUND('',#143,.T.);
#79=FACE_OUTER_BOUND('',#144,.T.);
#80=FACE_OUTER_BOUND('',#145,.T.);
#81=FACE_OUTER_BOUND('',#146,.T.);
#82=FACE_OUTER_BOUND('',#147,.T.);
#83=FACE_OUTER_BOUND('',#148,.T.);
#84=FACE_OUTER_BOUND('',#151,.T.);
#85=FACE_OUTER_BOUND('',#154,.T.);
#86=FACE_OUTER_BOUND('',#155,.T.);
#87=FACE_OUTER_BOUND('',#156,.T.);
#88=FACE_OUTER_BOUND('',#157,.T.);
#89=FACE_OUTER_BOUND('',#158,.T.);
#90=FACE_OUTER_BOUND('',#159,.T.);
#91=FACE_OUTER_BOUND('',#160,.T.);
#92=FACE_OUTER_BOUND('',#162,.T.);
#93=FACE_OUTER_BOUND('',#163,.T.);
#94=FACE_OUTER_BOUND('',#164,.T.);
#95=FACE_OUTER_BOUND('',#165,.T.);
#96=FACE_OUTER_BOUND('',#166,.T.);
#97=FACE_OUTER_BOUND('',#167,.T.);
#98=FACE_OUTER_BOUND('',#168,.T.);
#99=FACE_OUTER_BOUND('',#169,.T.);
#100=FACE_OUTER_BOUND('',#170,.T.);
#101=FACE_OUTER_BOUND('',#171,.T.);
#102=FACE_OUTER_BOUND('',#172,.T.);
#103=FACE_OUTER_BOUND('',#173,.T.);
#104=FACE_OUTER_BOUND('',#174,.T.);
#105=FACE_OUTER_BOUND('',#175,.T.);
#106=FACE_OUTER_BOUND('',#176,.T.);
#107=FACE_OUTER_BOUND('',#177,.T.);
#108=FACE_OUTER_BOUND('',#178,.T.);
#109=FACE_OUTER_BOUND('',#179,.T.);
#110=FACE_OUTER_BOUND('',#180,.T.);
#111=FACE_OUTER_BOUND('',#181,.T.);
#112=FACE_OUTER_BOUND('',#182,.T.);
#113=FACE_OUTER_BOUND('',#183,.T.);
#114=FACE_OUTER_BOUND('',#184,.T.);
#115=FACE_OUTER_BOUND('',#185,.T.);
#116=EDGE_LOOP('',(#736,#737,#738,#739));
#117=EDGE_LOOP('',(#740,#741));
#118=EDGE_LOOP('',(#742,#743,#744,#745));
#119=EDGE_LOOP('',(#746,#747));
#120=EDGE_LOOP('',(#748,#749,#750,#751));
#121=EDGE_LOOP('',(#752,#753,#754,#755,#756,#757,#758,#759));
#122=EDGE_LOOP('',(#760,#761,#762,#763));
#123=EDGE_LOOP('',(#764));
#124=EDGE_LOOP('',(#765));
#125=EDGE_LOOP('',(#766,#767,#768,#769));
#126=EDGE_LOOP('',(#770,#771,#772,#773));
#127=EDGE_LOOP('',(#774,#775,#776,#777));
#128=EDGE_LOOP('',(#778,#779,#780,#781,#782,#783,#784,#785,#786,#787,#788,
#789,#790,#791,#792,#793,#794,#795,#796,#797,#798));
#129=EDGE_LOOP('',(#799));
#130=EDGE_LOOP('',(#800));
#131=EDGE_LOOP('',(#801,#802,#803,#804,#805,#806,#807,#808,#809,#810));
#132=EDGE_LOOP('',(#811,#812,#813,#814,#815,#816));
#133=EDGE_LOOP('',(#817,#818,#819,#820));
#134=EDGE_LOOP('',(#821,#822,#823,#824,#825,#826));
#135=EDGE_LOOP('',(#827,#828,#829,#830));
#136=EDGE_LOOP('',(#831));
#137=EDGE_LOOP('',(#832));
#138=EDGE_LOOP('',(#833,#834,#835,#836,#837,#838,#839,#840,#841,#842,#843,
#844,#845));
#139=EDGE_LOOP('',(#846,#847,#848,#849));
#140=EDGE_LOOP('',(#850,#851,#852,#853,#854,#855,#856));
#141=EDGE_LOOP('',(#857,#858,#859,#860));
#142=EDGE_LOOP('',(#861,#862,#863,#864));
#143=EDGE_LOOP('',(#865,#866,#867,#868));
#144=EDGE_LOOP('',(#869,#870,#871,#872));
#145=EDGE_LOOP('',(#873,#874,#875,#876));
#146=EDGE_LOOP('',(#877,#878,#879,#880));
#147=EDGE_LOOP('',(#881,#882,#883));
#148=EDGE_LOOP('',(#884,#885,#886,#887,#888,#889,#890,#891,#892,#893,#894,
#895,#896,#897,#898,#899,#900,#901,#902,#903,#904,#905,#906,#907,#908,#909,
#910,#911,#912,#913,#914,#915));
#149=EDGE_LOOP('',(#916));
#150=EDGE_LOOP('',(#917));
#151=EDGE_LOOP('',(#918,#919,#920,#921));
#152=EDGE_LOOP('',(#922));
#153=EDGE_LOOP('',(#923));
#154=EDGE_LOOP('',(#924,#925,#926,#927));
#155=EDGE_LOOP('',(#928,#929,#930));
#156=EDGE_LOOP('',(#931,#932,#933,#934));
#157=EDGE_LOOP('',(#935,#936,#937,#938));
#158=EDGE_LOOP('',(#939,#940,#941,#942,#943,#944,#945,#946));
#159=EDGE_LOOP('',(#947,#948,#949,#950));
#160=EDGE_LOOP('',(#951,#952,#953,#954,#955,#956));
#161=EDGE_LOOP('',(#957));
#162=EDGE_LOOP('',(#958,#959,#960,#961,#962,#963,#964,#965));
#163=EDGE_LOOP('',(#966,#967,#968,#969));
#164=EDGE_LOOP('',(#970,#971,#972,#973));
#165=EDGE_LOOP('',(#974,#975,#976,#977,#978,#979));
#166=EDGE_LOOP('',(#980,#981,#982,#983));
#167=EDGE_LOOP('',(#984,#985,#986,#987));
#168=EDGE_LOOP('',(#988,#989,#990,#991));
#169=EDGE_LOOP('',(#992,#993,#994,#995));
#170=EDGE_LOOP('',(#996,#997,#998,#999));
#171=EDGE_LOOP('',(#1000,#1001,#1002,#1003));
#172=EDGE_LOOP('',(#1004,#1005,#1006,#1007));
#173=EDGE_LOOP('',(#1008,#1009,#1010,#1011));
#174=EDGE_LOOP('',(#1012,#1013,#1014,#1015));
#175=EDGE_LOOP('',(#1016,#1017,#1018,#1019));
#176=EDGE_LOOP('',(#1020,#1021,#1022,#1023));
#177=EDGE_LOOP('',(#1024,#1025,#1026,#1027));
#178=EDGE_LOOP('',(#1028,#1029,#1030,#1031));
#179=EDGE_LOOP('',(#1032,#1033,#1034,#1035));
#180=EDGE_LOOP('',(#1036,#1037,#1038,#1039));
#181=EDGE_LOOP('',(#1040,#1041,#1042,#1043));
#182=EDGE_LOOP('',(#1044,#1045,#1046,#1047));
#183=EDGE_LOOP('',(#1048,#1049));
#184=EDGE_LOOP('',(#1050,#1051));
#185=EDGE_LOOP('',(#1052,#1053,#1054,#1055));
#186=LINE('',#1571,#328);
#187=LINE('',#1573,#329);
#188=LINE('',#1575,#330);
#189=LINE('',#1576,#331);
#190=LINE('',#1585,#332);
#191=LINE('',#1587,#333);
#192=LINE('',#1589,#334);
#193=LINE('',#1590,#335);
#194=LINE('',#1593,#336);
#195=LINE('',#1595,#337);
#196=LINE('',#1597,#338);
#197=LINE('',#1599,#339);
#198=LINE('',#1601,#340);
#199=LINE('',#1603,#341);
#200=LINE('',#1604,#342);
#201=LINE('',#1607,#343);
#202=LINE('',#1608,#344);
#203=LINE('',#1616,#345);
#204=LINE('',#1618,#346);
#205=LINE('',#1620,#347);
#206=LINE('',#1621,#348);
#207=LINE('',#1625,#349);
#208=LINE('',#1627,#350);
#209=LINE('',#1629,#351);
#210=LINE('',#1630,#352);
#211=LINE('',#1633,#353);
#212=LINE('',#1635,#354);
#213=LINE('',#1636,#355);
#214=LINE('',#1639,#356);
#215=LINE('',#1641,#357);
#216=LINE('',#1643,#358);
#217=LINE('',#1645,#359);
#218=LINE('',#1647,#360);
#219=LINE('',#1649,#361);
#220=LINE('',#1651,#362);
#221=LINE('',#1653,#363);
#222=LINE('',#1655,#364);
#223=LINE('',#1657,#365);
#224=LINE('',#1659,#366);
#225=LINE('',#1661,#367);
#226=LINE('',#1663,#368);
#227=LINE('',#1664,#369);
#228=LINE('',#1666,#370);
#229=LINE('',#1668,#371);
#230=LINE('',#1670,#372);
#231=LINE('',#1672,#373);
#232=LINE('',#1673,#374);
#233=LINE('',#1680,#375);
#234=LINE('',#1682,#376);
#235=LINE('',#1684,#377);
#236=LINE('',#1686,#378);
#237=LINE('',#1687,#379);
#238=LINE('',#1688,#380);
#239=LINE('',#1693,#381);
#240=LINE('',#1703,#382);
#241=LINE('',#1707,#383);
#242=LINE('',#1709,#384);
#243=LINE('',#1711,#385);
#244=LINE('',#1713,#386);
#245=LINE('',#1714,#387);
#246=LINE('',#1717,#388);
#247=LINE('',#1718,#389);
#248=LINE('',#1722,#390);
#249=LINE('',#1724,#391);
#250=LINE('',#1726,#392);
#251=LINE('',#1728,#393);
#252=LINE('',#1730,#394);
#253=LINE('',#1732,#395);
#254=LINE('',#1733,#396);
#255=LINE('',#1734,#397);
#256=LINE('',#1736,#398);
#257=LINE('',#1737,#399);
#258=LINE('',#1739,#400);
#259=LINE('',#1741,#401);
#260=LINE('',#1744,#402);
#261=LINE('',#1745,#403);
#262=LINE('',#1748,#404);
#263=LINE('',#1749,#405);
#264=LINE('',#1752,#406);
#265=LINE('',#1753,#407);
#266=LINE('',#1756,#408);
#267=LINE('',#1757,#409);
#268=LINE('',#1759,#410);
#269=LINE('',#1763,#411);
#270=LINE('',#1764,#412);
#271=LINE('',#1765,#413);
#272=LINE('',#1768,#414);
#273=LINE('',#1769,#415);
#274=LINE('',#1773,#416);
#275=LINE('',#1775,#417);
#276=LINE('',#1777,#418);
#277=LINE('',#1779,#419);
#278=LINE('',#1781,#420);
#279=LINE('',#1783,#421);
#280=LINE('',#1785,#422);
#281=LINE('',#1787,#423);
#282=LINE('',#1788,#424);
#283=LINE('',#1790,#425);
#284=LINE('',#1792,#426);
#285=LINE('',#1794,#427);
#286=LINE('',#1796,#428);
#287=LINE('',#1798,#429);
#288=LINE('',#1800,#430);
#289=LINE('',#1801,#431);
#290=LINE('',#1803,#432);
#291=LINE('',#1805,#433);
#292=LINE('',#1807,#434);
#293=LINE('',#1809,#435);
#294=LINE('',#1811,#436);
#295=LINE('',#1812,#437);
#296=LINE('',#1819,#438);
#297=LINE('',#1820,#439);
#298=LINE('',#1826,#440);
#299=LINE('',#1828,#441);
#300=LINE('',#1829,#442);
#301=LINE('',#1832,#443);
#302=LINE('',#1833,#444);
#303=LINE('',#1835,#445);
#304=LINE('',#1837,#446);
#305=LINE('',#1839,#447);
#306=LINE('',#1841,#448);
#307=LINE('',#1842,#449);
#308=LINE('',#1844,#450);
#309=LINE('',#1846,#451);
#310=LINE('',#1848,#452);
#311=LINE('',#1851,#453);
#312=LINE('',#1852,#454);
#313=LINE('',#1854,#455);
#314=LINE('',#1856,#456);
#315=LINE('',#1858,#457);
#316=LINE('',#1860,#458);
#317=LINE('',#1862,#459);
#318=LINE('',#1864,#460);
#319=LINE('',#1866,#461);
#320=LINE('',#1868,#462);
#321=LINE('',#1871,#463);
#322=LINE('',#1873,#464);
#323=LINE('',#1875,#465);
#324=LINE('',#1882,#466);
#325=LINE('',#1886,#467);
#326=LINE('',#1889,#468);
#327=LINE('',#1891,#469);
#328=VECTOR('',#1273,10.);
#329=VECTOR('',#1274,10.);
#330=VECTOR('',#1275,10.);
#331=VECTOR('',#1276,10.);
#332=VECTOR('',#1289,10.);
#333=VECTOR('',#1290,10.);
#334=VECTOR('',#1291,10.);
#335=VECTOR('',#1292,10.);
#336=VECTOR('',#1295,10.);
#337=VECTOR('',#1296,10.);
#338=VECTOR('',#1297,10.);
#339=VECTOR('',#1298,10.);
#340=VECTOR('',#1299,10.);
#341=VECTOR('',#1300,10.);
#342=VECTOR('',#1301,10.);
#343=VECTOR('',#1304,10.);
#344=VECTOR('',#1305,10.);
#345=VECTOR('',#1312,10.);
#346=VECTOR('',#1313,10.);
#347=VECTOR('',#1314,10.);
#348=VECTOR('',#1315,10.);
#349=VECTOR('',#1318,10.);
#350=VECTOR('',#1319,10.);
#351=VECTOR('',#1320,10.);
#352=VECTOR('',#1321,10.);
#353=VECTOR('',#1324,10.);
#354=VECTOR('',#1325,10.);
#355=VECTOR('',#1326,10.);
#356=VECTOR('',#1329,10.);
#357=VECTOR('',#1330,10.);
#358=VECTOR('',#1331,10.);
#359=VECTOR('',#1332,10.);
#360=VECTOR('',#1333,10.);
#361=VECTOR('',#1334,10.);
#362=VECTOR('',#1335,10.);
#363=VECTOR('',#1336,10.);
#364=VECTOR('',#1337,10.);
#365=VECTOR('',#1338,10.);
#366=VECTOR('',#1339,10.);
#367=VECTOR('',#1340,10.);
#368=VECTOR('',#1341,10.);
#369=VECTOR('',#1342,10.);
#370=VECTOR('',#1343,10.);
#371=VECTOR('',#1344,10.);
#372=VECTOR('',#1345,10.);
#373=VECTOR('',#1346,10.);
#374=VECTOR('',#1347,10.);
#375=VECTOR('',#1354,10.);
#376=VECTOR('',#1355,10.);
#377=VECTOR('',#1356,10.);
#378=VECTOR('',#1357,10.);
#379=VECTOR('',#1358,10.);
#380=VECTOR('',#1359,10.);
#381=VECTOR('',#1364,2.10000000000001);
#382=VECTOR('',#1375,2.10000000000001);
#383=VECTOR('',#1380,10.);
#384=VECTOR('',#1381,10.);
#385=VECTOR('',#1382,10.);
#386=VECTOR('',#1383,10.);
#387=VECTOR('',#1384,10.);
#388=VECTOR('',#1387,10.);
#389=VECTOR('',#1388,10.);
#390=VECTOR('',#1391,10.);
#391=VECTOR('',#1392,10.);
#392=VECTOR('',#1393,10.);
#393=VECTOR('',#1394,10.);
#394=VECTOR('',#1395,10.);
#395=VECTOR('',#1396,10.);
#396=VECTOR('',#1397,10.);
#397=VECTOR('',#1398,10.);
#398=VECTOR('',#1399,10.);
#399=VECTOR('',#1400,10.);
#400=VECTOR('',#1403,10.);
#401=VECTOR('',#1406,10.);
#402=VECTOR('',#1409,10.);
#403=VECTOR('',#1410,10.);
#404=VECTOR('',#1413,10.);
#405=VECTOR('',#1414,10.);
#406=VECTOR('',#1417,10.);
#407=VECTOR('',#1418,10.);
#408=VECTOR('',#1421,10.);
#409=VECTOR('',#1422,10.);
#410=VECTOR('',#1425,10.);
#411=VECTOR('',#1428,10.);
#412=VECTOR('',#1429,10.);
#413=VECTOR('',#1430,10.);
#414=VECTOR('',#1433,10.);
#415=VECTOR('',#1434,10.);
#416=VECTOR('',#1437,10.);
#417=VECTOR('',#1438,10.);
#418=VECTOR('',#1439,10.);
#419=VECTOR('',#1440,10.);
#420=VECTOR('',#1441,10.);
#421=VECTOR('',#1442,10.);
#422=VECTOR('',#1443,10.);
#423=VECTOR('',#1444,10.);
#424=VECTOR('',#1445,10.);
#425=VECTOR('',#1446,10.);
#426=VECTOR('',#1447,10.);
#427=VECTOR('',#1448,10.);
#428=VECTOR('',#1449,10.);
#429=VECTOR('',#1450,10.);
#430=VECTOR('',#1451,10.);
#431=VECTOR('',#1452,10.);
#432=VECTOR('',#1453,10.);
#433=VECTOR('',#1454,10.);
#434=VECTOR('',#1455,10.);
#435=VECTOR('',#1456,10.);
#436=VECTOR('',#1457,10.);
#437=VECTOR('',#1458,10.);
#438=VECTOR('',#1465,10.);
#439=VECTOR('',#1466,10.);
#440=VECTOR('',#1473,10.);
#441=VECTOR('',#1474,10.);
#442=VECTOR('',#1475,10.);
#443=VECTOR('',#1480,10.);
#444=VECTOR('',#1481,10.);
#445=VECTOR('',#1484,10.);
#446=VECTOR('',#1487,10.);
#447=VECTOR('',#1490,10.);
#448=VECTOR('',#1493,10.);
#449=VECTOR('',#1494,10.);
#450=VECTOR('',#1497,10.);
#451=VECTOR('',#1500,2.);
#452=VECTOR('',#1503,2.);
#453=VECTOR('',#1508,10.);
#454=VECTOR('',#1509,10.);
#455=VECTOR('',#1512,10.);
#456=VECTOR('',#1515,10.);
#457=VECTOR('',#1518,1.75);
#458=VECTOR('',#1521,1.75);
#459=VECTOR('',#1524,10.);
#460=VECTOR('',#1527,10.);
#461=VECTOR('',#1530,10.);
#462=VECTOR('',#1533,10.);
#463=VECTOR('',#1538,10.);
#464=VECTOR('',#1541,10.);
#465=VECTOR('',#1544,10.);
#466=VECTOR('',#1553,10.);
#467=VECTOR('',#1556,10.);
#468=VECTOR('',#1561,10.);
#469=VECTOR('',#1564,10.);
#470=VERTEX_POINT('',#1569);
#471=VERTEX_POINT('',#1570);
#472=VERTEX_POINT('',#1572);
#473=VERTEX_POINT('',#1574);
#474=VERTEX_POINT('',#1583);
#475=VERTEX_POINT('',#1584);
#476=VERTEX_POINT('',#1586);
#477=VERTEX_POINT('',#1588);
#478=VERTEX_POINT('',#1592);
#479=VERTEX_POINT('',#1594);
#480=VERTEX_POINT('',#1596);
#481=VERTEX_POINT('',#1598);
#482=VERTEX_POINT('',#1600);
#483=VERTEX_POINT('',#1602);
#484=VERTEX_POINT('',#1606);
#485=VERTEX_POINT('',#1609);
#486=VERTEX_POINT('',#1611);
#487=VERTEX_POINT('',#1614);
#488=VERTEX_POINT('',#1615);
#489=VERTEX_POINT('',#1617);
#490=VERTEX_POINT('',#1619);
#491=VERTEX_POINT('',#1623);
#492=VERTEX_POINT('',#1624);
#493=VERTEX_POINT('',#1626);
#494=VERTEX_POINT('',#1628);
#495=VERTEX_POINT('',#1632);
#496=VERTEX_POINT('',#1634);
#497=VERTEX_POINT('',#1638);
#498=VERTEX_POINT('',#1640);
#499=VERTEX_POINT('',#1642);
#500=VERTEX_POINT('',#1644);
#501=VERTEX_POINT('',#1646);
#502=VERTEX_POINT('',#1648);
#503=VERTEX_POINT('',#1650);
#504=VERTEX_POINT('',#1652);
#505=VERTEX_POINT('',#1654);
#506=VERTEX_POINT('',#1656);
#507=VERTEX_POINT('',#1658);
#508=VERTEX_POINT('',#1660);
#509=VERTEX_POINT('',#1662);
#510=VERTEX_POINT('',#1665);
#511=VERTEX_POINT('',#1667);
#512=VERTEX_POINT('',#1669);
#513=VERTEX_POINT('',#1671);
#514=VERTEX_POINT('',#1674);
#515=VERTEX_POINT('',#1676);
#516=VERTEX_POINT('',#1679);
#517=VERTEX_POINT('',#1681);
#518=VERTEX_POINT('',#1683);
#519=VERTEX_POINT('',#1685);
#520=VERTEX_POINT('',#1690);
#521=VERTEX_POINT('',#1692);
#522=VERTEX_POINT('',#1694);
#523=VERTEX_POINT('',#1696);
#524=VERTEX_POINT('',#1700);
#525=VERTEX_POINT('',#1702);
#526=VERTEX_POINT('',#1706);
#527=VERTEX_POINT('',#1708);
#528=VERTEX_POINT('',#1710);
#529=VERTEX_POINT('',#1712);
#530=VERTEX_POINT('',#1716);
#531=VERTEX_POINT('',#1720);
#532=VERTEX_POINT('',#1721);
#533=VERTEX_POINT('',#1723);
#534=VERTEX_POINT('',#1725);
#535=VERTEX_POINT('',#1727);
#536=VERTEX_POINT('',#1729);
#537=VERTEX_POINT('',#1731);
#538=VERTEX_POINT('',#1735);
#539=VERTEX_POINT('',#1743);
#540=VERTEX_POINT('',#1747);
#541=VERTEX_POINT('',#1751);
#542=VERTEX_POINT('',#1755);
#543=VERTEX_POINT('',#1761);
#544=VERTEX_POINT('',#1762);
#545=VERTEX_POINT('',#1767);
#546=VERTEX_POINT('',#1771);
#547=VERTEX_POINT('',#1772);
#548=VERTEX_POINT('',#1774);
#549=VERTEX_POINT('',#1776);
#550=VERTEX_POINT('',#1778);
#551=VERTEX_POINT('',#1780);
#552=VERTEX_POINT('',#1782);
#553=VERTEX_POINT('',#1784);
#554=VERTEX_POINT('',#1786);
#555=VERTEX_POINT('',#1789);
#556=VERTEX_POINT('',#1791);
#557=VERTEX_POINT('',#1793);
#558=VERTEX_POINT('',#1795);
#559=VERTEX_POINT('',#1797);
#560=VERTEX_POINT('',#1799);
#561=VERTEX_POINT('',#1802);
#562=VERTEX_POINT('',#1804);
#563=VERTEX_POINT('',#1806);
#564=VERTEX_POINT('',#1808);
#565=VERTEX_POINT('',#1810);
#566=VERTEX_POINT('',#1813);
#567=VERTEX_POINT('',#1815);
#568=VERTEX_POINT('',#1818);
#569=VERTEX_POINT('',#1821);
#570=VERTEX_POINT('',#1823);
#571=VERTEX_POINT('',#1827);
#572=VERTEX_POINT('',#1880);
#573=VERTEX_POINT('',#1881);
#574=VERTEX_POINT('',#1883);
#575=VERTEX_POINT('',#1885);
#576=EDGE_CURVE('',#470,#471,#186,.T.);
#577=EDGE_CURVE('',#472,#470,#187,.T.);
#578=EDGE_CURVE('',#473,#472,#188,.T.);
#579=EDGE_CURVE('',#471,#473,#189,.T.);
#580=EDGE_CURVE('',#471,#470,#43,.T.);
#581=EDGE_CURVE('',#473,#472,#44,.T.);
#582=EDGE_CURVE('',#474,#475,#190,.T.);
#583=EDGE_CURVE('',#475,#476,#191,.T.);
#584=EDGE_CURVE('',#476,#477,#192,.T.);
#585=EDGE_CURVE('',#477,#474,#193,.T.);
#586=EDGE_CURVE('',#475,#478,#194,.T.);
#587=EDGE_CURVE('',#479,#478,#195,.T.);
#588=EDGE_CURVE('',#479,#480,#196,.T.);
#589=EDGE_CURVE('',#481,#480,#197,.T.);
#590=EDGE_CURVE('',#481,#482,#198,.T.);
#591=EDGE_CURVE('',#482,#483,#199,.T.);
#592=EDGE_CURVE('',#483,#476,#200,.T.);
#593=EDGE_CURVE('',#484,#474,#201,.T.);
#594=EDGE_CURVE('',#478,#484,#202,.T.);
#595=EDGE_CURVE('',#485,#485,#45,.T.);
#596=EDGE_CURVE('',#486,#486,#46,.T.);
#597=EDGE_CURVE('',#487,#488,#203,.T.);
#598=EDGE_CURVE('',#489,#487,#204,.T.);
#599=EDGE_CURVE('',#490,#489,#205,.T.);
#600=EDGE_CURVE('',#488,#490,#206,.T.);
#601=EDGE_CURVE('',#491,#492,#207,.T.);
#602=EDGE_CURVE('',#493,#491,#208,.T.);
#603=EDGE_CURVE('',#494,#493,#209,.T.);
#604=EDGE_CURVE('',#492,#494,#210,.T.);
#605=EDGE_CURVE('',#495,#493,#211,.T.);
#606=EDGE_CURVE('',#496,#495,#212,.T.);
#607=EDGE_CURVE('',#496,#494,#213,.T.);
#608=EDGE_CURVE('',#497,#487,#214,.T.);
#609=EDGE_CURVE('',#498,#497,#215,.T.);
#610=EDGE_CURVE('',#499,#498,#216,.T.);
#611=EDGE_CURVE('',#499,#500,#217,.T.);
#612=EDGE_CURVE('',#501,#500,#218,.T.);
#613=EDGE_CURVE('',#502,#501,#219,.T.);
#614=EDGE_CURVE('',#503,#502,#220,.T.);
#615=EDGE_CURVE('',#504,#503,#221,.T.);
#616=EDGE_CURVE('',#504,#505,#222,.T.);
#617=EDGE_CURVE('',#505,#506,#223,.T.);
#618=EDGE_CURVE('',#507,#506,#224,.T.);
#619=EDGE_CURVE('',#507,#508,#225,.T.);
#620=EDGE_CURVE('',#508,#509,#226,.T.);
#621=EDGE_CURVE('',#509,#483,#227,.T.);
#622=EDGE_CURVE('',#510,#482,#228,.T.);
#623=EDGE_CURVE('',#511,#510,#229,.T.);
#624=EDGE_CURVE('',#512,#511,#230,.T.);
#625=EDGE_CURVE('',#512,#513,#231,.T.);
#626=EDGE_CURVE('',#513,#489,#232,.T.);
#627=EDGE_CURVE('',#514,#514,#47,.T.);
#628=EDGE_CURVE('',#515,#515,#48,.T.);
#629=EDGE_CURVE('',#516,#495,#233,.T.);
#630=EDGE_CURVE('',#517,#491,#234,.T.);
#631=EDGE_CURVE('',#518,#517,#235,.T.);
#632=EDGE_CURVE('',#519,#518,#236,.T.);
#633=EDGE_CURVE('',#497,#519,#237,.T.);
#634=EDGE_CURVE('',#488,#516,#238,.T.);
#635=EDGE_CURVE('',#520,#520,#49,.T.);
#636=EDGE_CURVE('',#520,#521,#239,.T.);
#637=EDGE_CURVE('',#522,#521,#18,.T.);
#638=EDGE_CURVE('',#523,#522,#19,.T.);
#639=EDGE_CURVE('',#521,#523,#20,.T.);
#640=EDGE_CURVE('',#524,#524,#50,.T.);
#641=EDGE_CURVE('',#524,#525,#240,.T.);
#642=EDGE_CURVE('',#525,#525,#21,.T.);
#643=EDGE_CURVE('',#526,#522,#241,.T.);
#644=EDGE_CURVE('',#527,#526,#242,.T.);
#645=EDGE_CURVE('',#527,#528,#243,.T.);
#646=EDGE_CURVE('',#528,#529,#244,.T.);
#647=EDGE_CURVE('',#523,#529,#245,.T.);
#648=EDGE_CURVE('',#530,#516,#246,.T.);
#649=EDGE_CURVE('',#530,#496,#247,.T.);
#650=EDGE_CURVE('',#531,#532,#248,.T.);
#651=EDGE_CURVE('',#532,#533,#249,.T.);
#652=EDGE_CURVE('',#533,#534,#250,.T.);
#653=EDGE_CURVE('',#534,#535,#251,.T.);
#654=EDGE_CURVE('',#535,#536,#252,.T.);
#655=EDGE_CURVE('',#536,#537,#253,.T.);
#656=EDGE_CURVE('',#537,#527,#254,.T.);
#657=EDGE_CURVE('',#526,#517,#255,.T.);
#658=EDGE_CURVE('',#538,#492,#256,.T.);
#659=EDGE_CURVE('',#538,#531,#257,.T.);
#660=EDGE_CURVE('',#530,#490,#258,.T.);
#661=EDGE_CURVE('',#529,#518,#259,.T.);
#662=EDGE_CURVE('',#539,#537,#260,.T.);
#663=EDGE_CURVE('',#528,#539,#261,.T.);
#664=EDGE_CURVE('',#536,#540,#262,.T.);
#665=EDGE_CURVE('',#540,#539,#263,.T.);
#666=EDGE_CURVE('',#535,#541,#264,.T.);
#667=EDGE_CURVE('',#541,#540,#265,.T.);
#668=EDGE_CURVE('',#542,#534,#266,.T.);
#669=EDGE_CURVE('',#541,#542,#267,.T.);
#670=EDGE_CURVE('',#477,#509,#268,.T.);
#671=EDGE_CURVE('',#543,#544,#269,.T.);
#672=EDGE_CURVE('',#480,#543,#270,.T.);
#673=EDGE_CURVE('',#544,#479,#271,.T.);
#674=EDGE_CURVE('',#543,#545,#272,.T.);
#675=EDGE_CURVE('',#545,#544,#273,.T.);
#676=EDGE_CURVE('',#546,#547,#274,.T.);
#677=EDGE_CURVE('',#548,#546,#275,.T.);
#678=EDGE_CURVE('',#549,#548,#276,.T.);
#679=EDGE_CURVE('',#550,#549,#277,.T.);
#680=EDGE_CURVE('',#551,#550,#278,.T.);
#681=EDGE_CURVE('',#551,#552,#279,.T.);
#682=EDGE_CURVE('',#552,#553,#280,.T.);
#683=EDGE_CURVE('',#554,#553,#281,.T.);
#684=EDGE_CURVE('',#519,#554,#282,.T.);
#685=EDGE_CURVE('',#555,#542,#283,.T.);
#686=EDGE_CURVE('',#556,#555,#284,.T.);
#687=EDGE_CURVE('',#556,#557,#285,.T.);
#688=EDGE_CURVE('',#558,#557,#286,.T.);
#689=EDGE_CURVE('',#559,#558,#287,.T.);
#690=EDGE_CURVE('',#560,#559,#288,.T.);
#691=EDGE_CURVE('',#481,#560,#289,.T.);
#692=EDGE_CURVE('',#545,#561,#290,.T.);
#693=EDGE_CURVE('',#561,#562,#291,.T.);
#694=EDGE_CURVE('',#562,#563,#292,.T.);
#695=EDGE_CURVE('',#564,#563,#293,.T.);
#696=EDGE_CURVE('',#564,#565,#294,.T.);
#697=EDGE_CURVE('',#565,#547,#295,.T.);
#698=EDGE_CURVE('',#566,#566,#51,.T.);
#699=EDGE_CURVE('',#567,#567,#52,.T.);
#700=EDGE_CURVE('',#568,#544,#296,.T.);
#701=EDGE_CURVE('',#568,#561,#297,.T.);
#702=EDGE_CURVE('',#569,#569,#53,.T.);
#703=EDGE_CURVE('',#570,#570,#54,.T.);
#704=EDGE_CURVE('',#568,#562,#298,.T.);
#705=EDGE_CURVE('',#571,#568,#299,.T.);
#706=EDGE_CURVE('',#563,#571,#300,.T.);
#707=EDGE_CURVE('',#565,#507,#301,.T.);
#708=EDGE_CURVE('',#508,#564,#302,.T.);
#709=EDGE_CURVE('',#506,#547,#303,.T.);
#710=EDGE_CURVE('',#538,#513,#304,.T.);
#711=EDGE_CURVE('',#554,#498,#305,.T.);
#712=EDGE_CURVE('',#512,#558,#306,.T.);
#713=EDGE_CURVE('',#557,#531,#307,.T.);
#714=EDGE_CURVE('',#571,#484,#308,.T.);
#715=EDGE_CURVE('',#485,#570,#309,.T.);
#716=EDGE_CURVE('',#486,#569,#310,.T.);
#717=EDGE_CURVE('',#553,#499,#311,.T.);
#718=EDGE_CURVE('',#500,#552,#312,.T.);
#719=EDGE_CURVE('',#551,#501,#313,.T.);
#720=EDGE_CURVE('',#546,#505,#314,.T.);
#721=EDGE_CURVE('',#515,#567,#315,.T.);
#722=EDGE_CURVE('',#514,#566,#316,.T.);
#723=EDGE_CURVE('',#532,#556,#317,.T.);
#724=EDGE_CURVE('',#533,#555,#318,.T.);
#725=EDGE_CURVE('',#559,#511,#319,.T.);
#726=EDGE_CURVE('',#560,#510,#320,.T.);
#727=EDGE_CURVE('',#548,#504,#321,.T.);
#728=EDGE_CURVE('',#549,#503,#322,.T.);
#729=EDGE_CURVE('',#550,#502,#323,.T.);
#730=EDGE_CURVE('',#572,#573,#324,.T.);
#731=EDGE_CURVE('',#573,#574,#55,.T.);
#732=EDGE_CURVE('',#574,#575,#325,.T.);
#733=EDGE_CURVE('',#572,#575,#56,.T.);
#734=EDGE_CURVE('',#575,#572,#326,.T.);
#735=EDGE_CURVE('',#573,#574,#327,.T.);
#736=ORIENTED_EDGE('',*,*,#576,.F.);
#737=ORIENTED_EDGE('',*,*,#577,.F.);
#738=ORIENTED_EDGE('',*,*,#578,.F.);
#739=ORIENTED_EDGE('',*,*,#579,.F.);
#740=ORIENTED_EDGE('',*,*,#576,.T.);
#741=ORIENTED_EDGE('',*,*,#580,.T.);
#742=ORIENTED_EDGE('',*,*,#577,.T.);
#743=ORIENTED_EDGE('',*,*,#580,.F.);
#744=ORIENTED_EDGE('',*,*,#579,.T.);
#745=ORIENTED_EDGE('',*,*,#581,.T.);
#746=ORIENTED_EDGE('',*,*,#578,.T.);
#747=ORIENTED_EDGE('',*,*,#581,.F.);
#748=ORIENTED_EDGE('',*,*,#582,.T.);
#749=ORIENTED_EDGE('',*,*,#583,.T.);
#750=ORIENTED_EDGE('',*,*,#584,.T.);
#751=ORIENTED_EDGE('',*,*,#585,.T.);
#752=ORIENTED_EDGE('',*,*,#586,.T.);
#753=ORIENTED_EDGE('',*,*,#587,.F.);
#754=ORIENTED_EDGE('',*,*,#588,.T.);
#755=ORIENTED_EDGE('',*,*,#589,.F.);
#756=ORIENTED_EDGE('',*,*,#590,.T.);
#757=ORIENTED_EDGE('',*,*,#591,.T.);
#758=ORIENTED_EDGE('',*,*,#592,.T.);
#759=ORIENTED_EDGE('',*,*,#583,.F.);
#760=ORIENTED_EDGE('',*,*,#593,.F.);
#761=ORIENTED_EDGE('',*,*,#594,.F.);
#762=ORIENTED_EDGE('',*,*,#586,.F.);
#763=ORIENTED_EDGE('',*,*,#582,.F.);
#764=ORIENTED_EDGE('',*,*,#595,.F.);
#765=ORIENTED_EDGE('',*,*,#596,.F.);
#766=ORIENTED_EDGE('',*,*,#597,.F.);
#767=ORIENTED_EDGE('',*,*,#598,.F.);
#768=ORIENTED_EDGE('',*,*,#599,.F.);
#769=ORIENTED_EDGE('',*,*,#600,.F.);
#770=ORIENTED_EDGE('',*,*,#601,.F.);
#771=ORIENTED_EDGE('',*,*,#602,.F.);
#772=ORIENTED_EDGE('',*,*,#603,.F.);
#773=ORIENTED_EDGE('',*,*,#604,.F.);
#774=ORIENTED_EDGE('',*,*,#603,.T.);
#775=ORIENTED_EDGE('',*,*,#605,.F.);
#776=ORIENTED_EDGE('',*,*,#606,.F.);
#777=ORIENTED_EDGE('',*,*,#607,.T.);
#778=ORIENTED_EDGE('',*,*,#608,.F.);
#779=ORIENTED_EDGE('',*,*,#609,.F.);
#780=ORIENTED_EDGE('',*,*,#610,.F.);
#781=ORIENTED_EDGE('',*,*,#611,.T.);
#782=ORIENTED_EDGE('',*,*,#612,.F.);
#783=ORIENTED_EDGE('',*,*,#613,.F.);
#784=ORIENTED_EDGE('',*,*,#614,.F.);
#785=ORIENTED_EDGE('',*,*,#615,.F.);
#786=ORIENTED_EDGE('',*,*,#616,.T.);
#787=ORIENTED_EDGE('',*,*,#617,.T.);
#788=ORIENTED_EDGE('',*,*,#618,.F.);
#789=ORIENTED_EDGE('',*,*,#619,.T.);
#790=ORIENTED_EDGE('',*,*,#620,.T.);
#791=ORIENTED_EDGE('',*,*,#621,.T.);
#792=ORIENTED_EDGE('',*,*,#591,.F.);
#793=ORIENTED_EDGE('',*,*,#622,.F.);
#794=ORIENTED_EDGE('',*,*,#623,.F.);
#795=ORIENTED_EDGE('',*,*,#624,.F.);
#796=ORIENTED_EDGE('',*,*,#625,.T.);
#797=ORIENTED_EDGE('',*,*,#626,.T.);
#798=ORIENTED_EDGE('',*,*,#598,.T.);
#799=ORIENTED_EDGE('',*,*,#627,.T.);
#800=ORIENTED_EDGE('',*,*,#628,.T.);
#801=ORIENTED_EDGE('',*,*,#629,.T.);
#802=ORIENTED_EDGE('',*,*,#605,.T.);
#803=ORIENTED_EDGE('',*,*,#602,.T.);
#804=ORIENTED_EDGE('',*,*,#630,.F.);
#805=ORIENTED_EDGE('',*,*,#631,.F.);
#806=ORIENTED_EDGE('',*,*,#632,.F.);
#807=ORIENTED_EDGE('',*,*,#633,.F.);
#808=ORIENTED_EDGE('',*,*,#608,.T.);
#809=ORIENTED_EDGE('',*,*,#597,.T.);
#810=ORIENTED_EDGE('',*,*,#634,.T.);
#811=ORIENTED_EDGE('',*,*,#635,.F.);
#812=ORIENTED_EDGE('',*,*,#636,.T.);
#813=ORIENTED_EDGE('',*,*,#637,.F.);
#814=ORIENTED_EDGE('',*,*,#638,.F.);
#815=ORIENTED_EDGE('',*,*,#639,.F.);
#816=ORIENTED_EDGE('',*,*,#636,.F.);
#817=ORIENTED_EDGE('',*,*,#640,.F.);
#818=ORIENTED_EDGE('',*,*,#641,.T.);
#819=ORIENTED_EDGE('',*,*,#642,.F.);
#820=ORIENTED_EDGE('',*,*,#641,.F.);
#821=ORIENTED_EDGE('',*,*,#638,.T.);
#822=ORIENTED_EDGE('',*,*,#643,.F.);
#823=ORIENTED_EDGE('',*,*,#644,.F.);
#824=ORIENTED_EDGE('',*,*,#645,.T.);
#825=ORIENTED_EDGE('',*,*,#646,.T.);
#826=ORIENTED_EDGE('',*,*,#647,.F.);
#827=ORIENTED_EDGE('',*,*,#606,.T.);
#828=ORIENTED_EDGE('',*,*,#629,.F.);
#829=ORIENTED_EDGE('',*,*,#648,.F.);
#830=ORIENTED_EDGE('',*,*,#649,.T.);
#831=ORIENTED_EDGE('',*,*,#635,.T.);
#832=ORIENTED_EDGE('',*,*,#640,.T.);
#833=ORIENTED_EDGE('',*,*,#650,.T.);
#834=ORIENTED_EDGE('',*,*,#651,.T.);
#835=ORIENTED_EDGE('',*,*,#652,.T.);
#836=ORIENTED_EDGE('',*,*,#653,.T.);
#837=ORIENTED_EDGE('',*,*,#654,.T.);
#838=ORIENTED_EDGE('',*,*,#655,.T.);
#839=ORIENTED_EDGE('',*,*,#656,.T.);
#840=ORIENTED_EDGE('',*,*,#644,.T.);
#841=ORIENTED_EDGE('',*,*,#657,.T.);
#842=ORIENTED_EDGE('',*,*,#630,.T.);
#843=ORIENTED_EDGE('',*,*,#601,.T.);
#844=ORIENTED_EDGE('',*,*,#658,.F.);
#845=ORIENTED_EDGE('',*,*,#659,.T.);
#846=ORIENTED_EDGE('',*,*,#648,.T.);
#847=ORIENTED_EDGE('',*,*,#634,.F.);
#848=ORIENTED_EDGE('',*,*,#600,.T.);
#849=ORIENTED_EDGE('',*,*,#660,.F.);
#850=ORIENTED_EDGE('',*,*,#637,.T.);
#851=ORIENTED_EDGE('',*,*,#639,.T.);
#852=ORIENTED_EDGE('',*,*,#647,.T.);
#853=ORIENTED_EDGE('',*,*,#661,.T.);
#854=ORIENTED_EDGE('',*,*,#631,.T.);
#855=ORIENTED_EDGE('',*,*,#657,.F.);
#856=ORIENTED_EDGE('',*,*,#643,.T.);
#857=ORIENTED_EDGE('',*,*,#662,.F.);
#858=ORIENTED_EDGE('',*,*,#663,.F.);
#859=ORIENTED_EDGE('',*,*,#645,.F.);
#860=ORIENTED_EDGE('',*,*,#656,.F.);
#861=ORIENTED_EDGE('',*,*,#664,.T.);
#862=ORIENTED_EDGE('',*,*,#665,.T.);
#863=ORIENTED_EDGE('',*,*,#662,.T.);
#864=ORIENTED_EDGE('',*,*,#655,.F.);
#865=ORIENTED_EDGE('',*,*,#666,.T.);
#866=ORIENTED_EDGE('',*,*,#667,.T.);
#867=ORIENTED_EDGE('',*,*,#664,.F.);
#868=ORIENTED_EDGE('',*,*,#654,.F.);
#869=ORIENTED_EDGE('',*,*,#668,.F.);
#870=ORIENTED_EDGE('',*,*,#669,.F.);
#871=ORIENTED_EDGE('',*,*,#666,.F.);
#872=ORIENTED_EDGE('',*,*,#653,.F.);
#873=ORIENTED_EDGE('',*,*,#584,.F.);
#874=ORIENTED_EDGE('',*,*,#592,.F.);
#875=ORIENTED_EDGE('',*,*,#621,.F.);
#876=ORIENTED_EDGE('',*,*,#670,.F.);
#877=ORIENTED_EDGE('',*,*,#671,.F.);
#878=ORIENTED_EDGE('',*,*,#672,.F.);
#879=ORIENTED_EDGE('',*,*,#588,.F.);
#880=ORIENTED_EDGE('',*,*,#673,.F.);
#881=ORIENTED_EDGE('',*,*,#674,.F.);
#882=ORIENTED_EDGE('',*,*,#671,.T.);
#883=ORIENTED_EDGE('',*,*,#675,.F.);
#884=ORIENTED_EDGE('',*,*,#676,.F.);
#885=ORIENTED_EDGE('',*,*,#677,.F.);
#886=ORIENTED_EDGE('',*,*,#678,.F.);
#887=ORIENTED_EDGE('',*,*,#679,.F.);
#888=ORIENTED_EDGE('',*,*,#680,.F.);
#889=ORIENTED_EDGE('',*,*,#681,.T.);
#890=ORIENTED_EDGE('',*,*,#682,.T.);
#891=ORIENTED_EDGE('',*,*,#683,.F.);
#892=ORIENTED_EDGE('',*,*,#684,.F.);
#893=ORIENTED_EDGE('',*,*,#632,.T.);
#894=ORIENTED_EDGE('',*,*,#661,.F.);
#895=ORIENTED_EDGE('',*,*,#646,.F.);
#896=ORIENTED_EDGE('',*,*,#663,.T.);
#897=ORIENTED_EDGE('',*,*,#665,.F.);
#898=ORIENTED_EDGE('',*,*,#667,.F.);
#899=ORIENTED_EDGE('',*,*,#669,.T.);
#900=ORIENTED_EDGE('',*,*,#685,.F.);
#901=ORIENTED_EDGE('',*,*,#686,.F.);
#902=ORIENTED_EDGE('',*,*,#687,.T.);
#903=ORIENTED_EDGE('',*,*,#688,.F.);
#904=ORIENTED_EDGE('',*,*,#689,.F.);
#905=ORIENTED_EDGE('',*,*,#690,.F.);
#906=ORIENTED_EDGE('',*,*,#691,.F.);
#907=ORIENTED_EDGE('',*,*,#589,.T.);
#908=ORIENTED_EDGE('',*,*,#672,.T.);
#909=ORIENTED_EDGE('',*,*,#674,.T.);
#910=ORIENTED_EDGE('',*,*,#692,.T.);
#911=ORIENTED_EDGE('',*,*,#693,.T.);
#912=ORIENTED_EDGE('',*,*,#694,.T.);
#913=ORIENTED_EDGE('',*,*,#695,.F.);
#914=ORIENTED_EDGE('',*,*,#696,.T.);
#915=ORIENTED_EDGE('',*,*,#697,.T.);
#916=ORIENTED_EDGE('',*,*,#698,.T.);
#917=ORIENTED_EDGE('',*,*,#699,.T.);
#918=ORIENTED_EDGE('',*,*,#675,.T.);
#919=ORIENTED_EDGE('',*,*,#700,.F.);
#920=ORIENTED_EDGE('',*,*,#701,.T.);
#921=ORIENTED_EDGE('',*,*,#692,.F.);
#922=ORIENTED_EDGE('',*,*,#702,.T.);
#923=ORIENTED_EDGE('',*,*,#703,.T.);
#924=ORIENTED_EDGE('',*,*,#704,.F.);
#925=ORIENTED_EDGE('',*,*,#705,.F.);
#926=ORIENTED_EDGE('',*,*,#706,.F.);
#927=ORIENTED_EDGE('',*,*,#694,.F.);
#928=ORIENTED_EDGE('',*,*,#704,.T.);
#929=ORIENTED_EDGE('',*,*,#693,.F.);
#930=ORIENTED_EDGE('',*,*,#701,.F.);
#931=ORIENTED_EDGE('',*,*,#619,.F.);
#932=ORIENTED_EDGE('',*,*,#707,.F.);
#933=ORIENTED_EDGE('',*,*,#696,.F.);
#934=ORIENTED_EDGE('',*,*,#708,.F.);
#935=ORIENTED_EDGE('',*,*,#707,.T.);
#936=ORIENTED_EDGE('',*,*,#618,.T.);
#937=ORIENTED_EDGE('',*,*,#709,.T.);
#938=ORIENTED_EDGE('',*,*,#697,.F.);
#939=ORIENTED_EDGE('',*,*,#626,.F.);
#940=ORIENTED_EDGE('',*,*,#710,.F.);
#941=ORIENTED_EDGE('',*,*,#658,.T.);
#942=ORIENTED_EDGE('',*,*,#604,.T.);
#943=ORIENTED_EDGE('',*,*,#607,.F.);
#944=ORIENTED_EDGE('',*,*,#649,.F.);
#945=ORIENTED_EDGE('',*,*,#660,.T.);
#946=ORIENTED_EDGE('',*,*,#599,.T.);
#947=ORIENTED_EDGE('',*,*,#633,.T.);
#948=ORIENTED_EDGE('',*,*,#684,.T.);
#949=ORIENTED_EDGE('',*,*,#711,.T.);
#950=ORIENTED_EDGE('',*,*,#609,.T.);
#951=ORIENTED_EDGE('',*,*,#710,.T.);
#952=ORIENTED_EDGE('',*,*,#625,.F.);
#953=ORIENTED_EDGE('',*,*,#712,.T.);
#954=ORIENTED_EDGE('',*,*,#688,.T.);
#955=ORIENTED_EDGE('',*,*,#713,.T.);
#956=ORIENTED_EDGE('',*,*,#659,.F.);
#957=ORIENTED_EDGE('',*,*,#642,.T.);
#958=ORIENTED_EDGE('',*,*,#593,.T.);
#959=ORIENTED_EDGE('',*,*,#585,.F.);
#960=ORIENTED_EDGE('',*,*,#670,.T.);
#961=ORIENTED_EDGE('',*,*,#620,.F.);
#962=ORIENTED_EDGE('',*,*,#708,.T.);
#963=ORIENTED_EDGE('',*,*,#695,.T.);
#964=ORIENTED_EDGE('',*,*,#706,.T.);
#965=ORIENTED_EDGE('',*,*,#714,.T.);
#966=ORIENTED_EDGE('',*,*,#595,.T.);
#967=ORIENTED_EDGE('',*,*,#715,.T.);
#968=ORIENTED_EDGE('',*,*,#703,.F.);
#969=ORIENTED_EDGE('',*,*,#715,.F.);
#970=ORIENTED_EDGE('',*,*,#596,.T.);
#971=ORIENTED_EDGE('',*,*,#716,.T.);
#972=ORIENTED_EDGE('',*,*,#702,.F.);
#973=ORIENTED_EDGE('',*,*,#716,.F.);
#974=ORIENTED_EDGE('',*,*,#594,.T.);
#975=ORIENTED_EDGE('',*,*,#714,.F.);
#976=ORIENTED_EDGE('',*,*,#705,.T.);
#977=ORIENTED_EDGE('',*,*,#700,.T.);
#978=ORIENTED_EDGE('',*,*,#673,.T.);
#979=ORIENTED_EDGE('',*,*,#587,.T.);
#980=ORIENTED_EDGE('',*,*,#611,.F.);
#981=ORIENTED_EDGE('',*,*,#717,.F.);
#982=ORIENTED_EDGE('',*,*,#682,.F.);
#983=ORIENTED_EDGE('',*,*,#718,.F.);
#984=ORIENTED_EDGE('',*,*,#718,.T.);
#985=ORIENTED_EDGE('',*,*,#681,.F.);
#986=ORIENTED_EDGE('',*,*,#719,.T.);
#987=ORIENTED_EDGE('',*,*,#612,.T.);
#988=ORIENTED_EDGE('',*,*,#709,.F.);
#989=ORIENTED_EDGE('',*,*,#617,.F.);
#990=ORIENTED_EDGE('',*,*,#720,.F.);
#991=ORIENTED_EDGE('',*,*,#676,.T.);
#992=ORIENTED_EDGE('',*,*,#628,.F.);
#993=ORIENTED_EDGE('',*,*,#721,.T.);
#994=ORIENTED_EDGE('',*,*,#699,.F.);
#995=ORIENTED_EDGE('',*,*,#721,.F.);
#996=ORIENTED_EDGE('',*,*,#627,.F.);
#997=ORIENTED_EDGE('',*,*,#722,.T.);
#998=ORIENTED_EDGE('',*,*,#698,.F.);
#999=ORIENTED_EDGE('',*,*,#722,.F.);
#1000=ORIENTED_EDGE('',*,*,#713,.F.);
#1001=ORIENTED_EDGE('',*,*,#687,.F.);
#1002=ORIENTED_EDGE('',*,*,#723,.F.);
#1003=ORIENTED_EDGE('',*,*,#650,.F.);
#1004=ORIENTED_EDGE('',*,*,#724,.T.);
#1005=ORIENTED_EDGE('',*,*,#685,.T.);
#1006=ORIENTED_EDGE('',*,*,#668,.T.);
#1007=ORIENTED_EDGE('',*,*,#652,.F.);
#1008=ORIENTED_EDGE('',*,*,#624,.T.);
#1009=ORIENTED_EDGE('',*,*,#725,.F.);
#1010=ORIENTED_EDGE('',*,*,#689,.T.);
#1011=ORIENTED_EDGE('',*,*,#712,.F.);
#1012=ORIENTED_EDGE('',*,*,#623,.T.);
#1013=ORIENTED_EDGE('',*,*,#726,.F.);
#1014=ORIENTED_EDGE('',*,*,#690,.T.);
#1015=ORIENTED_EDGE('',*,*,#725,.T.);
#1016=ORIENTED_EDGE('',*,*,#622,.T.);
#1017=ORIENTED_EDGE('',*,*,#590,.F.);
#1018=ORIENTED_EDGE('',*,*,#691,.T.);
#1019=ORIENTED_EDGE('',*,*,#726,.T.);
#1020=ORIENTED_EDGE('',*,*,#720,.T.);
#1021=ORIENTED_EDGE('',*,*,#616,.F.);
#1022=ORIENTED_EDGE('',*,*,#727,.F.);
#1023=ORIENTED_EDGE('',*,*,#677,.T.);
#1024=ORIENTED_EDGE('',*,*,#615,.T.);
#1025=ORIENTED_EDGE('',*,*,#728,.F.);
#1026=ORIENTED_EDGE('',*,*,#678,.T.);
#1027=ORIENTED_EDGE('',*,*,#727,.T.);
#1028=ORIENTED_EDGE('',*,*,#614,.T.);
#1029=ORIENTED_EDGE('',*,*,#729,.F.);
#1030=ORIENTED_EDGE('',*,*,#679,.T.);
#1031=ORIENTED_EDGE('',*,*,#728,.T.);
#1032=ORIENTED_EDGE('',*,*,#613,.T.);
#1033=ORIENTED_EDGE('',*,*,#719,.F.);
#1034=ORIENTED_EDGE('',*,*,#680,.T.);
#1035=ORIENTED_EDGE('',*,*,#729,.T.);
#1036=ORIENTED_EDGE('',*,*,#717,.T.);
#1037=ORIENTED_EDGE('',*,*,#610,.T.);
#1038=ORIENTED_EDGE('',*,*,#711,.F.);
#1039=ORIENTED_EDGE('',*,*,#683,.T.);
#1040=ORIENTED_EDGE('',*,*,#723,.T.);
#1041=ORIENTED_EDGE('',*,*,#686,.T.);
#1042=ORIENTED_EDGE('',*,*,#724,.F.);
#1043=ORIENTED_EDGE('',*,*,#651,.F.);
#1044=ORIENTED_EDGE('',*,*,#730,.T.);
#1045=ORIENTED_EDGE('',*,*,#731,.T.);
#1046=ORIENTED_EDGE('',*,*,#732,.T.);
#1047=ORIENTED_EDGE('',*,*,#733,.F.);
#1048=ORIENTED_EDGE('',*,*,#734,.T.);
#1049=ORIENTED_EDGE('',*,*,#733,.T.);
#1050=ORIENTED_EDGE('',*,*,#735,.T.);
#1051=ORIENTED_EDGE('',*,*,#731,.F.);
#1052=ORIENTED_EDGE('',*,*,#734,.F.);
#1053=ORIENTED_EDGE('',*,*,#732,.F.);
#1054=ORIENTED_EDGE('',*,*,#735,.F.);
#1055=ORIENTED_EDGE('',*,*,#730,.F.);
#1056=PLANE('',#1192);
#1057=PLANE('',#1193);
#1058=PLANE('',#1197);
#1059=PLANE('',#1198);
#1060=PLANE('',#1199);
#1061=PLANE('',#1200);
#1062=PLANE('',#1203);
#1063=PLANE('',#1204);
#1064=PLANE('',#1205);
#1065=PLANE('',#1206);
#1066=PLANE('',#1209);
#1067=PLANE('',#1218);
#1068=PLANE('',#1219);
#1069=PLANE('',#1220);
#1070=PLANE('',#1221);
#1071=PLANE('',#1222);
#1072=PLANE('',#1223);
#1073=PLANE('',#1224);
#1074=PLANE('',#1225);
#1075=PLANE('',#1226);
#1076=PLANE('',#1227);
#1077=PLANE('',#1228);
#1078=PLANE('',#1229);
#1079=PLANE('',#1230);
#1080=PLANE('',#1233);
#1081=PLANE('',#1236);
#1082=PLANE('',#1237);
#1083=PLANE('',#1238);
#1084=PLANE('',#1239);
#1085=PLANE('',#1240);
#1086=PLANE('',#1241);
#1087=PLANE('',#1242);
#1088=PLANE('',#1243);
#1089=PLANE('',#1246);
#1090=PLANE('',#1247);
#1091=PLANE('',#1248);
#1092=PLANE('',#1249);
#1093=PLANE('',#1252);
#1094=PLANE('',#1253);
#1095=PLANE('',#1254);
#1096=PLANE('',#1255);
#1097=PLANE('',#1256);
#1098=PLANE('',#1257);
#1099=PLANE('',#1258);
#1100=PLANE('',#1259);
#1101=PLANE('',#1260);
#1102=PLANE('',#1261);
#1103=PLANE('',#1262);
#1104=PLANE('',#1266);
#1105=PLANE('',#1267);
#1106=PLANE('',#1268);
#1107=ADVANCED_FACE('',(#57),#1056,.F.);
#1108=ADVANCED_FACE('',(#58),#1057,.T.);
#1109=ADVANCED_FACE('',(#59),#35,.F.);
#1110=ADVANCED_FACE('',(#60),#1058,.T.);
#1111=ADVANCED_FACE('',(#61),#1059,.T.);
#1112=ADVANCED_FACE('',(#62),#1060,.T.);
#1113=ADVANCED_FACE('',(#63,#22,#23),#1061,.T.);
#1114=ADVANCED_FACE('',(#64),#1062,.T.);
#1115=ADVANCED_FACE('',(#65),#1063,.T.);
#1116=ADVANCED_FACE('',(#66),#1064,.T.);
#1117=ADVANCED_FACE('',(#67,#24,#25),#1065,.T.);
#1118=ADVANCED_FACE('',(#68),#1066,.F.);
#1119=ADVANCED_FACE('',(#69),#36,.F.);
#1120=ADVANCED_FACE('',(#70),#37,.F.);
#1121=ADVANCED_FACE('',(#71),#1067,.T.);
#1122=ADVANCED_FACE('',(#72,#26,#27),#1068,.T.);
#1123=ADVANCED_FACE('',(#73),#1069,.T.);
#1124=ADVANCED_FACE('',(#74),#1070,.F.);
#1125=ADVANCED_FACE('',(#75),#1071,.T.);
#1126=ADVANCED_FACE('',(#76),#1072,.T.);
#1127=ADVANCED_FACE('',(#77),#1073,.T.);
#1128=ADVANCED_FACE('',(#78),#1074,.T.);
#1129=ADVANCED_FACE('',(#79),#1075,.T.);
#1130=ADVANCED_FACE('',(#80),#1076,.F.);
#1131=ADVANCED_FACE('',(#81),#1077,.T.);
#1132=ADVANCED_FACE('',(#82),#1078,.F.);
#1133=ADVANCED_FACE('',(#83,#28,#29),#1079,.F.);
#1134=ADVANCED_FACE('',(#84,#30,#31),#1080,.F.);
#1135=ADVANCED_FACE('',(#85),#1081,.T.);
#1136=ADVANCED_FACE('',(#86),#1082,.F.);
#1137=ADVANCED_FACE('',(#87),#1083,.F.);
#1138=ADVANCED_FACE('',(#88),#1084,.T.);
#1139=ADVANCED_FACE('',(#89),#1085,.F.);
#1140=ADVANCED_FACE('',(#90),#1086,.T.);
#1141=ADVANCED_FACE('',(#91,#32),#1087,.T.);
#1142=ADVANCED_FACE('',(#92),#1088,.T.);
#1143=ADVANCED_FACE('',(#93),#38,.F.);
#1144=ADVANCED_FACE('',(#94),#39,.F.);
#1145=ADVANCED_FACE('',(#95),#1089,.T.);
#1146=ADVANCED_FACE('',(#96),#1090,.F.);
#1147=ADVANCED_FACE('',(#97),#1091,.T.);
#1148=ADVANCED_FACE('',(#98),#1092,.T.);
#1149=ADVANCED_FACE('',(#99),#40,.F.);
#1150=ADVANCED_FACE('',(#100),#41,.F.);
#1151=ADVANCED_FACE('',(#101),#1093,.T.);
#1152=ADVANCED_FACE('',(#102),#1094,.T.);
#1153=ADVANCED_FACE('',(#103),#1095,.T.);
#1154=ADVANCED_FACE('',(#104),#1096,.T.);
#1155=ADVANCED_FACE('',(#105),#1097,.T.);
#1156=ADVANCED_FACE('',(#106),#1098,.T.);
#1157=ADVANCED_FACE('',(#107),#1099,.T.);
#1158=ADVANCED_FACE('',(#108),#1100,.T.);
#1159=ADVANCED_FACE('',(#109),#1101,.T.);
#1160=ADVANCED_FACE('',(#110),#1102,.T.);
#1161=ADVANCED_FACE('',(#111),#1103,.T.);
#1162=ADVANCED_FACE('',(#112),#42,.F.);
#1163=ADVANCED_FACE('',(#113),#1104,.T.);
#1164=ADVANCED_FACE('',(#114),#1105,.T.);
#1165=ADVANCED_FACE('',(#115),#1106,.F.);
#1166=CLOSED_SHELL('',(#1107,#1108,#1109,#1110));
#1167=CLOSED_SHELL('',(#1111,#1112,#1113,#1114,#1115,#1116,#1117,#1118,
#1119,#1120,#1121,#1122,#1123,#1124,#1125,#1126,#1127,#1128,#1129,#1130,
#1131,#1132,#1133,#1134,#1135,#1136,#1137,#1138,#1139,#1140,#1141,#1142,
#1143,#1144,#1145,#1146,#1147,#1148,#1149,#1150,#1151,#1152,#1153,#1154,
#1155,#1156,#1157,#1158,#1159,#1160,#1161));
#1168=CLOSED_SHELL('',(#1162,#1163,#1164,#1165));
#1169=BREP_WITH_VOIDS('\X2\04220432043504400434043E0435\X0\ \X2\04420435043B043E\X0\1',
#1167,(#33,#34));
#1170=DERIVED_UNIT_ELEMENT(#1173,1.);
#1171=DERIVED_UNIT_ELEMENT(#1900,-3.);
#1172=DIMENSIONAL_EXPONENTS(0.,1.,0.,0.,0.,0.,0.);
#1173=(
CONVERSION_BASED_UNIT('gram',#1175)
MASS_UNIT()
NAMED_UNIT(#1172)
);
#1174=(
MASS_UNIT()
NAMED_UNIT(*)
SI_UNIT(.KILO.,.GRAM.)
);
#1175=MASS_MEASURE_WITH_UNIT(MASS_MEASURE(0.001),#1174);
#1176=DERIVED_UNIT((#1170,#1171));
#1177=MEASURE_REPRESENTATION_ITEM('density measure',
POSITIVE_RATIO_MEASURE(1.),#1176);
#1178=PROPERTY_DEFINITION_REPRESENTATION(#1183,#1180);
#1179=PROPERTY_DEFINITION_REPRESENTATION(#1184,#1181);
#1180=REPRESENTATION('material name',(#1182),#1897);
#1181=REPRESENTATION('density',(#1177),#1897);
#1182=DESCRIPTIVE_REPRESENTATION_ITEM('\X2\04220438043F043E0432044B0435\X0\',
'\X2\04220438043F043E0432044B0435\X0\');
#1183=PROPERTY_DEFINITION('material property','material name',#1907);
#1184=PROPERTY_DEFINITION('material property','density of part',#1907);
#1185=DATE_TIME_ROLE('creation_date');
#1186=APPLIED_DATE_AND_TIME_ASSIGNMENT(#1187,#1185,(#1907));
#1187=DATE_AND_TIME(#1188,#1189);
#1188=CALENDAR_DATE(2026,23,4);
#1189=LOCAL_TIME(0,0,0.,#1190);
#1190=COORDINATED_UNIVERSAL_TIME_OFFSET(0,0,.BEHIND.);
#1191=AXIS2_PLACEMENT_3D('',#1567,#1269,#1270);
#1192=AXIS2_PLACEMENT_3D('',#1568,#1271,#1272);
#1193=AXIS2_PLACEMENT_3D('',#1577,#1277,#1278);
#1194=AXIS2_PLACEMENT_3D('',#1578,#1279,#1280);
#1195=AXIS2_PLACEMENT_3D('',#1579,#1281,#1282);
#1196=AXIS2_PLACEMENT_3D('',#1580,#1283,#1284);
#1197=AXIS2_PLACEMENT_3D('',#1581,#1285,#1286);
#1198=AXIS2_PLACEMENT_3D('',#1582,#1287,#1288);
#1199=AXIS2_PLACEMENT_3D('',#1591,#1293,#1294);
#1200=AXIS2_PLACEMENT_3D('',#1605,#1302,#1303);
#1201=AXIS2_PLACEMENT_3D('',#1610,#1306,#1307);
#1202=AXIS2_PLACEMENT_3D('',#1612,#1308,#1309);
#1203=AXIS2_PLACEMENT_3D('',#1613,#1310,#1311);
#1204=AXIS2_PLACEMENT_3D('',#1622,#1316,#1317);
#1205=AXIS2_PLACEMENT_3D('',#1631,#1322,#1323);
#1206=AXIS2_PLACEMENT_3D('',#1637,#1327,#1328);
#1207=AXIS2_PLACEMENT_3D('',#1675,#1348,#1349);
#1208=AXIS2_PLACEMENT_3D('',#1677,#1350,#1351);
#1209=AXIS2_PLACEMENT_3D('',#1678,#1352,#1353);
#1210=AXIS2_PLACEMENT_3D('',#1689,#1360,#1361);
#1211=AXIS2_PLACEMENT_3D('',#1691,#1362,#1363);
#1212=AXIS2_PLACEMENT_3D('',#1695,#1365,#1366);
#1213=AXIS2_PLACEMENT_3D('',#1697,#1367,#1368);
#1214=AXIS2_PLACEMENT_3D('',#1698,#1369,#1370);
#1215=AXIS2_PLACEMENT_3D('',#1699,#1371,#1372);
#1216=AXIS2_PLACEMENT_3D('',#1701,#1373,#1374);
#1217=AXIS2_PLACEMENT_3D('',#1704,#1376,#1377);
#1218=AXIS2_PLACEMENT_3D('',#1705,#1378,#1379);
#1219=AXIS2_PLACEMENT_3D('',#1715,#1385,#1386);
#1220=AXIS2_PLACEMENT_3D('',#1719,#1389,#1390);
#1221=AXIS2_PLACEMENT_3D('',#1738,#1401,#1402);
#1222=AXIS2_PLACEMENT_3D('',#1740,#1404,#1405);
#1223=AXIS2_PLACEMENT_3D('',#1742,#1407,#1408);
#1224=AXIS2_PLACEMENT_3D('',#1746,#1411,#1412);
#1225=AXIS2_PLACEMENT_3D('',#1750,#1415,#1416);
#1226=AXIS2_PLACEMENT_3D('',#1754,#1419,#1420);
#1227=AXIS2_PLACEMENT_3D('',#1758,#1423,#1424);
#1228=AXIS2_PLACEMENT_3D('',#1760,#1426,#1427);
#1229=AXIS2_PLACEMENT_3D('',#1766,#1431,#1432);
#1230=AXIS2_PLACEMENT_3D('',#1770,#1435,#1436);
#1231=AXIS2_PLACEMENT_3D('',#1814,#1459,#1460);
#1232=AXIS2_PLACEMENT_3D('',#1816,#1461,#1462);
#1233=AXIS2_PLACEMENT_3D('',#1817,#1463,#1464);
#1234=AXIS2_PLACEMENT_3D('',#1822,#1467,#1468);
#1235=AXIS2_PLACEMENT_3D('',#1824,#1469,#1470);
#1236=AXIS2_PLACEMENT_3D('',#1825,#1471,#1472);
#1237=AXIS2_PLACEMENT_3D('',#1830,#1476,#1477);
#1238=AXIS2_PLACEMENT_3D('',#1831,#1478,#1479);
#1239=AXIS2_PLACEMENT_3D('',#1834,#1482,#1483);
#1240=AXIS2_PLACEMENT_3D('',#1836,#1485,#1486);
#1241=AXIS2_PLACEMENT_3D('',#1838,#1488,#1489);
#1242=AXIS2_PLACEMENT_3D('',#1840,#1491,#1492);
#1243=AXIS2_PLACEMENT_3D('',#1843,#1495,#1496);
#1244=AXIS2_PLACEMENT_3D('',#1845,#1498,#1499);
#1245=AXIS2_PLACEMENT_3D('',#1847,#1501,#1502);
#1246=AXIS2_PLACEMENT_3D('',#1849,#1504,#1505);
#1247=AXIS2_PLACEMENT_3D('',#1850,#1506,#1507);
#1248=AXIS2_PLACEMENT_3D('',#1853,#1510,#1511);
#1249=AXIS2_PLACEMENT_3D('',#1855,#1513,#1514);
#1250=AXIS2_PLACEMENT_3D('',#1857,#1516,#1517);
#1251=AXIS2_PLACEMENT_3D('',#1859,#1519,#1520);
#1252=AXIS2_PLACEMENT_3D('',#1861,#1522,#1523);
#1253=AXIS2_PLACEMENT_3D('',#1863,#1525,#1526);
#1254=AXIS2_PLACEMENT_3D('',#1865,#1528,#1529);
#1255=AXIS2_PLACEMENT_3D('',#1867,#1531,#1532);
#1256=AXIS2_PLACEMENT_3D('',#1869,#1534,#1535);
#1257=AXIS2_PLACEMENT_3D('',#1870,#1536,#1537);
#1258=AXIS2_PLACEMENT_3D('',#1872,#1539,#1540);
#1259=AXIS2_PLACEMENT_3D('',#1874,#1542,#1543);
#1260=AXIS2_PLACEMENT_3D('',#1876,#1545,#1546);
#1261=AXIS2_PLACEMENT_3D('',#1877,#1547,#1548);
#1262=AXIS2_PLACEMENT_3D('',#1878,#1549,#1550);
#1263=AXIS2_PLACEMENT_3D('',#1879,#1551,#1552);
#1264=AXIS2_PLACEMENT_3D('',#1884,#1554,#1555);
#1265=AXIS2_PLACEMENT_3D('',#1887,#1557,#1558);
#1266=AXIS2_PLACEMENT_3D('',#1888,#1559,#1560);
#1267=AXIS2_PLACEMENT_3D('',#1890,#1562,#1563);
#1268=AXIS2_PLACEMENT_3D('',#1892,#1565,#1566);
#1269=DIRECTION('axis',(0.,0.,1.));
#1270=DIRECTION('refdir',(1.,0.,0.));
#1271=DIRECTION('center_axis',(1.74261646779251E-14,1.,-3.19536064274935E-15));
#1272=DIRECTION('ref_axis',(0.,3.19536064274936E-15,1.));
#1273=DIRECTION('',(1.,-1.74261646779251E-14,-5.42101086242752E-19));
#1274=DIRECTION('',(0.,0.,1.));
#1275=DIRECTION('',(-1.,1.7426164677925E-14,-3.02638353165243E-14));
#1276=DIRECTION('',(0.,0.,-1.));
#1277=DIRECTION('center_axis',(-5.42101086242752E-19,-3.76158192263132E-35,
-1.));
#1278=DIRECTION('ref_axis',(-1.,-6.93889390390723E-17,5.42101086242752E-19));
#1279=DIRECTION('center_axis',(-5.42101086242752E-19,1.04083408558608E-17,
-1.));
#1280=DIRECTION('ref_axis',(-1.,0.,5.42101086242752E-19));
#1281=DIRECTION('center_axis',(0.,0.,1.));
#1282=DIRECTION('ref_axis',(-1.78248007339599E-14,-1.,0.));
#1283=DIRECTION('center_axis',(3.02638353165243E-14,1.04083408558566E-17,
-1.));
#1284=DIRECTION('ref_axis',(-1.,0.,0.));
#1285=DIRECTION('center_axis',(-3.02638353165243E-14,-1.04083408558566E-17,
1.));
#1286=DIRECTION('ref_axis',(-1.,3.15001955952781E-31,-3.02638353165243E-14));
#1287=DIRECTION('center_axis',(-0.00149871073249743,-0.707106781186546,
0.707105192928282));
#1288=DIRECTION('ref_axis',(0.999997753863618,0.,0.00211949704397198));
#1289=DIRECTION('',(-0.999997753863618,2.06666486461085E-14,-0.00211949704395131));
#1290=DIRECTION('',(0.00149871073246604,-0.707106781186549,-0.707105192928278));
#1291=DIRECTION('',(0.999997753863618,-2.06656244938774E-14,0.00211949704395131));
#1292=DIRECTION('',(-0.00149871073246607,0.707106781186549,0.707105192928278));
#1293=DIRECTION('center_axis',(-0.999997753863618,2.19520917549032E-14,
-0.00211949704394954));
#1294=DIRECTION('ref_axis',(-2.19633204506701E-14,-1.,5.27453585541496E-15));
#1295=DIRECTION('',(2.19576899221164E-14,1.,-2.61800188060772E-15));
#1296=DIRECTION('',(-0.00211949704395131,2.66453525910038E-15,0.999997753863618));
#1297=DIRECTION('',(0.00101469855959563,-0.877954012906265,-0.47874389981348));
#1298=DIRECTION('',(-0.00211949704394954,5.31951712053258E-15,0.999997753863618));
#1299=DIRECTION('',(-2.15324452901844E-14,-1.,5.27544909609519E-15));
#1300=DIRECTION('',(-0.00211949704394954,5.31951712053258E-15,0.999997753863618));
#1301=DIRECTION('',(2.19579252335583E-14,1.,-2.72902393369901E-15));
#1302=DIRECTION('center_axis',(-0.00211949704395131,2.66453525910038E-15,
0.999997753863618));
#1303=DIRECTION('ref_axis',(0.999997753863618,-7.70370247394367E-34,0.00211949704395131));
#1304=DIRECTION('',(-2.19576899221164E-14,-1.,2.61800188060772E-15));
#1305=DIRECTION('',(0.999997753863618,-2.05306432743135E-14,0.00211949704395131));
#1306=DIRECTION('center_axis',(-0.00211949704395131,2.66453525910038E-15,
0.999997753863618));
#1307=DIRECTION('ref_axis',(0.999997753863618,-2.06656244938774E-14,0.00211949704395131));
#1308=DIRECTION('center_axis',(-0.00211949704395131,2.66453525910038E-15,
0.999997753863618));
#1309=DIRECTION('ref_axis',(0.999997753863618,-2.06656244938774E-14,0.00211949704395131));
#1310=DIRECTION('center_axis',(-2.24185904215753E-16,-3.50414142147323E-15,
-1.));
#1311=DIRECTION('ref_axis',(-1.,0.,2.24185904215753E-16));
#1312=DIRECTION('',(1.45053933743085E-16,1.,-3.50414142147323E-15));
#1313=DIRECTION('',(1.,5.06172541329103E-17,-2.24185904215753E-16));
#1314=DIRECTION('',(4.49708400876179E-16,-1.,3.50414142147323E-15));
#1315=DIRECTION('',(-1.,1.74292078398386E-14,2.24185904215692E-16));
#1316=DIRECTION('center_axis',(-2.24185904215753E-16,-3.50414142147323E-15,
-1.));
#1317=DIRECTION('ref_axis',(-1.,0.,2.24185904215753E-16));
#1318=DIRECTION('',(-1.,1.74292078398387E-14,2.24185904215692E-16));
#1319=DIRECTION('',(1.77622747472262E-14,1.,-3.50414142147323E-15));
#1320=DIRECTION('',(1.,-1.8771417765132E-14,-2.24185904215687E-16));
#1321=DIRECTION('',(-1.83173862595388E-14,-1.,3.50414142147323E-15));
#1322=DIRECTION('center_axis',(-1.8771417765132E-14,-1.,3.2297695393867E-15));
#1323=DIRECTION('ref_axis',(-1.,1.8771417765132E-14,-9.3419844407396E-17));
#1324=DIRECTION('',(9.25194399303481E-17,-3.2297695393867E-15,-1.));
#1325=DIRECTION('',(1.,-1.8771417765132E-14,9.3419844407396E-17));
#1326=DIRECTION('',(9.25194399303481E-17,-3.2297695393867E-15,-1.));
#1327=DIRECTION('center_axis',(0.,-1.,0.));
#1328=DIRECTION('ref_axis',(0.,0.,-1.));
#1329=DIRECTION('',(9.25194399303481E-17,-3.09519580857892E-15,-1.));
#1330=DIRECTION('',(0.00211888505544336,0.,-0.999997755160541));
#1331=DIRECTION('',(1.56787510735513E-14,0.,-1.));
#1332=DIRECTION('',(-0.999997753863618,0.,-0.00211949704394998));
#1333=DIRECTION('',(-0.00211949704394995,0.,0.999997753863618));
#1334=DIRECTION('',(0.705606482195834,0.,0.708603903660726));
#1335=DIRECTION('',(0.999997753863618,0.,0.00211949704393675));
#1336=DIRECTION('',(0.708603903660797,0.,-0.705606482195763));
#1337=DIRECTION('',(-0.00211949704394954,5.31951712053258E-15,0.999997753863618));
#1338=DIRECTION('',(0.999997753863618,-2.15300872651411E-14,0.00211949704395185));
#1339=DIRECTION('',(-0.00211949704394995,0.,0.999997753863618));
#1340=DIRECTION('',(0.999997753863618,0.,0.00211949704395004));
#1341=DIRECTION('',(-0.00211949704394958,5.31951712053258E-15,0.999997753863618));
#1342=DIRECTION('',(-0.999997753863618,0.,-0.00211949704395131));
#1343=DIRECTION('',(-1.64231977457398E-14,0.,1.));
#1344=DIRECTION('',(-0.00211888505544857,0.,0.999997755160541));
#1345=DIRECTION('',(-0.865800143732051,0.,0.500389959045503));
#1346=DIRECTION('',(-0.866025403784445,-6.00925839494868E-17,0.49999999999999));
#1347=DIRECTION('',(9.25194399303481E-17,-3.09519580857892E-15,-1.));
#1348=DIRECTION('center_axis',(0.,1.,0.));
#1349=DIRECTION('ref_axis',(1.,0.,-3.25079691383323E-14));
#1350=DIRECTION('center_axis',(0.,1.,0.));
#1351=DIRECTION('ref_axis',(1.,0.,-3.25079691383323E-14));
#1352=DIRECTION('center_axis',(-1.,0.,3.25079691383323E-14));
#1353=DIRECTION('ref_axis',(3.25079691383323E-14,0.,1.));
#1354=DIRECTION('',(1.77635683940025E-14,1.,-3.21964677141295E-15));
#1355=DIRECTION('',(-3.29592838750976E-14,-3.19536064274878E-15,-1.));
#1356=DIRECTION('',(1.77635683940025E-14,1.,-3.21964677141295E-15));
#1357=DIRECTION('',(-3.25079691383323E-14,-5.30512930407222E-15,-1.));
#1358=DIRECTION('',(2.15212671948409E-14,1.,-6.99612689787692E-28));
#1359=DIRECTION('',(3.25079691383323E-14,3.19536064274879E-15,1.));
#1360=DIRECTION('center_axis',(-1.11022302462516E-16,3.21964677141295E-15,
1.));
#1361=DIRECTION('ref_axis',(-1.,1.74292078398386E-14,-1.11022302462572E-16));
#1362=DIRECTION('center_axis',(-9.34198444073356E-17,3.21964677141296E-15,
1.));
#1363=DIRECTION('ref_axis',(-1.,1.74292078398386E-14,-1.11022302462572E-16));
#1364=DIRECTION('',(-1.11022302462516E-16,3.21964677141295E-15,1.));
#1365=DIRECTION('center_axis',(0.499611972948795,3.46675447341346E-17,-0.866249315431887));
#1366=DIRECTION('ref_axis',(-0.866249315431887,1.34894652841165E-14,-0.499611972948795));
#1367=DIRECTION('center_axis',(0.499999999999995,3.46944695195358E-17,-0.866025403784442));
#1368=DIRECTION('ref_axis',(-0.866025403784442,1.34843133714328E-14,-0.499999999999995));
#1369=DIRECTION('center_axis',(0.499611972948795,3.46675447341346E-17,-0.866249315431887));
#1370=DIRECTION('ref_axis',(-0.866249315431887,1.34894652841165E-14,-0.499611972948795));
#1371=DIRECTION('center_axis',(0.,3.21964677141295E-15,1.));
#1372=DIRECTION('ref_axis',(-1.,1.74292078398386E-14,-5.61124274844704E-29));
#1373=DIRECTION('center_axis',(-9.34198444073356E-17,3.21964677141296E-15,
1.));
#1374=DIRECTION('ref_axis',(-1.,1.74292078398386E-14,-5.61124274844704E-29));
#1375=DIRECTION('',(0.,3.21964677141295E-15,1.));
#1376=DIRECTION('center_axis',(-0.49999999999999,0.,-0.866025403784445));
#1377=DIRECTION('ref_axis',(-0.866025403784445,1.67039601428457E-14,0.49999999999999));
#1378=DIRECTION('center_axis',(-0.499999999999995,-3.46944695195358E-17,
0.866025403784442));
#1379=DIRECTION('ref_axis',(0.866025403784442,6.00925839494866E-17,0.499999999999995));
#1380=DIRECTION('',(6.93889390390723E-17,-1.,0.));
#1381=DIRECTION('',(0.866025403784441,-1.34938209802396E-14,0.499999999999995));
#1382=DIRECTION('',(5.13611638542361E-17,-1.,-1.04083408558551E-17));
#1383=DIRECTION('',(0.866025403784442,-1.5645638148448E-14,0.499999999999995));
#1384=DIRECTION('',(6.93889390390723E-17,-1.,0.));
#1385=DIRECTION('center_axis',(9.34198444073356E-17,-3.21964677141296E-15,
-1.));
#1386=DIRECTION('ref_axis',(-1.,1.74261646779251E-14,-9.34198444073917E-17));
#1387=DIRECTION('',(1.,-1.74261646779251E-14,9.34198444073917E-17));
#1388=DIRECTION('',(1.77635683940025E-14,1.,-3.21964677141295E-15));
#1389=DIRECTION('center_axis',(1.77635683940025E-14,1.,-3.21964677141295E-15));
#1390=DIRECTION('ref_axis',(0.,3.21964677141295E-15,1.));
#1391=DIRECTION('',(1.,-1.7426164677925E-14,3.02177436087777E-14));
#1392=DIRECTION('',(0.866025403784441,-1.34938209802396E-14,0.499999999999996));
#1393=DIRECTION('',(0.867082902224162,-1.67017426651551E-14,-0.498163869294557));
#1394=DIRECTION('',(1.,-1.7426164677925E-14,3.02581876704532E-14));
#1395=DIRECTION('',(0.866025403784441,-1.34938209802396E-14,0.499999999999996));
#1396=DIRECTION('',(0.866025403784443,-1.6689181622989E-14,-0.499999999999992));
#1397=DIRECTION('',(1.,-1.7426164677925E-14,3.03308245590603E-14));
#1398=DIRECTION('',(0.866249315431887,-1.3498962787849E-14,0.499611972948794));
#1399=DIRECTION('',(9.25194399303481E-17,-3.2297695393867E-15,-1.));
#1400=DIRECTION('',(0.866025403784444,-1.6689181622989E-14,-0.49999999999999));
#1401=DIRECTION('center_axis',(-1.74261646779251E-14,-1.,3.19536064274935E-15));
#1402=DIRECTION('ref_axis',(0.,-3.19536064274936E-15,-1.));
#1403=DIRECTION('',(-3.25079691383323E-14,-3.19536064274879E-15,-1.));
#1404=DIRECTION('center_axis',(-0.499611972948795,-3.46675447341346E-17,
0.866249315431887));
#1405=DIRECTION('ref_axis',(0.866249315431887,6.01081209411413E-17,0.499611972948795));
#1406=DIRECTION('',(0.866249315431887,-1.56524276989279E-14,0.499611972948795));
#1407=DIRECTION('center_axis',(-3.02638353165243E-14,-1.04083408558566E-17,
1.));
#1408=DIRECTION('ref_axis',(-1.,3.15001955952781E-31,-3.02638353165243E-14));
#1409=DIRECTION('',(1.77635683940025E-14,1.,-3.21964677141295E-15));
#1410=DIRECTION('',(-1.,2.11289446250919E-14,-3.02638353165243E-14));
#1411=DIRECTION('center_axis',(0.499999999999992,0.,0.866025403784443));
#1412=DIRECTION('ref_axis',(0.866025403784443,6.00925839494868E-17,-0.499999999999992));
#1413=DIRECTION('',(0.,-1.,0.));
#1414=DIRECTION('',(0.866025403784443,-2.09507674525209E-14,-0.499999999999992));
#1415=DIRECTION('center_axis',(-0.499999999999996,0.,0.866025403784441));
#1416=DIRECTION('ref_axis',(0.866025403784441,6.00925839494866E-17,0.499999999999996));
#1417=DIRECTION('',(-1.80277751848398E-17,-1.,-1.04083408558572E-17));
#1418=DIRECTION('',(0.866025403784441,-1.5645638148448E-14,0.499999999999996));
#1419=DIRECTION('center_axis',(-3.02638353165243E-14,-1.04083408558566E-17,
1.));
#1420=DIRECTION('ref_axis',(-1.,3.15001955952781E-31,-3.02638353165243E-14));
#1421=DIRECTION('',(-1.81163166437864E-17,1.,1.04083408558561E-17));
#1422=DIRECTION('',(-1.,2.11289446250919E-14,-3.02638353165243E-14));
#1423=DIRECTION('center_axis',(0.00211949704395131,-2.77555756156289E-15,
-0.999997753863618));
#1424=DIRECTION('ref_axis',(-0.999997753863618,0.,-0.00211949704395131));
#1425=DIRECTION('',(-2.19579252335583E-14,-1.,2.72902393369901E-15));
#1426=DIRECTION('center_axis',(0.00186082093508895,0.478744975139987,-0.877952040901814));
#1427=DIRECTION('ref_axis',(-0.00101469855959563,0.877954012906265,0.47874389981348));
#1428=DIRECTION('',(0.639381223603135,0.674479201552656,0.369146932232478));
#1429=DIRECTION('',(0.999997753863618,-2.11176529607231E-14,0.00211949704394996));
#1430=DIRECTION('',(-0.999997753863618,2.05306432743135E-14,-0.00211949704395185));
#1431=DIRECTION('center_axis',(-0.500000010839624,2.76924316081894E-14,
0.866025397526179));
#1432=DIRECTION('ref_axis',(0.866025397526179,0.,0.500000010839624));
#1433=DIRECTION('',(0.866025397526179,-1.56456379587119E-14,0.500000010839624));
#1434=DIRECTION('',(5.07353482073901E-14,1.,-2.68439812640937E-15));
#1435=DIRECTION('center_axis',(-2.11289446250921E-14,-1.,5.30512930407291E-15));
#1436=DIRECTION('ref_axis',(0.,-5.30512930407291E-15,-1.));
#1437=DIRECTION('',(0.999997753863618,-2.15300872651411E-14,0.00211949704395185));
#1438=DIRECTION('',(-0.00211949704395185,5.34990012370367E-15,0.999997753863618));
#1439=DIRECTION('',(-0.708603903660797,1.87153862674136E-14,0.705606482195763));
#1440=DIRECTION('',(-0.999997753863618,2.11176529607231E-14,-0.00211949704393675));
#1441=DIRECTION('',(-0.705606482195834,1.11494849551308E-14,-0.708603903660726));
#1442=DIRECTION('',(-0.00211949704394958,5.31951712053258E-15,0.999997753863618));
#1443=DIRECTION('',(0.999997753863618,-2.11176529607231E-14,0.00211949704394998));
#1444=DIRECTION('',(-1.56787510735512E-14,5.30512930407324E-15,1.));
#1445=DIRECTION('',(-0.00211888505544336,5.34988719991271E-15,0.999997755160541));
#1446=DIRECTION('',(0.867082902224162,-2.09633703676833E-14,-0.498163869294557));
#1447=DIRECTION('',(0.866025403784441,-1.5645638148448E-14,0.499999999999995));
#1448=DIRECTION('',(-1.,2.11289446250919E-14,-3.02638353165243E-14));
#1449=DIRECTION('',(0.866025403784445,-2.09507674525209E-14,-0.49999999999999));
#1450=DIRECTION('',(0.865800143732051,-2.09480767285074E-14,-0.500389959045503));
#1451=DIRECTION('',(0.00211888505544857,-5.34988719991282E-15,-0.999997755160541));
#1452=DIRECTION('',(1.64231977457397E-14,-5.30512930407326E-15,-1.));
#1453=DIRECTION('',(0.999997753863618,-2.1117652960723E-14,0.00211949704395185));
#1454=DIRECTION('',(0.866025399898536,-2.09507674061224E-14,-0.50000000673058));
#1455=DIRECTION('',(0.999997753863618,-2.11176529607231E-14,0.00211949704395008));
#1456=DIRECTION('',(-0.00211949704394958,5.31951712053258E-15,0.999997753863618));
#1457=DIRECTION('',(-0.999997753863618,2.11176529607231E-14,-0.00211949704395004));
#1458=DIRECTION('',(-0.00211949704394958,5.31951712053258E-15,0.999997753863618));
#1459=DIRECTION('center_axis',(-2.11289446250921E-14,-1.,5.30512930407291E-15));
#1460=DIRECTION('ref_axis',(1.,0.,-3.25079691383323E-14));
#1461=DIRECTION('center_axis',(-2.11289446250921E-14,-1.,5.30512930407291E-15));
#1462=DIRECTION('ref_axis',(1.,0.,-3.25079691383323E-14));
#1463=DIRECTION('center_axis',(-0.00211949704395185,2.79192551743451E-15,
0.999997753863618));
#1464=DIRECTION('ref_axis',(0.999997753863618,0.,0.00211949704395185));
#1465=DIRECTION('',(-0.999997753863618,2.05306432743135E-14,-0.00211949704395185));
#1466=DIRECTION('',(-1.31937969270215E-13,-1.,2.51228902452506E-15));
#1467=DIRECTION('center_axis',(-0.00211949704395185,2.79192551743451E-15,
0.999997753863618));
#1468=DIRECTION('ref_axis',(0.999997753863618,-2.06656244938774E-14,0.00211949704395131));
#1469=DIRECTION('center_axis',(-0.00211949704395185,2.79192551743451E-15,
0.999997753863618));
#1470=DIRECTION('ref_axis',(0.999997753863618,-2.06656244938774E-14,0.00211949704395131));
#1471=DIRECTION('center_axis',(0.00185481383209057,0.483906326959285,-0.875117835719523));
#1472=DIRECTION('ref_axis',(0.0010256380295195,-0.875119801357948,-0.483905240039678));
#1473=DIRECTION('',(0.641301128608151,-0.672044501259779,-0.370255385878999));
#1474=DIRECTION('',(-0.999997753863618,2.05306432743135E-14,-0.00211949704395185));
#1475=DIRECTION('',(-0.0010256380295195,0.875119801357948,0.483905240039678));
#1476=DIRECTION('center_axis',(0.50000000673058,-6.37932794160016E-14,0.866025399898536));
#1477=DIRECTION('ref_axis',(0.866025399898536,0.,-0.50000000673058));
#1478=DIRECTION('center_axis',(-0.00211949704395004,5.55111512312579E-15,
0.999997753863618));
#1479=DIRECTION('ref_axis',(0.999997753863618,0.,0.00211949704395004));
#1480=DIRECTION('',(-2.15329328591197E-14,-1.,5.50548850166133E-15));
#1481=DIRECTION('',(2.19638080196053E-14,1.,-5.50457526098111E-15));
#1482=DIRECTION('center_axis',(-0.999997753863618,2.1521215626611E-14,-0.00211949704394995));
#1483=DIRECTION('ref_axis',(0.00211949704394995,-5.34990012370363E-15,-0.999997753863618));
#1484=DIRECTION('',(2.15325613194037E-14,1.,-5.33019272453298E-15));
#1485=DIRECTION('center_axis',(1.,0.,-3.25079691383323E-14));
#1486=DIRECTION('ref_axis',(-3.25079691383323E-14,0.,-1.));
#1487=DIRECTION('',(0.,-1.,0.));
#1488=DIRECTION('center_axis',(0.999997755160541,-2.15212188830511E-14,
0.00211888505544336));
#1489=DIRECTION('ref_axis',(-0.00211888505544336,5.34988719991271E-15,0.999997755160541));
#1490=DIRECTION('',(-2.15324452901844E-14,-1.,5.27544909609519E-15));
#1491=DIRECTION('center_axis',(0.49999999999999,0.,0.866025403784445));
#1492=DIRECTION('ref_axis',(0.866025403784445,6.00925839494868E-17,-0.49999999999999));
#1493=DIRECTION('',(1.19364993995843E-11,1.,-6.89154114153164E-12));
#1494=DIRECTION('',(-1.80277751848382E-17,1.,1.04083408558561E-17));
#1495=DIRECTION('center_axis',(0.999997753863618,-2.19520917549032E-14,
0.00211949704394958));
#1496=DIRECTION('ref_axis',(2.19633204506701E-14,1.,-5.27453585541496E-15));
#1497=DIRECTION('',(-0.00211949704395131,2.66453525910038E-15,0.999997753863618));
#1498=DIRECTION('center_axis',(0.00211949704395131,-2.66453525910038E-15,
-0.999997753863618));
#1499=DIRECTION('ref_axis',(0.999997753863618,-2.06656244938774E-14,0.00211949704395131));
#1500=DIRECTION('',(0.00211949704395131,-2.66453525910038E-15,-0.999997753863618));
#1501=DIRECTION('center_axis',(0.00211949704395131,-2.66453525910037E-15,
-0.999997753863618));
#1502=DIRECTION('ref_axis',(0.999997753863618,-2.06656244938774E-14,0.00211949704395131));
#1503=DIRECTION('',(0.00211949704395131,-2.66453525910037E-15,-0.999997753863618));
#1504=DIRECTION('center_axis',(2.05362446342939E-14,1.,-2.62101463646046E-15));
#1505=DIRECTION('ref_axis',(-0.999997753863618,2.05306432743135E-14,-0.00211949704395185));
#1506=DIRECTION('center_axis',(0.00211949704394998,-5.37479209829092E-15,
-0.999997753863618));
#1507=DIRECTION('ref_axis',(2.15325591429898E-14,1.,-5.32916587287203E-15));
#1508=DIRECTION('',(-2.15324452901844E-14,-1.,5.32916611418326E-15));
#1509=DIRECTION('',(2.15325591429897E-14,1.,-5.32916587287203E-15));
#1510=DIRECTION('center_axis',(-0.999997753863618,2.1521215626611E-14,-0.00211949704394995));
#1511=DIRECTION('ref_axis',(0.00211949704394995,-5.34990012370363E-15,-0.999997753863618));
#1512=DIRECTION('',(-2.15324452901844E-14,-1.,5.27544909609519E-15));
#1513=DIRECTION('center_axis',(0.00211949704395185,-5.37581895225836E-15,
-0.999997753863618));
#1514=DIRECTION('ref_axis',(2.15325613194037E-14,1.,-5.33019272453297E-15));
#1515=DIRECTION('',(-2.15325613194037E-14,-1.,5.33019272453298E-15));
#1516=DIRECTION('center_axis',(0.,1.,0.));
#1517=DIRECTION('ref_axis',(1.,0.,-3.25079691383323E-14));
#1518=DIRECTION('',(0.,1.,0.));
#1519=DIRECTION('center_axis',(0.,1.,0.));
#1520=DIRECTION('ref_axis',(1.,0.,-3.25079691383323E-14));
#1521=DIRECTION('',(0.,1.,0.));
#1522=DIRECTION('center_axis',(-3.02638353165243E-14,-1.04083408558566E-17,
1.));
#1523=DIRECTION('ref_axis',(-1.,3.15001955952781E-31,-3.02638353165243E-14));
#1524=DIRECTION('',(-1.80277751848398E-17,-1.,-1.04083408558572E-17));
#1525=DIRECTION('center_axis',(0.498163869294557,0.,0.867082902224162));
#1526=DIRECTION('ref_axis',(0.867082902224162,6.01659626442543E-17,-0.498163869294557));
#1527=DIRECTION('',(0.,-1.,0.));
#1528=DIRECTION('center_axis',(-0.500389959045503,6.2071348312546E-15,-0.865800143732051));
#1529=DIRECTION('ref_axis',(0.865800143732051,-2.09480767285074E-14,-0.500389959045503));
#1530=DIRECTION('',(-2.15324452901844E-14,-1.,5.27544909609519E-15));
#1531=DIRECTION('center_axis',(-0.999997755160541,2.15212188830511E-14,
-0.00211888505544857));
#1532=DIRECTION('ref_axis',(0.00211888505544857,-5.34988719991282E-15,-0.999997755160541));
#1533=DIRECTION('',(-2.15324452901844E-14,-1.,5.27544909609519E-15));
#1534=DIRECTION('center_axis',(-1.,2.15324452901843E-14,-1.64231977457398E-14));
#1535=DIRECTION('ref_axis',(1.64231977457397E-14,-5.30512930407326E-15,
-1.));
#1536=DIRECTION('center_axis',(0.999997753863618,-2.1521215626611E-14,0.00211949704395185));
#1537=DIRECTION('ref_axis',(-0.00211949704395185,5.34990012370367E-15,0.999997753863618));
#1538=DIRECTION('',(-2.15324452901844E-14,-1.,5.27544909609519E-15));
#1539=DIRECTION('center_axis',(0.705606482195763,-1.14552291512229E-14,
0.708603903660797));
#1540=DIRECTION('ref_axis',(-0.708603903660797,1.87153862674136E-14,0.705606482195763));
#1541=DIRECTION('',(-2.15324452901844E-14,-1.,5.27544909609519E-15));
#1542=DIRECTION('center_axis',(-0.00211949704393675,5.32107520085831E-15,
0.999997753863618));
#1543=DIRECTION('ref_axis',(-0.999997753863618,2.11176529607231E-14,-0.00211949704393675));
#1544=DIRECTION('',(-2.15324452901844E-14,-1.,5.27544909609519E-15));
#1545=DIRECTION('center_axis',(-0.708603903660726,1.89803658666846E-14,
0.705606482195834));
#1546=DIRECTION('ref_axis',(-0.705606482195834,1.11494849551308E-14,-0.708603903660726));
#1547=DIRECTION('center_axis',(1.,-2.15324452901844E-14,1.56787510735513E-14));
#1548=DIRECTION('ref_axis',(-1.56787510735512E-14,5.30512930407324E-15,
1.));
#1549=DIRECTION('center_axis',(-0.499999999999995,0.,0.866025403784441));
#1550=DIRECTION('ref_axis',(0.866025403784441,6.00925839494866E-17,0.499999999999995));
#1551=DIRECTION('center_axis',(0.,-1.04083408558566E-17,1.));
#1552=DIRECTION('ref_axis',(-1.84680497938305E-14,-1.,-1.04083408558566E-17));
#1553=DIRECTION('',(0.,1.04083408558566E-17,-1.));
#1554=DIRECTION('center_axis',(3.02638353165243E-14,1.04083408558566E-17,
-1.));
#1555=DIRECTION('ref_axis',(-1.,5.6423728839447E-36,0.));
#1556=DIRECTION('',(0.,-1.04083408558566E-17,1.));
#1557=DIRECTION('center_axis',(-5.42101086242752E-19,1.04083408558608E-17,
-1.));
#1558=DIRECTION('ref_axis',(-1.,0.,5.42101086242752E-19));
#1559=DIRECTION('center_axis',(-5.42101086242752E-19,0.,-1.));
#1560=DIRECTION('ref_axis',(-1.,-6.93889390390723E-17,5.42101086242752E-19));
#1561=DIRECTION('',(1.,-1.74261646779251E-14,-5.42101086242752E-19));
#1562=DIRECTION('center_axis',(-3.02638353165243E-14,-1.04083408558566E-17,
1.));
#1563=DIRECTION('ref_axis',(-1.,3.15001955952781E-31,-3.02638353165243E-14));
#1564=DIRECTION('',(-1.,1.7426164677925E-14,-3.02638353165243E-14));
#1565=DIRECTION('center_axis',(1.74261646779251E-14,1.,-3.19536064274935E-15));
#1566=DIRECTION('ref_axis',(0.,3.19536064274936E-15,1.));
#1567=CARTESIAN_POINT('',(0.,0.,0.));
#1568=CARTESIAN_POINT('Origin',(-33.4994690356263,5.40000000000114,4.75441192283348));
#1569=CARTESIAN_POINT('',(-5.36689599880014,5.40000000000065,3.));
#1570=CARTESIAN_POINT('',(-3.63298970098696,5.40000000000062,3.));
#1571=CARTESIAN_POINT('',(-16.7497345178131,5.40000000000085,3.));
#1572=CARTESIAN_POINT('',(-5.36689599880014,5.40000000000065,2.83419780457068));
#1573=CARTESIAN_POINT('',(-5.36689599880016,5.40000000000064,-4.44089209850063E-15));
#1574=CARTESIAN_POINT('',(-3.63298970098696,5.40000000000062,2.83419780457073));
#1575=CARTESIAN_POINT('',(-16.7497345178132,5.40000000000085,2.83419780457019));
#1576=CARTESIAN_POINT('',(-3.63298970098694,5.40000000000061,-4.44089209850063E-15));
#1577=CARTESIAN_POINT('Origin',(0.,0.,3.));
#1578=CARTESIAN_POINT('Origin',(-4.49994284989359,3.48730759461988,3.));
#1579=CARTESIAN_POINT('Origin',(-4.49994284989359,3.48730759461988,-4.40215558847963E-15));
#1580=CARTESIAN_POINT('Origin',(-4.49994284989359,3.48730759461988,2.8341978045707));
#1581=CARTESIAN_POINT('Origin',(-8.88178419700125E-14,6.81133152752789,
2.8341978045707));
#1582=CARTESIAN_POINT('Origin',(-51.2368678417464,-4.23699856758139,50.702270392379));
#1583=CARTESIAN_POINT('',(-0.684490559258317,-3.73699856758243,51.3094173703288));
#1584=CARTESIAN_POINT('',(-66.4844905592569,-3.73699856758107,51.1699541515834));
#1585=CARTESIAN_POINT('',(-42.411209074763,-3.73699856758157,51.2209775151334));
#1586=CARTESIAN_POINT('',(-66.4791918166471,-6.23699856758108,48.6699597669244));
#1587=CARTESIAN_POINT('',(-66.4631621841309,-13.799940239105,41.1070350827989));
#1588=CARTESIAN_POINT('',(-0.67919181664849,-6.23699856758244,48.8094229856698));
#1589=CARTESIAN_POINT('',(-51.2326288476585,-6.2369985675814,48.7022748846517));
#1590=CARTESIAN_POINT('',(-0.65951944192463,-15.5186226114709,39.5278197895748));
#1591=CARTESIAN_POINT('Origin',(-66.3999999999873,-3.12527051054083,11.3065489472933));
#1592=CARTESIAN_POINT('',(-66.4844905592566,10.9416081103191,51.1699541515834));
#1593=CARTESIAN_POINT('',(-66.4844905592569,-3.68113453906088,51.1699541515834));
#1594=CARTESIAN_POINT('',(-66.4770723196028,10.9416081103191,47.6699620130607));
#1595=CARTESIAN_POINT('',(-66.4770723196028,10.9416081103191,47.6699620130607));
#1596=CARTESIAN_POINT('',(-66.4608144732181,-3.125270510541,39.9993639747185));
#1597=CARTESIAN_POINT('',(-66.4770723196027,10.9416081103191,47.6699620130607));
#1598=CARTESIAN_POINT('',(-66.3999999999873,-3.12527051054083,11.3065489472933));
#1599=CARTESIAN_POINT('',(-66.3999999999873,-3.12527051054083,11.3065489472933));
#1600=CARTESIAN_POINT('',(-66.3999999999875,-10.,11.3065489472934));
#1601=CARTESIAN_POINT('',(-66.3999999999873,-3.12527051054083,11.3065489472933));
#1602=CARTESIAN_POINT('',(-66.4791918166472,-9.99999999999854,48.6699597669244));
#1603=CARTESIAN_POINT('',(-66.3999999999875,-10.,11.3065489472934));
#1604=CARTESIAN_POINT('',(-66.479191816647,-4.62188489716525,48.6699597669244));
#1605=CARTESIAN_POINT('Origin',(-33.5844905592575,4.35230477136835,51.2396857609561));
#1606=CARTESIAN_POINT('',(-0.684490559258022,10.9416081103178,51.3094173703288));
#1607=CARTESIAN_POINT('',(-0.684490559258388,-7.11849928379119,51.3094173703288));
#1608=CARTESIAN_POINT('',(-17.1344905592577,10.9416081103181,51.2745515656424));
#1609=CARTESIAN_POINT('',(-41.3759042689113,4.94160811031863,51.2231718455378));
#1610=CARTESIAN_POINT('Origin',(-39.375908761184,4.94160811031859,51.2274108396257));
#1611=CARTESIAN_POINT('',(-30.7097324904179,4.94160811031842,51.2457788158709));
#1612=CARTESIAN_POINT('Origin',(-28.7097369826907,4.94160811031838,51.2500178099588));
#1613=CARTESIAN_POINT('Origin',(-33.4994690356263,2.70000000000084,-3.66988393445157));
#1614=CARTESIAN_POINT('',(-0.598938071265096,-10.,-3.66988393445154));
#1615=CARTESIAN_POINT('',(-0.598938071265031,5.40000000000054,-3.66988393445159));
#1616=CARTESIAN_POINT('',(-0.598938071265094,4.05000000000069,-3.66988393445159));
#1617=CARTESIAN_POINT('',(-66.3999999999877,-10.,-3.66988393445152));
#1618=CARTESIAN_POINT('',(-17.0492035534457,-10.,-3.66988393445153));
#1619=CARTESIAN_POINT('',(-66.3999999999868,5.40000000000169,-3.66988393445158));
#1620=CARTESIAN_POINT('',(-66.3999999999877,-3.6499999999996,-3.66988393445154));
#1621=CARTESIAN_POINT('',(-49.9497345178065,5.4000000000014,-3.66988393445158));
#1622=CARTESIAN_POINT('Origin',(-33.4994690356263,2.70000000000084,-3.66988393445157));
#1623=CARTESIAN_POINT('',(-0.598938071264854,15.4000000000005,-3.66988393445163));
#1624=CARTESIAN_POINT('',(-66.3999999999867,15.4000000000017,-3.66988393445161));
#1625=CARTESIAN_POINT('',(-49.9497345178064,15.4000000000014,-3.66988393445161));
#1626=CARTESIAN_POINT('',(-0.59893807126491,12.2118265568843,-3.66988393445161));
#1627=CARTESIAN_POINT('',(-0.598938071264967,9.0500000000004,-3.6698839344516));
#1628=CARTESIAN_POINT('',(-66.3999999999868,12.2118265568855,-3.6698839344516));
#1629=CARTESIAN_POINT('',(-17.0492035534455,12.2118265568846,-3.66988393445161));
#1630=CARTESIAN_POINT('',(-66.3999999999868,7.45591327844347,-3.66988393445158));
#1631=CARTESIAN_POINT('Origin',(-0.598938071264911,12.2118265568843,1.83006526544464));
#1632=CARTESIAN_POINT('',(-0.598938071264911,12.2118265568843,1.83006526544464));
#1633=CARTESIAN_POINT('',(-0.598938071264911,12.2118265568843,1.83006526544464));
#1634=CARTESIAN_POINT('',(-66.3999999999868,12.2118265568855,1.83006526544464));
#1635=CARTESIAN_POINT('',(-0.598938071264907,12.2118265568843,1.83006526544464));
#1636=CARTESIAN_POINT('',(-66.3999999999868,12.2118265568855,1.83006526544464));
#1637=CARTESIAN_POINT('Origin',(-60.0499999999914,-10.,4.01258437087035));
#1638=CARTESIAN_POINT('',(-0.598938071264807,-10.,8.88224702015267));
#1639=CARTESIAN_POINT('',(-0.598938071265096,-9.99999999999999,1.83006526544471));
#1640=CARTESIAN_POINT('',(-0.599999999988842,-10.,9.38341924626906));
#1641=CARTESIAN_POINT('',(-0.594389872396344,-10.,6.73574612957458));
#1642=CARTESIAN_POINT('',(-0.599999999988866,-10.,10.947753756777));
#1643=CARTESIAN_POINT('',(-0.599999999988812,-10.,7.55321266464451));
#1644=CARTESIAN_POINT('',(-9.65436779862735,-10.,10.9285630078879));
#1645=CARTESIAN_POINT('',(-34.8593998856498,-10.,10.8751408968934));
#1646=CARTESIAN_POINT('',(-9.64636284144636,-10.,7.15175226705036));
#1647=CARTESIAN_POINT('',(-9.64943281361331,-10.,8.6001927261364));
#1648=CARTESIAN_POINT('',(-10.6442410982661,-10.,6.14963501614285));
#1649=CARTESIAN_POINT('',(-15.9412270843819,-10.,0.830147395058197));
#1650=CARTESIAN_POINT('',(-56.344138449833,-10.,6.05277400123494));
#1651=CARTESIAN_POINT('',(-22.0716183394529,-10.,6.125414669458));
#1652=CARTESIAN_POINT('',(-57.3462557007407,-10.,7.05065225805459));
#1653=CARTESIAN_POINT('',(-50.5260001995468,-10.,0.259246697046916));
#1654=CARTESIAN_POINT('',(-57.3928846357076,-9.99999999999991,29.050602843053));
#1655=CARTESIAN_POINT('',(-57.3553167127752,-10.,11.325719169843));
#1656=CARTESIAN_POINT('',(-9.69299177641326,-10.0000000000009,29.1517028520495));
#1657=CARTESIAN_POINT('',(-57.3928846357076,-9.99999999999991,29.050602843053));
#1658=CARTESIAN_POINT('',(-9.68260624089791,-9.99999999999999,24.2517138581179));
#1659=CARTESIAN_POINT('',(-9.64943281361331,-10.,8.6001927261364));
#1660=CARTESIAN_POINT('',(-0.627182387405921,-9.99999999999993,24.2709068453171));
#1661=CARTESIAN_POINT('',(-32.6237823645473,-10.,24.2030899939232));
#1662=CARTESIAN_POINT('',(-0.679191816648581,-9.9999999999999,48.8094229856698));
#1663=CARTESIAN_POINT('',(-0.599999999988876,-10.,11.4460121660386));
#1664=CARTESIAN_POINT('',(-47.1486927098882,-10.,48.7109307946658));
#1665=CARTESIAN_POINT('',(-66.3999999999874,-10.,9.38341924626897));
#1666=CARTESIAN_POINT('',(-66.3999999999874,-10.,8.51477751515614));
#1667=CARTESIAN_POINT('',(-66.3963880199775,-10.,7.67876240691155));
#1668=CARTESIAN_POINT('',(-66.3960481521293,-10.,7.5183633874198));
#1669=CARTESIAN_POINT('',(-62.9179491924186,-10.,5.66839560914029));
#1670=CARTESIAN_POINT('',(-53.6423285575199,-10.,0.307542457035677));
#1671=CARTESIAN_POINT('',(-66.3999999999875,-10.,7.6787585802223));
#1672=CARTESIAN_POINT('',(-53.0999999999873,-10.,4.16333634234434E-13));
#1673=CARTESIAN_POINT('',(-66.3999999999877,-10.,1.83006526544471));
#1674=CARTESIAN_POINT('',(-6.75,-10.,8.00000000000005));
#1675=CARTESIAN_POINT('Origin',(-5.,-10.,7.99999999999999));
#1676=CARTESIAN_POINT('',(-63.7499999999955,-10.,8.00000000000005));
#1677=CARTESIAN_POINT('Origin',(-61.9999999999955,-10.,7.99999999999999));
#1678=CARTESIAN_POINT('Origin',(-0.598938071265096,-10.,1.55431223447522E-14));
#1679=CARTESIAN_POINT('',(-0.598938071265032,5.40000000000056,1.83006526544466));
#1680=CARTESIAN_POINT('',(-0.598938071265032,5.40000000000056,1.83006526544466));
#1681=CARTESIAN_POINT('',(-0.598938071264667,15.4000000000006,7.67729165694226));
#1682=CARTESIAN_POINT('',(-0.598938071264663,15.4000000000006,7.67729165694226));
#1683=CARTESIAN_POINT('',(-0.598938071264847,-3.12527051054224,7.6772916569423));
#1684=CARTESIAN_POINT('',(-0.598938071264845,5.40000000000058,7.6772916569423));
#1685=CARTESIAN_POINT('',(-0.598938071264807,-3.12527051054223,8.88224702015267));
#1686=CARTESIAN_POINT('',(-0.598938071265001,-3.12527051054226,2.86150304150918));
#1687=CARTESIAN_POINT('',(-0.598938071264789,-6.56263525527112,8.88224702015267));
#1688=CARTESIAN_POINT('',(-0.598938071265034,5.40000000000056,1.91968964505502));
#1689=CARTESIAN_POINT('Origin',(-3.89994284988946,8.8873075946203,1.83006526544465));
#1690=CARTESIAN_POINT('',(-1.79994284988945,8.88730759462026,1.83006526544465));
#1691=CARTESIAN_POINT('Origin',(-3.89994284988946,8.8873075946203,1.83006526544465));
#1692=CARTESIAN_POINT('',(-1.79994284988945,8.88730759462027,6.9846084348258));
#1693=CARTESIAN_POINT('',(-1.79994284988945,8.88730759462026,1.83006526544465));
#1694=CARTESIAN_POINT('',(-4.08205080755742,10.979396668191,5.66839560914041));
#1695=CARTESIAN_POINT('Origin',(-3.89994284988946,8.88730759462031,5.77342693718804));
#1696=CARTESIAN_POINT('',(-4.08205080755742,6.79521852104957,5.66839560914041));
#1697=CARTESIAN_POINT('Origin',(-3.89994284988946,8.88730759462031,5.77353568752157));
#1698=CARTESIAN_POINT('Origin',(-3.89994284988946,8.88730759462031,5.77342693718804));
#1699=CARTESIAN_POINT('Origin',(-61.9000596901038,8.88730759462134,1.83006526544465));
#1700=CARTESIAN_POINT('',(-59.8000596901038,8.8873075946213,1.83006526544465));
#1701=CARTESIAN_POINT('Origin',(-61.9000596901038,8.88730759462134,1.83006526544465));
#1702=CARTESIAN_POINT('',(-59.8000596901038,8.88730759462131,3.8682812656756));
#1703=CARTESIAN_POINT('',(-59.8000596901038,8.8873075946213,1.83006526544465));
#1704=CARTESIAN_POINT('Origin',(-61.9000596901038,8.88730759462135,5.08071683097379));
#1705=CARTESIAN_POINT('Origin',(-13.8999999999883,-9.64506252642294E-16,
4.47419878923938E-13));
#1706=CARTESIAN_POINT('',(-4.08205080755724,15.4000000000006,5.66839560914038));
#1707=CARTESIAN_POINT('',(-4.08205080755742,-2.83249174639998E-16,5.66839560914041));
#1708=CARTESIAN_POINT('',(-8.99102540377267,15.4000000000007,2.8341978045704));
#1709=CARTESIAN_POINT('',(-8.99102540377267,15.4000000000007,2.8341978045704));
#1710=CARTESIAN_POINT('',(-8.99102540377286,-3.12527051054209,2.83419780457043));
#1711=CARTESIAN_POINT('',(-8.99102540377286,3.40566576376394,2.83419780457043));
#1712=CARTESIAN_POINT('',(-4.08205080755746,-3.12527051054218,5.6683956091403));
#1713=CARTESIAN_POINT('',(-20.0102555902596,-3.12527051054189,-3.52775770986004));
#1714=CARTESIAN_POINT('',(-4.08205080755742,-2.83249174639998E-16,5.66839560914041));
#1715=CARTESIAN_POINT('Origin',(-0.598938071265032,5.40000000000056,1.83006526544466));
#1716=CARTESIAN_POINT('',(-66.3999999999868,5.40000000000171,1.83006526544466));
#1717=CARTESIAN_POINT('',(-17.0492035534457,5.40000000000085,1.83006526544466));
#1718=CARTESIAN_POINT('',(-66.3999999999868,5.40000000000171,1.83006526544466));
#1719=CARTESIAN_POINT('Origin',(-33.4994690356261,15.4000000000011,4.75441192283345));
#1720=CARTESIAN_POINT('',(-58.0089745962002,15.4000000000016,2.83419780456891));
#1721=CARTESIAN_POINT('',(-48.1910254037737,15.4000000000014,2.83419780456921));
#1722=CARTESIAN_POINT('',(-58.0089745962002,15.4000000000016,2.83419780456891));
#1723=CARTESIAN_POINT('',(-43.2959731586406,15.4000000000013,5.66035753599409));
#1724=CARTESIAN_POINT('',(-48.1910254037738,15.4000000000014,2.83419780456921));
#1725=CARTESIAN_POINT('',(-38.3768793962952,15.4000000000012,2.83419780456951));
#1726=CARTESIAN_POINT('',(-43.2959731586406,15.4000000000013,5.66035753599409));
#1727=CARTESIAN_POINT('',(-28.5910254037732,15.4000000000011,2.8341978045698));
#1728=CARTESIAN_POINT('',(-38.3768793962952,15.4000000000012,2.83419780456951));
#1729=CARTESIAN_POINT('',(-23.6999999999879,15.400000000001,5.65803263805851));
#1730=CARTESIAN_POINT('',(-28.5910254037732,15.4000000000011,2.8341978045698));
#1731=CARTESIAN_POINT('',(-18.8089745962031,15.4000000000009,2.8341978045701));
#1732=CARTESIAN_POINT('',(-23.6999999999879,15.400000000001,5.65803263805851));
#1733=CARTESIAN_POINT('',(-18.8089745962031,15.4000000000009,2.8341978045701));
#1734=CARTESIAN_POINT('',(-4.08205080755724,15.4000000000006,5.66839560914038));
#1735=CARTESIAN_POINT('',(-66.3999999999873,15.4000000000017,7.67875858022227));
#1736=CARTESIAN_POINT('',(-66.3999999999867,15.4000000000017,1.83006526544463));
#1737=CARTESIAN_POINT('',(-66.3999999999873,15.4000000000017,7.67875858022227));
#1738=CARTESIAN_POINT('Origin',(-33.4994690356263,5.40000000000114,3.83937929011114));
#1739=CARTESIAN_POINT('',(-66.3999999999875,5.40000000000172,6.61139926819057));
#1740=CARTESIAN_POINT('Origin',(-4.08205080755742,-2.83249174639998E-16,
5.66839560914041));
#1741=CARTESIAN_POINT('',(-15.1069920302547,-3.12527051054198,-0.690273353466564));
#1742=CARTESIAN_POINT('Origin',(-8.88178419700125E-14,6.81133152752789,
2.8341978045707));
#1743=CARTESIAN_POINT('',(-18.8089745962033,-3.12527051054188,2.83419780457013));
#1744=CARTESIAN_POINT('',(-18.8089745962033,5.40000000000088,2.83419780457013));
#1745=CARTESIAN_POINT('',(-16.7490970049916,-3.12527051054192,2.83419780457019));
#1746=CARTESIAN_POINT('Origin',(-23.6999999999881,-1.64451785522519E-15,
5.65803263805854));
#1747=CARTESIAN_POINT('',(-23.6999999999881,-3.12527051054176,5.65803263805843));
#1748=CARTESIAN_POINT('',(-23.6999999999881,-1.64451785522519E-15,5.65803263805854));
#1749=CARTESIAN_POINT('',(-27.3883899172132,-3.12527051054167,7.78752554964468));
#1750=CARTESIAN_POINT('Origin',(-30.0179491924191,-2.08291364659074E-15,
2.01036297108218));
#1751=CARTESIAN_POINT('',(-28.5910254037734,-3.12527051054167,2.83419780456984));
#1752=CARTESIAN_POINT('',(-28.5910254037734,3.40566576376394,2.83419780456984));
#1753=CARTESIAN_POINT('',(-30.5192301864749,-3.12527051054164,1.72094825422444));
#1754=CARTESIAN_POINT('Origin',(-8.88178419700125E-14,6.81133152752789,
2.8341978045707));
#1755=CARTESIAN_POINT('',(-38.3768793962954,-3.12527051054147,2.83419780456954));
#1756=CARTESIAN_POINT('',(-38.3768793962954,3.40566576376394,2.83419780456954));
#1757=CARTESIAN_POINT('',(-16.7490970049916,-3.12527051054192,2.83419780457019));
#1758=CARTESIAN_POINT('Origin',(-34.1527055755911,-6.11849928379048,48.73847581285));
#1759=CARTESIAN_POINT('',(-0.67919181664853,-8.05924964189555,48.8094229856698));
#1760=CARTESIAN_POINT('Origin',(-66.4608144732181,-3.125270510541,39.9993639747185));
#1761=CARTESIAN_POINT('',(-56.6346678062974,-3.12527051054121,40.0201905103117));
#1762=CARTESIAN_POINT('',(-43.2997895117886,10.9416081103186,47.7190863057985));
#1763=CARTESIAN_POINT('',(-55.3119114290698,-1.7299031894093,40.7838842828514));
#1764=CARTESIAN_POINT('',(-50.0159025180836,-3.12527051054102,40.0342189952848));
#1765=CARTESIAN_POINT('',(-0.677072319604195,10.9416081103178,47.8094252318062));
#1766=CARTESIAN_POINT('Origin',(-49.967228659043,3.90816879988871,43.8696384080552));
#1767=CARTESIAN_POINT('',(-43.2997895117893,-3.12527051054114,47.7190863057986));
#1768=CARTESIAN_POINT('',(-52.0503290398469,-3.12527051054097,42.666959807685));
#1769=CARTESIAN_POINT('',(-43.2997895117889,2.18948642752391,47.7190863057986));
#1770=CARTESIAN_POINT('Origin',(-33.4981940099831,-3.12527051054155,5.72300608301945));
#1771=CARTESIAN_POINT('',(-57.3928846357074,-3.12527051054111,29.050602843053));
#1772=CARTESIAN_POINT('',(-9.69299177641311,-3.12527051054193,29.1517028520495));
#1773=CARTESIAN_POINT('',(-57.3928846357074,-3.12527051054111,29.050602843053));
#1774=CARTESIAN_POINT('',(-57.3462557007405,-3.12527051054104,7.05065225805456));
#1775=CARTESIAN_POINT('',(-57.3462557007405,-3.12527051054104,7.05065225805456));
#1776=CARTESIAN_POINT('',(-56.3441384498329,-3.12527051054107,6.0527740012349));
#1777=CARTESIAN_POINT('',(-56.3441384498329,-3.12527051054107,6.0527740012349));
#1778=CARTESIAN_POINT('',(-10.6442410982659,-3.12527051054203,6.14963501614281));
#1779=CARTESIAN_POINT('',(-10.6442410982659,-3.12527051054203,6.14963501614281));
#1780=CARTESIAN_POINT('',(-9.64636284144622,-3.12527051054205,7.15175226705033));
#1781=CARTESIAN_POINT('',(-9.64636284144622,-3.12527051054205,7.15175226705033));
#1782=CARTESIAN_POINT('',(-9.6543677986272,-3.12527051054218,10.9285630078878));
#1783=CARTESIAN_POINT('',(-9.65542385348071,-3.12527051054203,11.4268191788394));
#1784=CARTESIAN_POINT('',(-0.599999999988718,-3.12527051054237,10.9477537567769));
#1785=CARTESIAN_POINT('',(-21.5817439167459,-3.12527051054178,10.9032829126809));
#1786=CARTESIAN_POINT('',(-0.599999999988694,-3.12527051054223,9.38341924626902));
#1787=CARTESIAN_POINT('',(-0.599999999988694,-3.12527051054223,9.38341924626902));
#1788=CARTESIAN_POINT('',(-0.596388019978806,-3.12527051054224,7.67876240691157));
#1789=CARTESIAN_POINT('',(-43.2959731586408,-3.12527051054135,5.66035753599401));
#1790=CARTESIAN_POINT('',(-39.6263579926441,-3.12527051054144,3.55205891169223));
#1791=CARTESIAN_POINT('',(-48.1910254037739,-3.12527051054126,2.83419780456924));
#1792=CARTESIAN_POINT('',(-44.5102555902589,-3.12527051054132,4.95929124722717));
#1793=CARTESIAN_POINT('',(-58.0089745962003,-3.12527051054105,2.83419780456894));
#1794=CARTESIAN_POINT('',(-16.7490970049916,-3.12527051054192,2.83419780457019));
#1795=CARTESIAN_POINT('',(-62.9179491924184,-3.12527051054093,5.66839560914026));
#1796=CARTESIAN_POINT('',(-53.9383899172166,-3.12527051054115,0.484044644398557));
#1797=CARTESIAN_POINT('',(-66.3963880199774,-3.12527051054085,7.67876240691152));
#1798=CARTESIAN_POINT('',(-66.3963880199774,-3.12527051054085,7.67876240691152));
#1799=CARTESIAN_POINT('',(-66.3999999999873,-3.12527051054084,9.38341924626893));
#1800=CARTESIAN_POINT('',(-66.3999999999873,-3.12527051054084,9.38341924626893));
#1801=CARTESIAN_POINT('',(-66.3999999999875,-3.12527051054078,21.3316150746185));
#1802=CARTESIAN_POINT('',(-23.8233812779279,-3.12527051054173,47.7603665881983));
#1803=CARTESIAN_POINT('',(-33.5821603644689,-3.12527051054133,47.7396828383132));
#1804=CARTESIAN_POINT('',(-10.4000066075862,-3.1252705105422,40.0103774697448));
#1805=CARTESIAN_POINT('',(-14.9942367442454,-3.12527051054175,42.6628575234714));
#1806=CARTESIAN_POINT('',(-0.660585976079773,-3.12527051054241,40.0310201893495));
#1807=CARTESIAN_POINT('',(-17.1156740209445,-3.12527051054172,39.996143600543));
#1808=CARTESIAN_POINT('',(-0.62718238740577,-3.1252705105423,24.2709068453171));
#1809=CARTESIAN_POINT('',(-0.599999999988725,-3.12527051054222,11.4460121660386));
#1810=CARTESIAN_POINT('',(-9.68260624089776,-3.12527051054211,24.2517138581178));
#1811=CARTESIAN_POINT('',(-19.3461263956435,-3.12527051054175,24.2312320097107));
#1812=CARTESIAN_POINT('',(-9.65542385348071,-3.12527051054203,11.4268191788394));
#1813=CARTESIAN_POINT('',(-6.75,-3.12527051054155,8.00000000000005));
#1814=CARTESIAN_POINT('Origin',(-5.,-3.12527051054155,7.99999999999999));
#1815=CARTESIAN_POINT('',(-63.7499999999955,-3.12527051054155,8.00000000000005));
#1816=CARTESIAN_POINT('Origin',(-61.9999999999955,-3.12527051054155,7.99999999999999));
#1817=CARTESIAN_POINT('Origin',(-33.5770723196037,0.470804055158947,47.7396936224335));
#1818=CARTESIAN_POINT('',(-23.8233812779261,10.9416081103183,47.7603665881983));
#1819=CARTESIAN_POINT('',(-0.677072319604195,10.9416081103178,47.8094252318062));
#1820=CARTESIAN_POINT('',(-23.8233812779271,2.1894864275233,47.7603665881982));
#1821=CARTESIAN_POINT('',(-30.7023142507641,4.94160811031841,47.7457866773483));
#1822=CARTESIAN_POINT('Origin',(-28.7023187430369,4.94160811031837,47.7500256714362));
#1823=CARTESIAN_POINT('',(-41.3684860292574,4.94160811031862,47.7231797070151));
#1824=CARTESIAN_POINT('Origin',(-39.3684905215302,4.94160811031858,47.727418701103));
#1825=CARTESIAN_POINT('Origin',(-0.67707231960417,10.9416081103178,47.8094252318062));
#1826=CARTESIAN_POINT('',(-15.7137038648692,2.44316039315299,43.0782420666925));
#1827=CARTESIAN_POINT('',(-0.677072319604195,10.9416081103178,47.8094252318062));
#1828=CARTESIAN_POINT('',(-0.677072319604195,10.9416081103178,47.8094252318062));
#1829=CARTESIAN_POINT('',(-0.660585976079773,-3.12527051054241,40.0310201893495));
#1830=CARTESIAN_POINT('Origin',(-17.1116939427562,3.90816879988805,43.8853720289716));
#1831=CARTESIAN_POINT('Origin',(-5.15489431415184,-6.56263525527105,24.2613103517175));
#1832=CARTESIAN_POINT('',(-9.68260624089779,-4.84395288290646,24.2517138581178));
#1833=CARTESIAN_POINT('',(-0.627182387405883,-8.28131762763554,24.2709068453171));
#1834=CARTESIAN_POINT('Origin',(-9.65542385348071,-3.12527051054203,11.4268191788394));
#1835=CARTESIAN_POINT('',(-9.69299177641318,-6.56263525527143,29.1517028520495));
#1836=CARTESIAN_POINT('Origin',(-66.3999999999874,-10.,9.38341924626897));
#1837=CARTESIAN_POINT('',(-66.3999999999875,-5.,7.6787585802223));
#1838=CARTESIAN_POINT('Origin',(-0.596388019978806,-3.12527051054224,7.67876240691157));
#1839=CARTESIAN_POINT('',(-0.599999999988694,-3.12527051054223,9.38341924626902));
#1840=CARTESIAN_POINT('Origin',(-66.9999999999955,-4.64905891561754E-15,
8.0251687417407));
#1841=CARTESIAN_POINT('',(-62.9179491926775,-1.5626352553306,5.66839560928999));
#1842=CARTESIAN_POINT('',(-58.0089745962003,3.40566576376394,2.83419780456895));
#1843=CARTESIAN_POINT('Origin',(-0.599999999988876,-10.,11.4460121660386));
#1844=CARTESIAN_POINT('',(-0.677072319604195,10.9416081103178,47.8094252318062));
#1845=CARTESIAN_POINT('Origin',(-39.37908800675,4.94160811031859,52.7274074704211));
#1846=CARTESIAN_POINT('',(-41.3790835144772,4.94160811031863,52.7231684763332));
#1847=CARTESIAN_POINT('Origin',(-28.7129162282566,4.94160811031838,52.7500144407542));
#1848=CARTESIAN_POINT('',(-30.7129117359838,4.94160811031842,52.7457754466663));
#1849=CARTESIAN_POINT('Origin',(-0.677072319604195,10.9416081103178,47.8094252318062));
#1850=CARTESIAN_POINT('Origin',(-9.65436779862738,-11.5969409384545,10.9285630078879));
#1851=CARTESIAN_POINT('',(-0.599999999988809,-7.36110572449846,10.9477537567769));
#1852=CARTESIAN_POINT('',(-9.65436779862729,-7.36110572449827,10.9285630078879));
#1853=CARTESIAN_POINT('Origin',(-9.65542385348071,-3.12527051054203,11.4268191788394));
#1854=CARTESIAN_POINT('',(-9.64636284144622,-3.12527051054205,7.15175226705033));
#1855=CARTESIAN_POINT('Origin',(-57.3928846357076,-9.99999999999991,29.050602843053));
#1856=CARTESIAN_POINT('',(-57.3928846357075,-6.56263525527042,29.050602843053));
#1857=CARTESIAN_POINT('Origin',(-61.9999999999955,-10.,7.99999999999999));
#1858=CARTESIAN_POINT('',(-63.7499999999955,-10.,8.00000000000005));
#1859=CARTESIAN_POINT('Origin',(-5.,-10.,7.99999999999999));
#1860=CARTESIAN_POINT('',(-6.75,-10.,8.00000000000005));
#1861=CARTESIAN_POINT('Origin',(-8.88178419700125E-14,6.81133152752789,
2.8341978045707));
#1862=CARTESIAN_POINT('',(-48.1910254037739,3.40566576376394,2.83419780456924));
#1863=CARTESIAN_POINT('Origin',(-43.2959731586408,-3.00426164214224E-15,
5.66035753599412));
#1864=CARTESIAN_POINT('',(-43.2959731586408,-3.00426164214224E-15,5.66035753599412));
#1865=CARTESIAN_POINT('Origin',(-66.3963880199774,-3.12527051054085,7.67876240691152));
#1866=CARTESIAN_POINT('',(-66.3963880199774,-3.12527051054085,7.67876240691152));
#1867=CARTESIAN_POINT('Origin',(-66.3999999999873,-3.12527051054084,9.38341924626893));
#1868=CARTESIAN_POINT('',(-66.3999999999873,-3.12527051054084,9.38341924626893));
#1869=CARTESIAN_POINT('Origin',(-66.3999999999873,-3.12527051054083,11.3065489472933));
#1870=CARTESIAN_POINT('Origin',(-57.3462557007405,-3.12527051054104,7.05065225805456));
#1871=CARTESIAN_POINT('',(-57.3462557007405,-3.12527051054104,7.05065225805456));
#1872=CARTESIAN_POINT('Origin',(-56.3441384498329,-3.12527051054107,6.0527740012349));
#1873=CARTESIAN_POINT('',(-56.3441384498329,-3.12527051054107,6.0527740012349));
#1874=CARTESIAN_POINT('Origin',(-10.6442410982659,-3.12527051054203,6.14963501614281));
#1875=CARTESIAN_POINT('',(-10.6442410982659,-3.12527051054203,6.14963501614281));
#1876=CARTESIAN_POINT('Origin',(-9.64636284144622,-3.12527051054205,7.15175226705033));
#1877=CARTESIAN_POINT('Origin',(-0.599999999988694,-3.12527051054223,9.38341924626902));
#1878=CARTESIAN_POINT('Origin',(-53.0999999999873,-3.68455266297386E-15,
4.18554080283684E-13));
#1879=CARTESIAN_POINT('Origin',(-62.5000596901123,3.4873075946199,-4.37071366213834E-15));
#1880=CARTESIAN_POINT('',(-61.6331065412079,5.40000000000163,3.));
#1881=CARTESIAN_POINT('',(-61.6331065412079,5.40000000000163,2.83419780457073));
#1882=CARTESIAN_POINT('',(-61.6331065412078,5.40000000000162,-4.43093812124681E-15));
#1883=CARTESIAN_POINT('',(-63.3670128390166,5.40000000000166,2.83419780457067));
#1884=CARTESIAN_POINT('Origin',(-62.5000596901123,3.4873075946199,2.8341978045707));
#1885=CARTESIAN_POINT('',(-63.3670128390166,5.40000000000166,3.));
#1886=CARTESIAN_POINT('',(-63.3670128390167,5.40000000000165,-4.43093812124681E-15));
#1887=CARTESIAN_POINT('Origin',(-62.5000596901123,3.4873075946199,3.));
#1888=CARTESIAN_POINT('Origin',(-58.9999999999955,-4.09394740330496E-15,
3.));
#1889=CARTESIAN_POINT('',(-46.2497345178109,5.40000000000136,3.));
#1890=CARTESIAN_POINT('Origin',(-8.88178419700125E-14,6.81133152752789,
2.8341978045707));
#1891=CARTESIAN_POINT('',(-16.7497345178132,5.40000000000085,2.83419780457019));
#1892=CARTESIAN_POINT('Origin',(-33.4994690356263,5.40000000000114,4.75441192283348));
#1893=CARTESIAN_POINT('',(0.,-10.,0.));
#1894=CARTESIAN_POINT('',(9.76996261670138E-14,5.40000000000055,-1.72549474708483E-14));
#1895=UNCERTAINTY_MEASURE_WITH_UNIT(LENGTH_MEASURE(0.01),#1899,
'DISTANCE_ACCURACY_VALUE',
'Maximum model space distance between geometric entities at asserted c
onnectivities');
#1896=UNCERTAINTY_MEASURE_WITH_UNIT(LENGTH_MEASURE(0.01),#1899,
'DISTANCE_ACCURACY_VALUE',
'Maximum model space distance between geometric entities at asserted c
onnectivities');
#1897=(
GEOMETRIC_REPRESENTATION_CONTEXT(3)
GLOBAL_UNCERTAINTY_ASSIGNED_CONTEXT((#1895))
GLOBAL_UNIT_ASSIGNED_CONTEXT((#1899,#1901,#1902))
REPRESENTATION_CONTEXT('','3D')
);
#1898=(
GEOMETRIC_REPRESENTATION_CONTEXT(3)
GLOBAL_UNCERTAINTY_ASSIGNED_CONTEXT((#1896))
GLOBAL_UNIT_ASSIGNED_CONTEXT((#1899,#1901,#1902))
REPRESENTATION_CONTEXT('','3D')
);
#1899=(
LENGTH_UNIT()
NAMED_UNIT(*)
SI_UNIT(.MILLI.,.METRE.)
);
#1900=(
LENGTH_UNIT()
NAMED_UNIT(*)
SI_UNIT(.CENTI.,.METRE.)
);
#1901=(
NAMED_UNIT(*)
PLANE_ANGLE_UNIT()
SI_UNIT($,.RADIAN.)
);
#1902=(
NAMED_UNIT(*)
SI_UNIT($,.STERADIAN.)
SOLID_ANGLE_UNIT()
);
#1903=SHAPE_DEFINITION_REPRESENTATION(#1904,#1905);
#1904=PRODUCT_DEFINITION_SHAPE('',$,#1907);
#1905=SHAPE_REPRESENTATION('',(#1191),#1897);
#1906=PRODUCT_DEFINITION_CONTEXT('part definition',#1911,'design');
#1907=PRODUCT_DEFINITION('\X2\04340435043B04300442044C\X0\ \X2\043404350440043604380442\X0\ 
\X2\0430043A043A0443043C\X0\','\X2\04340435043B04300442044C\X0\ \X2\043404350440043604380442\X0\ 
\X2\0430043A043A0443043C\X0\',#1908,#1906);
#1908=PRODUCT_DEFINITION_FORMATION('',$,#1913);
#1909=PRODUCT_RELATED_PRODUCT_CATEGORY(
'\X2\04340435043B04300442044C\X0\ \X2\043404350440043604380442\X0\ \X2\0430043A043A0443043C\X0\',
'\X2\04340435043B04300442044C\X0\ \X2\043404350440043604380442\X0\ \X2\0430043A043A0443043C\X0\',
(#1913));
#1910=APPLICATION_PROTOCOL_DEFINITION('international standard',
'automotive_design',2009,#1911);
#1911=APPLICATION_CONTEXT(
'Core Data for Automotive Mechanical Design Process');
#1912=PRODUCT_CONTEXT('part definition',#1911,'mechanical');
#1913=PRODUCT('\X2\04340435043B04300442044C\X0\ \X2\043404350440043604380442\X0\ 
\X2\0430043A043A0443043C\X0\','\X2\04340435043B04300442044C\X0\ \X2\043404350440043604380442\X0\ 
\X2\0430043A043A0443043C\X0\',$,(#1912));
#1914=PRESENTATION_STYLE_ASSIGNMENT((#1916));
#1915=PRESENTATION_STYLE_ASSIGNMENT((#1917));
#1916=SURFACE_STYLE_USAGE(.BOTH.,#1920);
#1917=SURFACE_STYLE_USAGE(.BOTH.,#1921);
#1918=SURFACE_STYLE_RENDERING_WITH_PROPERTIES($,#1928,(#1919));
#1919=SURFACE_STYLE_TRANSPARENT(0.);
#1920=SURFACE_SIDE_STYLE('',(#1922,#1918));
#1921=SURFACE_SIDE_STYLE('',(#1923));
#1922=SURFACE_STYLE_FILL_AREA(#1924);
#1923=SURFACE_STYLE_FILL_AREA(#1925);
#1924=FILL_AREA_STYLE('',(#1926));
#1925=FILL_AREA_STYLE('',(#1927));
#1926=FILL_AREA_STYLE_COLOUR('',#1928);
#1927=FILL_AREA_STYLE_COLOUR('',#1929);
#1928=COLOUR_RGB('',0.749019607843137,0.749019607843137,0.749019607843137);
#1929=COLOUR_RGB('',1.,1.,0.);
ENDSEC;
END-ISO-10303-21;
